<?xml version="1.0" encoding="UTF-8" standalone="no"?>
<!-- Created with Inkscape (http://www.inkscape.org/) -->

<svg
   xmlns:dc="http://purl.org/dc/elements/1.1/"
   xmlns:cc="http://creativecommons.org/ns#"
   xmlns:rdf="http://www.w3.org/1999/02/22-rdf-syntax-ns#"
   xmlns:svg="http://www.w3.org/2000/svg"
   xmlns="http://www.w3.org/2000/svg"
   xmlns:sodipodi="http://sodipodi.sourceforge.net/DTD/sodipodi-0.dtd"
   xmlns:inkscape="http://www.inkscape.org/namespaces/inkscape"
   width="32"
   height="32"
   viewBox="0 0 31.999999 31.999998"
   id="svg4688"
   version="1.1"
   inkscape:version="0.91 r13725"
   sodipodi:docname="door.svg">
  <defs
     id="defs4690" />
  <sodipodi:namedview
     id="base"
     pagecolor="#ffffff"
     bordercolor="#666666"
     borderopacity="1.0"
     inkscape:pageopacity="0.0"
     inkscape:pageshadow="2"
     inkscape:zoom="15.839192"
     inkscape:cx="34.084675"
     inkscape:cy="8.1628274"
     inkscape:document-units="px"
     inkscape:current-layer="layer1"
     showgrid="true"
     inkscape:window-width="1920"
     inkscape:window-height="1017"
     inkscape:window-x="-8"
     inkscape:window-y="-8"
     inkscape:window-maximized="1"
     units="px">
    <inkscape:grid
       type="xygrid"
       id="grid4278"
       spacingx="0.29999999"
       spacingy="0.19999999" />
  </sodipodi:namedview>
  <metadata
     id="metadata4693">
    <rdf:RDF>
      <cc:Work
         rdf:about="">
        <dc:format>image/svg+xml</dc:format>
        <dc:type
           rdf:resource="http://purl.org/dc/dcmitype/StillImage" />
        <dc:title></dc:title>
      </cc:Work>
    </rdf:RDF>
  </metadata>
  <g
     inkscape:label="Camada 1"
     inkscape:groupmode="layer"
     id="layer1"
     transform="translate(0,-1020.3622)">
    <path
       style="fill:#000000;fill-opacity:1;stroke:#000000;stroke-width:0.32110947;stroke-miterlimit:4;stroke-dasharray:none;stroke-opacity:1"
       d="m 5.5158297,1024.8912 20.2716583,-0.046 c 0.27366,-4e-4 2.54222,1.3077 2.54495,1.573 l 0.26418,25.5853 c 0.003,0.2652 -0.22031,0.4788 -0.49396,0.4788 l -24.0518083,0 c -0.27366,0 -0.49397,-0.2136 -0.49397,-0.4788 l 0,-24.5611 c 0,-0.2652 1.6853,-2.55 1.95895,-2.5506 z"
       id="rect4502"
       inkscape:connector-curvature="0"
       sodipodi:nodetypes="sssssssss" />
    <g
       id="g4208"
       transform="matrix(0.03737877,0,0,0.06415817,4.3405097,1025.3027)">
      <title
         id="title4210">Layer 1</title>
      <path
         d="m 315.409,423.349 0,-429.825035 c 0,-1.542543 -201.40068,-2.8108119 -216.918707,0.2705672 L 36.458746,6.111995 c -4.241055,0.8421366 -40.54191,30.50472 -40.54191,35.5426 l 0,287.363345 0,90.07779 c 0,5.68198 0.804089,4.25327 6.611209,4.25327 l 43.309155,0 269.5718,0"
         id="path3"
         inkscape:connector-curvature="0"
         style="fill:#a57b56;stroke:#000000;stroke-width:5.7752862;stroke-miterlimit:4;stroke-dasharray:none;stroke-opacity:1"
         sodipodi:nodetypes="csssscsscc" />
      <path
         d="M 42.325023,10.084575 C 41.028022,74.810575 51.741001,127.886 85.938003,183.14 114.464,128.737 119.614,60.661998 126.22001,0.64999 c -6.73401,-1.885 -4.785,7.773 -5.132,12.293 -0.532,6.921 -1.218,13.825999 -1.99,20.723998 -1.532,13.695004 -3.45201,27.305 -5.83301,40.877003 C 108.382,102.37899 101.218,128.75398 85.938011,152.704 68.910011,135.064 59.102001,106.57499 54.181999,83.038002 50.93,67.482002 48.419998,52.228001 46.333,36.470989 45.380001,29.281 48.25901,8.7525749 41.276012,10.084575"
         id="path5"
         inkscape:connector-curvature="0"
         style="fill:#663100"
         sodipodi:nodetypes="cccccscccc" />
      <path
         d="m 48.938999,0.649 c 1.945,44.940001 8.018002,93.585001 35.806004,130.273 C 113.778,98.991989 114.31,41.240002 116.97,0.828 112.647,1.171 113.991,20.573 113.611,25.830999 112.787,37.206001 111.42,48.443 109.607,59.7 105.952,82.390998 98.857002,102.766 85.343002,121.374 70.351997,109.844 63.490001,85.285003 59.674999,67.679 57.854999,59.285998 53.388011,7.9053201 49.98801,7.1813201"
         id="path7"
         inkscape:connector-curvature="0"
         style="fill:#663100"
         sodipodi:nodetypes="cccccccc" />
      <path
         d="M 56.801031,10.990388 C 59.035032,50.139389 63.423999,78.194 85.342003,111.23 96.811997,100.536 101.112,79.788002 103.912,65.049003 107.967,43.708999 110.3,22.457 112.195,0.828999 c -0.955,-0.06 -1.909,-0.12 -2.864,-0.179 C 110.555,36.449 101,71.623 85.341004,103.472 74.841004,88.351996 68.983002,70.178 63.837002,52.712001 61.75,45.624999 56.990002,9.093947 53.654,8.812947"
         id="path9"
         inkscape:connector-curvature="0"
         style="fill:#663100"
         sodipodi:nodetypes="cccccccc" />
      <path
         d="M 66.066002,0.649 C 64.764,25.040001 73.630997,48.271 84.745003,69.456001 93.526001,47.497001 99.471001,24.35 99.782997,0.649 c -11.238998,0 -22.477997,0 -33.716995,0"
         id="path11"
         inkscape:connector-curvature="0"
         style="fill:#663100" />
      <path
         d="m 28.896474,13.814918 c 2.860003,42.705998 8.021525,72.05008 17.751525,113.848082 2.878002,12.367 6.094002,24.467 9.612,36.669 2.347,8.13899 8.396,15.345 11.678005,23.306 8.489998,20.59599 13.672997,41.73399 18.000999,63.53301 C 88.834999,209.272 106.405,173.16901 116.255,133.071 c 5.297,-21.563 9.666,-43.486 12.47001,-65.517998 1.61499,-12.687 2.82699,-25.263 3.82199,-38.016991 0.48201,-6.177 -1.844,-29.070001 3.52099,-28.708001 -1.528,31.790001 -3.129,63.889 -7.82699,95.401002 -2.415,16.199998 -4.396,32.731998 -8.751,48.552998 -4.289,15.582 -10.97,30.071 -15.211,45.665 C 85.646003,258.953 90.958,331.362 90.528999,401.56302 c -0.038,6.16299 -0.075,12.32599 -0.112999,18.48898 -11.781998,3.06302 -6.828003,-22.957 -6.947998,-30.07599 C 83.057998,365.629 82.649002,341.284 82.238998,316.93799 81.768997,289.02002 83.224998,261.14401 75.887001,233.98 67.614998,203.35701 54.131,174.68001 46.012001,144.00999 38.176998,114.414 32.009998,83.472 29.59,52.916999 c -1.386,-17.507 -3.722525,-16.353806 -4.214526,-33.909806 -7.77397,20.706169 10.356102,7.268187 9.455101,7.125187"
         id="path13"
         inkscape:connector-curvature="0"
         style="fill:#663100"
         sodipodi:nodetypes="cccccscccssccccsssccc" />
      <path
         d="M 68.036003,420.353 C 70.799003,353.034 65.681999,285.77298 52.595001,219.748 46.567001,189.334 29.34,163.21899 22.458999,133.115 14.836,99.768997 11.659999,66.472999 10.385,32.349998 9.991,21.812999 10.484,40.961202 10.568,30.417202 4.4,29.966202 10.246032,33.868776 10.326032,38.905777 10.444032,46.261776 7.541,33.300999 7.966,40.646 8.983,58.237 10.713,75.679001 12.791,93.174004 16.503999,124.43 25.028999,152.91901 35.528999,182.244 59.2,248.351 58.266998,316.06299 61.189998,385.396 61.443,391.37701 58.075,423.70001 68.036002,420.353"
         id="path15"
         inkscape:connector-curvature="0"
         style="fill:#663100"
         sodipodi:nodetypes="csccccccscc" />
      <path
         d="M 55.444,420.05301 C 56.426998,371.30502 54.009998,322.00101 48.477001,273.57202 45.785,250.00601 42.925998,226.16701 36.708999,203.23501 33.198001,190.28601 29.997999,178.337 24.448999,166.175 18.476999,153.08501 12.317,145.72001 2.391,135.10101 c -0.146,4.571 -1.13,10.558 0.895,13.308 3.491,4.73799 10.016,7.99899 13.829999,13.666 6.988001,10.386 10.122002,23.368 13.586,35.231 7.459,25.54599 10.212002,52.172 13.414001,78.49901 2.821999,23.207 4.695,46.98499 5.256001,70.344 0.354,14.71499 0.706997,29.431 1.060997,44.14599 0.128002,5.35098 -3.139999,32.15598 5.011002,29.758"
         id="path17"
         inkscape:connector-curvature="0"
         style="fill:#663100" />
      <path
         d="m 0.84,162.55099 c 16.837999,5.83301 23.555,36.236 27.332001,51.202 5.292999,20.97501 8.640999,42.698 10.816998,64.20099 4.781002,47.229 5.662003,94.673 7.564003,142.099 -5.228001,0.44202 -3.369003,-16.44498 -3.569,-20.53699 -0.803001,-16.46301 -1.607002,-32.92599 -2.41,-49.39001 -1.048,-21.473 -1.792,-42.97199 -3.703003,-64.38999 -2.032997,-22.776 -6.053999,-45.205 -11.996998,-67.26899 -2.826,-10.49001 -7.060001,-20.13201 -12.505,-29.48101 -2.916,-5.005 -6.813001,-8.444 -10.967,-12.516 -2.103,-2.06198 -0.477,-10.99599 -0.562,-13.91899"
         id="path19"
         inkscape:connector-curvature="0"
         style="fill:#663100" />
      <path
         d="m 32.050999,420.05301 c 4.221001,-36.77701 3.299,-73.87702 1.611,-110.758 -1.486,-32.44699 -1.146,-89.07802 -32.761999,-107.35701 -2.631,8.788 7.084,12.692 11.48,20.353 4.769,8.312 7.081,17.69701 9.707999,26.83299 5.476,19.04502 6.418001,39.82202 7.573,59.495 1.086,18.49801 0.460001,36.91302 -0.394999,55.42001 -0.664001,14.36401 1.743,45.00699 -9.150002,56.01498 3.978001,-9.7e-4 7.956001,-9.7e-4 11.934999,-9.7e-4"
         id="path21"
         inkscape:connector-curvature="0"
         style="fill:#663100" />
      <path
         d="m 0.84,229.627 c 19.313999,22.854 18.063999,64.73201 18.759001,92.77901 C 20.313,351.22501 23.754,384.15701 11.932,411.255 9.215,417.48401 0.311,426.034 0.899,414.08701 1.205,407.85599 6.268,399.97 7.816,393.74799 11.576,378.63901 15.015,362.681 15.228,347.035 15.707,311.806 10.517001,279.996 1.001,246.16499 -0.367,241.295 0.988,234.67 0.84,229.627"
         id="path23"
         inkscape:connector-curvature="0"
         style="fill:#663100" />
      <path
         d="M 1.377,148.229 C 1.218,128.237 1.059,108.246 0.9,88.253998 1.563,111.752 6.553,135.22 17.013,156.284 13.708999,151.311 7.743999,145.862 1.376999,148.229"
         id="path25"
         inkscape:connector-curvature="0"
         style="fill:#663100" />
      <path
         d="m 0.84,282.5 c 8.351,31.91501 8.551,65.806 0.06,97.569 0,-32.466 0.814,-65.21899 -0.06,-97.569"
         id="path27"
         inkscape:connector-curvature="0"
         style="fill:#663100" />
      <path
         d="m 99.306,420.05301 c 0.125,-31.92001 -0.505997,-63.832 0.035,-95.75299 0.560997,-33.07001 -0.75,-68.01801 6.152,-100.49301 6.235,-29.334 21.835,-56.11701 26.694,-86.19999 5.04001,-31.2 7.39801,-63.266001 9.931,-94.749999 1.126,-13.993002 2.195,-28.012001 1.11,-42.028001 0.935,0 1.869,0 2.804,0 -1.748,62.487001 -5.69499,124.132 -21.035,184.81701 -3.334,13.18798 -10.427,26.86599 -12.11399,40.013 -2.07701,16.18699 -3.50301,32.401 -4.82,48.66497 -2.63101,32.48902 -3.04401,65.18403 -2.86201,97.76001 0.089,15.94101 0.655,31.85801 1.147,47.792 -2.164,0.056 -4.93699,0.64099 -7.042003,0.177"
         id="path29"
         inkscape:connector-curvature="0"
         style="fill:#663100" />
      <path
         d="m 111.838,419.87601 c 1.088,-62.513 -4.792,-129.345 9.872,-190.629 3.302,-13.802 10.857,-26.515 14.083,-39.791 3.66701,-15.097 7.041,-30.25099 9.981,-45.508 6.482,-33.635 4.08699,-68.557004 4.383,-102.645001 0.085,-9.869999 0.171,-19.740999 0.25599,-29.610999 0.003,-0.365 -0.42599,-14.896 2.66102,-11.042 1.43699,1.793 0,10.676 0,12.855 0,11.151999 0,22.304999 0,33.457 0,33.011997 1.76199,65.73201 -3.67,98.345 -2.51801,15.11599 -4.93502,30.664 -9.817,45.23301 -4.68901,13.99401 -10.623,26.922 -13.82601,41.478 -6.303,28.644 -4.783,59.825 -5.804,88.976 -0.812,23.173 -1.624,46.34601 -2.43599,69.51898 -0.18101,5.17499 3.00599,32.19 -5.68301,29.36301"
         id="path31"
         inkscape:connector-curvature="0"
         style="fill:#663100" />
      <path
         d="m 202.30701,253.856 c -1.61701,-11.254 -3.957,-22.119 -8.234,-32.703 -4.073,-10.08 -11.24299,-18.759 -15.12401,-28.76 -8.388,-21.61399 -12.526,-45.346 -15.13299,-68.333 -2.37801,29.518 -13.38699,59.38501 -24.54401,86.65001 -12.10399,29.57798 -11.67899,66.929 -13.59099,98.46598 -1.985,32.72 -2.873,65.53601 -3.01,98.31403 -0.016,3.67999 -0.03,7.358 -0.03,11.03799 0,2.45499 3.669,2.20401 3.768,-0.66501 0.383,-11.21398 0.767,-22.428 1.15,-33.64199 0.584,-17.06501 1.513,-34.10501 2.404,-51.15799 1.7,-32.53302 4.47901,-65.457 10.133,-97.56002 4.93899,-28.04998 19.927,-54.32098 21.931,-82.80099 2.819,21.425 10.078,39 20.31801,57.67799 11.72799,21.39 16.47999,40.85802 17.88099,64.94202 1.40599,24.18399 1.45101,48.86398 -0.843,72.99701 -2.354,24.771 -11.047,47.41498 -13.188,72.03097 6.59401,1.508 4.89,-14.39599 5.321,-19.14398 0.492,-5.419 2.764,-11.18899 3.871,-16.543 2.95199,-14.267 5.177,-28.70801 6.623,-43.20602 2.922,-29.28201 2.30699,-58.29401 0.297,-87.601"
         id="path33"
         inkscape:connector-curvature="0"
         style="fill:#663100" />
      <path
         d="m 136.067,419.87601 c -1.22501,-38.19199 -3.211,-76.79401 -0.103,-114.93201 2.836,-34.79898 3.96399,-81.994 25.166,-111.063 30.30401,26.141 34.45,70.48301 33.78,107.66801 -0.35501,19.71799 -1.207,39.58499 -3.46499,59.185 -1.194,10.367 -2.68702,20.68301 -6.013,30.59198 -2.20002,6.556 -0.95101,30.08102 -8.18801,29.026 3.653,-35.073 12.248,-68.55798 13.69699,-104.035 C 192.509,277.922 184.25,242.157 162.02499,210.888 147.075,241.963 142.64799,278.91 140.98,312.94 c -0.874,17.82901 -1.81501,35.646 -2.441,53.48499 -0.598,17.043 -3.024,36.759 1.226,53.45001 -1.232,10e-4 -2.465,10e-4 -3.698,10e-4"
         id="path35"
         inkscape:connector-curvature="0"
         style="fill:#663100" />
      <path
         d="m 162.92,138.382 c -0.496,-45.910999 -0.99401,-91.821991 -1.491,-137.733 6.021,-0.853 3.21001,14.333 3.242,18.643 0.12101,16.264999 0.24199,32.531002 0.364,48.795998 0.189,25.520004 0.37999,51.040002 0.57,76.560002 -0.889,-2.07599 -1.93,-4.137 -2.685,-6.266"
         id="path37"
         inkscape:connector-curvature="0"
         style="fill:#663100" />
      <path
         d="m 177.959,0.649 c 0,31.739 0.215,63.489 1.14999,95.214998 C 179.987,125.616 177.102,161.297 189.84,188.735 c 26.651,57.40801 23.08101,125.56499 16.914,187.174 -1.496,14.94098 -4.812,29.40298 -8.327,43.966 18.254,2.53998 15.63001,-166.79401 11.578,-186.071 -2.85,-13.556 -8.34899,-27.966 -13.488,-40.81801 -4.78101,-11.95601 -6.527,-24.50101 -8.295,-37.298 -4.638,-33.585 -3.071,-68.349993 -3.828,-102.160002 -0.291,-13.007 -0.582,-26.013998 -0.874,-39.019999 -0.111,-4.99699 2.806,-16.69899 -5.561,-13.85899"
         id="path39"
         inkscape:connector-curvature="0"
         style="fill:#663100" />
      <path
         d="m 197.951,0.829 c 0.751,64.991999 -3.5,131.08502 9.495,195.06799 6.127,30.16501 10.56599,59.179 11.36301,90.12401 0.78299,30.457 -1.239,61.569 -4.24501,91.876 -1.40799,14.198 -2.995,28.23499 -7.364,41.85801 7.738,2.37899 9.813,-30.34702 10.55501,-36.52301 1.96899,-16.39499 3.50698,-32.76401 4.29699,-49.26102 1.649,-34.46298 0.15,-68.52799 -2.623,-102.88699 -2.23601,-27.719 -7.74299,-55.116 -10.131,-82.80201 -2.824,-32.74899 -4.84001,-65.532987 -6.41799,-98.363988 -0.405,-8.418003 -0.64501,-16.854 -0.87001,-25.279001 -0.15,-5.606991 2.88,-24.72199 -4.05899,-23.80999"
         id="path41"
         inkscape:connector-curvature="0"
         style="fill:#663100" />
      <path
         d="m 229.102,0.829 c 0.19201,66.266001 -0.82399,132.48399 0.76,198.746 1.528,63.92799 7.98199,129.14 -0.031,192.882 -1.18798,9.44901 -2.94999,18.069 -5.32498,27.298 10.40698,0.15601 8.33499,-2.677 8.793,-12.30999 0.385,-8.086 0.795,-16.17499 1.07401,-24.26599 0.56399,-16.34302 1.11898,-32.68503 1.35099,-49.03601 0.491,-34.736 0.402,-69.439 -0.24,-104.17299 C 234.13301,156.90701 234.296,83.788002 233.716,10.71401 233.67999,6.299 236.007,-1.278 229.10201,0.829"
         id="path43"
         inkscape:connector-curvature="0"
         style="fill:#663100" />
      <path
         d="m 259.59601,0.649 c 1.474,31.672999 1.604,63.403002 -0.43799,95.048998 -1.99802,30.961002 -10.11601,61.264012 -11.95001,92.399012 -2.011,34.152 -1.44901,67.691 1.143,101.79001 2.351,30.92697 7.327,61.15198 7.73499,92.32798 0.169,12.884 0.007,25.55401 -2.93399,38.13702 10.05899,0 11.88299,2.172 11.807,-7.888 -0.069,-9.103 -0.294,-18.18899 -0.61801,-27.28601 -0.52798,-14.81299 -1.471,-29.828 -3.432,-44.52399 -4.33698,-32.5 -9.54898,-64.25 -10.89199,-97.104 -1.35,-33.00099 0.54599,-66.211 5.39299,-98.868 4.71402,-31.759 5.94202,-64.077001 7.832,-96.118002 0.51801,-8.785999 1.047,-17.577988 1.33002,-26.374998 C 264.754,16.495001 268.741,-2.075 259.59601,0.649"
         id="path45"
         inkscape:connector-curvature="0"
         style="fill:#663100" />
      <path
         d="m 270.33801,0.649 c 0.007,32.105002 -0.509,64.312998 -3.16299,96.315996 -2.659,32.056004 -9.70401,64.137014 -12.28601,96.492004 -2.508,31.414 -0.76,60.125 6.99099,90.578 7.54599,29.64701 13.73301,59.91699 12.69101,90.642 -0.51699,15.22501 -1.03201,30.45001 -1.54901,45.67499 7.008,1.68701 4.68802,-7.051 4.83402,-11.87598 0.241,-7.99002 0.41598,-15.98001 0.57699,-23.97302 0.29902,-14.836 0.033,-29.647 -0.51699,-44.47598 -0.59201,-15.96601 -1.60901,-31.87702 -3.31101,-47.763 -1.62601,-15.185 -7.009,-29.00501 -9.104,-44.00402 -8.879,-63.561 4.43301,-127.73 7.849,-191.277992 0.40399,-7.500999 4.863,-57.866998 -3.012,-56.332998"
         id="path47"
         inkscape:connector-curvature="0"
         style="fill:#663100" />
      <path
         d="m 147.405,419.87601 c -0.347,-28.31101 -3.094,-55.986 -1.90801,-84.418 1.37001,-32.85999 0.97301,-69.81201 16.52901,-99.504 18.22299,27.655 20.92,62.67599 20.836,94.797 -0.076,29.92199 -12.89799,59.389 -10.095,89.302 -10.97099,0.87799 -7.479,-6.07098 -7.698,-15.517 -0.145,-6.26401 -0.75101,-12.62399 0.029,-18.85501 1.62599,-12.979 7.252,-23.87598 10.444,-36.31299 7.96599,-31.03299 3.07699,-59.983 -12.62201,-87.45599 -11.761,23.427 -15.034,53.97098 -12.888,79.815 0.978,11.76898 3.659,23.698 2.61301,35.509 -1.27901,14.43399 -1.88201,27.91599 -1.541,42.63999 -1.23201,0 -2.46601,0 -3.69901,0"
         id="path49"
         inkscape:connector-curvature="0"
         style="fill:#663100" />
      <path
         d="m 163.81599,286.97601 c -12.651,21.849 -8.01201,50.88401 -3.58101,74.29599 12.46701,-23.72 12.38302,-49.59799 3.58101,-74.29599"
         id="path51"
         inkscape:connector-curvature="0"
         style="fill:#663100" />
      <path
         d="M 156.655,420.05301 C 156.6,407.625 155.498,392.896 159.341,380.965 c -0.03,6.41799 2.54599,39.08898 -2.686,39.08801"
         id="path53"
         inkscape:connector-curvature="0"
         style="fill:#663100" />
      <path
         d="m 288.06201,0.649 c 0,31.525 1.27399,64.292002 -2.98501,95.586001 -1.82599,13.408999 -7.80399,26.615999 -11.31699,39.732999 -4.08099,15.234 -5.987,30.929 -6.65799,46.644 -1.12601,26.40401 -0.85501,61.966 9.26599,86.64099 11.603,28.28601 10.909,55.345 11.496,85.49201 0.41101,21.08599 0.82199,42.17199 1.232,63.259 0.033,1.685 1.10299,4.00299 3.44201,2.04901 1.04499,-0.87201 0.10499,-9.58902 0.11399,-10.75501 0.057,-7.99899 0.074,-15.99801 0.10501,-23.997 0.11999,-30.35001 0.91897,-61.034 -2.702,-91.194 -3.68301,-30.67499 -17.64901,-57.476 -17.27301,-89.19101 0.36801,-31.027 9.51999,-59.513 15.46201,-89.665 7.29098,-36.986998 3.229,-77.058 3.57699,-114.601 C 290.56799,0.649 289.315,0.649 288.06201,0.649"
         id="path55"
         inkscape:connector-curvature="0"
         style="fill:#663100" />
      <path
         d="m 296.29599,121.375 c -9.36801,24.022 -16.25201,49.104 -18.199,74.851 -1.61899,21.41301 4.811,55.04201 20.88501,70.162 12.34399,-47.134 17.30401,-99.62399 -2.68601,-145.013"
         id="path57"
         inkscape:connector-curvature="0"
         style="fill:#663100" />
      <path
         d="m 297.31299,0.829 c -0.006,27.143 0.32599,54.296999 1.26199,81.422999 0.41501,12.023003 0.181,24.874001 4.228,36.258001 4.173,11.738 9.65002,22.906 9.728,35.68701 -0.097,-11.875 2.18002,-26.63801 -1.016,-37.89401 -2.346,-8.266 -6.053,-14.39001 -6.46099,-23.408011 -0.822,-18.187996 -1.64499,-36.375 -2.46701,-54.563 C 302.34,32.873001 304.22199,-0.716 297.31299,0.829"
         id="path59"
         inkscape:connector-curvature="0"
         style="fill:#663100" />
      <path
         d="m 312.53,230.881 c -13.56699,60.46501 -15.61499,122.89601 -14.51999,184.809 0.049,2.788 2.58298,7.11301 2.58298,2.724 0,-3.53201 -0.016,-7.06299 0,-10.595 0.038,-8.62399 0.20001,-17.241 0.38601,-25.862 0.32001,-14.85901 0.642,-29.80899 1.79999,-44.63 1.275,-16.32901 1.983,-33.25199 5.92902,-49.21799 4.38598,-17.746 3.62298,-35.01702 3.789,-53.48401 0.01,-1.24899 0.022,-2.496 0.033,-3.744"
         id="path61"
         inkscape:connector-curvature="0"
         style="fill:#663100" />
      <path
         d="m 304.17401,420.17401 c 0.018,-28.94699 -3.20999,-65.79999 8.35501,-92.91699 -0.195,16.13898 -0.14102,32.12799 -1.70102,48.18899 -0.82299,8.469 -1.531,16.94999 -2.30499,25.42399 -0.41202,4.52301 0.40597,19.466 -4.349,19.30401"
         id="path63"
         inkscape:connector-curvature="0"
         style="fill:#663100" />
      <path
         d="m 307.93301,0.649 c 0.015,26.567999 -3.14599,58.378 4.47599,84.023996 -0.033,-15.504997 -0.066,-31.009998 -0.1,-46.515995 -0.012,-5.701 3.86597,-39.556002 -4.37601,-37.508001"
         id="path65"
         inkscape:connector-curvature="0"
         style="fill:#663100" />
      <path
         d="m 46.492001,128.118 c 9.152,41.31199 31.204998,77.32901 39.446003,119.17199 2.653999,-22.59601 6.621994,-45.19 13.778999,-66.813 6.862997,-20.732 14.859997,-39.875 19.639997,-61.489 -6.609,28.183 -17.106,55.104 -23.691999,83.12801 -7.544998,32.10798 -9.129997,63.05899 -9.129997,95.89898 -1.406006,-28.78399 -2.658005,-57.76499 -10.682007,-85.60398 -8.222,-28.529 -26.460999,-54.06099 -29.360996,-84.293"
         id="path67"
         inkscape:connector-curvature="0"
         style="fill:#663100" />
      <path
         d="M 53.296001,78.765999 C 57.777999,105.421 70.087997,129.35899 85.521003,151.213 101.478,137.138 107.08,106.186 110.773,86.327004 116.01,58.162999 121.234,29.336991 121.864,0.648991 c 0.358,0.06 0.715,0.12 1.073,0.179 -1.729,26.694999 -3.305,55.81101 -10.679,81.626997 -7.294,25.534002 -9.416,50.048992 -26.736997,71.561992 C 65.859,135.479 59.032001,104.016 53.296001,78.766"
         id="path69"
         inkscape:connector-curvature="0"
         style="fill:#663100" />
      <path
         d="M 85.342003,121.375 C 97.851998,106.091 103.619,86.508003 108.198,67.666 c -2.177,16.880997 -8.186,35.847 -18.330004,49.679 -6.662994,9.086 -7.995995,4.233 -12.831993,-4.717 C 71.893997,103.112 67.761001,93.184997 63.679001,83.180999 68.442001,95.401 74.280998,113.506 85.342003,121.375"
         id="path71"
         inkscape:connector-curvature="0"
         style="fill:#663100" />
      <path
         d="M 85.342003,103.472 C 95.616997,86.810997 101.852,68.579002 105.035,49.346001 102.647,69.736 95.223999,88.351998 84.745003,105.86 c -9.07,-14.844001 -15.107002,-31.412002 -19.514,-48.159999 5.089996,15.880001 11.500999,31.461002 20.111,45.771999"
         id="path73"
         inkscape:connector-curvature="0"
         style="fill:#663100" />
      <path
         d="m 66.066002,0.649 c -0.016,24.538 6.145996,47.779001 18.679001,68.807001 C 87.626999,64.129997 74.882004,45.528 72.739998,38.819999 c -3.956001,-12.393 -5.362999,-25.289 -6.673996,-38.171"
         id="path75"
         inkscape:connector-curvature="0"
         style="fill:#663100" />
      <path
         d="m 84.745003,69.456001 c 5.870995,-13.333 11.406998,-27.708 12.352997,-42.370001 -0.603996,6.949999 -2.254997,13.705 -4.296997,20.359999 -1.902,6.201 -9.139999,15.864002 -8.056,22.010002"
         id="path77"
         inkscape:connector-curvature="0"
         style="fill:#663100" />
      <path
         d="m 131.88901,135.69701 c -1.89701,17.039 -5.73,33.985 -11.976,49.96 -5.616,14.366 -14.261,28.754 -16.071,44.32898 5.95499,-32.49798 22.25199,-61.42898 28.047,-94.28898"
         id="path79"
         inkscape:connector-curvature="0"
         style="fill:#663100" />
      <path
         d="m 145.615,147.632 c -3.17799,13.706 -4.40499,30.31 -10.41299,43.026 -5.50301,11.646 -11.857,24.64101 -13.457,37.53701 1.99,-11.42401 4.494,-25.11602 10.852,-34.98801 7.88099,-12.23601 9.30899,-31.521 13.01799,-45.575"
         id="path81"
         inkscape:connector-curvature="0"
         style="fill:#663100" />
      <path
         d="m 162.325,134.86099 c -3.357,17.959 -7.555,35.95 -13.463,53.246 -5.604,16.4 -15.302,31.14901 -15.95799,49.04 5.614,-35.16399 25.79699,-66.75299 29.42099,-102.286"
         id="path83"
         inkscape:connector-curvature="0"
         style="fill:#663100" />
      <path
         d="m 146.39101,231.537 c 2.16101,-7.78599 7.979,-37.237 17.66301,-33.95601 12.25799,4.15401 20.24899,31.793 23.75199,42.36901 -3.16101,-14.532 -9.546,-33.08699 -21.89199,-42.444 -7.39601,-5.605 -8.85401,1.00599 -12.24401,8.60901 -3.61502,8.11 -5.51201,16.96398 -7.279,25.42199"
         id="path85"
         inkscape:connector-curvature="0"
         style="fill:#663100" />
      <path
         d="m 167.87399,147.99 c 2.18801,19.133 6.269,39.321 17.54599,55.32001 C 174.18899,188.11 171.194,166.1 167.87399,147.99"
         id="path87"
         inkscape:connector-curvature="0"
         style="fill:#663100" />
      <path
         d="m 189.35699,161.537 c 0.69001,27.924 18.39,50.63001 21.126,78.414 -3.48099,-27.48401 -17.95999,-51.122 -21.126,-78.414"
         id="path89"
         inkscape:connector-curvature="0"
         style="fill:#663100" />
      <path
         d="m 162.026,235.894 c 9.537,15.434 14.457,32.929 17.78301,50.60499 -2.582,-16.945 -8.98101,-32.961 -17.48401,-47.74099 -7.153,12.44 -9.596,27.88998 -12.35401,41.77298 C 151.949,266.14099 153.513,248.133 162.026,235.894"
         id="path91"
         inkscape:connector-curvature="0"
         style="fill:#663100" />
      <path
         d="m 163.81599,286.97601 c 4.707,8.79999 7.575,19.34699 6.862,29.35999 -0.17401,-9.40698 -2.268,-18.98999 -7.16101,-27.09299 -1.86599,4.26499 -3.70199,8.58899 -4.77299,13.129 0.80501,-5.21802 1.81901,-11.125 5.072,-15.396"
         id="path93"
         inkscape:connector-curvature="0"
         style="fill:#663100" />
      <path
         d="m 207.082,115.407 c 1.729,49.362 13.496,97.468 14.91901,146.80299 C 219.22099,212.84801 211.42,164.58299 207.082,115.407"
         id="path95"
         inkscape:connector-curvature="0"
         style="fill:#663100" />
      <path
         d="m 257.20801,111.827 c -5.435,30.94599 -9.864,62.257 -10.741,93.69101 -0.35101,-31.515 4.021,-62.98101 10.741,-93.69101"
         id="path97"
         inkscape:connector-curvature="0"
         style="fill:#663100" />
      <path
         d="m 265.565,108.842 c -5.98801,33.167 -10.66701,66.552 -11.93699,100.25601 C 255.91701,175.577 260.909,142.099 265.565,108.842"
         id="path99"
         inkscape:connector-curvature="0"
         style="fill:#663100" />
      <path
         d="M 287.64301,65.875999 C 287.832,109.783 267.10998,149.662 267.35501,194.17999 268.297,172.184 270.043,149.485 274.948,127.981 c 4.755,-20.847 12.47101,-40.428999 12.695,-62.105001"
         id="path101"
         inkscape:connector-curvature="0"
         style="fill:#663100" />
      <path
         d="m 296.29599,121.375 c -7.58801,18.202 -12.77899,37.231 -15.81299,56.692 4.469,-15.83701 7.84198,-34.33301 15.51599,-48.93401 11.96601,12.30401 12.43201,35.388 13.72501,51.321 -2.095,-16.625 -1.83399,-46.08 -13.42801,-59.07899"
         id="path103"
         inkscape:connector-curvature="0"
         style="fill:#663100" />
      <path
         d="m 304.95099,91.537003 c -2.07199,8.368996 1.513,16.692997 6.56299,23.272997 -4.37897,-6.887 -6.43097,-15.17 -6.56299,-23.272997"
         id="path105"
         inkscape:connector-curvature="0"
         style="fill:#663100" />
      <path
         d="m 0.84,229.627 c 8.605,8.013 11.269,24.612 13.075,35.63801 2.793,17.04499 4.450999,34.03598 5.782001,51.25098 -0.785,-28.39499 0.364,-68.004 -19.096,-90.70799 -0.074,-0.803 0.449,4.899 0.239,3.819"
         id="path107"
         inkscape:connector-curvature="0"
         style="fill:#663100" />
      <path
         d="m 0.84,201.938 c 21.867001,6.891 25.917,44.14701 29.003,62.65999 -1.539,-24.14 -6.864,-52.83198 -29.838,-65.04698 -0.084,-0.20801 0.976,2.74199 0.835,2.38699"
         id="path109"
         inkscape:connector-curvature="0"
         style="fill:#663100" />
      <path
         d="m 0.84,162.55099 c 27.240999,14.92301 31.035999,65.004 34.970001,91.90101 -3.59,-33.23799 -9.329,-72.157 -34.612001,-96.07801 -0.064,1.35501 -0.434,2.93601 -0.358,4.177"
         id="path111"
         inkscape:connector-curvature="0"
         style="fill:#663100" />
      <path
         d="m 7.703,153.00301 c -4.022,-7.038 -5.576,-15.19001 -6.624,-23.155 0.041,7.444 -4.4,24.39499 6.624,23.155"
         id="path113"
         inkscape:connector-curvature="0"
         style="fill:#663100" />
      <path
         d="m 2.332,104.367 c 2.355,14.861 4.011,29.37999 12.055,42.31099 C 22.554001,159.808 29.247,173.158 33.125999,188.213 29.509,172.67101 23.827999,157.433 14.309,144.538 6.12,133.442 5.159,117.568 2.332,104.367"
         id="path115"
         inkscape:connector-curvature="0"
         style="fill:#663100" />
      <path
         d="m 176.645,345.159 c -4.596,14.67901 -11.582,28.195 -11.934,43.86099 1.692,-15.28 8.349,-29.00498 11.934,-43.86099"
         id="path117"
         inkscape:connector-curvature="0"
         style="fill:#663100" />
      <path
         d="m 150.985,352.32001 c 1.149,6.95501 2.68401,14.44299 1.78999,21.483 3.47001,-6.21002 0.28,-15.25601 -1.78999,-21.483"
         id="path119"
         inkscape:connector-curvature="0"
         style="fill:#663100" />
      <path
         d="m 186.194,366.047 c -1.66,13.375 -6.716,25.983 -7.758,39.38601 3.166,-12.66101 7.749,-26.251 7.758,-39.38601"
         id="path121"
         inkscape:connector-curvature="0"
         style="fill:#663100" />
      <path
         d="m 198.42799,419.87601 c 4.749,-19.582 8.97499,-39.61701 9.846,-59.797 -2.69899,18.871 -3.562,43.15399 -12.532,60.27301 0.895,-0.15903 1.79102,-0.31702 2.686,-0.47601"
         id="path123"
         inkscape:connector-curvature="0"
         style="fill:#663100" />
      <path
         d="m 207.2,419.755 c 6.126,-22.88998 9.138,-46.763 9.431,-70.41699 -1.609,23.69 -4.403,47.65299 -11.33899,70.41699 0.63499,0 1.27199,0 1.90799,0"
         id="path125"
         inkscape:connector-curvature="0"
         style="fill:#663100" />
      <path
         d="m 224.505,419.755 c 10.21199,-33.346 8.945,-70.583 8.237,-105.02999 0.66102,17.277 0.70101,34.862 -0.84599,52.096 -0.834,9.292 -1.406,18.793 -3.17799,27.96701 C 227.826,399.41299 222.418,419.423 224.505,419.755"
         id="path127"
         inkscape:connector-curvature="0"
         style="fill:#663100" />
      <path
         d="m 312.53,327.25699 c -5.163,15.436 -6.828,31.74499 -7.4,47.92099 0.73301,-16.01798 0.35901,-36.65598 7.577,-51.32199 -0.059,1.13302 -0.11899,2.267 -0.177,3.401"
         id="path129"
         inkscape:connector-curvature="0"
         style="fill:#663100" />
      <path
         d="m 312.53,230.881 c -5.43201,23.153 -9.14401,45.85899 -10.98001,69.52201 C 303.20499,277.10998 312.776,254.104 312.53,230.881"
         id="path131"
         inkscape:connector-curvature="0"
         style="fill:#663100" />
      <path
         d="m 276.06699,238.69701 c 3.875,15.703 11.643,31.16001 12.77099,47.38401 -3.43597,-15.36801 -13.43997,-31.42003 -12.77099,-47.38401"
         id="path133"
         inkscape:connector-curvature="0"
         style="fill:#663100" />
      <path
         d="m 1.139,412.17599 c 9.940001,-15.303 11.788,-35.58099 13.188,-53.29199 -0.58,8.80701 -1.841,17.70401 -3.759,26.319 -1.943,8.73001 -8.78,18.737 -9.429,26.97299"
         id="path135"
         inkscape:connector-curvature="0"
         style="fill:#663100" />
      <path
         d="m 20.115999,420.05301 c 10.538,-12.87399 8.388,-37.65 8.533001,-53.22901 -0.021,13.58802 2.076,44.27301 -10.562,53.11002 0.676001,0.04 1.351999,0.08 2.028999,0.11899"
         id="path137"
         inkscape:connector-curvature="0"
         style="fill:#663100" />
    </g>
    <g
       transform="matrix(-0.03462152,0,0,0.06418229,27.844598,1025.2977)"
       id="g4356">
      <title
         id="title4358">Layer 1</title>
      <path
         sodipodi:nodetypes="csssscsscc"
         style="fill:#a57b56;stroke:#000000;stroke-width:5.7752862;stroke-miterlimit:4;stroke-dasharray:none;stroke-opacity:1"
         inkscape:connector-curvature="0"
         id="path4360"
         d="m 315.409,423.349 0,-429.825035 c 0,-1.542543 -201.40068,-2.8108119 -216.918707,0.2705672 L 36.458746,6.111995 c -4.241055,0.8421366 -40.54191,30.50472 -40.54191,35.5426 l 0,287.363345 0,90.07779 c 0,5.68198 0.804089,4.25327 6.611209,4.25327 l 43.309155,0 269.5718,0" />
      <path
         sodipodi:nodetypes="cccccscccc"
         style="fill:#663100"
         inkscape:connector-curvature="0"
         id="path4362"
         d="M 42.325023,10.084575 C 41.028022,74.810575 51.741001,127.886 85.938003,183.14 114.464,128.737 119.614,60.661998 126.22001,0.64999 c -6.73401,-1.885 -4.785,7.773 -5.132,12.293 -0.532,6.921 -1.218,13.825999 -1.99,20.723998 -1.532,13.695004 -3.45201,27.305 -5.83301,40.877003 C 108.382,102.37899 101.218,128.75398 85.938011,152.704 68.910011,135.064 59.102001,106.57499 54.181999,83.038002 50.93,67.482002 48.419998,52.228001 46.333,36.470989 45.380001,29.281 48.25901,8.7525749 41.276012,10.084575" />
      <path
         sodipodi:nodetypes="cccccccc"
         style="fill:#663100"
         inkscape:connector-curvature="0"
         id="path4364"
         d="m 48.938999,0.649 c 1.945,44.940001 8.018002,93.585001 35.806004,130.273 C 113.778,98.991989 114.31,41.240002 116.97,0.828 112.647,1.171 113.991,20.573 113.611,25.830999 112.787,37.206001 111.42,48.443 109.607,59.7 105.952,82.390998 98.857002,102.766 85.343002,121.374 70.351997,109.844 63.490001,85.285003 59.674999,67.679 57.854999,59.285998 53.388011,7.9053201 49.98801,7.1813201" />
      <path
         sodipodi:nodetypes="cccccccc"
         style="fill:#663100"
         inkscape:connector-curvature="0"
         id="path4366"
         d="M 56.801031,10.990388 C 59.035032,50.139389 63.423999,78.194 85.342003,111.23 96.811997,100.536 101.112,79.788002 103.912,65.049003 107.967,43.708999 110.3,22.457 112.195,0.828999 c -0.955,-0.06 -1.909,-0.12 -2.864,-0.179 C 110.555,36.449 101,71.623 85.341004,103.472 74.841004,88.351996 68.983002,70.178 63.837002,52.712001 61.75,45.624999 56.990002,9.093947 53.654,8.812947" />
      <path
         style="fill:#663100"
         inkscape:connector-curvature="0"
         id="path4368"
         d="M 66.066002,0.649 C 64.764,25.040001 73.630997,48.271 84.745003,69.456001 93.526001,47.497001 99.471001,24.35 99.782997,0.649 c -11.238998,0 -22.477997,0 -33.716995,0" />
      <path
         sodipodi:nodetypes="cccccscccssccccsssccc"
         style="fill:#663100"
         inkscape:connector-curvature="0"
         id="path4370"
         d="m 28.896474,13.814918 c 2.860003,42.705998 8.021525,72.05008 17.751525,113.848082 2.878002,12.367 6.094002,24.467 9.612,36.669 2.347,8.13899 8.396,15.345 11.678005,23.306 8.489998,20.59599 13.672997,41.73399 18.000999,63.53301 C 88.834999,209.272 106.405,173.16901 116.255,133.071 c 5.297,-21.563 9.666,-43.486 12.47001,-65.517998 1.61499,-12.687 2.82699,-25.263 3.82199,-38.016991 0.48201,-6.177 -1.844,-29.070001 3.52099,-28.708001 -1.528,31.790001 -3.129,63.889 -7.82699,95.401002 -2.415,16.199998 -4.396,32.731998 -8.751,48.552998 -4.289,15.582 -10.97,30.071 -15.211,45.665 C 85.646003,258.953 90.958,331.362 90.528999,401.56302 c -0.038,6.16299 -0.075,12.32599 -0.112999,18.48898 -11.781998,3.06302 -6.828003,-22.957 -6.947998,-30.07599 C 83.057998,365.629 82.649002,341.284 82.238998,316.93799 81.768997,289.02002 83.224998,261.14401 75.887001,233.98 67.614998,203.35701 54.131,174.68001 46.012001,144.00999 38.176998,114.414 32.009998,83.472 29.59,52.916999 c -1.386,-17.507 -3.722525,-16.353806 -4.214526,-33.909806 -7.77397,20.706169 10.356102,7.268187 9.455101,7.125187" />
      <path
         sodipodi:nodetypes="csccccccscc"
         style="fill:#663100"
         inkscape:connector-curvature="0"
         id="path4372"
         d="M 68.036003,420.353 C 70.799003,353.034 65.681999,285.77298 52.595001,219.748 46.567001,189.334 29.34,163.21899 22.458999,133.115 14.836,99.768997 11.659999,66.472999 10.385,32.349998 9.991,21.812999 10.484,40.961202 10.568,30.417202 4.4,29.966202 10.246032,33.868776 10.326032,38.905777 10.444032,46.261776 7.541,33.300999 7.966,40.646 8.983,58.237 10.713,75.679001 12.791,93.174004 16.503999,124.43 25.028999,152.91901 35.528999,182.244 59.2,248.351 58.266998,316.06299 61.189998,385.396 61.443,391.37701 58.075,423.70001 68.036002,420.353" />
      <path
         style="fill:#663100"
         inkscape:connector-curvature="0"
         id="path4374"
         d="M 55.444,420.05301 C 56.426998,371.30502 54.009998,322.00101 48.477001,273.57202 45.785,250.00601 42.925998,226.16701 36.708999,203.23501 33.198001,190.28601 29.997999,178.337 24.448999,166.175 18.476999,153.08501 12.317,145.72001 2.391,135.10101 c -0.146,4.571 -1.13,10.558 0.895,13.308 3.491,4.73799 10.016,7.99899 13.829999,13.666 6.988001,10.386 10.122002,23.368 13.586,35.231 7.459,25.54599 10.212002,52.172 13.414001,78.49901 2.821999,23.207 4.695,46.98499 5.256001,70.344 0.354,14.71499 0.706997,29.431 1.060997,44.14599 0.128002,5.35098 -3.139999,32.15598 5.011002,29.758" />
      <path
         style="fill:#663100"
         inkscape:connector-curvature="0"
         id="path4376"
         d="m 0.84,162.55099 c 16.837999,5.83301 23.555,36.236 27.332001,51.202 5.292999,20.97501 8.640999,42.698 10.816998,64.20099 4.781002,47.229 5.662003,94.673 7.564003,142.099 -5.228001,0.44202 -3.369003,-16.44498 -3.569,-20.53699 -0.803001,-16.46301 -1.607002,-32.92599 -2.41,-49.39001 -1.048,-21.473 -1.792,-42.97199 -3.703003,-64.38999 -2.032997,-22.776 -6.053999,-45.205 -11.996998,-67.26899 -2.826,-10.49001 -7.060001,-20.13201 -12.505,-29.48101 -2.916,-5.005 -6.813001,-8.444 -10.967,-12.516 -2.103,-2.06198 -0.477,-10.99599 -0.562,-13.91899" />
      <path
         style="fill:#663100"
         inkscape:connector-curvature="0"
         id="path4378"
         d="m 32.050999,420.05301 c 4.221001,-36.77701 3.299,-73.87702 1.611,-110.758 -1.486,-32.44699 -1.146,-89.07802 -32.761999,-107.35701 -2.631,8.788 7.084,12.692 11.48,20.353 4.769,8.312 7.081,17.69701 9.707999,26.83299 5.476,19.04502 6.418001,39.82202 7.573,59.495 1.086,18.49801 0.460001,36.91302 -0.394999,55.42001 -0.664001,14.36401 1.743,45.00699 -9.150002,56.01498 3.978001,-9.7e-4 7.956001,-9.7e-4 11.934999,-9.7e-4" />
      <path
         style="fill:#663100"
         inkscape:connector-curvature="0"
         id="path4380-9"
         d="m 0.84,229.627 c 19.313999,22.854 18.063999,64.73201 18.759001,92.77901 C 20.313,351.22501 23.754,384.15701 11.932,411.255 9.215,417.48401 0.311,426.034 0.899,414.08701 1.205,407.85599 6.268,399.97 7.816,393.74799 11.576,378.63901 15.015,362.681 15.228,347.035 15.707,311.806 10.517001,279.996 1.001,246.16499 -0.367,241.295 0.988,234.67 0.84,229.627" />
      <path
         style="fill:#663100"
         inkscape:connector-curvature="0"
         id="path4382-1"
         d="M 1.377,148.229 C 1.218,128.237 1.059,108.246 0.9,88.253998 1.563,111.752 6.553,135.22 17.013,156.284 13.708999,151.311 7.743999,145.862 1.376999,148.229" />
      <path
         style="fill:#663100"
         inkscape:connector-curvature="0"
         id="path4384-1"
         d="m 0.84,282.5 c 8.351,31.91501 8.551,65.806 0.06,97.569 0,-32.466 0.814,-65.21899 -0.06,-97.569" />
      <path
         style="fill:#663100"
         inkscape:connector-curvature="0"
         id="path4386-7"
         d="m 99.306,420.05301 c 0.125,-31.92001 -0.505997,-63.832 0.035,-95.75299 0.560997,-33.07001 -0.75,-68.01801 6.152,-100.49301 6.235,-29.334 21.835,-56.11701 26.694,-86.19999 5.04001,-31.2 7.39801,-63.266001 9.931,-94.749999 1.126,-13.993002 2.195,-28.012001 1.11,-42.028001 0.935,0 1.869,0 2.804,0 -1.748,62.487001 -5.69499,124.132 -21.035,184.81701 -3.334,13.18798 -10.427,26.86599 -12.11399,40.013 -2.07701,16.18699 -3.50301,32.401 -4.82,48.66497 -2.63101,32.48902 -3.04401,65.18403 -2.86201,97.76001 0.089,15.94101 0.655,31.85801 1.147,47.792 -2.164,0.056 -4.93699,0.64099 -7.042003,0.177" />
      <path
         style="fill:#663100"
         inkscape:connector-curvature="0"
         id="path4388-0"
         d="m 111.838,419.87601 c 1.088,-62.513 -4.792,-129.345 9.872,-190.629 3.302,-13.802 10.857,-26.515 14.083,-39.791 3.66701,-15.097 7.041,-30.25099 9.981,-45.508 6.482,-33.635 4.08699,-68.557004 4.383,-102.645001 0.085,-9.869999 0.171,-19.740999 0.25599,-29.610999 0.003,-0.365 -0.42599,-14.896 2.66102,-11.042 1.43699,1.793 0,10.676 0,12.855 0,11.151999 0,22.304999 0,33.457 0,33.011997 1.76199,65.73201 -3.67,98.345 -2.51801,15.11599 -4.93502,30.664 -9.817,45.23301 -4.68901,13.99401 -10.623,26.922 -13.82601,41.478 -6.303,28.644 -4.783,59.825 -5.804,88.976 -0.812,23.173 -1.624,46.34601 -2.43599,69.51898 -0.18101,5.17499 3.00599,32.19 -5.68301,29.36301" />
      <path
         style="fill:#663100"
         inkscape:connector-curvature="0"
         id="path4390"
         d="m 202.30701,253.856 c -1.61701,-11.254 -3.957,-22.119 -8.234,-32.703 -4.073,-10.08 -11.24299,-18.759 -15.12401,-28.76 -8.388,-21.61399 -12.526,-45.346 -15.13299,-68.333 -2.37801,29.518 -13.38699,59.38501 -24.54401,86.65001 -12.10399,29.57798 -11.67899,66.929 -13.59099,98.46598 -1.985,32.72 -2.873,65.53601 -3.01,98.31403 -0.016,3.67999 -0.03,7.358 -0.03,11.03799 0,2.45499 3.669,2.20401 3.768,-0.66501 0.383,-11.21398 0.767,-22.428 1.15,-33.64199 0.584,-17.06501 1.513,-34.10501 2.404,-51.15799 1.7,-32.53302 4.47901,-65.457 10.133,-97.56002 4.93899,-28.04998 19.927,-54.32098 21.931,-82.80099 2.819,21.425 10.078,39 20.31801,57.67799 11.72799,21.39 16.47999,40.85802 17.88099,64.94202 1.40599,24.18399 1.45101,48.86398 -0.843,72.99701 -2.354,24.771 -11.047,47.41498 -13.188,72.03097 6.59401,1.508 4.89,-14.39599 5.321,-19.14398 0.492,-5.419 2.764,-11.18899 3.871,-16.543 2.95199,-14.267 5.177,-28.70801 6.623,-43.20602 2.922,-29.28201 2.30699,-58.29401 0.297,-87.601" />
      <path
         style="fill:#663100"
         inkscape:connector-curvature="0"
         id="path4392-7"
         d="m 136.067,419.87601 c -1.22501,-38.19199 -3.211,-76.79401 -0.103,-114.93201 2.836,-34.79898 3.96399,-81.994 25.166,-111.063 30.30401,26.141 34.45,70.48301 33.78,107.66801 -0.35501,19.71799 -1.207,39.58499 -3.46499,59.185 -1.194,10.367 -2.68702,20.68301 -6.013,30.59198 -2.20002,6.556 -0.95101,30.08102 -8.18801,29.026 3.653,-35.073 12.248,-68.55798 13.69699,-104.035 C 192.509,277.922 184.25,242.157 162.02499,210.888 147.075,241.963 142.64799,278.91 140.98,312.94 c -0.874,17.82901 -1.81501,35.646 -2.441,53.48499 -0.598,17.043 -3.024,36.759 1.226,53.45001 -1.232,10e-4 -2.465,10e-4 -3.698,10e-4" />
      <path
         style="fill:#663100"
         inkscape:connector-curvature="0"
         id="path4394"
         d="m 162.92,138.382 c -0.496,-45.910999 -0.99401,-91.821991 -1.491,-137.733 6.021,-0.853 3.21001,14.333 3.242,18.643 0.12101,16.264999 0.24199,32.531002 0.364,48.795998 0.189,25.520004 0.37999,51.040002 0.57,76.560002 -0.889,-2.07599 -1.93,-4.137 -2.685,-6.266" />
      <path
         style="fill:#663100"
         inkscape:connector-curvature="0"
         id="path4396-0"
         d="m 177.959,0.649 c 0,31.739 0.215,63.489 1.14999,95.214998 C 179.987,125.616 177.102,161.297 189.84,188.735 c 26.651,57.40801 23.08101,125.56499 16.914,187.174 -1.496,14.94098 -4.812,29.40298 -8.327,43.966 18.254,2.53998 15.63001,-166.79401 11.578,-186.071 -2.85,-13.556 -8.34899,-27.966 -13.488,-40.81801 -4.78101,-11.95601 -6.527,-24.50101 -8.295,-37.298 -4.638,-33.585 -3.071,-68.349993 -3.828,-102.160002 -0.291,-13.007 -0.582,-26.013998 -0.874,-39.019999 -0.111,-4.99699 2.806,-16.69899 -5.561,-13.85899" />
      <path
         style="fill:#663100"
         inkscape:connector-curvature="0"
         id="path4398-9"
         d="m 197.951,0.829 c 0.751,64.991999 -3.5,131.08502 9.495,195.06799 6.127,30.16501 10.56599,59.179 11.36301,90.12401 0.78299,30.457 -1.239,61.569 -4.24501,91.876 -1.40799,14.198 -2.995,28.23499 -7.364,41.85801 7.738,2.37899 9.813,-30.34702 10.55501,-36.52301 1.96899,-16.39499 3.50698,-32.76401 4.29699,-49.26102 1.649,-34.46298 0.15,-68.52799 -2.623,-102.88699 -2.23601,-27.719 -7.74299,-55.116 -10.131,-82.80201 -2.824,-32.74899 -4.84001,-65.532987 -6.41799,-98.363988 -0.405,-8.418003 -0.64501,-16.854 -0.87001,-25.279001 -0.15,-5.606991 2.88,-24.72199 -4.05899,-23.80999" />
      <path
         style="fill:#663100"
         inkscape:connector-curvature="0"
         id="path4400"
         d="m 229.102,0.829 c 0.19201,66.266001 -0.82399,132.48399 0.76,198.746 1.528,63.92799 7.98199,129.14 -0.031,192.882 -1.18798,9.44901 -2.94999,18.069 -5.32498,27.298 10.40698,0.15601 8.33499,-2.677 8.793,-12.30999 0.385,-8.086 0.795,-16.17499 1.07401,-24.26599 0.56399,-16.34302 1.11898,-32.68503 1.35099,-49.03601 0.491,-34.736 0.402,-69.439 -0.24,-104.17299 C 234.13301,156.90701 234.296,83.788002 233.716,10.71401 233.67999,6.299 236.007,-1.278 229.10201,0.829" />
      <path
         style="fill:#663100"
         inkscape:connector-curvature="0"
         id="path4402"
         d="m 259.59601,0.649 c 1.474,31.672999 1.604,63.403002 -0.43799,95.048998 -1.99802,30.961002 -10.11601,61.264012 -11.95001,92.399012 -2.011,34.152 -1.44901,67.691 1.143,101.79001 2.351,30.92697 7.327,61.15198 7.73499,92.32798 0.169,12.884 0.007,25.55401 -2.93399,38.13702 10.05899,0 11.88299,2.172 11.807,-7.888 -0.069,-9.103 -0.294,-18.18899 -0.61801,-27.28601 -0.52798,-14.81299 -1.471,-29.828 -3.432,-44.52399 -4.33698,-32.5 -9.54898,-64.25 -10.89199,-97.104 -1.35,-33.00099 0.54599,-66.211 5.39299,-98.868 4.71402,-31.759 5.94202,-64.077001 7.832,-96.118002 0.51801,-8.785999 1.047,-17.577988 1.33002,-26.374998 C 264.754,16.495001 268.741,-2.075 259.59601,0.649" />
      <path
         style="fill:#663100"
         inkscape:connector-curvature="0"
         id="path4404-5"
         d="m 270.33801,0.649 c 0.007,32.105002 -0.509,64.312998 -3.16299,96.315996 -2.659,32.056004 -9.70401,64.137014 -12.28601,96.492004 -2.508,31.414 -0.76,60.125 6.99099,90.578 7.54599,29.64701 13.73301,59.91699 12.69101,90.642 -0.51699,15.22501 -1.03201,30.45001 -1.54901,45.67499 7.008,1.68701 4.68802,-7.051 4.83402,-11.87598 0.241,-7.99002 0.41598,-15.98001 0.57699,-23.97302 0.29902,-14.836 0.033,-29.647 -0.51699,-44.47598 -0.59201,-15.96601 -1.60901,-31.87702 -3.31101,-47.763 -1.62601,-15.185 -7.009,-29.00501 -9.104,-44.00402 -8.879,-63.561 4.43301,-127.73 7.849,-191.277992 0.40399,-7.500999 4.863,-57.866998 -3.012,-56.332998" />
      <path
         style="fill:#663100"
         inkscape:connector-curvature="0"
         id="path4406"
         d="m 147.405,419.87601 c -0.347,-28.31101 -3.094,-55.986 -1.90801,-84.418 1.37001,-32.85999 0.97301,-69.81201 16.52901,-99.504 18.22299,27.655 20.92,62.67599 20.836,94.797 -0.076,29.92199 -12.89799,59.389 -10.095,89.302 -10.97099,0.87799 -7.479,-6.07098 -7.698,-15.517 -0.145,-6.26401 -0.75101,-12.62399 0.029,-18.85501 1.62599,-12.979 7.252,-23.87598 10.444,-36.31299 7.96599,-31.03299 3.07699,-59.983 -12.62201,-87.45599 -11.761,23.427 -15.034,53.97098 -12.888,79.815 0.978,11.76898 3.659,23.698 2.61301,35.509 -1.27901,14.43399 -1.88201,27.91599 -1.541,42.63999 -1.23201,0 -2.46601,0 -3.69901,0" />
      <path
         style="fill:#663100"
         inkscape:connector-curvature="0"
         id="path4408"
         d="m 163.81599,286.97601 c -12.651,21.849 -8.01201,50.88401 -3.58101,74.29599 12.46701,-23.72 12.38302,-49.59799 3.58101,-74.29599" />
      <path
         style="fill:#663100"
         inkscape:connector-curvature="0"
         id="path4410"
         d="M 156.655,420.05301 C 156.6,407.625 155.498,392.896 159.341,380.965 c -0.03,6.41799 2.54599,39.08898 -2.686,39.08801" />
      <path
         style="fill:#663100"
         inkscape:connector-curvature="0"
         id="path4412-5"
         d="m 288.06201,0.649 c 0,31.525 1.27399,64.292002 -2.98501,95.586001 -1.82599,13.408999 -7.80399,26.615999 -11.31699,39.732999 -4.08099,15.234 -5.987,30.929 -6.65799,46.644 -1.12601,26.40401 -0.85501,61.966 9.26599,86.64099 11.603,28.28601 10.909,55.345 11.496,85.49201 0.41101,21.08599 0.82199,42.17199 1.232,63.259 0.033,1.685 1.10299,4.00299 3.44201,2.04901 1.04499,-0.87201 0.10499,-9.58902 0.11399,-10.75501 0.057,-7.99899 0.074,-15.99801 0.10501,-23.997 0.11999,-30.35001 0.91897,-61.034 -2.702,-91.194 -3.68301,-30.67499 -17.64901,-57.476 -17.27301,-89.19101 0.36801,-31.027 9.51999,-59.513 15.46201,-89.665 7.29098,-36.986998 3.229,-77.058 3.57699,-114.601 C 290.56799,0.649 289.315,0.649 288.06201,0.649" />
      <path
         style="fill:#663100"
         inkscape:connector-curvature="0"
         id="path4414"
         d="m 296.29599,121.375 c -9.36801,24.022 -16.25201,49.104 -18.199,74.851 -1.61899,21.41301 4.811,55.04201 20.88501,70.162 12.34399,-47.134 17.30401,-99.62399 -2.68601,-145.013" />
      <path
         style="fill:#663100"
         inkscape:connector-curvature="0"
         id="path4416"
         d="m 297.31299,0.829 c -0.006,27.143 0.32599,54.296999 1.26199,81.422999 0.41501,12.023003 0.181,24.874001 4.228,36.258001 4.173,11.738 9.65002,22.906 9.728,35.68701 -0.097,-11.875 2.18002,-26.63801 -1.016,-37.89401 -2.346,-8.266 -6.053,-14.39001 -6.46099,-23.408011 -0.822,-18.187996 -1.64499,-36.375 -2.46701,-54.563 C 302.34,32.873001 304.22199,-0.716 297.31299,0.829" />
      <path
         style="fill:#663100"
         inkscape:connector-curvature="0"
         id="path4418"
         d="m 312.53,230.881 c -13.56699,60.46501 -15.61499,122.89601 -14.51999,184.809 0.049,2.788 2.58298,7.11301 2.58298,2.724 0,-3.53201 -0.016,-7.06299 0,-10.595 0.038,-8.62399 0.20001,-17.241 0.38601,-25.862 0.32001,-14.85901 0.642,-29.80899 1.79999,-44.63 1.275,-16.32901 1.983,-33.25199 5.92902,-49.21799 4.38598,-17.746 3.62298,-35.01702 3.789,-53.48401 0.01,-1.24899 0.022,-2.496 0.033,-3.744" />
      <path
         style="fill:#663100"
         inkscape:connector-curvature="0"
         id="path4420"
         d="m 304.17401,420.17401 c 0.018,-28.94699 -3.20999,-65.79999 8.35501,-92.91699 -0.195,16.13898 -0.14102,32.12799 -1.70102,48.18899 -0.82299,8.469 -1.531,16.94999 -2.30499,25.42399 -0.41202,4.52301 0.40597,19.466 -4.349,19.30401" />
      <path
         style="fill:#663100"
         inkscape:connector-curvature="0"
         id="path4422-8"
         d="m 307.93301,0.649 c 0.015,26.567999 -3.14599,58.378 4.47599,84.023996 -0.033,-15.504997 -0.066,-31.009998 -0.1,-46.515995 -0.012,-5.701 3.86597,-39.556002 -4.37601,-37.508001" />
      <path
         style="fill:#663100"
         inkscape:connector-curvature="0"
         id="path4424-0"
         d="m 46.492001,128.118 c 9.152,41.31199 31.204998,77.32901 39.446003,119.17199 2.653999,-22.59601 6.621994,-45.19 13.778999,-66.813 6.862997,-20.732 14.859997,-39.875 19.639997,-61.489 -6.609,28.183 -17.106,55.104 -23.691999,83.12801 -7.544998,32.10798 -9.129997,63.05899 -9.129997,95.89898 -1.406006,-28.78399 -2.658005,-57.76499 -10.682007,-85.60398 -8.222,-28.529 -26.460999,-54.06099 -29.360996,-84.293" />
      <path
         style="fill:#663100"
         inkscape:connector-curvature="0"
         id="path4426-7"
         d="M 53.296001,78.765999 C 57.777999,105.421 70.087997,129.35899 85.521003,151.213 101.478,137.138 107.08,106.186 110.773,86.327004 116.01,58.162999 121.234,29.336991 121.864,0.648991 c 0.358,0.06 0.715,0.12 1.073,0.179 -1.729,26.694999 -3.305,55.81101 -10.679,81.626997 -7.294,25.534002 -9.416,50.048992 -26.736997,71.561992 C 65.859,135.479 59.032001,104.016 53.296001,78.766" />
      <path
         style="fill:#663100"
         inkscape:connector-curvature="0"
         id="path4428"
         d="M 85.342003,121.375 C 97.851998,106.091 103.619,86.508003 108.198,67.666 c -2.177,16.880997 -8.186,35.847 -18.330004,49.679 -6.662994,9.086 -7.995995,4.233 -12.831993,-4.717 C 71.893997,103.112 67.761001,93.184997 63.679001,83.180999 68.442001,95.401 74.280998,113.506 85.342003,121.375" />
      <path
         style="fill:#663100"
         inkscape:connector-curvature="0"
         id="path4430"
         d="M 85.342003,103.472 C 95.616997,86.810997 101.852,68.579002 105.035,49.346001 102.647,69.736 95.223999,88.351998 84.745003,105.86 c -9.07,-14.844001 -15.107002,-31.412002 -19.514,-48.159999 5.089996,15.880001 11.500999,31.461002 20.111,45.771999" />
      <path
         style="fill:#663100"
         inkscape:connector-curvature="0"
         id="path4432"
         d="m 66.066002,0.649 c -0.016,24.538 6.145996,47.779001 18.679001,68.807001 C 87.626999,64.129997 74.882004,45.528 72.739998,38.819999 c -3.956001,-12.393 -5.362999,-25.289 -6.673996,-38.171" />
      <path
         style="fill:#663100"
         inkscape:connector-curvature="0"
         id="path4434-9"
         d="m 84.745003,69.456001 c 5.870995,-13.333 11.406998,-27.708 12.352997,-42.370001 -0.603996,6.949999 -2.254997,13.705 -4.296997,20.359999 -1.902,6.201 -9.139999,15.864002 -8.056,22.010002" />
      <path
         style="fill:#663100"
         inkscape:connector-curvature="0"
         id="path4436"
         d="m 131.88901,135.69701 c -1.89701,17.039 -5.73,33.985 -11.976,49.96 -5.616,14.366 -14.261,28.754 -16.071,44.32898 5.95499,-32.49798 22.25199,-61.42898 28.047,-94.28898" />
      <path
         style="fill:#663100"
         inkscape:connector-curvature="0"
         id="path4438"
         d="m 145.615,147.632 c -3.17799,13.706 -4.40499,30.31 -10.41299,43.026 -5.50301,11.646 -11.857,24.64101 -13.457,37.53701 1.99,-11.42401 4.494,-25.11602 10.852,-34.98801 7.88099,-12.23601 9.30899,-31.521 13.01799,-45.575" />
      <path
         style="fill:#663100"
         inkscape:connector-curvature="0"
         id="path4440-6"
         d="m 162.325,134.86099 c -3.357,17.959 -7.555,35.95 -13.463,53.246 -5.604,16.4 -15.302,31.14901 -15.95799,49.04 5.614,-35.16399 25.79699,-66.75299 29.42099,-102.286" />
      <path
         style="fill:#663100"
         inkscape:connector-curvature="0"
         id="path4442-3"
         d="m 146.39101,231.537 c 2.16101,-7.78599 7.979,-37.237 17.66301,-33.95601 12.25799,4.15401 20.24899,31.793 23.75199,42.36901 -3.16101,-14.532 -9.546,-33.08699 -21.89199,-42.444 -7.39601,-5.605 -8.85401,1.00599 -12.24401,8.60901 -3.61502,8.11 -5.51201,16.96398 -7.279,25.42199" />
      <path
         style="fill:#663100"
         inkscape:connector-curvature="0"
         id="path4444-6"
         d="m 167.87399,147.99 c 2.18801,19.133 6.269,39.321 17.54599,55.32001 C 174.18899,188.11 171.194,166.1 167.87399,147.99" />
      <path
         style="fill:#663100"
         inkscape:connector-curvature="0"
         id="path4446-7"
         d="m 189.35699,161.537 c 0.69001,27.924 18.39,50.63001 21.126,78.414 -3.48099,-27.48401 -17.95999,-51.122 -21.126,-78.414" />
      <path
         style="fill:#663100"
         inkscape:connector-curvature="0"
         id="path4448-6"
         d="m 162.026,235.894 c 9.537,15.434 14.457,32.929 17.78301,50.60499 -2.582,-16.945 -8.98101,-32.961 -17.48401,-47.74099 -7.153,12.44 -9.596,27.88998 -12.35401,41.77298 C 151.949,266.14099 153.513,248.133 162.026,235.894" />
      <path
         style="fill:#663100"
         inkscape:connector-curvature="0"
         id="path4450-3"
         d="m 163.81599,286.97601 c 4.707,8.79999 7.575,19.34699 6.862,29.35999 -0.17401,-9.40698 -2.268,-18.98999 -7.16101,-27.09299 -1.86599,4.26499 -3.70199,8.58899 -4.77299,13.129 0.80501,-5.21802 1.81901,-11.125 5.072,-15.396" />
      <path
         style="fill:#663100"
         inkscape:connector-curvature="0"
         id="path4452"
         d="m 207.082,115.407 c 1.729,49.362 13.496,97.468 14.91901,146.80299 C 219.22099,212.84801 211.42,164.58299 207.082,115.407" />
      <path
         style="fill:#663100"
         inkscape:connector-curvature="0"
         id="path4454-9"
         d="m 257.20801,111.827 c -5.435,30.94599 -9.864,62.257 -10.741,93.69101 -0.35101,-31.515 4.021,-62.98101 10.741,-93.69101" />
      <path
         style="fill:#663100"
         inkscape:connector-curvature="0"
         id="path4456-0"
         d="m 265.565,108.842 c -5.98801,33.167 -10.66701,66.552 -11.93699,100.25601 C 255.91701,175.577 260.909,142.099 265.565,108.842" />
      <path
         style="fill:#663100"
         inkscape:connector-curvature="0"
         id="path4458-8"
         d="M 287.64301,65.875999 C 287.832,109.783 267.10998,149.662 267.35501,194.17999 268.297,172.184 270.043,149.485 274.948,127.981 c 4.755,-20.847 12.47101,-40.428999 12.695,-62.105001" />
      <path
         style="fill:#663100"
         inkscape:connector-curvature="0"
         id="path4460-4"
         d="m 296.29599,121.375 c -7.58801,18.202 -12.77899,37.231 -15.81299,56.692 4.469,-15.83701 7.84198,-34.33301 15.51599,-48.93401 11.96601,12.30401 12.43201,35.388 13.72501,51.321 -2.095,-16.625 -1.83399,-46.08 -13.42801,-59.07899" />
      <path
         style="fill:#663100"
         inkscape:connector-curvature="0"
         id="path4462-5"
         d="m 304.95099,91.537003 c -2.07199,8.368996 1.513,16.692997 6.56299,23.272997 -4.37897,-6.887 -6.43097,-15.17 -6.56299,-23.272997" />
      <path
         style="fill:#663100"
         inkscape:connector-curvature="0"
         id="path4464-5"
         d="m 0.84,229.627 c 8.605,8.013 11.269,24.612 13.075,35.63801 2.793,17.04499 4.450999,34.03598 5.782001,51.25098 -0.785,-28.39499 0.364,-68.004 -19.096,-90.70799 -0.074,-0.803 0.449,4.899 0.239,3.819" />
      <path
         style="fill:#663100"
         inkscape:connector-curvature="0"
         id="path4466-8"
         d="m 0.84,201.938 c 21.867001,6.891 25.917,44.14701 29.003,62.65999 -1.539,-24.14 -6.864,-52.83198 -29.838,-65.04698 -0.084,-0.20801 0.976,2.74199 0.835,2.38699" />
      <path
         style="fill:#663100"
         inkscape:connector-curvature="0"
         id="path4468-0"
         d="m 0.84,162.55099 c 27.240999,14.92301 31.035999,65.004 34.970001,91.90101 -3.59,-33.23799 -9.329,-72.157 -34.612001,-96.07801 -0.064,1.35501 -0.434,2.93601 -0.358,4.177" />
      <path
         style="fill:#663100"
         inkscape:connector-curvature="0"
         id="path4470"
         d="m 7.703,153.00301 c -4.022,-7.038 -5.576,-15.19001 -6.624,-23.155 0.041,7.444 -4.4,24.39499 6.624,23.155" />
      <path
         style="fill:#663100"
         inkscape:connector-curvature="0"
         id="path4472-3"
         d="m 2.332,104.367 c 2.355,14.861 4.011,29.37999 12.055,42.31099 C 22.554001,159.808 29.247,173.158 33.125999,188.213 29.509,172.67101 23.827999,157.433 14.309,144.538 6.12,133.442 5.159,117.568 2.332,104.367" />
      <path
         style="fill:#663100"
         inkscape:connector-curvature="0"
         id="path4474"
         d="m 176.645,345.159 c -4.596,14.67901 -11.582,28.195 -11.934,43.86099 1.692,-15.28 8.349,-29.00498 11.934,-43.86099" />
      <path
         style="fill:#663100"
         inkscape:connector-curvature="0"
         id="path4476"
         d="m 150.985,352.32001 c 1.149,6.95501 2.68401,14.44299 1.78999,21.483 3.47001,-6.21002 0.28,-15.25601 -1.78999,-21.483" />
      <path
         style="fill:#663100"
         inkscape:connector-curvature="0"
         id="path4478"
         d="m 186.194,366.047 c -1.66,13.375 -6.716,25.983 -7.758,39.38601 3.166,-12.66101 7.749,-26.251 7.758,-39.38601" />
      <path
         style="fill:#663100"
         inkscape:connector-curvature="0"
         id="path4480"
         d="m 198.42799,419.87601 c 4.749,-19.582 8.97499,-39.61701 9.846,-59.797 -2.69899,18.871 -3.562,43.15399 -12.532,60.27301 0.895,-0.15903 1.79102,-0.31702 2.686,-0.47601" />
      <path
         style="fill:#663100"
         inkscape:connector-curvature="0"
         id="path4482"
         d="m 207.2,419.755 c 6.126,-22.88998 9.138,-46.763 9.431,-70.41699 -1.609,23.69 -4.403,47.65299 -11.33899,70.41699 0.63499,0 1.27199,0 1.90799,0" />
      <path
         style="fill:#663100"
         inkscape:connector-curvature="0"
         id="path4484"
         d="m 224.505,419.755 c 10.21199,-33.346 8.945,-70.583 8.237,-105.02999 0.66102,17.277 0.70101,34.862 -0.84599,52.096 -0.834,9.292 -1.406,18.793 -3.17799,27.96701 C 227.826,399.41299 222.418,419.423 224.505,419.755" />
      <path
         style="fill:#663100"
         inkscape:connector-curvature="0"
         id="path4486"
         d="m 312.53,327.25699 c -5.163,15.436 -6.828,31.74499 -7.4,47.92099 0.73301,-16.01798 0.35901,-36.65598 7.577,-51.32199 -0.059,1.13302 -0.11899,2.267 -0.177,3.401" />
      <path
         style="fill:#663100"
         inkscape:connector-curvature="0"
         id="path4488"
         d="m 312.53,230.881 c -5.43201,23.153 -9.14401,45.85899 -10.98001,69.52201 C 303.20499,277.10998 312.776,254.104 312.53,230.881" />
      <path
         style="fill:#663100"
         inkscape:connector-curvature="0"
         id="path4490"
         d="m 276.06699,238.69701 c 3.875,15.703 11.643,31.16001 12.77099,47.38401 -3.43597,-15.36801 -13.43997,-31.42003 -12.77099,-47.38401" />
      <path
         style="fill:#663100"
         inkscape:connector-curvature="0"
         id="path4492"
         d="m 1.139,412.17599 c 9.940001,-15.303 11.788,-35.58099 13.188,-53.29199 -0.58,8.80701 -1.841,17.70401 -3.759,26.319 -1.943,8.73001 -8.78,18.737 -9.429,26.97299" />
      <path
         style="fill:#663100"
         inkscape:connector-curvature="0"
         id="path4494"
         d="m 20.115999,420.05301 c 10.538,-12.87399 8.388,-37.65 8.533001,-53.22901 -0.021,13.58802 2.076,44.27301 -10.562,53.11002 0.676001,0.04 1.351999,0.08 2.028999,0.11899" />
    </g>
    <path
       style="fill:#000000;fill-opacity:1;stroke:#000000;stroke-width:0.10299616;stroke-miterlimit:4;stroke-dasharray:none;stroke-opacity:1"
       d="m 16.852758,1038.6077 c 0,-7.6052 0.0113,-10.7164 0.0253,-6.9139 0.0139,3.8027 0.0139,10.0251 0,13.8277 -0.0139,3.8026 -0.0253,0.6914 -0.0253,-6.9138 z"
       id="path4496"
       inkscape:connector-curvature="0" />
    <path
       style="fill:#000000;fill-opacity:1;stroke:#000000;stroke-width:0.10347088;stroke-miterlimit:4;stroke-dasharray:none;stroke-opacity:1"
       d="m 16.229818,1038.6077 0.096,-13.711 0.1919,0.047 0.87395,-0.047 -0.586,13.711 0,13.967 -0.28795,0 -0.28796,0 z"
       id="path4498"
       inkscape:connector-curvature="0"
       sodipodi:nodetypes="ccccccccc" />
    <path
       style="fill:#d45500;fill-opacity:1;stroke:#000000;stroke-width:0.28838927;stroke-miterlimit:4;stroke-dasharray:none;stroke-opacity:1"
       id="path4505"
       sodipodi:type="arc"
       sodipodi:cx="18.853033"
       sodipodi:cy="1038.8099"
       sodipodi:rx="1.2104189"
       sodipodi:ry="1.1732533"
       sodipodi:start="0"
       sodipodi:end="6.2660287"
       d="m 20.063452,1038.8099 a 1.2104189,1.1732533 0 0 1 -1.205227,1.1733 1.2104189,1.1732533 0 0 1 -1.215566,-1.1632 1.2104189,1.1732533 0 0 1 1.194799,-1.1832 1.2104189,1.1732533 0 0 1 1.225816,1.153 l -1.210241,0.02 z" />
    <path
       d="m -13.228593,1038.8099 a 1.211417,1.1731976 0 0 1 -1.206221,1.1732 1.211417,1.1731976 0 0 1 -1.216568,-1.1631 1.211417,1.1731976 0 0 1 1.195785,-1.1832 1.211417,1.1731976 0 0 1 1.226826,1.153 l -1.211239,0.02 z"
       sodipodi:end="6.2660287"
       sodipodi:start="0"
       sodipodi:ry="1.1731976"
       sodipodi:rx="1.211417"
       sodipodi:cy="1038.8099"
       sodipodi:cx="-14.44001"
       sodipodi:type="arc"
       id="path4507"
       style="fill:#d45500;fill-opacity:1;stroke:#000000;stroke-width:0.28850135;stroke-miterlimit:4;stroke-dasharray:none;stroke-opacity:1"
       transform="scale(-1,1)" />
  </g>
</svg>
