<?xml version="1.0" encoding="UTF-8" standalone="no"?>
<!-- Created with Inkscape (http://www.inkscape.org/) -->

<svg
   xmlns:osb="http://www.openswatchbook.org/uri/2009/osb"
   xmlns:dc="http://purl.org/dc/elements/1.1/"
   xmlns:cc="http://creativecommons.org/ns#"
   xmlns:rdf="http://www.w3.org/1999/02/22-rdf-syntax-ns#"
   xmlns:svg="http://www.w3.org/2000/svg"
   xmlns="http://www.w3.org/2000/svg"
   xmlns:sodipodi="http://sodipodi.sourceforge.net/DTD/sodipodi-0.dtd"
   xmlns:inkscape="http://www.inkscape.org/namespaces/inkscape"
   width="32"
   height="32"
   viewBox="0 0 31.999999 31.999999"
   id="svg2"
   version="1.1"
   inkscape:version="0.91 r13725"
   sodipodi:docname="fase floresta bloco de terra.svg">
  <defs
     id="defs4">
    <linearGradient
       id="linearGradient6697"
       osb:paint="gradient">
      <stop
         style="stop-color:#aa4400;stop-opacity:1;"
         offset="0"
         id="stop6685" />
      <stop
         style="stop-color:#aa4400;stop-opacity:0;"
         offset="1"
         id="stop6687" />
    </linearGradient>
    <linearGradient
       id="linearGradient6677"
       osb:paint="solid">
      <stop
         style="stop-color:#570000;stop-opacity:1;"
         offset="0"
         id="stop6679" />
    </linearGradient>
  </defs>
  <sodipodi:namedview
     id="base"
     pagecolor="#ffffff"
     bordercolor="#666666"
     borderopacity="1.0"
     inkscape:pageopacity="0.0"
     inkscape:pageshadow="2"
     inkscape:zoom="11.2"
     inkscape:cx="16.021077"
     inkscape:cy="23.887251"
     inkscape:document-units="px"
     inkscape:current-layer="layer1"
     showgrid="true"
     inkscape:window-width="1360"
     inkscape:window-height="706"
     inkscape:window-x="-8"
     inkscape:window-y="-8"
     inkscape:window-maximized="1"
     units="px">
    <inkscape:grid
       type="xygrid"
       id="grid4136"
       spacingy="0.30000001"
       spacingx="0.30000001" />
  </sodipodi:namedview>
  <metadata
     id="metadata7">
    <rdf:RDF>
      <cc:Work
         rdf:about="">
        <dc:format>image/svg+xml</dc:format>
        <dc:type
           rdf:resource="http://purl.org/dc/dcmitype/StillImage" />
        <dc:title />
      </cc:Work>
    </rdf:RDF>
  </metadata>
  <g
     inkscape:label="Camada 1"
     inkscape:groupmode="layer"
     id="layer1"
     transform="translate(0,-1020.3622)">
    <path
       style="opacity:1;fill:#d44400;fill-opacity:1;stroke:#000000;stroke-width:0;stroke-miterlimit:4;stroke-dasharray:none;stroke-opacity:1"
       d="m -0.16216509,1020.8642 32.53845909,0 0,31.8745 -32.53845909,0 z"
       id="rect4138"
       inkscape:connector-curvature="0" />
    <path
       style="fill:#008000;fill-opacity:1;stroke:#000000;stroke-width:0.36925286;stroke-miterlimit:4;stroke-dasharray:none;stroke-opacity:1"
       d="m 26.773295,1029.2257 c -0.308263,-0.024 -0.604043,-0.094 -0.65729,-0.1536 -0.05325,-0.061 -0.167889,-0.1122 -0.254761,-0.1136 -0.443154,-0.015 -1.020946,-0.91 -1.196199,-1.8658 -0.07341,-0.4003 -1.194867,-1.5921 -1.581561,-1.6807 -0.468671,-0.1078 -0.794026,-0.086 -0.794026,0.053 0,0.1455 -0.518013,0.9642 -0.651339,1.0291 -0.04998,0.025 -0.266017,0.2262 -0.480099,0.4477 -0.71618,0.7417 -1.195678,0.8651 -3.008792,0.7757 l -1.584348,-0.08 -0.405401,-0.6154 c -0.528169,-0.8018 -0.784571,-0.9826 -1.393421,-0.9826 -0.562575,0 -0.875073,0.2301 -1.83512,1.3509 l -0.543706,0.6349 -2.268374,0 c -2.1389603,0 -2.2789026,-0.015 -2.4528256,-0.2338 -0.1014454,-0.1281 -0.2355017,-0.2336 -0.297902,-0.2336 -0.062401,0 -0.3354306,-0.2102 -0.606734,-0.4672 -0.4671871,-0.4424 -0.529451,-0.4671 -1.1771435,-0.4671 -0.5804836,0 -0.7148713,0.04 -0.8889725,0.2629 -0.75796,0.9708 -1.3814214,1.2919 -2.5333196,1.3037 -0.5830325,0 -0.7734532,-0.041 -1.0347854,-0.2541 -0.17614733,-0.1442 -0.36432615,-0.2614 -0.41817536,-0.2614 -0.0538494,0 -0.21873562,-0.1092 -0.36641409,-0.2418 l -0.26850637,-0.2423 0,-3.3786 0,-3.3787 16.05010142,0 16.050101,0 0,3.212 0,3.212 -0.298322,0 c -0.192263,0 -0.365691,0.096 -0.48783,0.276 -0.104232,0.1519 -0.348315,0.3702 -0.542402,0.4853 -0.306753,0.1817 -1.277501,1.0277 -1.422893,1.2403 -0.02803,0.041 -0.228516,0.1591 -0.445539,0.2629 -0.382318,0.1824 -0.871391,0.2048 -2.204001,0.1 z"
       id="path4146"
       inkscape:connector-curvature="0" />
    <path
       sodipodi:type="star"
       style="fill:#aa4400;fill-opacity:1;stroke:#000000;stroke-width:1;stroke-miterlimit:4;stroke-dasharray:none;stroke-opacity:1"
       id="path4148"
       sodipodi:sides="5"
       sodipodi:cx="58.07143"
       sodipodi:cy="1008.6479"
       sodipodi:r1="6"
       sodipodi:r2="4.8541021"
       sodipodi:arg1="0"
       sodipodi:arg2="0.62831853"
       inkscape:flatsided="true"
       inkscape:rounded="0"
       inkscape:randomized="0"
       d="m 64.07143,1008.6479 -4.145898,5.7063 -6.708204,-2.1796 0,-7.0534 6.708204,-2.1797 z"
       inkscape:transform-center-x="-0.16175321"
       transform="matrix(0.28231972,0,0,0.2785449,-0.07444535,759.34217)" />
    <path
       inkscape:transform-center-x="-0.16175334"
       d="m 51.214283,1039.3622 -4.145898,5.7063 -6.708204,-2.1796 0,-7.0534 6.708204,-2.1797 z"
       inkscape:randomized="0"
       inkscape:rounded="0"
       inkscape:flatsided="true"
       sodipodi:arg2="0.62831853"
       sodipodi:arg1="0"
       sodipodi:r2="4.8541021"
       sodipodi:r1="6"
       sodipodi:cy="1039.3622"
       sodipodi:cx="45.214283"
       sodipodi:sides="5"
       id="path4150"
       style="fill:#a05a2c;fill-opacity:1;stroke:#000000;stroke-width:1;stroke-miterlimit:4;stroke-dasharray:none;stroke-opacity:1"
       sodipodi:type="star"
       transform="matrix(0.28231972,0,0,0.2785449,-0.07444535,759.34217)" />
    <path
       sodipodi:type="star"
       style="fill:#803300;fill-opacity:1;stroke:#000000;stroke-width:1;stroke-miterlimit:4;stroke-dasharray:none;stroke-opacity:1"
       id="path4152"
       sodipodi:sides="5"
       sodipodi:cx="52.714287"
       sodipodi:cy="980.07648"
       sodipodi:r1="6"
       sodipodi:r2="4.8541021"
       sodipodi:arg1="0"
       sodipodi:arg2="0.62831853"
       inkscape:flatsided="true"
       inkscape:rounded="0"
       inkscape:randomized="0"
       d="m 58.714287,980.07648 -4.145898,5.70634 -6.708204,-2.17963 0,-7.05342 6.708204,-2.17963 z"
       inkscape:transform-center-x="-0.16175327"
       transform="matrix(0.28231972,0,0,0.2785449,-0.07444535,759.34217)" />
    <path
       inkscape:transform-center-x="-0.16175294"
       d="m 96.571434,1005.7908 -4.145898,5.7063 -6.708204,-2.1796 0,-7.0534 6.708204,-2.1797 z"
       inkscape:randomized="0"
       inkscape:rounded="0"
       inkscape:flatsided="true"
       sodipodi:arg2="0.62831853"
       sodipodi:arg1="0"
       sodipodi:r2="4.8541021"
       sodipodi:r1="6"
       sodipodi:cy="1005.7908"
       sodipodi:cx="90.571434"
       sodipodi:sides="5"
       id="path4154"
       style="fill:#803300;fill-opacity:1;stroke:#000000;stroke-width:1;stroke-miterlimit:4;stroke-dasharray:none;stroke-opacity:1"
       sodipodi:type="star"
       transform="matrix(0.28231972,0,0,0.2785449,-0.07444535,759.34217)" />
    <path
       sodipodi:type="star"
       style="fill:#502d16;fill-opacity:1;stroke:#000000;stroke-width:1;stroke-miterlimit:4;stroke-dasharray:none;stroke-opacity:1"
       id="path4156"
       sodipodi:sides="5"
       sodipodi:cx="17.35714"
       sodipodi:cy="979.36218"
       sodipodi:r1="6"
       sodipodi:r2="4.8541021"
       sodipodi:arg1="0"
       sodipodi:arg2="0.62831853"
       inkscape:flatsided="true"
       inkscape:rounded="0"
       inkscape:randomized="0"
       d="m 23.35714,979.36218 -4.145898,5.70634 -6.708204,-2.17963 0,-7.05342 6.708204,-2.17963 z"
       inkscape:transform-center-x="-0.16175357"
       transform="matrix(0.28231972,0,0,0.2785449,-0.07444535,759.34217)" />
    <path
       inkscape:transform-center-x="-0.16175356"
       d="m 26.571426,1020.0765 -4.145898,5.7063 -6.708204,-2.1796 0,-7.0534 6.708204,-2.1797 z"
       inkscape:randomized="0"
       inkscape:rounded="0"
       inkscape:flatsided="true"
       sodipodi:arg2="0.62831853"
       sodipodi:arg1="0"
       sodipodi:r2="4.8541021"
       sodipodi:r1="6"
       sodipodi:cy="1020.0765"
       sodipodi:cx="20.571426"
       sodipodi:sides="5"
       id="path4158"
       style="fill:#aa4400;fill-opacity:1;stroke:#000000;stroke-width:1;stroke-miterlimit:4;stroke-dasharray:none;stroke-opacity:1"
       sodipodi:type="star"
       transform="matrix(0.28231972,0,0,0.2785449,-0.07444535,759.34217)" />
    <path
       sodipodi:type="star"
       style="fill:#aa4400;fill-opacity:1;stroke:#000000;stroke-width:1;stroke-miterlimit:4;stroke-dasharray:none;stroke-opacity:1"
       id="path4160"
       sodipodi:sides="5"
       sodipodi:cx="97"
       sodipodi:cy="1033.6479"
       sodipodi:r1="6"
       sodipodi:r2="4.8541021"
       sodipodi:arg1="0"
       sodipodi:arg2="0.62831853"
       inkscape:flatsided="true"
       inkscape:rounded="0"
       inkscape:randomized="0"
       d="m 103,1033.6479 -4.145898,5.7064 -6.708204,-2.1796 0,-7.0535 6.708204,-2.1796 z"
       inkscape:transform-center-x="-0.16175288"
       transform="matrix(0.28231972,0,0,0.2785449,-0.07444535,759.34217)" />
    <path
       sodipodi:type="star"
       style="fill:#aa4400;fill-opacity:1;stroke:#000000;stroke-width:1;stroke-miterlimit:4;stroke-dasharray:none;stroke-opacity:1"
       id="path4162"
       sodipodi:sides="5"
       sodipodi:cx="83.428574"
       sodipodi:cy="978.29077"
       sodipodi:r1="6"
       sodipodi:r2="4.8541021"
       sodipodi:arg1="0"
       sodipodi:arg2="0.62831853"
       inkscape:flatsided="true"
       inkscape:rounded="0"
       inkscape:randomized="0"
       d="m 89.428574,978.29077 -4.145898,5.70634 -6.708204,-2.17963 0,-7.05342 6.708204,-2.17963 z"
       inkscape:transform-center-x="-0.16175301"
       transform="matrix(0.28231972,0,0,0.2785449,-0.07444535,759.34217)" />
    <path
       sodipodi:type="spiral"
       style="fill:none;fill-rule:evenodd;stroke:#009d00;stroke-width:1.4000001;stroke-linecap:butt;stroke-linejoin:miter;stroke-miterlimit:4;stroke-dasharray:none;stroke-opacity:1"
       id="path4175"
       sodipodi:cx="34.357151"
       sodipodi:cy="954.07648"
       sodipodi:expansion="0.63"
       sodipodi:revolution="2"
       sodipodi:radius="16.155495"
       sodipodi:argument="-18.469049"
       sodipodi:t0="0"
       d="m 34.357151,954.07648 c 2.887529,1.15501 0.546601,4.04511 -1.618843,4.0471 -3.319564,0.003 -5.188952,-3.60286 -4.644316,-6.55237 0.794429,-4.30228 5.445532,-6.60499 9.497539,-5.58068 5.174205,1.30799 7.892641,6.98556 6.458266,11.96301 -1.721017,5.97213 -8.349351,9.07743 -14.154915,7.27861 -6.714178,-2.08035 -10.182176,-9.5939 -8.051261,-16.16109 2.405083,-7.41213 10.750427,-11.22299 18.029431,-8.78433 8.074172,2.70506 12.211352,11.8383 9.484099,19.78975"
       transform="matrix(0.23359171,0,0,0.18736342,-4.4346728,845.85766)" />
    <path
       transform="matrix(0.23359171,0,0,0.18736342,3.5307774,845.55923)"
       d="m 34.357151,954.07648 c 2.887529,1.15501 0.546601,4.04511 -1.618843,4.0471 -3.319564,0.003 -5.188952,-3.60286 -4.644316,-6.55237 0.794429,-4.30228 5.445532,-6.60499 9.497539,-5.58068 5.174205,1.30799 7.892641,6.98556 6.458266,11.96301 -1.721017,5.97213 -8.349351,9.07743 -14.154915,7.27861 -6.714178,-2.08035 -10.182176,-9.5939 -8.051261,-16.16109 2.405083,-7.41213 10.750427,-11.22299 18.029431,-8.78433 8.074172,2.70506 12.211352,11.8383 9.484099,19.78975"
       sodipodi:t0="0"
       sodipodi:argument="-18.469049"
       sodipodi:radius="16.155495"
       sodipodi:revolution="2"
       sodipodi:expansion="0.63"
       sodipodi:cy="954.07648"
       sodipodi:cx="34.357151"
       id="path4177"
       style="fill:none;fill-rule:evenodd;stroke:#009d00;stroke-width:1.4000001;stroke-linecap:butt;stroke-linejoin:miter;stroke-miterlimit:4;stroke-dasharray:none;stroke-opacity:1"
       sodipodi:type="spiral" />
    <path
       sodipodi:type="spiral"
       style="fill:none;fill-rule:evenodd;stroke:#009d00;stroke-width:1.4000001;stroke-linecap:butt;stroke-linejoin:miter;stroke-miterlimit:4;stroke-dasharray:none;stroke-opacity:1"
       id="path4179"
       sodipodi:cx="34.357151"
       sodipodi:cy="954.07648"
       sodipodi:expansion="0.63"
       sodipodi:revolution="2"
       sodipodi:radius="16.155495"
       sodipodi:argument="-18.469049"
       sodipodi:t0="0"
       d="m 34.357151,954.07648 c 2.887529,1.15501 0.546601,4.04511 -1.618843,4.0471 -3.319564,0.003 -5.188952,-3.60286 -4.644316,-6.55237 0.794429,-4.30228 5.445532,-6.60499 9.497539,-5.58068 5.174205,1.30799 7.892641,6.98556 6.458266,11.96301 -1.721017,5.97213 -8.349351,9.07743 -14.154915,7.27861 -6.714178,-2.08035 -10.182176,-9.5939 -8.051261,-16.16109 2.405083,-7.41213 10.750427,-11.22299 18.029431,-8.78433 8.074172,2.70506 12.211352,11.8383 9.484099,19.78975"
       transform="matrix(0.23359171,0,0,0.18736342,11.19374,845.75818)" />
    <path
       transform="matrix(0.23359171,0,0,0.18736342,19.15919,845.55923)"
       d="m 34.357151,954.07648 c 2.887529,1.15501 0.546601,4.04511 -1.618843,4.0471 -3.319564,0.003 -5.188952,-3.60286 -4.644316,-6.55237 0.794429,-4.30228 5.445532,-6.60499 9.497539,-5.58068 5.174205,1.30799 7.892641,6.98556 6.458266,11.96301 -1.721017,5.97213 -8.349351,9.07743 -14.154915,7.27861 -6.714178,-2.08035 -10.182176,-9.5939 -8.051261,-16.16109 2.405083,-7.41213 10.750427,-11.22299 18.029431,-8.78433 8.074172,2.70506 12.211352,11.8383 9.484099,19.78975"
       sodipodi:t0="0"
       sodipodi:argument="-18.469049"
       sodipodi:radius="16.155495"
       sodipodi:revolution="2"
       sodipodi:expansion="0.63"
       sodipodi:cy="954.07648"
       sodipodi:cx="34.357151"
       id="path4181"
       style="fill:none;fill-rule:evenodd;stroke:#009d00;stroke-width:1.4000001;stroke-linecap:butt;stroke-linejoin:miter;stroke-miterlimit:4;stroke-dasharray:none;stroke-opacity:1"
       sodipodi:type="spiral" />
    <path
       sodipodi:type="star"
       style="fill:#00d400;fill-opacity:1;stroke:#009d00;stroke-width:1.37800002;stroke-miterlimit:4;stroke-dasharray:none;stroke-opacity:1"
       id="path4186"
       sodipodi:sides="3"
       sodipodi:cx="-51"
       sodipodi:cy="932.36218"
       sodipodi:r1="9.4868326"
       sodipodi:r2="9.4868326"
       sodipodi:arg1="1.2490458"
       sodipodi:arg2="2.2962434"
       inkscape:flatsided="false"
       inkscape:rounded="2.31"
       inkscape:randomized="0.917"
       d="m -40.923278,937.584 c -0.368499,20.11573 -31.453231,29.50194 -17.131366,7.89667 14.321863,-21.60527 -5.375665,8.53056 -9.260955,-15.91798 -3.885291,-24.44855 -3.065627,24.55762 10.032843,-1.10327 13.098469,-25.66089 -25.462638,2.84017 5.746436,4.85578 31.209075,2.0156 22.894033,6.0626 8.974442,9.26793 -13.919589,3.20533 2.007099,-25.11487 1.6386,-4.99913 z"
       inkscape:transform-center-x="-0.0090463749"
       inkscape:transform-center-y="-0.027620107"
       transform="matrix(0.1853521,0,0,0.19220055,13.402866,843.69947)" />
    <path
       transform="matrix(0.0316082,-0.18019512,0.19195182,0.03277608,-166.02706,983.86396)"
       inkscape:transform-center-y="-0.2153585"
       inkscape:transform-center-x="0.25943571"
       d="m -40.923278,937.584 c -0.368499,20.11573 -31.453231,29.50194 -17.131366,7.89667 14.321863,-21.60527 -5.375665,8.53056 -9.260955,-15.91798 -3.885291,-24.44855 -3.065627,24.55762 10.032843,-1.10327 13.098469,-25.66089 -25.462638,2.84017 5.746436,4.85578 31.209075,2.0156 22.894033,6.0626 8.974442,9.26793 -13.919589,3.20533 2.007099,-25.11487 1.6386,-4.99913 z"
       inkscape:randomized="0.917"
       inkscape:rounded="2.31"
       inkscape:flatsided="false"
       sodipodi:arg2="2.2962434"
       sodipodi:arg1="1.2490458"
       sodipodi:r2="9.4868326"
       sodipodi:r1="9.4868326"
       sodipodi:cy="932.36218"
       sodipodi:cx="-51"
       sodipodi:sides="3"
       id="path4188"
       style="fill:#00d400;fill-opacity:1;stroke:#009d00;stroke-width:1.37800002;stroke-miterlimit:4;stroke-dasharray:none;stroke-opacity:1"
       sodipodi:type="star" />
    <path
       sodipodi:type="star"
       style="fill:#00d400;fill-opacity:1;stroke:#009d00;stroke-width:1.37800002;stroke-miterlimit:4;stroke-dasharray:none;stroke-opacity:1"
       id="path4190"
       sodipodi:sides="3"
       sodipodi:cx="-51"
       sodipodi:cy="932.36218"
       sodipodi:r1="9.4868326"
       sodipodi:r2="9.4868326"
       sodipodi:arg1="1.2490458"
       sodipodi:arg2="2.2962434"
       inkscape:flatsided="false"
       inkscape:rounded="2.31"
       inkscape:randomized="0.917"
       d="m -40.923278,937.584 c -0.368499,20.11573 -31.453231,29.50194 -17.131366,7.89667 14.321863,-21.60527 -5.375665,8.53056 -9.260955,-15.91798 -3.885291,-24.44855 -3.065627,24.55762 10.032843,-1.10327 13.098469,-25.66089 -25.462638,2.84017 5.746436,4.85578 31.209075,2.0156 22.894033,6.0626 8.974442,9.26793 -13.919589,3.20533 2.007099,-25.11487 1.6386,-4.99913 z"
       inkscape:transform-center-x="-0.17739365"
       inkscape:transform-center-y="0.14955557"
       transform="matrix(-0.02020028,0.18178453,-0.19364491,-0.02094664,202.14271,1052.077)" />
    <path
       transform="matrix(0.12810496,0.13216603,-0.14078911,0.13283824,166.80618,906.55612)"
       inkscape:transform-center-y="-2.5975768"
       inkscape:transform-center-x="0.43124797"
       d="m -40.923278,937.584 c -0.368499,20.11573 -31.453231,29.50194 -17.131366,7.89667 14.321863,-21.60527 -5.375665,8.53056 -9.260955,-15.91798 -3.885291,-24.44855 -3.065627,24.55762 10.032843,-1.10327 13.098469,-25.66089 -25.462638,2.84017 5.746436,4.85578 31.209075,2.0156 22.894033,6.0626 8.974442,9.26793 -13.919589,3.20533 2.007099,-25.11487 1.6386,-4.99913 z"
       inkscape:randomized="0.917"
       inkscape:rounded="2.31"
       inkscape:flatsided="false"
       sodipodi:arg2="2.2962434"
       sodipodi:arg1="1.2490458"
       sodipodi:r2="9.4868326"
       sodipodi:r1="9.4868326"
       sodipodi:cy="932.36218"
       sodipodi:cx="-51"
       sodipodi:sides="3"
       id="path4192"
       style="fill:#00d400;fill-opacity:1;stroke:#009d00;stroke-width:1.37800002;stroke-miterlimit:4;stroke-dasharray:none;stroke-opacity:1"
       sodipodi:type="star" />
    <path
       inkscape:transform-center-x="-0.16175321"
       d="m 64.07143,1008.6479 -4.145898,5.7063 -6.708204,-2.1796 0,-7.0534 6.708204,-2.1797 z"
       inkscape:randomized="0"
       inkscape:rounded="0"
       inkscape:flatsided="true"
       sodipodi:arg2="0.62831853"
       sodipodi:arg1="0"
       sodipodi:r2="4.8541021"
       sodipodi:r1="6"
       sodipodi:cy="1008.6479"
       sodipodi:cx="58.07143"
       sodipodi:sides="5"
       id="path5047"
       style="fill:#aa4400;fill-opacity:1;stroke:#000000;stroke-width:1;stroke-miterlimit:4;stroke-dasharray:none;stroke-opacity:1"
       sodipodi:type="star"
       transform="matrix(0.28231972,0,0,0.2785449,-0.07444535,759.34217)" />
    <path
       sodipodi:type="star"
       style="fill:#a05a2c;fill-opacity:1;stroke:#000000;stroke-width:1;stroke-miterlimit:4;stroke-dasharray:none;stroke-opacity:1"
       id="path5049"
       sodipodi:sides="5"
       sodipodi:cx="45.214283"
       sodipodi:cy="1039.3622"
       sodipodi:r1="6"
       sodipodi:r2="4.8541021"
       sodipodi:arg1="0"
       sodipodi:arg2="0.62831853"
       inkscape:flatsided="true"
       inkscape:rounded="0"
       inkscape:randomized="0"
       d="m 51.214283,1039.3622 -4.145898,5.7063 -6.708204,-2.1796 0,-7.0534 6.708204,-2.1797 z"
       inkscape:transform-center-x="-0.16175334"
       transform="matrix(0.28231972,0,0,0.2785449,-0.07444535,759.34217)" />
    <path
       inkscape:transform-center-x="-0.16175327"
       d="m 58.714287,980.07648 -4.145898,5.70634 -6.708204,-2.17963 0,-7.05342 6.708204,-2.17963 z"
       inkscape:randomized="0"
       inkscape:rounded="0"
       inkscape:flatsided="true"
       sodipodi:arg2="0.62831853"
       sodipodi:arg1="0"
       sodipodi:r2="4.8541021"
       sodipodi:r1="6"
       sodipodi:cy="980.07648"
       sodipodi:cx="52.714287"
       sodipodi:sides="5"
       id="path5051"
       style="fill:#803300;fill-opacity:1;stroke:#000000;stroke-width:1;stroke-miterlimit:4;stroke-dasharray:none;stroke-opacity:1"
       sodipodi:type="star"
       transform="matrix(0.28231972,0,0,0.2785449,-0.07444535,759.34217)" />
    <path
       sodipodi:type="star"
       style="fill:#803300;fill-opacity:1;stroke:#000000;stroke-width:1;stroke-miterlimit:4;stroke-dasharray:none;stroke-opacity:1"
       id="path5053"
       sodipodi:sides="5"
       sodipodi:cx="90.571434"
       sodipodi:cy="1005.7908"
       sodipodi:r1="6"
       sodipodi:r2="4.8541021"
       sodipodi:arg1="0"
       sodipodi:arg2="0.62831853"
       inkscape:flatsided="true"
       inkscape:rounded="0"
       inkscape:randomized="0"
       d="m 96.571434,1005.7908 -4.145898,5.7063 -6.708204,-2.1796 0,-7.0534 6.708204,-2.1797 z"
       inkscape:transform-center-x="-0.16175294"
       transform="matrix(0.28231972,0,0,0.2785449,-0.07444535,759.34217)" />
    <path
       inkscape:transform-center-x="-0.16175357"
       d="m 23.35714,979.36218 -4.145898,5.70634 -6.708204,-2.17963 0,-7.05342 6.708204,-2.17963 z"
       inkscape:randomized="0"
       inkscape:rounded="0"
       inkscape:flatsided="true"
       sodipodi:arg2="0.62831853"
       sodipodi:arg1="0"
       sodipodi:r2="4.8541021"
       sodipodi:r1="6"
       sodipodi:cy="979.36218"
       sodipodi:cx="17.35714"
       sodipodi:sides="5"
       id="path5055"
       style="fill:#502d16;fill-opacity:1;stroke:#000000;stroke-width:1;stroke-miterlimit:4;stroke-dasharray:none;stroke-opacity:1"
       sodipodi:type="star"
       transform="matrix(0.28231972,0,0,0.2785449,-0.07444535,759.34217)" />
    <path
       sodipodi:type="star"
       style="fill:#aa4400;fill-opacity:1;stroke:#000000;stroke-width:1;stroke-miterlimit:4;stroke-dasharray:none;stroke-opacity:1"
       id="path5057"
       sodipodi:sides="5"
       sodipodi:cx="20.571426"
       sodipodi:cy="1020.0765"
       sodipodi:r1="6"
       sodipodi:r2="4.8541021"
       sodipodi:arg1="0"
       sodipodi:arg2="0.62831853"
       inkscape:flatsided="true"
       inkscape:rounded="0"
       inkscape:randomized="0"
       d="m 26.571426,1020.0765 -4.145898,5.7063 -6.708204,-2.1796 0,-7.0534 6.708204,-2.1797 z"
       inkscape:transform-center-x="-0.16175356"
       transform="matrix(0.28231972,0,0,0.2785449,-0.07444535,759.34217)" />
    <path
       inkscape:transform-center-x="-0.16175288"
       d="m 103,1033.6479 -4.145898,5.7064 -6.708204,-2.1796 0,-7.0535 6.708204,-2.1796 z"
       inkscape:randomized="0"
       inkscape:rounded="0"
       inkscape:flatsided="true"
       sodipodi:arg2="0.62831853"
       sodipodi:arg1="0"
       sodipodi:r2="4.8541021"
       sodipodi:r1="6"
       sodipodi:cy="1033.6479"
       sodipodi:cx="97"
       sodipodi:sides="5"
       id="path5059"
       style="fill:#aa4400;fill-opacity:1;stroke:#000000;stroke-width:1;stroke-miterlimit:4;stroke-dasharray:none;stroke-opacity:1"
       sodipodi:type="star"
       transform="matrix(0.28231972,0,0,0.2785449,-0.07444535,759.34217)" />
    <path
       inkscape:transform-center-x="-0.16175301"
       d="m 89.428574,978.29077 -4.145898,5.70634 -6.708204,-2.17963 0,-7.05342 6.708204,-2.17963 z"
       inkscape:randomized="0"
       inkscape:rounded="0"
       inkscape:flatsided="true"
       sodipodi:arg2="0.62831853"
       sodipodi:arg1="0"
       sodipodi:r2="4.8541021"
       sodipodi:r1="6"
       sodipodi:cy="978.29077"
       sodipodi:cx="83.428574"
       sodipodi:sides="5"
       id="path5061"
       style="fill:#aa4400;fill-opacity:1;stroke:#000000;stroke-width:1;stroke-miterlimit:4;stroke-dasharray:none;stroke-opacity:1"
       sodipodi:type="star"
       transform="matrix(0.28231972,0,0,0.2785449,-0.07444535,759.34217)" />
    <path
       sodipodi:type="star"
       style="fill:#ff7f2a;fill-opacity:1;stroke:#000000;stroke-width:1;stroke-miterlimit:4;stroke-dasharray:none;stroke-opacity:1"
       id="path5063"
       sodipodi:sides="5"
       sodipodi:cx="69.14286"
       sodipodi:cy="1000.0765"
       sodipodi:r1="6"
       sodipodi:r2="4.8541021"
       sodipodi:arg1="0"
       sodipodi:arg2="0.62831853"
       inkscape:flatsided="true"
       inkscape:rounded="0"
       inkscape:randomized="0"
       d="m 75.14286,1000.0765 -4.145898,5.7063 -6.708204,-2.1796 0,-7.05343 6.708204,-2.17963 z"
       inkscape:transform-center-x="-0.13426507"
       transform="matrix(0.23434127,0,0,0.18159016,4.2815284,856.50329)" />
    <path
       inkscape:transform-center-x="-0.16175334"
       d="m 51.214283,1039.3622 -4.145898,5.7063 -6.708204,-2.1796 0,-7.0534 6.708204,-2.1797 z"
       inkscape:randomized="0"
       inkscape:rounded="0"
       inkscape:flatsided="true"
       sodipodi:arg2="0.62831853"
       sodipodi:arg1="0"
       sodipodi:r2="4.8541021"
       sodipodi:r1="6"
       sodipodi:cy="1039.3622"
       sodipodi:cx="45.214283"
       sodipodi:sides="5"
       id="path5065"
       style="fill:#a05a2c;fill-opacity:1;stroke:#000000;stroke-width:1;stroke-miterlimit:4;stroke-dasharray:none;stroke-opacity:1"
       sodipodi:type="star"
       transform="matrix(0.28231972,0,0,0.2785449,-0.07444535,759.34217)" />
    <path
       sodipodi:type="star"
       style="fill:#803300;fill-opacity:1;stroke:#000000;stroke-width:1;stroke-miterlimit:4;stroke-dasharray:none;stroke-opacity:1"
       id="path5067"
       sodipodi:sides="5"
       sodipodi:cx="52.714287"
       sodipodi:cy="980.07648"
       sodipodi:r1="6"
       sodipodi:r2="4.8541021"
       sodipodi:arg1="0"
       sodipodi:arg2="0.62831853"
       inkscape:flatsided="true"
       inkscape:rounded="0"
       inkscape:randomized="0"
       d="m 58.714287,980.07648 -4.145898,5.70634 -6.708204,-2.17963 0,-7.05342 6.708204,-2.17963 z"
       inkscape:transform-center-x="-0.16175327"
       transform="matrix(0.28231972,0,0,0.2785449,-0.07444535,759.34217)" />
    <path
       inkscape:transform-center-x="-0.16175294"
       d="m 96.571434,1005.7908 -4.145898,5.7063 -6.708204,-2.1796 0,-7.0534 6.708204,-2.1797 z"
       inkscape:randomized="0"
       inkscape:rounded="0"
       inkscape:flatsided="true"
       sodipodi:arg2="0.62831853"
       sodipodi:arg1="0"
       sodipodi:r2="4.8541021"
       sodipodi:r1="6"
       sodipodi:cy="1005.7908"
       sodipodi:cx="90.571434"
       sodipodi:sides="5"
       id="path5069"
       style="fill:#803300;fill-opacity:1;stroke:#000000;stroke-width:1;stroke-miterlimit:4;stroke-dasharray:none;stroke-opacity:1"
       sodipodi:type="star"
       transform="matrix(0.28231972,0,0,0.2785449,-0.07444535,759.34217)" />
    <path
       sodipodi:type="star"
       style="fill:#502d16;fill-opacity:1;stroke:#000000;stroke-width:1;stroke-miterlimit:4;stroke-dasharray:none;stroke-opacity:1"
       id="path5071"
       sodipodi:sides="5"
       sodipodi:cx="17.35714"
       sodipodi:cy="979.36218"
       sodipodi:r1="6"
       sodipodi:r2="4.8541021"
       sodipodi:arg1="0"
       sodipodi:arg2="0.62831853"
       inkscape:flatsided="true"
       inkscape:rounded="0"
       inkscape:randomized="0"
       d="m 23.35714,979.36218 -4.145898,5.70634 -6.708204,-2.17963 0,-7.05342 6.708204,-2.17963 z"
       inkscape:transform-center-x="-0.16175357"
       transform="matrix(0.28231972,0,0,0.2785449,-0.07444535,759.34217)" />
    <path
       inkscape:transform-center-x="-0.16175356"
       d="m 26.571426,1020.0765 -4.145898,5.7063 -6.708204,-2.1796 0,-7.0534 6.708204,-2.1797 z"
       inkscape:randomized="0"
       inkscape:rounded="0"
       inkscape:flatsided="true"
       sodipodi:arg2="0.62831853"
       sodipodi:arg1="0"
       sodipodi:r2="4.8541021"
       sodipodi:r1="6"
       sodipodi:cy="1020.0765"
       sodipodi:cx="20.571426"
       sodipodi:sides="5"
       id="path5073"
       style="fill:#aa4400;fill-opacity:1;stroke:#000000;stroke-width:1;stroke-miterlimit:4;stroke-dasharray:none;stroke-opacity:1"
       sodipodi:type="star"
       transform="matrix(0.28231972,0,0,0.2785449,-0.07444535,759.34217)" />
    <path
       sodipodi:type="star"
       style="fill:#aa4400;fill-opacity:1;stroke:#000000;stroke-width:1;stroke-miterlimit:4;stroke-dasharray:none;stroke-opacity:1"
       id="path5075"
       sodipodi:sides="5"
       sodipodi:cx="97"
       sodipodi:cy="1033.6479"
       sodipodi:r1="6"
       sodipodi:r2="4.8541021"
       sodipodi:arg1="0"
       sodipodi:arg2="0.62831853"
       inkscape:flatsided="true"
       inkscape:rounded="0"
       inkscape:randomized="0"
       d="m 103,1033.6479 -4.145898,5.7064 -6.708204,-2.1796 0,-7.0535 6.708204,-2.1796 z"
       inkscape:transform-center-x="-0.16175288"
       transform="matrix(0.28231972,0,0,0.2785449,-0.07444535,759.34217)" />
    <path
       sodipodi:type="star"
       style="fill:#aa4400;fill-opacity:1;stroke:#000000;stroke-width:1;stroke-miterlimit:4;stroke-dasharray:none;stroke-opacity:1"
       id="path5077"
       sodipodi:sides="5"
       sodipodi:cx="83.428574"
       sodipodi:cy="978.29077"
       sodipodi:r1="6"
       sodipodi:r2="4.8541021"
       sodipodi:arg1="0"
       sodipodi:arg2="0.62831853"
       inkscape:flatsided="true"
       inkscape:rounded="0"
       inkscape:randomized="0"
       d="m 89.428574,978.29077 -4.145898,5.70634 -6.708204,-2.17963 0,-7.05342 6.708204,-2.17963 z"
       inkscape:transform-center-x="-0.16175301"
       transform="matrix(0.28231972,0,0,0.2785449,-0.07444535,759.34217)" />
    <path
       inkscape:transform-center-x="0.12189215"
       d="m -50.571434,981.86212 -4.145898,5.70634 -6.708204,-2.17963 0,-7.05342 6.708204,-2.17963 z"
       inkscape:randomized="0"
       inkscape:rounded="0"
       inkscape:flatsided="true"
       sodipodi:arg2="0.62831853"
       sodipodi:arg1="0"
       sodipodi:r2="4.8541021"
       sodipodi:r1="6"
       sodipodi:cy="981.86212"
       sodipodi:cx="-56.571434"
       sodipodi:sides="5"
       id="path5079"
       style="fill:#aa4400;fill-opacity:1;stroke:#000000;stroke-width:1;stroke-miterlimit:4;stroke-dasharray:none;stroke-opacity:1"
       sodipodi:type="star"
       transform="matrix(-0.33734442,-0.03313761,0.0404812,-0.27614765,-44.273762,1310.7611)"
       inkscape:transform-center-y="-0.061531245" />
    <path
       sodipodi:type="star"
       style="fill:#a05a2c;fill-opacity:1;stroke:#000000;stroke-width:1;stroke-miterlimit:4;stroke-dasharray:none;stroke-opacity:1"
       id="path5081"
       sodipodi:sides="5"
       sodipodi:cx="-69.428589"
       sodipodi:cy="1012.5764"
       sodipodi:r1="6"
       sodipodi:r2="4.8541021"
       sodipodi:arg1="0"
       sodipodi:arg2="0.62831853"
       inkscape:flatsided="true"
       inkscape:rounded="0"
       inkscape:randomized="0"
       d="m -63.428589,1012.5764 -4.145898,5.7064 -6.708204,-2.1797 0,-7.0534 6.708204,-2.1796 z"
       inkscape:transform-center-x="0.12189191"
       transform="matrix(-0.33734442,-0.03313761,0.0404812,-0.27614765,-44.273762,1310.7611)"
       inkscape:transform-center-y="-0.061531045" />
    <path
       inkscape:transform-center-x="0.12189225"
       d="m -55.928577,953.29071 -4.145898,5.70634 -6.708204,-2.17963 0,-7.05342 6.708204,-2.17963 z"
       inkscape:randomized="0"
       inkscape:rounded="0"
       inkscape:flatsided="true"
       sodipodi:arg2="0.62831853"
       sodipodi:arg1="0"
       sodipodi:r2="4.8541021"
       sodipodi:r1="6"
       sodipodi:cy="953.29071"
       sodipodi:cx="-61.928577"
       sodipodi:sides="5"
       id="path5083"
       style="fill:#803300;fill-opacity:1;stroke:#000000;stroke-width:1;stroke-miterlimit:4;stroke-dasharray:none;stroke-opacity:1"
       sodipodi:type="star"
       transform="matrix(-0.33734442,-0.03313761,0.0404812,-0.27614765,-44.273762,1310.7611)"
       inkscape:transform-center-y="-0.06153141" />
    <path
       sodipodi:type="star"
       style="fill:#803300;fill-opacity:1;stroke:#000000;stroke-width:1;stroke-miterlimit:4;stroke-dasharray:none;stroke-opacity:1"
       id="path5085"
       sodipodi:sides="5"
       sodipodi:cx="-24.07143"
       sodipodi:cy="979.005"
       sodipodi:r1="6"
       sodipodi:r2="4.8541021"
       sodipodi:arg1="0"
       sodipodi:arg2="0.62831853"
       inkscape:flatsided="true"
       inkscape:rounded="0"
       inkscape:randomized="0"
       d="m -18.07143,979.005 -4.145898,5.70634 -6.708204,-2.17962 0,-7.05343 6.708204,-2.17962 z"
       inkscape:transform-center-x="0.12189243"
       transform="matrix(-0.33734442,-0.03313761,0.0404812,-0.27614765,-44.273762,1310.7611)"
       inkscape:transform-center-y="-0.061531308" />
    <path
       inkscape:transform-center-x="0.12189199"
       d="m -91.285728,952.57642 -4.145898,5.70634 -6.708204,-2.17963 0,-7.05343 6.708204,-2.17962 z"
       inkscape:randomized="0"
       inkscape:rounded="0"
       inkscape:flatsided="true"
       sodipodi:arg2="0.62831853"
       sodipodi:arg1="0"
       sodipodi:r2="4.8541021"
       sodipodi:r1="6"
       sodipodi:cy="952.57642"
       sodipodi:cx="-97.285728"
       sodipodi:sides="5"
       id="path5087"
       style="fill:#502d16;fill-opacity:1;stroke:#000000;stroke-width:1;stroke-miterlimit:4;stroke-dasharray:none;stroke-opacity:1"
       sodipodi:type="star"
       transform="matrix(-0.33734442,-0.03313761,0.0404812,-0.27614765,-44.273762,1310.7611)"
       inkscape:transform-center-y="-0.061531364" />
    <path
       sodipodi:type="star"
       style="fill:#aa4400;fill-opacity:1;stroke:#000000;stroke-width:1;stroke-miterlimit:4;stroke-dasharray:none;stroke-opacity:1"
       id="path5089"
       sodipodi:sides="5"
       sodipodi:cx="-94.071442"
       sodipodi:cy="993.29071"
       sodipodi:r1="6"
       sodipodi:r2="4.8541021"
       sodipodi:arg1="0"
       sodipodi:arg2="0.62831853"
       inkscape:flatsided="true"
       inkscape:rounded="0"
       inkscape:randomized="0"
       d="m -88.071442,993.29071 -4.145898,5.70634 -6.708204,-2.17963 0,-7.05342 6.708204,-2.17963 z"
       inkscape:transform-center-x="0.12189182"
       transform="matrix(-0.33734442,-0.03313761,0.0404812,-0.27614765,-44.273762,1310.7611)"
       inkscape:transform-center-y="-0.061531128" />
    <path
       inkscape:transform-center-x="0.12189231"
       d="m -11.642864,1006.8623 -4.145898,5.7063 -6.708204,-2.1796 0,-7.0534 6.708204,-2.1796 z"
       inkscape:randomized="0"
       inkscape:rounded="0"
       inkscape:flatsided="true"
       sodipodi:arg2="0.62831853"
       sodipodi:arg1="0"
       sodipodi:r2="4.8541021"
       sodipodi:r1="6"
       sodipodi:cy="1006.8623"
       sodipodi:cx="-17.642864"
       sodipodi:sides="5"
       id="path5091"
       style="fill:#aa4400;fill-opacity:1;stroke:#000000;stroke-width:1;stroke-miterlimit:4;stroke-dasharray:none;stroke-opacity:1"
       sodipodi:type="star"
       transform="matrix(-0.33734442,-0.03313761,0.0404812,-0.27614765,-44.273762,1310.7611)"
       inkscape:transform-center-y="-0.06153115" />
    <path
       inkscape:transform-center-x="0.12189234"
       d="m -25.214291,951.505 -4.145898,5.70634 -6.708204,-2.17962 0,-7.05343 6.708204,-2.17962 z"
       inkscape:randomized="0"
       inkscape:rounded="0"
       inkscape:flatsided="true"
       sodipodi:arg2="0.62831853"
       sodipodi:arg1="0"
       sodipodi:r2="4.8541021"
       sodipodi:r1="6"
       sodipodi:cy="951.505"
       sodipodi:cx="-31.214291"
       sodipodi:sides="5"
       id="path5093"
       style="fill:#aa4400;fill-opacity:1;stroke:#000000;stroke-width:1;stroke-miterlimit:4;stroke-dasharray:none;stroke-opacity:1"
       sodipodi:type="star"
       transform="matrix(-0.33734442,-0.03313761,0.0404812,-0.27614765,-45.282047,1311.9549)"
       inkscape:transform-center-y="-0.061491327" />
    <path
       inkscape:transform-center-x="0.11184174"
       d="m 41.214283,991.50507 -4.145898,5.70634 -6.708204,-2.17963 0,-7.05343 6.708204,-2.17962 z"
       inkscape:randomized="0"
       inkscape:rounded="0"
       inkscape:flatsided="true"
       sodipodi:arg2="0.62831853"
       sodipodi:arg1="0"
       sodipodi:r2="4.8541021"
       sodipodi:r1="6"
       sodipodi:cy="991.50507"
       sodipodi:cx="35.214283"
       sodipodi:sides="5"
       id="path5095"
       style="fill:#502d16;fill-opacity:1;stroke:#000000;stroke-width:1;stroke-miterlimit:4;stroke-dasharray:none;stroke-opacity:1"
       sodipodi:type="star"
       transform="matrix(-0.28094187,-0.02748596,0.02785845,-0.27718545,3.6019665,1320.7815)"
       inkscape:transform-center-y="-0.050880384" />
    <path
       sodipodi:type="star"
       style="fill:#aa4400;fill-opacity:1;stroke:#000000;stroke-width:1;stroke-miterlimit:4;stroke-dasharray:none;stroke-opacity:1"
       id="path5097"
       sodipodi:sides="5"
       sodipodi:cx="38.42857"
       sodipodi:cy="1032.2194"
       sodipodi:r1="6"
       sodipodi:r2="4.8541021"
       sodipodi:arg1="0"
       sodipodi:arg2="0.62831853"
       inkscape:flatsided="true"
       inkscape:rounded="0"
       inkscape:randomized="0"
       d="m 44.42857,1032.2194 -4.145898,5.7063 -6.708204,-2.1796 0,-7.0535 6.708204,-2.1796 z"
       inkscape:transform-center-x="0.11184243"
       transform="matrix(-0.28094187,-0.02748596,0.02785845,-0.27718545,11.567416,1320.4829)"
       inkscape:transform-center-y="-0.051046848" />
    <path
       inkscape:transform-center-y="0.12204479"
       transform="matrix(0.33238377,0.06581893,-0.06790232,0.27085879,101.38413,768.52086)"
       inkscape:transform-center-x="-0.07071474"
       d="m -63.428589,1012.5764 -4.145898,5.7064 -6.708204,-2.1797 0,-7.0534 6.708204,-2.1796 z"
       inkscape:randomized="0"
       inkscape:rounded="0"
       inkscape:flatsided="true"
       sodipodi:arg2="0.62831853"
       sodipodi:arg1="0"
       sodipodi:r2="4.8541021"
       sodipodi:r1="6"
       sodipodi:cy="1012.5764"
       sodipodi:cx="-69.428589"
       sodipodi:sides="5"
       id="path5099"
       style="fill:#a05a2c;fill-opacity:1;stroke:#000000;stroke-width:1;stroke-miterlimit:4;stroke-dasharray:none;stroke-opacity:1"
       sodipodi:type="star" />
    <path
       transform="matrix(0.23434127,0,0,0.18159016,13.961063,868.14247)"
       inkscape:transform-center-x="-0.13426533"
       d="m 75.14286,1000.0765 -4.145898,5.7063 -6.708204,-2.1796 0,-7.05343 6.708204,-2.17963 z"
       inkscape:randomized="0"
       inkscape:rounded="0"
       inkscape:flatsided="true"
       sodipodi:arg2="0.62831853"
       sodipodi:arg1="0"
       sodipodi:r2="4.8541021"
       sodipodi:r1="6"
       sodipodi:cy="1000.0765"
       sodipodi:cx="69.14286"
       sodipodi:sides="5"
       id="path5101"
       style="fill:#ff7f2a;fill-opacity:1;stroke:#000000;stroke-width:1;stroke-miterlimit:4;stroke-dasharray:none;stroke-opacity:1"
       sodipodi:type="star" />
    <path
       sodipodi:type="star"
       style="fill:#ff7f2a;fill-opacity:1;stroke:#000000;stroke-width:1;stroke-miterlimit:4;stroke-dasharray:none;stroke-opacity:1"
       id="path5103"
       sodipodi:sides="5"
       sodipodi:cx="69.14286"
       sodipodi:cy="1000.0765"
       sodipodi:r1="6"
       sodipodi:r2="4.8541021"
       sodipodi:arg1="0"
       sodipodi:arg2="0.62831853"
       inkscape:flatsided="true"
       inkscape:rounded="0"
       inkscape:randomized="0"
       d="m 75.14286,1000.0765 -4.145898,5.7063 -6.708204,-2.1796 0,-7.05343 6.708204,-2.17963 z"
       inkscape:transform-center-x="-0.13426409"
       transform="matrix(0.23434127,0,0,0.18159016,11.944492,849.63913)" />
    <path
       transform="matrix(0.23434127,0,0,0.18159016,-4.389721,863.26794)"
       inkscape:transform-center-x="-0.13426513"
       d="m 75.14286,1000.0765 -4.145898,5.7063 -6.708204,-2.1796 0,-7.05343 6.708204,-2.17963 z"
       inkscape:randomized="0"
       inkscape:rounded="0"
       inkscape:flatsided="true"
       sodipodi:arg2="0.62831853"
       sodipodi:arg1="0"
       sodipodi:r2="4.8541021"
       sodipodi:r1="6"
       sodipodi:cy="1000.0765"
       sodipodi:cx="69.14286"
       sodipodi:sides="5"
       id="path5105"
       style="fill:#ff7f2a;fill-opacity:1;stroke:#000000;stroke-width:1;stroke-miterlimit:4;stroke-dasharray:none;stroke-opacity:1"
       sodipodi:type="star" />
    <path
       sodipodi:type="star"
       style="fill:#ff7f2a;fill-opacity:1;stroke:#000000;stroke-width:1;stroke-miterlimit:4;stroke-dasharray:none;stroke-opacity:1"
       id="path5107"
       sodipodi:sides="5"
       sodipodi:cx="69.14286"
       sodipodi:cy="1000.0765"
       sodipodi:r1="6"
       sodipodi:r2="4.8541021"
       sodipodi:arg1="0"
       sodipodi:arg2="0.62831853"
       inkscape:flatsided="true"
       inkscape:rounded="0"
       inkscape:randomized="0"
       d="m 75.14286,1000.0765 -4.145898,5.7063 -6.708204,-2.1796 0,-7.05343 6.708204,-2.17963 z"
       inkscape:transform-center-x="-0.134265"
       transform="matrix(0.23434127,0,0,0.18159016,-12.556828,864.66068)" />
    <path
       transform="matrix(0.23434127,0,0,0.18159016,8.9196387,865.05858)"
       inkscape:transform-center-x="-0.1342651"
       d="m 75.14286,1000.0765 -4.145898,5.7063 -6.708204,-2.1796 0,-7.05343 6.708204,-2.17963 z"
       inkscape:randomized="0"
       inkscape:rounded="0"
       inkscape:flatsided="true"
       sodipodi:arg2="0.62831853"
       sodipodi:arg1="0"
       sodipodi:r2="4.8541021"
       sodipodi:r1="6"
       sodipodi:cy="1000.0765"
       sodipodi:cx="69.14286"
       sodipodi:sides="5"
       id="path5109"
       style="fill:#ff7f2a;fill-opacity:1;stroke:#000000;stroke-width:1;stroke-miterlimit:4;stroke-dasharray:none;stroke-opacity:1"
       sodipodi:type="star" />
    <path
       sodipodi:type="star"
       style="fill:#ff7f2a;fill-opacity:1;stroke:#000000;stroke-width:1;stroke-miterlimit:4;stroke-dasharray:none;stroke-opacity:1"
       id="path5111"
       sodipodi:sides="5"
       sodipodi:cx="69.14286"
       sodipodi:cy="1000.0765"
       sodipodi:r1="6"
       sodipodi:r2="4.8541021"
       sodipodi:arg1="0"
       sodipodi:arg2="0.62831853"
       inkscape:flatsided="true"
       inkscape:rounded="0"
       inkscape:randomized="0"
       d="m 75.14286,1000.0765 -4.145898,5.7063 -6.708204,-2.1796 0,-7.05343 6.708204,-2.17963 z"
       inkscape:transform-center-x="-7.7972292"
       transform="matrix(0.23434127,0,0,0.18159016,-5.7004912,851.42977)"
       inkscape:transform-center-y="-3.0839043" />
  </g>
</svg>
