<?xml version="1.0" encoding="UTF-8" standalone="no"?>
<!-- Created with Inkscape (http://www.inkscape.org/) -->

<svg
   xmlns:dc="http://purl.org/dc/elements/1.1/"
   xmlns:cc="http://creativecommons.org/ns#"
   xmlns:rdf="http://www.w3.org/1999/02/22-rdf-syntax-ns#"
   xmlns:svg="http://www.w3.org/2000/svg"
   xmlns="http://www.w3.org/2000/svg"
   xmlns:sodipodi="http://sodipodi.sourceforge.net/DTD/sodipodi-0.dtd"
   xmlns:inkscape="http://www.inkscape.org/namespaces/inkscape"
   width="32"
   height="32"
   viewBox="0 0 31.999999 31.999999"
   id="svg6703"
   version="1.1"
   inkscape:version="0.91 r13725"
   sodipodi:docname="fase tijolo espinho.svg">
  <defs
     id="defs6705">
    <inkscape:perspective
       sodipodi:type="inkscape:persp3d"
       inkscape:vp_x="56.186504 : -12.113195 : 1"
       inkscape:vp_y="-708.33999 : -146.793 : 0"
       inkscape:vp_z="17.087646 : 102.83643 : 1"
       inkscape:persp3d-origin="50.023031 : 48.135658 : 1"
       id="perspective7255" />
  </defs>
  <sodipodi:namedview
     id="base"
     pagecolor="#ffffff"
     bordercolor="#666666"
     borderopacity="1.0"
     inkscape:pageopacity="0.0"
     inkscape:pageshadow="2"
     inkscape:zoom="11.2"
     inkscape:cx="38.691764"
     inkscape:cy="24.210136"
     inkscape:document-units="px"
     inkscape:current-layer="layer1"
     showgrid="true"
     inkscape:window-width="1920"
     inkscape:window-height="1017"
     inkscape:window-x="-8"
     inkscape:window-y="-8"
     inkscape:window-maximized="1"
     units="px">
    <inkscape:grid
       type="xygrid"
       id="grid7251"
       spacingx="0.30000001"
       spacingy="0.30000001" />
  </sodipodi:namedview>
  <metadata
     id="metadata6708">
    <rdf:RDF>
      <cc:Work
         rdf:about="">
        <dc:format>image/svg+xml</dc:format>
        <dc:type
           rdf:resource="http://purl.org/dc/dcmitype/StillImage" />
        <dc:title></dc:title>
      </cc:Work>
    </rdf:RDF>
  </metadata>
  <g
     inkscape:label="Camada 1"
     inkscape:groupmode="layer"
     id="layer1"
     transform="translate(0,-1020.3622)">
    <g
       id="g7257"
       style="opacity:1;fill:#d44400;fill-opacity:1;stroke:#000000;stroke-width:1.37800002;stroke-miterlimit:4;stroke-dasharray:none;stroke-opacity:1"
       transform="matrix(0.28646667,0,0,0.30042421,-1.8136905,736.74346)">
      <path
         d="m 17.083943,949.63196 -0.0047,-0.0137 0.01108,-0.002 0.0047,0.0137 z"
         style="fill:#e9e9ff;fill-rule:evenodd;stroke:#000000;stroke-width:1.14504552px;stroke-linecap:butt;stroke-linejoin:round;stroke-opacity:1"
         id="path7273"
         inkscape:connector-curvature="0" />
      <path
         d="m 27.894676,1050.2156 -3.664346,-0.077 -7.135307,-100.50884 -0.01108,0.002 z"
         style="fill:#353564;fill-rule:evenodd;stroke:#000000;stroke-width:1.14504552px;stroke-linecap:butt;stroke-linejoin:round;stroke-opacity:1"
         id="path7275"
         inkscape:connector-curvature="0"
         sodipodi:nodetypes="ccccc" />
      <path
         d="m 13.878808,1050.4682 -5.9661322,0.3085 9.1665932,-101.15847 0.0047,0.0137 z"
         style="fill:#4d4d9f;fill-rule:evenodd;stroke:#000000;stroke-width:1.14504552px;stroke-linecap:butt;stroke-linejoin:round;stroke-opacity:1"
         id="path7277"
         inkscape:connector-curvature="0"
         sodipodi:nodetypes="ccccc" />
      <path
         d="m 24.23033,1050.1385 -8.475959,0.3962 1.33598,-100.91876 0.0047,0.0137 z"
         style="fill:#afafde;fill-rule:evenodd;stroke:#000000;stroke-width:1.14504552px;stroke-linecap:butt;stroke-linejoin:round;stroke-opacity:1"
         id="path7279"
         inkscape:connector-curvature="0"
         sodipodi:nodetypes="ccccc" />
      <path
         d="m 7.9126758,1050.7767 12.1348442,-2.5148 -2.957169,-98.64596 -0.01108,0.002 z"
         style="fill:#d7d7ff;fill-rule:evenodd;stroke:#000000;stroke-width:1.14504552px;stroke-linecap:butt;stroke-linejoin:round;stroke-opacity:1"
         id="path7281"
         inkscape:connector-curvature="0" />
      <path
         d="m 8.0704307,1050.2156 1.357474,-1.4592 10.6196153,-0.4945 -1.37303,1.2453 z"
         style="fill:#8686bf;fill-rule:evenodd;stroke:#000000;stroke-width:1.14504552px;stroke-linecap:butt;stroke-linejoin:round;stroke-opacity:1"
         id="path7283"
         inkscape:connector-curvature="0"
         sodipodi:nodetypes="ccccc" />
    </g>
    <g
       transform="matrix(-0.27831017,0,0,0.30047269,14.121566,736.54323)"
       style="opacity:1;fill:#d44400;fill-opacity:1;stroke:#000000;stroke-width:1.37800002;stroke-miterlimit:4;stroke-dasharray:none;stroke-opacity:1"
       id="g7285">
      <path
         inkscape:connector-curvature="0"
         id="path7287"
         style="fill:#e9e9ff;fill-rule:evenodd;stroke:#000000;stroke-width:1.14504552px;stroke-linecap:butt;stroke-linejoin:round;stroke-opacity:1"
         d="m 17.083943,949.63196 -0.0047,-0.0137 0.01108,-0.002 0.0047,0.0137 z" />
      <path
         sodipodi:nodetypes="ccccc"
         inkscape:connector-curvature="0"
         id="path7289"
         style="fill:#353564;fill-rule:evenodd;stroke:#000000;stroke-width:1.14504552px;stroke-linecap:butt;stroke-linejoin:round;stroke-opacity:1"
         d="m 27.894676,1050.2156 -3.664346,-0.077 -7.135307,-100.50884 -0.01108,0.002 z" />
      <path
         sodipodi:nodetypes="ccccc"
         inkscape:connector-curvature="0"
         id="path7291"
         style="fill:#4d4d9f;fill-rule:evenodd;stroke:#000000;stroke-width:1.14504552px;stroke-linecap:butt;stroke-linejoin:round;stroke-opacity:1"
         d="m 13.878808,1050.4682 -5.9661322,0.3085 9.1665932,-101.15847 0.0047,0.0137 z" />
      <path
         sodipodi:nodetypes="ccccc"
         inkscape:connector-curvature="0"
         id="path7293"
         style="fill:#afafde;fill-rule:evenodd;stroke:#000000;stroke-width:1.14504552px;stroke-linecap:butt;stroke-linejoin:round;stroke-opacity:1"
         d="m 24.23033,1050.1385 -8.475959,0.3962 1.33598,-100.91876 0.0047,0.0137 z" />
      <path
         inkscape:connector-curvature="0"
         id="path7295"
         style="fill:#d7d7ff;fill-rule:evenodd;stroke:#000000;stroke-width:1.14504552px;stroke-linecap:butt;stroke-linejoin:round;stroke-opacity:1"
         d="m 7.9126758,1050.7767 12.1348442,-2.5148 -2.957169,-98.64596 -0.01108,0.002 z" />
      <path
         sodipodi:nodetypes="ccccc"
         inkscape:connector-curvature="0"
         id="path7297"
         style="fill:#8686bf;fill-rule:evenodd;stroke:#000000;stroke-width:1.14504552px;stroke-linecap:butt;stroke-linejoin:round;stroke-opacity:1"
         d="m 8.0704307,1050.2156 1.357474,-1.4592 10.6196153,-0.4945 -1.37303,1.2453 z" />
    </g>
    <g
       id="g7299"
       style="opacity:1;fill:#d44400;fill-opacity:1;stroke:#000000;stroke-width:1.37800002;stroke-miterlimit:4;stroke-dasharray:none;stroke-opacity:1"
       transform="matrix(-0.27831017,0,0,0.30047269,14.121566,736.54323)">
      <path
         d="m 17.083943,949.63196 -0.0047,-0.0137 0.01108,-0.002 0.0047,0.0137 z"
         style="fill:#e9e9ff;fill-rule:evenodd;stroke:#000000;stroke-width:1.14504552px;stroke-linecap:butt;stroke-linejoin:round;stroke-opacity:1"
         id="path7301"
         inkscape:connector-curvature="0" />
      <path
         d="m 27.894676,1050.2156 -3.664346,-0.077 -7.135307,-100.50884 -0.01108,0.002 z"
         style="fill:#353564;fill-rule:evenodd;stroke:#000000;stroke-width:1.14504552px;stroke-linecap:butt;stroke-linejoin:round;stroke-opacity:1"
         id="path7303"
         inkscape:connector-curvature="0"
         sodipodi:nodetypes="ccccc" />
      <path
         d="m 13.878808,1050.4682 -5.9661322,0.3085 9.1665932,-101.15847 0.0047,0.0137 z"
         style="fill:#4d4d9f;fill-rule:evenodd;stroke:#000000;stroke-width:1.14504552px;stroke-linecap:butt;stroke-linejoin:round;stroke-opacity:1"
         id="path7305"
         inkscape:connector-curvature="0"
         sodipodi:nodetypes="ccccc" />
      <path
         d="m 24.23033,1050.1385 -8.475959,0.3962 1.33598,-100.91876 0.0047,0.0137 z"
         style="fill:#afafde;fill-rule:evenodd;stroke:#000000;stroke-width:1.14504552px;stroke-linecap:butt;stroke-linejoin:round;stroke-opacity:1"
         id="path7307"
         inkscape:connector-curvature="0"
         sodipodi:nodetypes="ccccc" />
      <path
         d="m 7.9126758,1050.7767 12.1348442,-2.5148 -2.957169,-98.64596 -0.01108,0.002 z"
         style="fill:#d7d7ff;fill-rule:evenodd;stroke:#000000;stroke-width:1.14504552px;stroke-linecap:butt;stroke-linejoin:round;stroke-opacity:1"
         id="path7309"
         inkscape:connector-curvature="0" />
      <path
         d="m 8.0704307,1050.2156 1.357474,-1.4592 10.6196153,-0.4945 -1.37303,1.2453 z"
         style="fill:#8686bf;fill-rule:evenodd;stroke:#000000;stroke-width:1.14504552px;stroke-linecap:butt;stroke-linejoin:round;stroke-opacity:1"
         id="path7311"
         inkscape:connector-curvature="0"
         sodipodi:nodetypes="ccccc" />
    </g>
    <g
       transform="matrix(0.28646667,0,0,0.30042421,9.9059992,736.59172)"
       style="opacity:1;fill:#d44400;fill-opacity:1;stroke:#000000;stroke-width:1.37800002;stroke-miterlimit:4;stroke-dasharray:none;stroke-opacity:1"
       id="g7313">
      <path
         inkscape:connector-curvature="0"
         id="path7315"
         style="fill:#e9e9ff;fill-rule:evenodd;stroke:#000000;stroke-width:1.14504552px;stroke-linecap:butt;stroke-linejoin:round;stroke-opacity:1"
         d="m 17.083943,949.63196 -0.0047,-0.0137 0.01108,-0.002 0.0047,0.0137 z" />
      <path
         sodipodi:nodetypes="ccccc"
         inkscape:connector-curvature="0"
         id="path7317"
         style="fill:#353564;fill-rule:evenodd;stroke:#000000;stroke-width:1.14504552px;stroke-linecap:butt;stroke-linejoin:round;stroke-opacity:1"
         d="m 27.894676,1050.2156 -3.664346,-0.077 -7.135307,-100.50884 -0.01108,0.002 z" />
      <path
         sodipodi:nodetypes="ccccc"
         inkscape:connector-curvature="0"
         id="path7319"
         style="fill:#4d4d9f;fill-rule:evenodd;stroke:#000000;stroke-width:1.14504552px;stroke-linecap:butt;stroke-linejoin:round;stroke-opacity:1"
         d="m 13.878808,1050.4682 -5.9661322,0.3085 9.1665932,-101.15847 0.0047,0.0137 z" />
      <path
         sodipodi:nodetypes="ccccc"
         inkscape:connector-curvature="0"
         id="path7321"
         style="fill:#afafde;fill-rule:evenodd;stroke:#000000;stroke-width:1.14504552px;stroke-linecap:butt;stroke-linejoin:round;stroke-opacity:1"
         d="m 24.23033,1050.1385 -8.475959,0.3962 1.33598,-100.91876 0.0047,0.0137 z" />
      <path
         inkscape:connector-curvature="0"
         id="path7323"
         style="fill:#d7d7ff;fill-rule:evenodd;stroke:#000000;stroke-width:1.14504552px;stroke-linecap:butt;stroke-linejoin:round;stroke-opacity:1"
         d="m 7.9126758,1050.7767 12.1348442,-2.5148 -2.957169,-98.64596 -0.01108,0.002 z" />
      <path
         sodipodi:nodetypes="ccccc"
         inkscape:connector-curvature="0"
         id="path7325"
         style="fill:#8686bf;fill-rule:evenodd;stroke:#000000;stroke-width:1.14504552px;stroke-linecap:butt;stroke-linejoin:round;stroke-opacity:1"
         d="m 8.0704307,1050.2156 1.357474,-1.4592 10.6196153,-0.4945 -1.37303,1.2453 z" />
    </g>
    <g
       id="g7327"
       style="opacity:1;fill:#d44400;fill-opacity:1;stroke:#000000;stroke-width:1.37800002;stroke-miterlimit:4;stroke-dasharray:none;stroke-opacity:1"
       transform="matrix(-0.27831017,0,0,0.30047269,25.841256,736.39148)">
      <path
         d="m 17.083943,949.63196 -0.0047,-0.0137 0.01108,-0.002 0.0047,0.0137 z"
         style="fill:#e9e9ff;fill-rule:evenodd;stroke:#000000;stroke-width:1.14504552px;stroke-linecap:butt;stroke-linejoin:round;stroke-opacity:1"
         id="path7329"
         inkscape:connector-curvature="0" />
      <path
         d="m 27.894676,1050.2156 -3.664346,-0.077 -7.135307,-100.50884 -0.01108,0.002 z"
         style="fill:#353564;fill-rule:evenodd;stroke:#000000;stroke-width:1.14504552px;stroke-linecap:butt;stroke-linejoin:round;stroke-opacity:1"
         id="path7331"
         inkscape:connector-curvature="0"
         sodipodi:nodetypes="ccccc" />
      <path
         d="m 13.878808,1050.4682 -5.9661322,0.3085 9.1665932,-101.15847 0.0047,0.0137 z"
         style="fill:#4d4d9f;fill-rule:evenodd;stroke:#000000;stroke-width:1.14504552px;stroke-linecap:butt;stroke-linejoin:round;stroke-opacity:1"
         id="path7333"
         inkscape:connector-curvature="0"
         sodipodi:nodetypes="ccccc" />
      <path
         d="m 24.23033,1050.1385 -8.475959,0.3962 1.33598,-100.91876 0.0047,0.0137 z"
         style="fill:#afafde;fill-rule:evenodd;stroke:#000000;stroke-width:1.14504552px;stroke-linecap:butt;stroke-linejoin:round;stroke-opacity:1"
         id="path7335"
         inkscape:connector-curvature="0"
         sodipodi:nodetypes="ccccc" />
      <path
         d="m 7.9126758,1050.7767 12.1348442,-2.5148 -2.957169,-98.64596 -0.01108,0.002 z"
         style="fill:#d7d7ff;fill-rule:evenodd;stroke:#000000;stroke-width:1.14504552px;stroke-linecap:butt;stroke-linejoin:round;stroke-opacity:1"
         id="path7337"
         inkscape:connector-curvature="0" />
      <path
         d="m 8.0704307,1050.2156 1.357474,-1.4592 10.6196153,-0.4945 -1.37303,1.2453 z"
         style="fill:#8686bf;fill-rule:evenodd;stroke:#000000;stroke-width:1.14504552px;stroke-linecap:butt;stroke-linejoin:round;stroke-opacity:1"
         id="path7339"
         inkscape:connector-curvature="0"
         sodipodi:nodetypes="ccccc" />
    </g>
    <g
       transform="matrix(-0.27831017,0,0,0.30047269,25.841256,736.39148)"
       style="opacity:1;fill:#d44400;fill-opacity:1;stroke:#000000;stroke-width:1.37800002;stroke-miterlimit:4;stroke-dasharray:none;stroke-opacity:1"
       id="g7341">
      <path
         inkscape:connector-curvature="0"
         id="path7343"
         style="fill:#e9e9ff;fill-rule:evenodd;stroke:#000000;stroke-width:1.14504552px;stroke-linecap:butt;stroke-linejoin:round;stroke-opacity:1"
         d="m 17.083943,949.63196 -0.0047,-0.0137 0.01108,-0.002 0.0047,0.0137 z" />
      <path
         sodipodi:nodetypes="ccccc"
         inkscape:connector-curvature="0"
         id="path7345"
         style="fill:#353564;fill-rule:evenodd;stroke:#000000;stroke-width:1.14504552px;stroke-linecap:butt;stroke-linejoin:round;stroke-opacity:1"
         d="m 27.894676,1050.2156 -3.664346,-0.077 -7.135307,-100.50884 -0.01108,0.002 z" />
      <path
         sodipodi:nodetypes="ccccc"
         inkscape:connector-curvature="0"
         id="path7347"
         style="fill:#4d4d9f;fill-rule:evenodd;stroke:#000000;stroke-width:1.14504552px;stroke-linecap:butt;stroke-linejoin:round;stroke-opacity:1"
         d="m 13.878808,1050.4682 -5.9661322,0.3085 9.1665932,-101.15847 0.0047,0.0137 z" />
      <path
         sodipodi:nodetypes="ccccc"
         inkscape:connector-curvature="0"
         id="path7349"
         style="fill:#afafde;fill-rule:evenodd;stroke:#000000;stroke-width:1.14504552px;stroke-linecap:butt;stroke-linejoin:round;stroke-opacity:1"
         d="m 24.23033,1050.1385 -8.475959,0.3962 1.33598,-100.91876 0.0047,0.0137 z" />
      <path
         inkscape:connector-curvature="0"
         id="path7351"
         style="fill:#d7d7ff;fill-rule:evenodd;stroke:#000000;stroke-width:1.14504552px;stroke-linecap:butt;stroke-linejoin:round;stroke-opacity:1"
         d="m 7.9126758,1050.7767 12.1348442,-2.5148 -2.957169,-98.64596 -0.01108,0.002 z" />
      <path
         sodipodi:nodetypes="ccccc"
         inkscape:connector-curvature="0"
         id="path7353"
         style="fill:#8686bf;fill-rule:evenodd;stroke:#000000;stroke-width:1.14504552px;stroke-linecap:butt;stroke-linejoin:round;stroke-opacity:1"
         d="m 8.0704307,1050.2156 1.357474,-1.4592 10.6196153,-0.4945 -1.37303,1.2453 z" />
    </g>
    <g
       id="g7355"
       style="opacity:1;fill:#d44400;fill-opacity:1;stroke:#000000;stroke-width:1.37800002;stroke-miterlimit:4;stroke-dasharray:none;stroke-opacity:1"
       transform="matrix(0.23658831,0,0,0.30072905,20.703192,736.51449)">
      <path
         d="m 17.083943,949.63196 -0.0047,-0.0137 0.01108,-0.002 0.0047,0.0137 z"
         style="fill:#e9e9ff;fill-rule:evenodd;stroke:#000000;stroke-width:1.14504552px;stroke-linecap:butt;stroke-linejoin:round;stroke-opacity:1"
         id="path7357"
         inkscape:connector-curvature="0" />
      <path
         d="m 27.894676,1050.2156 -3.664346,-0.077 -7.135307,-100.50884 -0.01108,0.002 z"
         style="fill:#353564;fill-rule:evenodd;stroke:#000000;stroke-width:1.14504552px;stroke-linecap:butt;stroke-linejoin:round;stroke-opacity:1"
         id="path7359"
         inkscape:connector-curvature="0"
         sodipodi:nodetypes="ccccc" />
      <path
         d="m 13.878808,1050.4682 -5.9661322,0.3085 9.1665932,-101.15847 0.0047,0.0137 z"
         style="fill:#4d4d9f;fill-rule:evenodd;stroke:#000000;stroke-width:1.14504552px;stroke-linecap:butt;stroke-linejoin:round;stroke-opacity:1"
         id="path7361"
         inkscape:connector-curvature="0"
         sodipodi:nodetypes="ccccc" />
      <path
         d="m 24.23033,1050.1385 -8.475959,0.3962 1.33598,-100.91876 0.0047,0.0137 z"
         style="fill:#afafde;fill-rule:evenodd;stroke:#000000;stroke-width:1.14504552px;stroke-linecap:butt;stroke-linejoin:round;stroke-opacity:1"
         id="path7363"
         inkscape:connector-curvature="0"
         sodipodi:nodetypes="ccccc" />
      <path
         d="m 7.9126758,1050.7767 12.1348442,-2.5148 -2.957169,-98.64596 -0.01108,0.002 z"
         style="fill:#d7d7ff;fill-rule:evenodd;stroke:#000000;stroke-width:1.14504552px;stroke-linecap:butt;stroke-linejoin:round;stroke-opacity:1"
         id="path7365"
         inkscape:connector-curvature="0" />
      <path
         d="m 8.0704307,1050.2156 1.357474,-1.4592 10.6196153,-0.4945 -1.37303,1.2453 z"
         style="fill:#8686bf;fill-rule:evenodd;stroke:#000000;stroke-width:1.14504552px;stroke-linecap:butt;stroke-linejoin:round;stroke-opacity:1"
         id="path7367"
         inkscape:connector-curvature="0"
         sodipodi:nodetypes="ccccc" />
    </g>
    <g
       transform="matrix(-0.22985196,0,0,0.3007776,33.863868,736.31405)"
       style="opacity:1;fill:#d44400;fill-opacity:1;stroke:#000000;stroke-width:1.37800002;stroke-miterlimit:4;stroke-dasharray:none;stroke-opacity:1"
       id="g7369">
      <path
         inkscape:connector-curvature="0"
         id="path7371"
         style="fill:#e9e9ff;fill-rule:evenodd;stroke:#000000;stroke-width:1.14504552px;stroke-linecap:butt;stroke-linejoin:round;stroke-opacity:1"
         d="m 17.083943,949.63196 -0.0047,-0.0137 0.01108,-0.002 0.0047,0.0137 z" />
      <path
         sodipodi:nodetypes="ccccc"
         inkscape:connector-curvature="0"
         id="path7373"
         style="fill:#353564;fill-rule:evenodd;stroke:#000000;stroke-width:1.14504552px;stroke-linecap:butt;stroke-linejoin:round;stroke-opacity:1"
         d="m 27.894676,1050.2156 -3.664346,-0.077 -7.135307,-100.50884 -0.01108,0.002 z" />
      <path
         sodipodi:nodetypes="ccccc"
         inkscape:connector-curvature="0"
         id="path7375"
         style="fill:#4d4d9f;fill-rule:evenodd;stroke:#000000;stroke-width:1.14504552px;stroke-linecap:butt;stroke-linejoin:round;stroke-opacity:1"
         d="m 13.878808,1050.4682 -5.9661322,0.3085 9.1665932,-101.15847 0.0047,0.0137 z" />
      <path
         sodipodi:nodetypes="ccccc"
         inkscape:connector-curvature="0"
         id="path7377"
         style="fill:#afafde;fill-rule:evenodd;stroke:#000000;stroke-width:1.14504552px;stroke-linecap:butt;stroke-linejoin:round;stroke-opacity:1"
         d="m 24.23033,1050.1385 -8.475959,0.3962 1.33598,-100.91876 0.0047,0.0137 z" />
      <path
         inkscape:connector-curvature="0"
         id="path7379"
         style="fill:#d7d7ff;fill-rule:evenodd;stroke:#000000;stroke-width:1.14504552px;stroke-linecap:butt;stroke-linejoin:round;stroke-opacity:1"
         d="m 7.9126758,1050.7767 12.1348442,-2.5148 -2.957169,-98.64596 -0.01108,0.002 z" />
      <path
         sodipodi:nodetypes="ccccc"
         inkscape:connector-curvature="0"
         id="path7381"
         style="fill:#8686bf;fill-rule:evenodd;stroke:#000000;stroke-width:1.14504552px;stroke-linecap:butt;stroke-linejoin:round;stroke-opacity:1"
         d="m 8.0704307,1050.2156 1.357474,-1.4592 10.6196153,-0.4945 -1.37303,1.2453 z" />
    </g>
    <path
       style="fill:none;fill-rule:evenodd;stroke:#000000;stroke-width:0.28065345px;stroke-linecap:butt;stroke-linejoin:miter;stroke-opacity:1"
       d="m 22.124906,1039.1953 c 0.05153,0.048 0.103046,0.096 0.154578,0.1437 0.02413,0 0.0508,-0.011 0.07239,0 0.03051,0.014 0.04185,0.054 0.07239,0.07 0.02158,0.011 0.0553,-0.016 0.07238,0 0.01705,0.016 0,0.046 0,0.07 0,0.024 0.0189,0.084 0,0.07 -0.136454,-0.1039 -0.247804,-0.2347 -0.371706,-0.3521"
       id="path7425"
       inkscape:connector-curvature="0" />
    <path
       style="fill:none;fill-rule:evenodd;stroke:#000000;stroke-width:0.28065345px;stroke-linecap:butt;stroke-linejoin:miter;stroke-opacity:1"
       d="m 23.844475,1040.8443 c -0.140072,-0.02 -0.134364,-0.264 -0.262221,-0.3253 -0.03018,-0.014 -0.127904,0.016 -0.144754,0 -0.01706,-0.016 0,-0.046 0,-0.07 0,-0.1157 0,-0.2314 0,-0.347 0,-0.024 0,-0.046 0,-0.07 0,-0.023 -0.01079,-0.049 0,-0.07 0.01526,-0.03 0.05344,-0.042 0.07239,-0.07 0.02992,-0.043 0.03424,-0.1022 0.07239,-0.1389 0.149747,-0.1435 -0.0059,0.2196 0.144751,-0.07 0.01079,-0.021 -0.02413,-0.07 0,-0.07 0.02412,0 0,0.092 0,0.07 0,-0.046 0.01525,-0.095 0,-0.1387 -0.01078,-0.031 -0.05711,-0.04 -0.07239,-0.07 -0.01079,-0.021 0,-0.046 0,-0.07 0,-0.023 -0.01568,-0.051 0,-0.07 0.05235,-0.058 0.126563,-0.096 0.189845,-0.1437"
       id="path7433"
       inkscape:connector-curvature="0" />
    <path
       style="opacity:1;fill:#aa0000;fill-opacity:1;stroke:#ff0000;stroke-width:0.15790145;stroke-miterlimit:4;stroke-dasharray:none;stroke-opacity:1"
       d="m 29.99772,1044.6198 c -0.0186,-0.058 -0.06744,-0.3149 -0.108571,-0.5703 -0.04114,-0.2553 -0.119944,-0.5566 -0.175156,-0.6693 -0.08628,-0.1761 -0.07294,-1.4763 0.09482,-9.2491 0.10737,-4.9745 0.209053,-9.0586 0.225963,-9.0758 0.05563,-0.056 0.737832,10.8618 0.690391,11.0498 -0.02551,0.101 -0.193042,0.3819 -0.372344,0.6242 -0.179303,0.2424 -0.326345,0.4779 -0.326761,0.5235 -2.86e-4,0.045 -0.05311,0.127 -0.117095,0.1811 -0.0997,0.085 -0.110463,0.2247 -0.07526,0.9821 0.02259,0.4859 0.07394,1.1481 0.114094,1.4711 0.148433,1.1944 0.215691,1.7025 0.296542,2.24 0.112365,0.747 0.05818,2.0996 -0.09543,2.3825 -0.08108,0.1493 -0.127854,0.1834 -0.151199,0.1102 z"
       id="path7437"
       inkscape:connector-curvature="0" />
    <path
       style="opacity:1;fill:#aa0000;fill-opacity:1;stroke:#ff0000;stroke-width:0.09766673;stroke-miterlimit:4;stroke-dasharray:none;stroke-opacity:1"
       d="m 29.111445,1042.9757 -0.15327,-0.1178 0.239776,-4.1297 0.239773,-4.1298 -0.04139,2.8804 c -0.02276,1.5843 -0.0617,3.4956 -0.08651,4.2475 l -0.04509,1.3671 -0.153275,-0.1177 z"
       id="path7439"
       inkscape:connector-curvature="0" />
    <path
       style="opacity:1;fill:#aa0000;fill-opacity:1;stroke:#ff0000;stroke-width:0.09766673;stroke-miterlimit:4;stroke-dasharray:none;stroke-opacity:1"
       d="m 28.523649,1042.2104 c -0.07043,-0.042 -0.03216,-0.7564 0.178276,-3.3265 0.147374,-1.7999 0.281208,-3.2598 0.297404,-3.2443 0.04118,0.039 -0.272875,5.9726 -0.335138,6.3316 -0.03619,0.2085 -0.07672,0.2776 -0.140542,0.2392 z"
       id="path7441"
       inkscape:connector-curvature="0" />
    <path
       style="opacity:1;fill:#aa0000;fill-opacity:1;stroke:#ff0000;stroke-width:0.24451414;stroke-miterlimit:4;stroke-dasharray:none;stroke-opacity:1"
       d="m 24.018893,1044.7648 c 0,-0.045 0.04481,-0.1551 0.0996,-0.2447 0.05477,-0.09 0.119036,-0.2973 0.142793,-0.4616 0.02374,-0.1641 0.09448,-0.4035 0.157176,-0.5317 0.11968,-0.2449 0.113011,-1.1474 -0.01738,-2.353 -0.05761,-0.5327 -0.0593,-0.536 -0.418216,-0.8136 -0.383664,-0.2966 -0.436228,-0.4946 -0.20232,-0.7622 0.14714,-0.1684 0.168598,-0.6532 0.03597,-0.8126 -0.09387,-0.1129 -0.05311,-0.9214 0.353068,-7.0028 0.252563,-3.7814 0.467861,-6.8665 0.478439,-6.8558 0.01057,0.011 0.09855,3.6589 0.195494,8.1064 0.09695,4.4478 0.194663,8.6405 0.217152,9.3172 0.0341,1.0262 0.02444,1.2239 -0.05824,1.1915 -0.145202,-0.057 -0.450718,0.3524 -0.507385,0.6797 -0.03262,0.1884 -0.120182,0.3398 -0.262532,0.4539 -0.117475,0.094 -0.213589,0.1342 -0.213589,0.09 z"
       id="path7443"
       inkscape:connector-curvature="0" />
    <path
       style="opacity:1;fill:#aa0000;fill-opacity:1;stroke:#ff0000;stroke-width:0.21837686;stroke-miterlimit:4;stroke-dasharray:none;stroke-opacity:1"
       d="m 22.150535,1039.0848 c -0.138825,-0.024 -0.161881,-0.073 -0.161881,-0.3527 0,-0.1971 -0.04255,-0.3624 -0.107922,-0.4195 -0.07496,-0.065 -0.109467,-0.247 -0.112978,-0.5948 -0.0061,-0.5984 -0.05253,-0.7432 -0.277191,-0.8632 -0.09352,-0.05 -0.267936,-0.2736 -0.387613,-0.4969 l -0.217598,-0.4062 0.126919,-5.5248 c 0.0698,-3.0385 0.148831,-5.6035 0.175613,-5.6999 0.02679,-0.097 0.298868,3.0967 0.604638,7.0956 0.30577,3.9989 0.547833,7.275 0.53792,7.2802 -0.01,0.01 -0.09087,0 -0.179907,-0.018 z"
       id="path7445"
       inkscape:connector-curvature="0" />
    <path
       style="opacity:1;fill:#aa0000;fill-opacity:1;stroke:#ff0000;stroke-width:0.20992881;stroke-miterlimit:4;stroke-dasharray:none;stroke-opacity:1"
       d="m 21.374926,1046.5967 c -0.119918,-0.085 -0.14205,-0.1832 -0.14205,-0.6356 0,-0.4355 0.03565,-0.6075 0.189998,-0.9173 0.10449,-0.2098 0.216744,-0.4751 0.249438,-0.5895 0.08848,-0.3101 0.0606,-1.837 -0.0352,-1.9287 -0.04424,-0.042 -0.07973,-0.2662 -0.07885,-0.4972 l 0.0016,-0.4198 0.141535,0.1735 c 0.07784,0.096 0.142255,0.2178 0.14314,0.2721 8.89e-4,0.054 0.04684,0.148 0.102113,0.2083 0.05527,0.06 0.134667,0.2501 0.176419,0.4219 0.04175,0.1718 0.113681,0.4529 0.15985,0.6247 0.150768,0.5609 -0.01577,1.8629 -0.305207,2.3861 -0.03971,0.071 -0.08561,0.2014 -0.101998,0.288 -0.01637,0.087 -0.10382,0.2827 -0.194282,0.4354 -0.152212,0.2569 -0.175085,0.2702 -0.306534,0.1781 z"
       id="path7447"
       inkscape:connector-curvature="0" />
    <path
       style="opacity:1;fill:#aa0000;fill-opacity:1;stroke:#ff0000;stroke-width:0.21498133;stroke-miterlimit:4;stroke-dasharray:none;stroke-opacity:1"
       d="m 13.450928,1039.9676 c -0.0067,-0.3234 1.176115,-14.6562 1.21881,-14.7687 0.0283,-0.074 0.124108,2.7181 0.212917,6.2059 0.08881,3.4879 0.181112,6.6625 0.205116,7.0549 0.03885,0.6346 0.03094,0.7082 -0.07184,0.6682 -0.08756,-0.034 -0.159552,0.056 -0.297784,0.3724 -0.162023,0.3706 -0.20039,0.4112 -0.344874,0.3651 -0.427725,-0.1366 -0.567195,-0.1293 -0.743844,0.039 -0.124322,0.1182 -0.176983,0.1369 -0.178504,0.064 z"
       id="path7449"
       inkscape:connector-curvature="0" />
    <path
       style="opacity:1;fill:#aa0000;fill-opacity:1;stroke:#ff0000;stroke-width:0.13918352;stroke-miterlimit:4;stroke-dasharray:none;stroke-opacity:1"
       d="m 14.559231,1042.2869 c 0.039,-0.1515 0.103506,-0.4737 0.143321,-0.7161 0.03981,-0.2424 0.138758,-0.6142 0.219858,-0.8263 l 0.147454,-0.3857 0.0046,0.3857 c 0.0025,0.2121 0.02456,0.5591 0.0489,0.7712 0.03898,0.3396 0.0037,0.425 -0.295421,0.7161 l -0.33968,0.3304 0.07091,-0.2753 z"
       id="path7451"
       inkscape:connector-curvature="0" />
    <path
       style="opacity:1;fill:#aa0000;fill-opacity:1;stroke:#ff0000;stroke-width:0.18536435;stroke-miterlimit:4;stroke-dasharray:none;stroke-opacity:1"
       d="m 10.170525,1045.0658 c -0.02716,-0.028 -0.04937,-0.1234 -0.04937,-0.2137 0,-0.091 -0.03562,-0.1863 -0.07916,-0.2132 -0.082715,-0.05 -0.060469,-0.2997 0.07071,-0.7902 0.04249,-0.159 0.07804,-0.6993 0.07898,-1.201 0.002,-1.0779 -0.01884,-1.1147 -0.5990488,-1.0549 l -0.3813176,0.039 -0.078515,-0.9141 c -0.062771,-0.731 -0.039216,-2.3875 0.1175237,-8.2634 0.1078213,-4.042 0.2103188,-7.3634 0.227772,-7.3809 0.01745,-0.018 0.3661613,4.1672 0.7749097,9.2995 0.408747,5.1319 0.758926,9.4069 0.778175,9.4995 0.02612,0.1256 -0.0024,0.1783 -0.112386,0.2071 -0.08105,0.022 -0.147384,0.095 -0.147384,0.1637 0,0.069 -0.101694,0.2681 -0.225998,0.4431 -0.296158,0.4164 -0.316757,0.4371 -0.374886,0.3792 z"
       id="path7453"
       inkscape:connector-curvature="0" />
    <path
       style="opacity:1;fill:#aa0000;fill-opacity:1;stroke:#ff0000;stroke-width:0.09766673;stroke-miterlimit:4;stroke-dasharray:none;stroke-opacity:1"
       d="m 8.7518102,1036.964 c -0.00314,-0.073 0.013963,-0.114 0.038013,-0.091 0.024051,0.023 0.026622,0.083 0.00571,0.133 -0.023106,0.055 -0.040254,0.038 -0.043727,-0.042 z"
       id="path7455"
       inkscape:connector-curvature="0" />
    <path
       style="opacity:1;fill:#aa0000;fill-opacity:1;stroke:#ff0000;stroke-width:0.11181116;stroke-miterlimit:4;stroke-dasharray:none;stroke-opacity:1"
       d="m 8.5959065,1038.366 c -0.103724,-0.1925 -0.099895,-0.4554 0.04892,-3.3605 l 0.1614489,-3.1516 -0.036447,2.1168 c -0.020044,1.1642 -0.031436,2.6777 -0.025309,3.3632 0.00612,0.6857 5.158e-4,1.2452 -0.012473,1.2437 -0.012985,0 -0.074248,-0.097 -0.1361395,-0.2116 z"
       id="path7457"
       inkscape:connector-curvature="0" />
    <path
       style="opacity:1;fill:#aa0000;fill-opacity:1;stroke:#ff0000;stroke-width:0.18186349;stroke-miterlimit:4;stroke-dasharray:none;stroke-opacity:1"
       d="m 2.3785293,1037.367 c -0.041193,-0.1102 -0.1235276,-0.2834 -0.1829651,-0.3847 -0.060078,-0.1024 -0.1080684,-0.3567 -0.1080684,-0.5726 0,-0.334 0.019053,-0.3884 0.1363109,-0.3884 0.075538,0 0.1532229,-0.062 0.1742434,-0.1391 0.028472,-0.1044 -0.00545,-0.1494 -0.1360294,-0.1809 -0.1624048,-0.039 -0.1713581,-0.066 -0.1347697,-0.3987 0.021556,-0.1964 0.2159932,-2.415 0.4320839,-4.9304 0.2160905,-2.5151 0.40345,-4.5833 0.4163541,-4.5956 0.012906,-0.012 0.079732,2.1549 0.1485063,4.8162 0.068774,2.6611 0.1423892,5.0417 0.1635894,5.2897 l 0.038546,0.4511 -0.4086829,0.59 c -0.2247752,0.3245 -0.4211788,0.6021 -0.436452,0.6169 -0.015274,0.015 -0.061473,-0.063 -0.102666,-0.1735 z"
       id="path7459"
       inkscape:connector-curvature="0" />
  </g>
</svg>
