<?xml version="1.0" encoding="UTF-8" standalone="no"?>
<!-- Created with Inkscape (http://www.inkscape.org/) -->

<svg
   xmlns:osb="http://www.openswatchbook.org/uri/2009/osb"
   xmlns:dc="http://purl.org/dc/elements/1.1/"
   xmlns:cc="http://creativecommons.org/ns#"
   xmlns:rdf="http://www.w3.org/1999/02/22-rdf-syntax-ns#"
   xmlns:svg="http://www.w3.org/2000/svg"
   xmlns="http://www.w3.org/2000/svg"
   xmlns:xlink="http://www.w3.org/1999/xlink"
   xmlns:sodipodi="http://sodipodi.sourceforge.net/DTD/sodipodi-0.dtd"
   xmlns:inkscape="http://www.inkscape.org/namespaces/inkscape"
   width="32"
   height="32"
   viewBox="0 0 31.999999 31.999999"
   id="svg2"
   version="1.1"
   inkscape:version="0.91 r13725"
   sodipodi:docname="fase caverna bloco de pedra.svg">
  <defs
     id="defs4">
    <linearGradient
       inkscape:collect="always"
       id="linearGradient6020">
      <stop
         style="stop-color:#3c3844;stop-opacity:1;"
         offset="0"
         id="stop6022" />
      <stop
         style="stop-color:#3c3844;stop-opacity:0;"
         offset="1"
         id="stop6024" />
    </linearGradient>
    <linearGradient
       id="linearGradient6697"
       osb:paint="gradient">
      <stop
         style="stop-color:#aa4400;stop-opacity:1;"
         offset="0"
         id="stop6685" />
      <stop
         style="stop-color:#aa4400;stop-opacity:0;"
         offset="1"
         id="stop6687" />
    </linearGradient>
    <linearGradient
       id="linearGradient6677"
       osb:paint="solid">
      <stop
         style="stop-color:#570000;stop-opacity:1;"
         offset="0"
         id="stop6679" />
    </linearGradient>
    <linearGradient
       inkscape:collect="always"
       xlink:href="#linearGradient6020"
       id="linearGradient6026"
       x1="-15.360741"
       y1="18.012777"
       x2="49.024441"
       y2="18.012777"
       gradientUnits="userSpaceOnUse" />
  </defs>
  <sodipodi:namedview
     id="base"
     pagecolor="#ffffff"
     bordercolor="#666666"
     borderopacity="1.0"
     inkscape:pageopacity="0.0"
     inkscape:pageshadow="2"
     inkscape:zoom="5.6"
     inkscape:cx="-30.614592"
     inkscape:cy="-15.803103"
     inkscape:document-units="px"
     inkscape:current-layer="layer1"
     showgrid="true"
     inkscape:window-width="1920"
     inkscape:window-height="1017"
     inkscape:window-x="-8"
     inkscape:window-y="-8"
     inkscape:window-maximized="1"
     units="px"
     showborder="true">
    <inkscape:grid
       type="xygrid"
       id="grid4136"
       spacingy="0.30000001"
       spacingx="0.30000001" />
  </sodipodi:namedview>
  <metadata
     id="metadata7">
    <rdf:RDF>
      <cc:Work
         rdf:about="">
        <dc:format>image/svg+xml</dc:format>
        <dc:type
           rdf:resource="http://purl.org/dc/dcmitype/StillImage" />
        <dc:title></dc:title>
      </cc:Work>
    </rdf:RDF>
  </metadata>
  <g
     inkscape:label="Camada 1"
     inkscape:groupmode="layer"
     id="layer1"
     transform="translate(0,-1020.3622)">
    <path
       style="opacity:1;fill:#666666;fill-opacity:1;stroke:#383838;stroke-width:0.36234644;stroke-miterlimit:4;stroke-dasharray:none;stroke-opacity:1"
       d="m 0.24773214,1020.7137 31.72035086,0 -0.09906,31.6893 -31.6212621,0 z"
       id="rect5996"
       inkscape:connector-curvature="0"
       sodipodi:nodetypes="ccccc" />
    <path
       style="fill:none;fill-rule:evenodd;stroke:#3c3844;stroke-width:0.64107448;stroke-linecap:butt;stroke-linejoin:miter;stroke-miterlimit:4;stroke-dasharray:none;stroke-opacity:1"
       d="m 6.2797148,1047.5676 c 0.1026425,-0.2042 0.2052858,-0.4083 0.307942,-0.6126 0.02281,-0.1275 0.023871,-0.2643 0.068031,-0.3824 0.1153738,-0.3085 0.22909,-0.1904 0.2549098,-0.5311 0.00928,-0.1235 -0.061267,-0.2519 -0.030501,-0.3698 0.1212088,-0.4645 0.5600935,-1.2049 0.7647693,-1.5933 0.1164348,-0.2207 0.2187462,-0.4533 0.3433101,-0.667 0.1375469,-0.2359 0.3042819,-0.4437 0.4418428,-0.6798 0.1245239,-0.2136 0.219767,-0.4524 0.3432833,-0.667 0.1091405,-0.1897 0.2443401,-0.3542 0.3534548,-0.5437 0.9849221,-1.7118 -0.080365,0.084 0.5098591,-1.0623 0.050525,-0.098 0.1286353,-0.1718 0.1767215,-0.2719 0.037923,-0.079 0.062196,-0.1691 0.078245,-0.2592 0.060076,-0.3377 -0.2733297,0.1843 0.057816,-0.5057 0.038063,-0.079 0.1403585,-0.077 0.1869325,-0.1486 0.02081,-0.032 -0.0066,-0.082 -0.0106,-0.1234 -0.0066,-0.082 -0.01352,-0.1644 -0.02029,-0.2465 -0.02029,-0.2466 -0.04072,-0.493 -0.061,-0.7395 -0.0066,-0.082 -0.01352,-0.1642 -0.02029,-0.2465 -0.0066,-0.082 0,-0.1675 -0.02029,-0.2464 -0.0309,-0.1247 -0.093491,-0.2342 -0.1290336,-0.357 -0.011938,-0.039 0,-0.084 -0.0106,-0.1234 -0.1323484,-0.4565 -0.1147101,-0.2976 -0.3566775,-0.7013 -0.044294,-0.074 -0.071746,-0.1625 -0.1188214,-0.2338 -0.1051618,-0.159 -0.2476956,-0.2804 -0.3363208,-0.4546 -0.035407,-0.069 0.015246,-0.1767 -0.020289,-0.2465 -0.050129,-0.098 -0.1540306,-0.1353 -0.2174329,-0.2211 -0.050129,-0.068 -0.074658,-0.1598 -0.1189553,-0.2337 -0.071478,-0.1197 -0.1582213,-0.2232 -0.2275914,-0.3442 -0.086065,-0.1502 -0.1585261,-0.3116 -0.2377893,-0.4676 -0.039651,-0.078 -0.068694,-0.1658 -0.1189544,-0.2337 -0.063389,-0.086 -0.1540042,-0.1352 -0.2174067,-0.2209 -0.050128,-0.067 -0.074662,-0.1599 -0.1189545,-0.2338 -0.071345,-0.1197 -0.1636849,-0.2187 -0.2275914,-0.3442 -0.3170526,-0.6233 0.1067539,-0.1083 -0.3668358,-0.8245 -0.00663,-0.013 -0.4256365,-0.4295 -0.4348797,-0.4421 -0.1689232,-0.2283 -0.1979126,-0.596 -0.3668358,-0.8243 -0.1440979,-0.195 -0.2705582,-0.1893 -0.3362948,-0.4548 -0.029308,-0.1184 0,-0.2514 -0.030501,-0.3697 0.040978,-0.2307 -0.1785377,-0.2087 -0.2275782,-0.3443 -0.046282,-0.561 0.045884,-0.013 -0.1290331,-0.357 -0.024666,-0.048 0.0053,-0.2206 -0.020289,-0.2464 -0.025462,-0.026 -0.080762,0.047 -0.098532,0.013 -0.035408,-0.069 -0.013527,-0.1644 -0.020289,-0.2465 -0.01061,-0.1235 0,-0.2513 -0.030502,-0.3697 0.054371,-0.2375 -0.1870383,-0.2043 -0.227618,-0.3442 -0.033816,-0.1171 -0.02029,-0.2465 -0.030501,-0.3698 -0.00398,-0.042 -0.00663,-0.082 -0.01061,-0.1234 -0.037265,-0.4519 -0.074661,-0.9037 -0.1119259,-1.3556 -0.030501,-0.3697 -0.061003,-0.7393 -0.091636,-1.1091 -0.027848,-0.3371 -0.084077,-0.663 0.01724,-0.9986 0.011935,-0.038 0.083149,0.024 0.098532,-0.013 0.1578765,-0.8876 -0.060073,0.069 0.2447517,-0.6541 0.015251,-0.037 -0.031031,-0.092 -0.01061,-0.1235 0.8556892,-1.3165 0.2031773,0.1209 0.3432835,-0.667 0.01061,-0.057 0.058881,-0.091 0.088321,-0.136 0.02944,-0.045 0.058881,-0.091 0.088321,-0.1359 0.02944,-0.045 0.088453,-0.077 0.08832,-0.136 -1.327e-4,-0.053 -0.059278,-0.076 -0.088984,-0.1134"
       id="path5998"
       inkscape:connector-curvature="0" />
    <path
       inkscape:connector-curvature="0"
       id="path6004"
       d="m 28.527967,1049.2682 c -0.08886,-0.2042 -0.177636,-0.4085 -0.26646,-0.6128 -0.01963,-0.1274 -0.02056,-0.2641 -0.05888,-0.3822 -0.09986,-0.3085 -0.198217,-0.1906 -0.22055,-0.5313 -0.0079,-0.1234 0.05304,-0.2519 0.02639,-0.3697 -0.104894,-0.4645 -0.484557,-1.2049 -0.661663,-1.5932 -0.100654,-0.2208 -0.189266,-0.4534 -0.297028,-0.667 -0.118954,-0.2361 -0.263251,-0.4439 -0.382245,-0.6798 -0.107815,-0.2137 -0.190155,-0.4524 -0.297002,-0.667 -0.09442,-0.1897 -0.211412,-0.3543 -0.305806,-0.544 -0.852136,-1.7117 0.06949,0.084 -0.441113,-1.0621 -0.04376,-0.098 -0.111263,-0.1718 -0.152917,-0.2718 -0.03289,-0.079 -0.05371,-0.1692 -0.06763,-0.2594 -0.05198,-0.3375 0.23649,0.1844 -0.04999,-0.5056 -0.03289,-0.079 -0.121342,-0.077 -0.161709,-0.1485 -0.01804,-0.033 0.0054,-0.082 0.0093,-0.1235 0.0054,-0.082 0.01194,-0.1643 0.0175,-0.2466 0.01751,-0.2463 0.03528,-0.4927 0.05278,-0.7393 0.0054,-0.082 0.01194,-0.1642 0.01751,-0.2464 0.0054,-0.082 0,-0.1675 0.01751,-0.2464 0.02666,-0.1247 0.0809,-0.2343 0.11166,-0.357 0.0093,-0.039 0,-0.084 0.0093,-0.1234 0.114446,-0.4565 0.0992,-0.2975 0.308553,-0.7012 0.03833,-0.074 0.0622,-0.1627 0.102913,-0.2337 0.09098,-0.1592 0.214304,-0.2805 0.290967,-0.4548 0.03063,-0.069 -0.01327,-0.1767 0.01751,-0.2465 0.04336,-0.098 0.133223,-0.1353 0.188085,-0.2209 0.04336,-0.067 0.06458,-0.16 0.102903,-0.2338 0.0618,-0.1197 0.136884,-0.2233 0.196918,-0.3442 0.0744,-0.1502 0.137136,-0.3117 0.205697,-0.4675 0.03435,-0.078 0.05954,-0.166 0.102913,-0.2338 0.0549,-0.086 0.133225,-0.1353 0.1881,-0.221 0.04336,-0.068 0.06458,-0.1599 0.102913,-0.2338 0.0618,-0.1184 0.141631,-0.2185 0.196918,-0.3441 0.274272,-0.6233 -0.09243,-0.1083 0.317371,-0.8245 0.0054,-0.013 0.368254,-0.4296 0.376238,-0.4421 0.146153,-0.2284 0.17123,-0.5961 0.317384,-0.8244 0.124657,-0.1949 0.234077,-0.1892 0.290968,-0.4548 0.02519,-0.1184 0,-0.2513 0.02639,-0.3697 -0.03541,-0.2307 0.154482,-0.2086 0.196918,-0.3442 0.04004,-0.561 -0.03965,-0.013 0.111661,-0.3569 0.02135,-0.049 -0.004,-0.2208 0.0175,-0.2465 0.02214,-0.026 0.06988,0.047 0.08527,0.013 0.03063,-0.069 0.01194,-0.1643 0.01777,-0.2464 0.0093,-0.1234 0,-0.2514 0.02639,-0.3698 -0.04708,-0.2375 0.161816,-0.2043 0.196932,-0.3442 0.02918,-0.1159 0.01777,-0.2465 0.02639,-0.3698 0.0027,-0.042 0.0054,-0.082 0.0093,-0.1234 0.03223,-0.4518 0.06458,-0.9037 0.09681,-1.3555 0.02639,-0.3696 0.05279,-0.7394 0.07917,-1.1091 0.02413,-0.337 0.07281,-0.6631 -0.01472,-0.9985 -0.0106,-0.039 -0.07187,0.024 -0.08527,-0.013 -0.136606,-0.8877 0.05198,0.069 -0.211745,-0.6544 -0.01327,-0.037 0.02692,-0.091 0.0093,-0.1235 -0.740328,-1.3164 -0.175779,0.1209 -0.297014,-0.667 -0.0093,-0.057 -0.05092,-0.091 -0.07638,-0.1359 -0.02546,-0.045 -0.05092,-0.091 -0.07638,-0.1359 -0.02546,-0.045 -0.07652,-0.077 -0.07652,-0.136 1.33e-4,-0.053 0.05132,-0.076 0.07705,-0.1134"
       style="fill:none;fill-rule:evenodd;stroke:#3c3844;stroke-width:0.64107448;stroke-linecap:butt;stroke-linejoin:miter;stroke-miterlimit:4;stroke-dasharray:none;stroke-opacity:1" />
    <path
       style="fill:none;fill-rule:evenodd;stroke:#3c3844;stroke-width:0.64107448;stroke-linecap:butt;stroke-linejoin:miter;stroke-miterlimit:4;stroke-dasharray:none;stroke-opacity:1"
       d="m 20.206582,1038.0187 c -0.08886,-0.1146 -0.177636,-0.2281 -0.26646,-0.3422 -0.01975,-0.072 -0.02056,-0.1476 -0.05888,-0.2135 -0.09986,-0.1723 -0.198218,-0.1058 -0.22055,-0.2967 -0.0079,-0.069 0.05304,-0.1407 0.02639,-0.2064 -0.104766,-0.2596 -0.484543,-0.6732 -0.661649,-0.8901 -0.100654,-0.1234 -0.18924,-0.2532 -0.297001,-0.3726 -0.118954,-0.1317 -0.263251,-0.2478 -0.382245,-0.3796 -0.107815,-0.1196 -0.190181,-0.2528 -0.297028,-0.3727 -0.09442,-0.1058 -0.211413,-0.1978 -0.305808,-0.3038 -0.852135,-0.956 0.06949,0.047 -0.441112,-0.5932 -0.04376,-0.055 -0.111262,-0.097 -0.15289,-0.1519 -0.03289,-0.044 -0.05384,-0.094 -0.06763,-0.1448 -0.05198,-0.1886 0.23649,0.1033 -0.04999,-0.2825 -0.03289,-0.044 -0.121474,-0.043 -0.161722,-0.083 -0.01804,-0.018 0.0054,-0.047 0.0093,-0.069 0.0054,-0.047 0.01194,-0.092 0.0175,-0.1377 0.01777,-0.1376 0.03514,-0.2753 0.05279,-0.413 0.0054,-0.047 0.01194,-0.092 0.0175,-0.1376 0.0054,-0.047 0,-0.093 0.01751,-0.1378 0.02666,-0.069 0.08089,-0.1309 0.111661,-0.1993 0.0093,-0.023 0,-0.047 0.0093,-0.069 0.114446,-0.255 0.0992,-0.1663 0.30858,-0.3916 0.03833,-0.042 0.0622,-0.092 0.102903,-0.1308 0.0911,-0.089 0.214303,-0.1565 0.290967,-0.2539 0.03063,-0.039 -0.01327,-0.098 0.0175,-0.1376 0.04336,-0.055 0.13325,-0.076 0.188113,-0.1235 0.04336,-0.038 0.06458,-0.089 0.102913,-0.1306 0.0618,-0.067 0.136884,-0.1247 0.196918,-0.1922 0.0744,-0.083 0.137162,-0.1742 0.205724,-0.2612 0.03435,-0.043 0.05941,-0.092 0.102913,-0.1305 0.0549,-0.048 0.13325,-0.076 0.188125,-0.1234 0.04336,-0.038 0.06458,-0.089 0.102914,-0.1305 0.0618,-0.067 0.141618,-0.1222 0.196904,-0.1923 0.274299,-0.3481 -0.0923,-0.061 0.317385,-0.4606 0.0054,-0.013 0.368241,-0.2398 0.376238,-0.2467 0.14614,-0.1278 0.171217,-0.3331 0.317371,-0.4606 0.124656,-0.1084 0.234076,-0.1058 0.290968,-0.2541 0.02519,-0.067 0,-0.1404 0.02639,-0.2065 -0.03541,-0.1289 0.154481,-0.1159 0.196917,-0.1922 0.04005,-0.3134 -0.03965,-0.013 0.111661,-0.1994 0.02135,-0.028 -0.004,-0.1234 0.01751,-0.1377 0.02215,-0.014 0.06988,0.028 0.08527,0.013 0.03063,-0.039 0.01194,-0.092 0.01777,-0.1378 0.0093,-0.069 0,-0.1404 0.02639,-0.2064 -0.04695,-0.1326 0.161815,-0.1146 0.196931,-0.1923 0.02918,-0.065 0.01777,-0.1377 0.02639,-0.2066 0.0027,-0.023 0.0054,-0.047 0.0093,-0.069 0.03223,-0.2522 0.06458,-0.5046 0.09681,-0.7572 0.02639,-0.2064 0.05278,-0.4129 0.07917,-0.6194 0.02413,-0.1883 0.07281,-0.3704 -0.01472,-0.5578 -0.0106,-0.023 -0.07187,0.013 -0.08527,-0.013 -0.136605,-0.4957 0.05198,0.038 -0.211744,-0.3655 -0.01327,-0.02 0.02692,-0.052 0.0093,-0.069 -0.740329,-0.7353 -0.17578,0.067 -0.297014,-0.3725 -0.0093,-0.032 -0.05092,-0.05 -0.07652,-0.077 -0.02546,-0.025 -0.05092,-0.05 -0.07638,-0.077 -0.02546,-0.025 -0.07652,-0.043 -0.07652,-0.077 1.33e-4,-0.029 0.05132,-0.043 0.07705,-0.063"
       id="path6008"
       inkscape:connector-curvature="0" />
    <path
       inkscape:connector-curvature="0"
       id="path6012"
       d="m 2.5947276,1051.513 c 0.06445,-0.088 0.1289004,-0.1775 0.1933904,-0.2663 0.01419,-0.055 0.014985,-0.1146 0.042702,-0.1661 0.072407,-0.134 0.1438725,-0.082 0.1601045,-0.2306 0.0053,-0.053 -0.038458,-0.1096 -0.019097,-0.1608 0.07612,-0.2017 0.3517708,-0.5234 0.4803397,-0.692 0.07307,-0.096 0.1373877,-0.197 0.2156032,-0.2899 0.086332,-0.102 0.1911095,-0.1928 0.2775204,-0.2953 0.078242,-0.092 0.1380243,-0.1965 0.2156032,-0.2897 0.068562,-0.082 0.1534738,-0.1539 0.221982,-0.2363 0.6186159,-0.7436 -0.050394,0.037 0.3202353,-0.4615 0.031694,-0.043 0.080762,-0.074 0.1109975,-0.1183 0.023871,-0.034 0.038989,-0.073 0.049067,-0.1121 0.037795,-0.1468 -0.1716682,0.081 0.036337,-0.2198 0.023871,-0.034 0.088188,-0.033 0.117363,-0.064 0.013261,-0.014 -0.00398,-0.037 -0.00663,-0.053 -0.00398,-0.035 -0.00796,-0.072 -0.013261,-0.107 -0.013261,-0.1071 -0.025462,-0.2141 -0.038325,-0.3212 -0.00398,-0.035 -0.00796,-0.072 -0.013261,-0.107 -0.00398,-0.035 0,-0.072 -0.013261,-0.1071 -0.019362,-0.054 -0.058748,-0.102 -0.081027,-0.1552 -0.00663,-0.016 0,-0.036 -0.00663,-0.053 -0.083149,-0.1982 -0.072009,-0.1292 -0.2240109,-0.3046 -0.027848,-0.032 -0.045088,-0.071 -0.074661,-0.1021 -0.066041,-0.069 -0.1555823,-0.1221 -0.2112535,-0.1974 -0.022147,-0.03 0.00928,-0.077 -0.013261,-0.1071 -0.03143,-0.043 -0.096676,-0.059 -0.1365522,-0.097 -0.03143,-0.029 -0.046812,-0.069 -0.074661,-0.102 -0.044824,-0.052 -0.099461,-0.097 -0.1429707,-0.1495 -0.053974,-0.065 -0.099593,-0.1354 -0.1493362,-0.2032 -0.024932,-0.034 -0.043099,-0.072 -0.074661,-0.102 -0.039784,-0.037 -0.096676,-0.058 -0.1365522,-0.096 -0.03143,-0.029 -0.046813,-0.069 -0.074661,-0.102 -0.044824,-0.053 -0.1027753,-0.096 -0.1429574,-0.1495 -0.1991062,-0.2708 0.067102,-0.048 -0.2303897,-0.3582 -0.00398,0 -0.2673358,-0.1867 -0.2731309,-0.1921 -0.1060912,-0.1 -0.1242591,-0.2589 -0.230403,-0.3582 -0.090575,-0.084 -0.1699178,-0.082 -0.2112136,-0.1975 -0.018301,-0.052 0,-0.1096 -0.019097,-0.1606 0.02586,-0.1007 -0.1121911,-0.091 -0.1429574,-0.1495 -0.029042,-0.2438 0.028778,-0.013 -0.081027,-0.1551 -0.015516,-0.022 0.00266,-0.096 -0.013261,-0.1071 -0.016046,-0.013 -0.050791,0.021 -0.06193,0.013 -0.022147,-0.03 -0.00796,-0.072 -0.013261,-0.1071 -0.00663,-0.053 0,-0.1095 -0.019097,-0.1605 0.034082,-0.1033 -0.1174957,-0.088 -0.1429575,-0.1497 -0.02135,-0.05 -0.013261,-0.107 -0.019097,-0.1606 -0.00266,-0.018 -0.00398,-0.035 -0.00663,-0.053 -0.02334,-0.1962 -0.046812,-0.3925 -0.070286,-0.5888 -0.019097,-0.1606 -0.038325,-0.3213 -0.057554,-0.4817 -0.017505,-0.1465 -0.05278,-0.2882 0.01061,-0.4338 0.00663,-0.018 0.05225,0.013 0.06193,-0.013 0.099195,-0.3856 -0.037662,0.03 0.1537257,-0.2843 0.00928,-0.016 -0.019494,-0.039 -0.00663,-0.053 0.5374299,-0.5719 0.1275743,0.052 0.2156165,-0.2898 0.00663,-0.025 0.036999,-0.039 0.055432,-0.059 0.018566,-0.019 0.036999,-0.039 0.055565,-0.059 0.018566,-0.019 0.055565,-0.034 0.055565,-0.059 -7.95e-5,-0.023 -0.037265,-0.033 -0.05583,-0.049"
       style="fill:none;fill-rule:evenodd;stroke:#3c3844;stroke-width:0.64107448;stroke-linecap:butt;stroke-linejoin:miter;stroke-miterlimit:4;stroke-dasharray:none;stroke-opacity:1" />
    <path
       sodipodi:type="star"
       style="opacity:1;fill:#999999;fill-opacity:1;stroke:#3c3844;stroke-width:1.93609846;stroke-miterlimit:4;stroke-dasharray:none;stroke-opacity:1"
       id="path6016"
       sodipodi:sides="3"
       sodipodi:cx="18"
       sodipodi:cy="17.385826"
       sodipodi:r1="15.297059"
       sodipodi:r2="7.6485295"
       sodipodi:arg1="0.19739556"
       sodipodi:arg2="1.2445931"
       inkscape:flatsided="true"
       inkscape:rounded="-1.76"
       inkscape:randomized="0.893"
       d="M 31.767161,27.515852 C 85.867367,13.543671 -16.419431,63.259404 13.175217,39.792522 42.769866,16.325639 29.386787,7.0161388 2.7169898,-7.9026773 -23.952808,-22.821493 -22.333046,41.488034 31.767161,27.515852 Z"
       transform="matrix(0.06488973,0,0,0.11498281,2.2888942,1030.7716)"
       inkscape:transform-center-x="0.42161093"
       inkscape:transform-center-y="-0.24581412" />
    <path
       inkscape:transform-center-y="-1.3491398"
       inkscape:transform-center-x="0.31843514"
       transform="matrix(0.03081968,0.1706894,-0.15237647,0.03452366,14.914504,1041.0943)"
       d="M 31.767161,27.515852 C 85.867367,13.543671 -16.419431,63.259404 13.175217,39.792522 42.769866,16.325639 29.386787,7.0161388 2.7169898,-7.9026773 -23.952808,-22.821493 -22.333046,41.488034 31.767161,27.515852 Z"
       inkscape:randomized="0.893"
       inkscape:rounded="-1.76"
       inkscape:flatsided="true"
       sodipodi:arg2="1.2445931"
       sodipodi:arg1="0.19739556"
       sodipodi:r2="7.6485295"
       sodipodi:r1="15.297059"
       sodipodi:cy="17.385826"
       sodipodi:cx="18"
       sodipodi:sides="3"
       id="path6018"
       style="opacity:1;fill:#999999;fill-opacity:1;stroke:url(#linearGradient6026);stroke-width:2.37159228;stroke-miterlimit:4;stroke-dasharray:none;stroke-opacity:1"
       sodipodi:type="star" />
    <path
       style="fill:none;fill-rule:evenodd;stroke:#3c3844;stroke-width:0.64107448;stroke-linecap:butt;stroke-linejoin:miter;stroke-miterlimit:4;stroke-dasharray:none;stroke-opacity:1"
       d="m 14.291765,1046.6293 c 0.103566,-0.132 0.207168,-0.2642 0.310753,-0.3961 0.02268,-0.082 0.02413,-0.171 0.06869,-0.2474 0.116435,-0.1995 0.231199,-0.1234 0.257244,-0.3435 0.0093,-0.079 -0.0618,-0.163 -0.03077,-0.239 0.12227,-0.3005 0.565159,-0.7794 0.771718,-1.0304 0.117495,-0.1428 0.220735,-0.2934 0.346426,-0.4315 0.138821,-0.1527 0.307054,-0.2871 0.445861,-0.4396 0.125717,-0.1383 0.221783,-0.2926 0.346413,-0.4315 0.110069,-0.1222 0.246594,-0.229 0.356704,-0.3516 0.993913,-1.107 -0.08103,0.055 0.514487,-0.687 0.05106,-0.063 0.12983,-0.1108 0.178353,-0.1758 0.03833,-0.052 0.06273,-0.1096 0.07891,-0.1678 0.0606,-0.2182 -0.275823,0.1197 0.05835,-0.3269 0.03833,-0.052 0.141605,-0.05 0.18859,-0.096 0.02108,-0.022 -0.0066,-0.053 -0.0106,-0.079 -0.0066,-0.053 -0.01352,-0.1058 -0.02056,-0.1593 -0.02056,-0.1595 -0.04111,-0.3189 -0.06166,-0.4782 -0.0066,-0.053 -0.01352,-0.1058 -0.02056,-0.1595 -0.0066,-0.053 0,-0.1083 -0.02056,-0.1595 -0.03117,-0.081 -0.09428,-0.1513 -0.130226,-0.2307 -0.01194,-0.025 0,-0.054 -0.0106,-0.079 -0.133555,-0.2953 -0.115771,-0.1925 -0.359899,-0.4535 -0.04469,-0.048 -0.07254,-0.1045 -0.120015,-0.1511 -0.106093,-0.1033 -0.249938,-0.1816 -0.339372,-0.2942 -0.0358,-0.045 0.01525,-0.1146 -0.02056,-0.1593 -0.05065,-0.063 -0.15541,-0.087 -0.219396,-0.1431 -0.05066,-0.044 -0.07532,-0.1033 -0.120015,-0.151 -0.07214,-0.077 -0.159681,-0.1445 -0.229701,-0.2228 -0.08686,-0.097 -0.159958,-0.2016 -0.239924,-0.3022 -0.04004,-0.05 -0.06936,-0.107 -0.120016,-0.1513 -0.06392,-0.055 -0.155409,-0.087 -0.219395,-0.1429 -0.05066,-0.044 -0.07532,-0.1033 -0.120015,-0.1511 -0.07201,-0.077 -0.165184,-0.1414 -0.229674,-0.2226 -0.31993,-0.4032 0.107815,-0.07 -0.370165,-0.5333 -0.0066,-0.013 -0.429522,-0.2777 -0.438831,-0.2859 -0.170449,-0.1477 -0.199716,-0.3854 -0.370164,-0.5331 -0.145438,-0.1261 -0.273026,-0.1222 -0.339412,-0.2941 -0.02957,-0.077 0,-0.1626 -0.03077,-0.2391 0.04137,-0.1492 -0.180196,-0.135 -0.229674,-0.2228 -0.04668,-0.3627 0.04629,-0.013 -0.130226,-0.2307 -0.02494,-0.032 0.0054,-0.1427 -0.02056,-0.1595 -0.02573,-0.018 -0.08155,0.032 -0.09947,0.013 -0.0358,-0.045 -0.01352,-0.1058 -0.02056,-0.1594 -0.0106,-0.079 0,-0.1625 -0.03077,-0.2391 0.0549,-0.1536 -0.188736,-0.132 -0.229673,-0.2225 -0.03408,-0.076 -0.02056,-0.1595 -0.03077,-0.2392 -0.004,-0.026 -0.0066,-0.053 -0.0106,-0.079 -0.03767,-0.2924 -0.07532,-0.5846 -0.112854,-0.8768 -0.03077,-0.239 -0.06167,-0.4782 -0.09243,-0.7173 -0.02812,-0.218 -0.08487,-0.4288 0.01724,-0.6458 0.01194,-0.025 0.08381,0.015 0.09947,-0.013 0.159335,-0.574 -0.0606,0.044 0.246979,-0.4231 0.01551,-0.023 -0.0313,-0.059 -0.0106,-0.079 0.863486,-0.8515 0.205021,0.078 0.346426,-0.4314 0.0106,-0.038 0.05941,-0.058 0.08911,-0.088 0.0297,-0.029 0.05941,-0.058 0.08911,-0.088 0.0297,-0.029 0.08938,-0.05 0.08925,-0.088 -1.45e-4,-0.034 -0.05994,-0.049 -0.08978,-0.073"
       id="path6006"
       inkscape:connector-curvature="0" />
    <path
       sodipodi:type="star"
       style="opacity:1;fill:#999999;fill-opacity:1;stroke:#383838;stroke-width:1.29999995;stroke-miterlimit:4;stroke-dasharray:none;stroke-opacity:1"
       id="path6028"
       sodipodi:sides="3"
       sodipodi:cx="42"
       sodipodi:cy="14.385827"
       sodipodi:r1="10.816654"
       sodipodi:r2="5.4083271"
       sodipodi:arg1="0.5880026"
       sodipodi:arg2="1.6352002"
       inkscape:flatsided="true"
       inkscape:rounded="-1.76"
       inkscape:randomized="0.893"
       d="M 48.203943,26.97451 C 66.519546,25.178466 6.1481625,31.118317 41.836649,25.621123 77.525135,20.123929 72.010893,16.897367 39.013764,12.646027 6.0166341,8.3946867 29.88834,28.770554 48.203943,26.97451 Z"
       transform="matrix(0.27737951,0,0,0.28008305,0.24773214,1020.6457)"
       inkscape:transform-center-x="-1.2820382"
       inkscape:transform-center-y="1.3669915" />
    <path
       sodipodi:type="star"
       style="opacity:1;fill:#999999;fill-opacity:1;stroke:#383838;stroke-width:1.29999995;stroke-miterlimit:4;stroke-dasharray:none;stroke-opacity:1"
       id="path6030"
       sodipodi:sides="3"
       sodipodi:cx="75"
       sodipodi:cy="38.385826"
       sodipodi:r1="8.485281"
       sodipodi:r2="4.2426405"
       sodipodi:arg1="0.78539816"
       sodipodi:arg2="1.8325957"
       inkscape:flatsided="true"
       inkscape:rounded="-1.76"
       inkscape:randomized="0.893"
       d="M 85.629543,37.854077 C 96.61172,23.278044 53.642013,47.293034 68.681681,46.605667 83.721349,45.9183 116.063,6.8929256 83.945442,22.784611 51.827884,38.676297 74.647365,52.43011 85.629543,37.854077 Z"
       transform="matrix(0.27737951,0,0,0.28008305,3.3187183,1016.4444)"
       inkscape:transform-center-x="-1.8193446"
       inkscape:transform-center-y="-1.5640112" />
    <path
       sodipodi:type="star"
       style="opacity:1;fill:#999999;fill-opacity:1;stroke:#383838;stroke-width:1.29999995;stroke-miterlimit:4;stroke-dasharray:none;stroke-opacity:1"
       id="path6032"
       sodipodi:sides="3"
       sodipodi:cx="87"
       sodipodi:cy="68.385826"
       sodipodi:r1="10.816654"
       sodipodi:r2="5.4083271"
       sodipodi:arg1="0.98279372"
       sodipodi:arg2="2.0299913"
       inkscape:flatsided="true"
       inkscape:rounded="-1.76"
       inkscape:randomized="0.893"
       d="M 100.07989,68.092441 C 99.425612,33.523126 87.875551,54.864953 68.073902,76.38976 48.272253,97.914567 84.828752,109.73227 83.768609,63.445228 82.708465,17.158184 100.73417,102.66176 100.07989,68.092441 Z"
       transform="matrix(0.27737951,0,0,0.28008305,0.24773214,1020.6457)"
       inkscape:transform-center-x="1.3402669"
       inkscape:transform-center-y="0.73100615" />
    <path
       sodipodi:type="star"
       style="opacity:1;fill:#999999;fill-opacity:1;stroke:#383838;stroke-width:1.06847489;stroke-miterlimit:4;stroke-dasharray:none;stroke-opacity:1"
       id="path6034"
       sodipodi:sides="3"
       sodipodi:cx="36"
       sodipodi:cy="53.385826"
       sodipodi:r1="6"
       sodipodi:r2="3"
       sodipodi:arg1="0"
       sodipodi:arg2="1.0471976"
       inkscape:flatsided="true"
       inkscape:rounded="-1.76"
       inkscape:randomized="0.893"
       d="M 42.082106,55.611716 C 34.282798,45.175199 16.687478,70.75371 32.586233,59.702093 48.484988,48.650477 35.397323,30.04234 32.468706,43.798284 c -2.928618,13.755945 17.412708,22.249949 9.6134,11.813432 z"
       transform="matrix(0.33884728,0,0,0.33940268,-5.8174171,1021.5375)"
       inkscape:transform-center-x="-1.0275456"
       inkscape:transform-center-y="-0.033164727" />
    <path
       sodipodi:type="star"
       style="opacity:1;fill:#999999;fill-opacity:1;stroke:#383838;stroke-width:1.85721278;stroke-miterlimit:4;stroke-dasharray:none;stroke-opacity:1"
       id="path6036"
       sodipodi:sides="3"
       sodipodi:cx="96"
       sodipodi:cy="86.385826"
       sodipodi:r1="12.369317"
       sodipodi:r2="6.1846585"
       sodipodi:arg1="1.3258177"
       sodipodi:arg2="2.3730152"
       inkscape:flatsided="true"
       inkscape:rounded="-1.76"
       inkscape:randomized="0.893"
       d="M 103.32076,93.640356 C 133.13246,123.76275 45.870754,49.409442 86.490854,80.84622 127.11095,112.283 95.614296,103.34954 107.22619,74.315608 118.83808,45.281675 73.509058,63.517959 103.32076,93.640356 Z"
       transform="matrix(0.2193847,0,0,0.17350748,5.6170844,1033.7086)"
       inkscape:transform-center-x="0.75023597"
       inkscape:transform-center-y="-1.0502441" />
    <path
       style="fill:none;fill-rule:evenodd;stroke:#3c3844;stroke-width:0.64107448;stroke-linecap:butt;stroke-linejoin:miter;stroke-miterlimit:4;stroke-dasharray:none;stroke-opacity:1"
       d="m 24.268193,1052.569 c -0.08886,-0.2041 -0.17761,-0.4083 -0.266421,-0.6126 -0.01975,-0.1274 -0.02056,-0.2641 -0.05888,-0.3824 -0.09986,-0.3084 -0.19819,-0.1904 -0.220536,-0.5311 -0.0079,-0.1234 0.05291,-0.2519 0.02639,-0.3697 -0.104894,-0.4645 -0.484557,-1.2049 -0.661662,-1.5932 -0.100654,-0.2208 -0.189266,-0.4534 -0.297028,-0.6672 -0.118954,-0.2359 -0.263251,-0.4437 -0.382245,-0.6797 -0.107815,-0.2136 -0.190155,-0.4524 -0.297001,-0.667 -0.09442,-0.1897 -0.211414,-0.3542 -0.305808,-0.5438 -0.852135,-1.7117 0.06949,0.084 -0.441112,-1.0622 -0.04376,-0.098 -0.111263,-0.1718 -0.152917,-0.2719 -0.03289,-0.079 -0.05371,-0.1691 -0.06763,-0.2593 -0.05198,-0.3376 0.23649,0.1843 -0.05,-0.5055 -0.03289,-0.079 -0.121341,-0.077 -0.161709,-0.1488 -0.01804,-0.031 0.0054,-0.082 0.0093,-0.1234 0.0054,-0.082 0.01194,-0.1644 0.01751,-0.2465 0.0175,-0.2466 0.03528,-0.4929 0.05278,-0.7393 0.0054,-0.082 0.01194,-0.1644 0.01751,-0.2465 0.0054,-0.082 0,-0.1676 0.01777,-0.2466 0.02666,-0.1247 0.0809,-0.2341 0.111661,-0.3569 0.0093,-0.039 0,-0.084 0.0093,-0.1235 0.114445,-0.4564 0.0992,-0.2976 0.308552,-0.7012 0.03833,-0.074 0.0622,-0.1625 0.102914,-0.2338 0.09098,-0.1591 0.214303,-0.2805 0.290967,-0.4547 0.03063,-0.069 -0.01326,-0.1767 0.0175,-0.2465 0.04336,-0.098 0.133223,-0.1352 0.188086,-0.2209 0.04336,-0.068 0.06458,-0.1598 0.102913,-0.2337 0.0618,-0.1197 0.136884,-0.2234 0.196919,-0.3444 0.0744,-0.1501 0.137135,-0.3116 0.205696,-0.4675 0.03435,-0.078 0.05954,-0.1659 0.102903,-0.2337 0.0549,-0.086 0.133224,-0.1352 0.188099,-0.221 0.04336,-0.067 0.06458,-0.1598 0.102914,-0.2336 0.0618,-0.1197 0.141631,-0.2188 0.196917,-0.3444 0.274272,-0.6233 -0.09243,-0.1083 0.317385,-0.8244 0.0054,-0.013 0.368241,-0.4295 0.376198,-0.442 0.146154,-0.2285 0.171257,-0.596 0.31741,-0.8245 0.124657,-0.1949 0.234077,-0.1891 0.290968,-0.4548 0.02519,-0.1184 0,-0.2514 0.02639,-0.3696 -0.03541,-0.2308 0.154481,-0.2086 0.196917,-0.3444 0.04005,-0.5609 -0.03965,-0.013 0.111661,-0.3569 0.02135,-0.049 -0.004,-0.2207 0.01751,-0.2464 0.02215,-0.026 0.06988,0.047 0.08527,0.013 0.03063,-0.069 0.01194,-0.1643 0.01751,-0.2465 0.0093,-0.1234 0,-0.2512 0.02639,-0.3696 -0.04708,-0.2374 0.161789,-0.2043 0.196905,-0.3442 0.02918,-0.1172 0.0175,-0.2465 0.02639,-0.3697 0.0027,-0.042 0.0054,-0.082 0.0093,-0.1234 0.03223,-0.4521 0.06458,-0.9038 0.09681,-1.3557 0.02639,-0.3697 0.05279,-0.7394 0.07917,-1.109 0.02413,-0.3372 0.07281,-0.6632 -0.01472,-0.9987 -0.0106,-0.038 -0.07187,0.024 -0.08527,-0.013 -0.13658,-0.8877 0.05198,0.069 -0.211745,-0.6542 -0.01327,-0.036 0.02692,-0.092 0.0093,-0.1234 -0.740302,-1.3165 -0.175779,0.1209 -0.296988,-0.667 -0.0093,-0.057 -0.05092,-0.091 -0.07638,-0.136 -0.02546,-0.045 -0.05092,-0.091 -0.07652,-0.1359 -0.02546,-0.045 -0.07652,-0.077 -0.07652,-0.1359 1.06e-4,-0.053 0.05132,-0.076 0.07705,-0.1134"
       id="path6010"
       inkscape:connector-curvature="0" />
  </g>
</svg>
