<?xml version="1.0" encoding="UTF-8" standalone="no"?>
<!-- Created with Inkscape (http://www.inkscape.org/) -->

<svg
   xmlns:dc="http://purl.org/dc/elements/1.1/"
   xmlns:cc="http://creativecommons.org/ns#"
   xmlns:rdf="http://www.w3.org/1999/02/22-rdf-syntax-ns#"
   xmlns:svg="http://www.w3.org/2000/svg"
   xmlns="http://www.w3.org/2000/svg"
   xmlns:sodipodi="http://sodipodi.sourceforge.net/DTD/sodipodi-0.dtd"
   xmlns:inkscape="http://www.inkscape.org/namespaces/inkscape"
   width="32"
   height="32"
   viewBox="0 0 32 32.000001"
   id="svg4220"
   version="1.1"
   inkscape:version="0.91 r13725"
   sodipodi:docname="fase eletrica chão.svg">
  <defs
     id="defs4222" />
  <sodipodi:namedview
     id="base"
     pagecolor="#ffffff"
     bordercolor="#666666"
     borderopacity="1.0"
     inkscape:pageopacity="0.0"
     inkscape:pageshadow="2"
     inkscape:zoom="15.839192"
     inkscape:cx="36.396683"
     inkscape:cy="18.929054"
     inkscape:document-units="px"
     inkscape:current-layer="layer1"
     showgrid="true"
     units="px"
     inkscape:window-width="1920"
     inkscape:window-height="1017"
     inkscape:window-x="-8"
     inkscape:window-y="-8"
     inkscape:window-maximized="1">
    <inkscape:grid
       type="xygrid"
       id="grid4850"
       spacingx="0.1"
       spacingy="0.1" />
  </sodipodi:namedview>
  <metadata
     id="metadata4225">
    <rdf:RDF>
      <cc:Work
         rdf:about="">
        <dc:format>image/svg+xml</dc:format>
        <dc:type
           rdf:resource="http://purl.org/dc/dcmitype/StillImage" />
        <dc:title></dc:title>
      </cc:Work>
    </rdf:RDF>
  </metadata>
  <g
     inkscape:label="Camada 1"
     inkscape:groupmode="layer"
     id="layer1"
     transform="translate(0,-1020.3622)">
    <rect
       style="opacity:1;fill:#80b3ff;fill-opacity:1;stroke:#383838;stroke-width:0.36278033;stroke-miterlimit:4;stroke-dasharray:none;stroke-opacity:1"
       id="rect4138"
       width="31.879601"
       height="31.746628"
       x="0.15016729"
       y="1020.5187"
       ry="4.0039458"
       rx="0" />
    <path
       style="fill:none;fill-rule:evenodd;stroke:#000000;stroke-width:0.50231123;stroke-linecap:butt;stroke-linejoin:miter;stroke-miterlimit:4;stroke-dasharray:none;stroke-opacity:1"
       d="m 3.5059224,1038.8983 6.7114926,0"
       id="path4154"
       inkscape:connector-curvature="0" />
    <path
       inkscape:connector-curvature="0"
       id="path4156"
       d="m 10.153311,1039.0134 3.303684,5.8178"
       style="fill:none;fill-rule:evenodd;stroke:#000000;stroke-width:1.06043482;stroke-linecap:butt;stroke-linejoin:miter;stroke-miterlimit:4;stroke-dasharray:none;stroke-opacity:1" />
    <ellipse
       style="opacity:1;fill:#ff0000;fill-opacity:1;stroke:#000000;stroke-width:0.55812359;stroke-miterlimit:4;stroke-dasharray:none;stroke-opacity:1"
       id="path4158"
       cx="13.564647"
       cy="1046.1273"
       rx="2.0930831"
       ry="1.6708751" />
    <path
       style="fill:none;fill-rule:evenodd;stroke:#000000;stroke-width:1.06043482;stroke-linecap:butt;stroke-linejoin:miter;stroke-miterlimit:4;stroke-dasharray:none;stroke-opacity:1"
       d="m 13.448516,1047.4615 -0.179403,4.956"
       id="path4160"
       inkscape:connector-curvature="0" />
    <path
       style="fill:none;fill-rule:evenodd;stroke:#000000;stroke-width:1.06043482;stroke-linecap:butt;stroke-linejoin:miter;stroke-miterlimit:4;stroke-dasharray:none;stroke-opacity:1"
       d="m 25.363693,1038.8188 -15.252727,0.018"
       id="path4162"
       inkscape:connector-curvature="0" />
    <ellipse
       ry="1.6708751"
       rx="2.0930831"
       cy="1038.8134"
       cx="26.558943"
       id="ellipse4164"
       style="opacity:1;fill:#ff0000;fill-opacity:1;stroke:#000000;stroke-width:0.55812359;stroke-miterlimit:4;stroke-dasharray:none;stroke-opacity:1" />
    <ellipse
       style="opacity:1;fill:#ff0000;fill-opacity:1;stroke:#000000;stroke-width:0.55812359;stroke-miterlimit:4;stroke-dasharray:none;stroke-opacity:1"
       id="ellipse4166"
       cx="7.2087431"
       cy="1027.7018"
       rx="2.0930831"
       ry="1.6708751" />
    <ellipse
       ry="1.6708751"
       rx="2.0930831"
       cy="1022.9195"
       cx="28.536339"
       id="ellipse4168"
       style="opacity:1;fill:#ff0000;fill-opacity:1;stroke:#000000;stroke-width:0.55812359;stroke-miterlimit:4;stroke-dasharray:none;stroke-opacity:1" />
    <path
       inkscape:connector-curvature="0"
       id="path4170"
       d="m 25.671792,1022.5162 0.232712,14.4859"
       style="fill:none;fill-rule:evenodd;stroke:#000000;stroke-width:1.06043482;stroke-linecap:butt;stroke-linejoin:miter;stroke-miterlimit:4;stroke-dasharray:none;stroke-opacity:1" />
    <path
       style="fill:none;fill-rule:evenodd;stroke:#000000;stroke-width:1.06043482;stroke-linecap:butt;stroke-linejoin:miter;stroke-miterlimit:4;stroke-dasharray:none;stroke-opacity:1"
       d="m 7.0277952,1029.7088 0.2327126,9.3768"
       id="path4172"
       inkscape:connector-curvature="0" />
    <path
       inkscape:connector-curvature="0"
       id="path4174"
       d="m -0.02514181,1039.4608 6.71150071,0"
       style="fill:none;fill-rule:evenodd;stroke:#000000;stroke-width:0.50231123;stroke-linecap:butt;stroke-linejoin:miter;stroke-miterlimit:4;stroke-dasharray:none;stroke-opacity:1" />
    <path
       style="fill:none;fill-rule:evenodd;stroke:#000000;stroke-width:0.50231123;stroke-linecap:butt;stroke-linejoin:miter;stroke-miterlimit:4;stroke-dasharray:none;stroke-opacity:1"
       d="m -0.1663813,1039.8828 4.0278872,0"
       id="path4176"
       inkscape:connector-curvature="0" />
    <path
       inkscape:connector-curvature="0"
       id="path4178"
       d="m 21.867426,1022.3012 4.027894,0"
       style="fill:none;fill-rule:evenodd;stroke:#000000;stroke-width:0.50231123;stroke-linecap:butt;stroke-linejoin:miter;stroke-miterlimit:4;stroke-dasharray:none;stroke-opacity:1" />
    <path
       style="fill:none;fill-rule:evenodd;stroke:#000000;stroke-width:0.50231123;stroke-linecap:butt;stroke-linejoin:miter;stroke-miterlimit:4;stroke-dasharray:none;stroke-opacity:1"
       d="m 9.5330619,1020.8093 4.0278871,0"
       id="path4180"
       inkscape:connector-curvature="0" />
    <path
       inkscape:connector-curvature="0"
       id="path4182"
       d="m 13.577932,1021.058 4.027895,0"
       style="fill:none;fill-rule:evenodd;stroke:#000000;stroke-width:0.50231123;stroke-linecap:butt;stroke-linejoin:miter;stroke-miterlimit:4;stroke-dasharray:none;stroke-opacity:1" />
    <path
       style="fill:none;fill-rule:evenodd;stroke:#000000;stroke-width:0.50231123;stroke-linecap:butt;stroke-linejoin:miter;stroke-miterlimit:4;stroke-dasharray:none;stroke-opacity:1"
       d="m 17.023569,1021.5055 4.027886,0"
       id="path4184"
       inkscape:connector-curvature="0" />
    <path
       inkscape:connector-curvature="0"
       id="path4186"
       d="m 19.470466,1021.9787 4.027888,0"
       style="fill:none;fill-rule:evenodd;stroke:#000000;stroke-width:0.50231123;stroke-linecap:butt;stroke-linejoin:miter;stroke-miterlimit:4;stroke-dasharray:none;stroke-opacity:1" />
    <path
       inkscape:connector-curvature="0"
       id="path4188"
       d="m 27.914017,1048.0046 0.02077,-7.9107"
       style="fill:none;fill-rule:evenodd;stroke:#000000;stroke-width:1.06043482;stroke-linecap:butt;stroke-linejoin:miter;stroke-miterlimit:4;stroke-dasharray:none;stroke-opacity:1" />
    <path
       style="fill:none;fill-rule:evenodd;stroke:#000000;stroke-width:0.50231123;stroke-linecap:butt;stroke-linejoin:miter;stroke-miterlimit:4;stroke-dasharray:none;stroke-opacity:1"
       d="m 28.554464,1046.6277 0.04195,4.0109"
       id="path4190"
       inkscape:connector-curvature="0" />
    <path
       inkscape:connector-curvature="0"
       id="path4192"
       d="m 28.554464,1046.6277 0.04195,4.0109"
       style="fill:none;fill-rule:evenodd;stroke:#000000;stroke-width:0.50231123;stroke-linecap:butt;stroke-linejoin:miter;stroke-miterlimit:4;stroke-dasharray:none;stroke-opacity:1" />
    <path
       style="fill:none;fill-rule:evenodd;stroke:#000000;stroke-width:0.50231123;stroke-linecap:butt;stroke-linejoin:miter;stroke-miterlimit:4;stroke-dasharray:none;stroke-opacity:1"
       d="m 28.554464,1046.6277 0.04195,4.0109"
       id="path4194"
       inkscape:connector-curvature="0" />
    <path
       inkscape:connector-curvature="0"
       id="path4196"
       d="m 31.912131,1046.5177 -4.026763,-0.096"
       style="fill:none;fill-rule:evenodd;stroke:#000000;stroke-width:0.50231123;stroke-linecap:butt;stroke-linejoin:miter;stroke-miterlimit:4;stroke-dasharray:none;stroke-opacity:1" />
    <path
       style="fill:none;fill-rule:evenodd;stroke:#000000;stroke-width:0.50231123;stroke-linecap:butt;stroke-linejoin:miter;stroke-miterlimit:4;stroke-dasharray:none;stroke-opacity:1"
       d="m 29.528234,1048.3682 0.04194,4.0107"
       id="path4198"
       inkscape:connector-curvature="0" />
    <path
       inkscape:connector-curvature="0"
       id="path4200"
       d="m 29.0039,1047.6221 0.04195,4.0111"
       style="fill:none;fill-rule:evenodd;stroke:#000000;stroke-width:0.50231123;stroke-linecap:butt;stroke-linejoin:miter;stroke-miterlimit:4;stroke-dasharray:none;stroke-opacity:1"
       inkscape:transform-center-y="0.19890462"
       inkscape:transform-center-x="-1.784931e-005" />
    <path
       style="opacity:1;fill:#ffff00;fill-opacity:1;stroke:#000000;stroke-width:0;stroke-miterlimit:4;stroke-dasharray:none;stroke-opacity:1"
       d="m 12.644465,1047.3601 c -0.117582,-0.059 -0.276497,-0.1772 -0.353131,-0.2611 -0.07663,-0.084 -0.218778,-0.201 -0.315885,-0.26 -0.140986,-0.086 -0.176564,-0.1596 -0.176564,-0.3663 0,-0.1424 0.02892,-0.259 0.06421,-0.259 0.0353,0 0.06423,-0.085 0.06423,-0.1895 0,-0.2588 0.520881,-0.896 0.824578,-1.0084 0.129136,-0.047 0.26224,-0.1164 0.29579,-0.1525 0.09,-0.097 0.266311,-0.08 0.347249,0.034 0.054,0.076 0.02858,0.1509 -0.106796,0.3167 -0.323965,0.3969 -0.410703,0.6213 -0.4128,1.0682 -0.0027,0.6344 0.03399,0.71 0.400784,0.8192 0.243817,0.072 0.320506,0.1293 0.320506,0.2375 0,0.1239 -0.04694,0.1412 -0.369176,0.1359 -0.203048,0 -0.465382,-0.054 -0.582969,-0.1142 z"
       id="path4206"
       inkscape:connector-curvature="0" />
    <path
       inkscape:connector-curvature="0"
       id="path4208"
       d="m 25.720579,1039.9083 c -0.10616,-0.055 -0.249607,-0.1655 -0.318793,-0.2441 -0.06918,-0.078 -0.197509,-0.1879 -0.285177,-0.2432 -0.12728,-0.08 -0.159397,-0.1491 -0.159397,-0.3424 0,-0.1332 0.0261,-0.2421 0.05799,-0.2421 0.03187,0 0.05799,-0.08 0.05799,-0.1771 0,-0.242 0.470237,-0.8376 0.744409,-0.9428 0.116591,-0.044 0.236748,-0.1089 0.26703,-0.1426 0.08125,-0.091 0.240429,-0.075 0.313501,0.031 0.04874,0.071 0.02577,0.141 -0.09642,0.2961 -0.292473,0.3711 -0.370772,0.5809 -0.372664,0.9987 -0.0027,0.5931 0.03071,0.6638 0.361814,0.7658 0.220114,0.068 0.289346,0.1209 0.289346,0.222 0,0.116 -0.04237,0.1321 -0.333287,0.1271 -0.183302,0 -0.420134,-0.051 -0.526288,-0.1068 z"
       style="opacity:1;fill:#ffff00;fill-opacity:1;stroke:#000000;stroke-width:0;stroke-miterlimit:4;stroke-dasharray:none;stroke-opacity:1" />
    <path
       style="opacity:1;fill:#ffff00;fill-opacity:1;stroke:#000000;stroke-width:0;stroke-miterlimit:4;stroke-dasharray:none;stroke-opacity:1"
       d="m 6.3273753,1028.8622 c -0.1083493,-0.059 -0.2547689,-0.1756 -0.3253843,-0.2588 -0.070611,-0.083 -0.2015959,-0.1993 -0.2910744,-0.2578 -0.129903,-0.085 -0.1626923,-0.1583 -0.1626923,-0.3631 0,-0.1412 0.026593,-0.2567 0.05915,-0.2567 0.032555,0 0.05915,-0.085 0.05915,-0.1877 0,-0.2566 0.4799553,-0.888 0.7597962,-0.9995 0.1189887,-0.047 0.2416362,-0.1155 0.2725475,-0.1512 0.082926,-0.096 0.245393,-0.079 0.3199706,0.034 0.04976,0.075 0.026317,0.1495 -0.098407,0.3138 -0.298517,0.3934 -0.3784277,0.6159 -0.3803673,1.0589 -0.00269,0.6288 0.031318,0.7036 0.3692916,0.8118 0.2246659,0.071 0.2953229,0.1281 0.2953229,0.2354 0,0.123 -0.043254,0.14 -0.3401693,0.1349 -0.1870922,0 -0.4288177,-0.054 -0.5371583,-0.1134 z"
       id="path4210"
       inkscape:connector-curvature="0" />
    <path
       inkscape:connector-curvature="0"
       id="path4212"
       d="m 27.700283,1023.9985 c -0.108337,-0.053 -0.254768,-0.1603 -0.325378,-0.2363 -0.0706,-0.076 -0.201588,-0.1822 -0.291074,-0.2357 -0.129903,-0.077 -0.162685,-0.1445 -0.162685,-0.3318 0,-0.1289 0.02659,-0.2345 0.05915,-0.2345 0.03255,0 0.05915,-0.077 0.05915,-0.1715 0,-0.2346 0.479948,-0.8115 0.759789,-0.9133 0.118989,-0.042 0.241644,-0.1056 0.272547,-0.1382 0.08293,-0.088 0.245399,-0.072 0.319977,0.03 0.04977,0.068 0.02631,0.1367 -0.0984,0.2869 -0.298511,0.3595 -0.378428,0.5627 -0.380361,0.9676 -0.0027,0.5746 0.03132,0.6431 0.369292,0.7418 0.224659,0.065 0.295323,0.1171 0.295323,0.2151 0,0.1125 -0.04326,0.1281 -0.340177,0.1233 -0.187091,0 -0.42881,-0.049 -0.537164,-0.1037 z"
       style="opacity:1;fill:#ffff00;fill-opacity:1;stroke:#000000;stroke-width:0;stroke-miterlimit:4;stroke-dasharray:none;stroke-opacity:1" />
    <path
       style="opacity:1;fill:#ffaaaa;fill-opacity:1;stroke:#000000;stroke-width:0;stroke-miterlimit:4;stroke-dasharray:none;stroke-opacity:1"
       d="m 14.648082,1045.972 c 0.07645,-0.06 0.173331,-0.1602 0.215276,-0.223 0.04195,-0.063 0.126518,-0.159 0.187949,-0.2135 0.08918,-0.079 0.102583,-0.1269 0.06649,-0.2355 -0.02481,-0.075 -0.06649,-0.1293 -0.09256,-0.1207 -0.0261,0.01 -0.0623,-0.03 -0.08046,-0.084 -0.0451,-0.1362 -0.540908,-0.3447 -0.784833,-0.3302 -0.103702,0.01 -0.213995,0 -0.245057,-0.01 -0.08332,-0.029 -0.21058,0.023 -0.250587,0.1021 -0.02674,0.053 0.0055,0.086 0.134097,0.1405 0.308476,0.13 0.411676,0.2272 0.491155,0.4617 0.112728,0.3329 0.0987,0.3815 -0.153158,0.528 -0.167422,0.098 -0.214152,0.146 -0.195303,0.2027 0.02165,0.065 0.05936,0.063 0.296385,-0.019 0.149087,-0.052 0.334152,-0.142 0.4106,-0.2017 z"
       id="path4214"
       inkscape:connector-curvature="0" />
    <path
       inkscape:connector-curvature="0"
       id="path4216"
       d="m 27.481821,1038.7117 c 0.07646,-0.06 0.173329,-0.1603 0.215274,-0.2231 0.04195,-0.063 0.126519,-0.1588 0.187951,-0.2135 0.08918,-0.079 0.102572,-0.1268 0.06649,-0.2356 -0.02481,-0.075 -0.06649,-0.129 -0.09256,-0.1204 -0.0261,0.01 -0.06231,-0.03 -0.08046,-0.084 -0.0451,-0.1361 -0.540908,-0.3446 -0.784834,-0.3301 -0.103702,0.01 -0.213995,0 -0.245056,-0.01 -0.08332,-0.029 -0.21058,0.023 -0.250588,0.102 -0.02673,0.053 0.0055,0.086 0.134098,0.1406 0.308477,0.1301 0.411676,0.2271 0.491156,0.4616 0.112726,0.333 0.09869,0.3815 -0.15316,0.5281 -0.167422,0.098 -0.214152,0.1458 -0.195303,0.2027 0.02165,0.065 0.05936,0.063 0.296385,-0.019 0.149081,-0.052 0.334152,-0.1419 0.410608,-0.2018 z"
       style="opacity:1;fill:#ffaaaa;fill-opacity:1;stroke:#000000;stroke-width:0;stroke-miterlimit:4;stroke-dasharray:none;stroke-opacity:1" />
    <path
       style="opacity:1;fill:#ffaaaa;fill-opacity:1;stroke:#000000;stroke-width:0;stroke-miterlimit:4;stroke-dasharray:none;stroke-opacity:1"
       d="m 8.1618447,1027.6137 c 0.076457,-0.06 0.1733296,-0.1603 0.2152826,-0.223 0.041945,-0.063 0.1265181,-0.1588 0.1879421,-0.2135 0.089174,-0.079 0.1025774,-0.127 0.066551,-0.2357 -0.024812,-0.075 -0.066489,-0.129 -0.092575,-0.1204 -0.026109,0.01 -0.062307,-0.03 -0.080467,-0.084 -0.0451,-0.1361 -0.5409076,-0.3445 -0.7848271,-0.3299 -0.1037023,0.01 -0.2139936,0 -0.2450627,-0.01 -0.083316,-0.029 -0.2105744,0.023 -0.2505877,0.1019 -0.026733,0.053 0.0055,0.086 0.1341049,0.1407 0.3084751,0.1301 0.4116688,0.2271 0.4911539,0.4615 0.1127151,0.3331 0.098701,0.3817 -0.1531651,0.5283 -0.1674217,0.098 -0.2141453,0.1457 -0.1952966,0.2026 0.021658,0.065 0.059287,0.063 0.2963781,-0.018 0.1490881,-0.052 0.3341515,-0.1419 0.4106074,-0.2017 z"
       id="path4218"
       inkscape:connector-curvature="0" />
    <path
       inkscape:connector-curvature="0"
       id="path4220"
       d="m 29.429352,1022.8483 c 0.07646,-0.06 0.17333,-0.1601 0.215277,-0.2232 0.04195,-0.063 0.126516,-0.1588 0.187948,-0.2134 0.08918,-0.079 0.102583,-0.1267 0.06656,-0.2354 -0.02481,-0.075 -0.06647,-0.1292 -0.09258,-0.1207 -0.0261,0.01 -0.06231,-0.03 -0.08046,-0.084 -0.0451,-0.1361 -0.540908,-0.3446 -0.784833,-0.3301 -0.103703,0.01 -0.213994,0 -0.245056,-0.01 -0.08332,-0.029 -0.210574,0.023 -0.250588,0.1021 -0.02673,0.053 0.0055,0.086 0.134097,0.1407 0.308483,0.1299 0.411676,0.227 0.491156,0.4614 0.112727,0.333 0.09871,0.3817 -0.15316,0.5281 -0.167421,0.098 -0.214151,0.146 -0.195296,0.2028 0.02165,0.065 0.05928,0.063 0.296378,-0.018 0.149088,-0.052 0.334151,-0.142 0.410607,-0.2018 z"
       style="opacity:1;fill:#ffaaaa;fill-opacity:1;stroke:#000000;stroke-width:0;stroke-miterlimit:4;stroke-dasharray:none;stroke-opacity:1" />
    <path
       style="opacity:1;fill:#0000ff;fill-opacity:1;stroke:#000000;stroke-width:0.58602977;stroke-miterlimit:4;stroke-dasharray:none;stroke-opacity:1"
       d="m 0.3463223,1046.0916 0,-5.9073 1.7655252,0 c 1.4751984,0 1.7655321,-0.035 1.7655321,-0.2112 0,-0.1735 0.2510948,-0.2109 1.412423,-0.2109 1.3182636,0 1.4124224,-0.019 1.4124224,-0.2813 0,-0.2632 0.093295,-0.2812 1.4477343,-0.2788 l 1.4477356,0 1.4401401,2.5564 1.440132,2.5563 -0.408454,0.2475 c -0.868506,0.5261 -1.136934,1.3636 -0.730344,2.2789 0.209792,0.4722 0.431586,0.7122 0.859609,0.9296 l 0.576872,0.293 -0.002,1.6498 c -0.0013,0.9074 -0.04024,1.7922 -0.0871,1.9664 l -0.08516,0.3164 -6.1275626,0 -6.12757039,0 0,-5.9075 z"
       id="path4222"
       inkscape:connector-curvature="0" />
    <path
       style="opacity:1;fill:#0000ff;fill-opacity:1;stroke:#000000;stroke-width:0.92090398;stroke-miterlimit:4;stroke-dasharray:none;stroke-opacity:1"
       d="m 13.906594,1050.9792 c 5.55e-4,-0.5608 0.04167,-1.431 0.09143,-1.9339 l 0.09042,-0.9142 0.713984,-0.3517 c 1.735813,-0.8548 1.529282,-2.7869 -0.373375,-3.4928 l -0.735329,-0.2726 -1.295336,-2.2666 -1.295337,-2.2665 6.604566,0 6.604564,0 0.158265,0.3459 c 0.234645,0.5129 1.184686,0.9401 2.090485,0.9401 l 0.76268,0 0,3.6469 0,3.6468 0.49435,0 0.494347,0 0,1.3363 c 0,1.0939 0.03839,1.3362 0.211864,1.3362 0.14797,0 0.211862,0.1485 0.211862,0.4923 0,0.3986 0.05381,0.4922 0.282486,0.4922 0.155366,0 0.282487,0.063 0.282487,0.1407 0,0.092 -2.660063,0.1407 -7.69771,0.1407 l -7.697709,0 0.0013,-1.0198 z"
       id="path4224"
       inkscape:connector-curvature="0" />
    <path
       style="opacity:1;fill:#0000ff;fill-opacity:1;stroke:#000000;stroke-width:0.61393595;stroke-miterlimit:4;stroke-dasharray:none;stroke-opacity:1"
       d="m 29.384637,1046.1274 -0.975682,-0.049 0.0893,-3.0586 c 0.07033,-2.4091 0.138085,-3.1561 0.319031,-3.5172 0.278071,-0.5552 0.18265,-1.2344 -0.250417,-1.7826 -0.326112,-0.4129 -1.270594,-0.9027 -1.750138,-0.9078 -0.290526,0 -0.296448,-0.068 -0.388421,-4.2455 -0.135043,-6.1346 -0.116213,-8.8217 0.05969,-8.521 0.254248,0.4349 1.228223,0.828 2.051191,0.828 1.933846,0 3.060108,-1.7119 2.00505,-3.0476 -0.39147,-0.4956 -1.302375,-0.9038 -2.025475,-0.9078 -0.746964,0 -1.757917,0.5135 -2.113254,1.0816 -0.3062,0.4897 -0.494349,0.5855 -0.494349,0.2515 0,-0.1709 -0.227559,-0.2108 -1.200559,-0.2108 -0.973003,0 -1.20056,-0.041 -1.20056,-0.2111 0,-0.1709 -0.227559,-0.2109 -1.200561,-0.2109 -0.973001,0 -1.200559,-0.04 -1.200559,-0.211 0,-0.1758 -0.282487,-0.211 -1.694909,-0.211 -1.412423,0 -1.69491,-0.036 -1.69491,-0.211 0,-0.1847 0.878843,-0.211 7.062121,-0.211 l 7.062115,0 0,12.7292 0,12.7291 -0.741516,-0.028 c -0.407837,-0.015 -1.18058,-0.049 -1.717212,-0.077 z"
       id="path4226"
       inkscape:connector-curvature="0" />
    <path
       style="opacity:1;fill:#0000ff;fill-opacity:1;stroke:#000000;stroke-width:0.39405286;stroke-miterlimit:4;stroke-dasharray:none;stroke-opacity:1"
       d="m 29.86654,1050.2345 c 0,-1.7667 -0.01447,-1.8622 -0.282165,-1.8622 -0.219464,0 -0.282163,-0.096 -0.282163,-0.4297 0,-0.2866 -0.07053,-0.4299 -0.211623,-0.4299 -0.131679,0 -0.211624,-0.1353 -0.211624,-0.358 l 0,-0.3582 1.481359,0 1.481354,0 0,2.6501 0,2.6502 -0.987566,0 -0.987572,0 0,-1.8623 z"
       id="path4228"
       inkscape:connector-curvature="0" />
    <path
       style="opacity:1;fill:#0000ff;fill-opacity:1;stroke:#000000;stroke-width:0.58602977;stroke-miterlimit:4;stroke-dasharray:none;stroke-opacity:1"
       d="m 0.3463223,1029.9868 0,-9.2129 4.590378,0 c 2.9660855,0 4.5903779,0.049 4.5903779,0.1407 0,0.087 0.7532908,0.1407 1.9773878,0.1407 1.224104,0 1.977396,0.054 1.977396,0.1407 0,0.086 0.682667,0.1405 1.76553,0.1405 1.475192,0 1.765525,0.034 1.765525,0.2111 0,0.171 0.22756,0.2109 1.20056,0.2109 1.106401,0 1.200561,0.022 1.200561,0.2814 0,0.2592 0.09416,0.2814 1.200561,0.2814 0.70621,0 1.200559,0.058 1.200559,0.1405 0,0.086 0.635595,0.1407 1.624286,0.1407 l 1.624292,0 0.006,0.6681 c 0.0034,0.3674 0.06127,3.5993 0.128833,7.182 l 0.122871,6.5137 -0.626904,0.6244 -0.626897,0.6243 -6.987782,0 c -6.117194,0 -6.987771,0.026 -6.987771,0.211 0,0.1699 -0.2197178,0.2109 -1.129944,0.2109 l -1.129937,0 -0.017267,-1.301 c -0.00954,-0.7156 -0.057158,-2.7363 -0.105928,-4.4906 l -0.088661,-3.1895 0.3531027,-0.075 c 0.6109827,-0.1301 1.2140006,-0.5964 1.4721827,-1.1382 0.8210906,-1.723 -1.4268373,-3.3669 -3.3900579,-2.4788 -1.1304786,0.5112 -1.5287073,1.427 -1.0698005,2.4601 0.2049198,0.4614 0.4312444,0.7076 0.8417554,0.9161 l 0.5614762,0.2854 0.082828,2.4311 c 0.045578,1.3373 0.1094133,3.3649 0.1419242,4.506 l 0.059079,2.0745 -1.6095776,0 c -1.5154243,0 -1.6095839,0.017 -1.6095839,0.2815 0,0.2642 -0.09416,0.2812 -1.5536626,0.2812 l -1.55366931,0 0,-9.2128 z"
       id="path4230"
       inkscape:connector-curvature="0" />
    <path
       inkscape:connector-curvature="0"
       id="path4232"
       d="m 7.287183,1025.0936 -7.0275085,0.3072"
       style="fill:none;fill-rule:evenodd;stroke:#000000;stroke-width:1.06043482;stroke-linecap:butt;stroke-linejoin:miter;stroke-miterlimit:4;stroke-dasharray:none;stroke-opacity:1" />
  </g>
</svg>
