<?xml version="1.0" encoding="UTF-8" standalone="no"?>
<!-- Created with Inkscape (http://www.inkscape.org/) -->

<svg
   xmlns:dc="http://purl.org/dc/elements/1.1/"
   xmlns:cc="http://creativecommons.org/ns#"
   xmlns:rdf="http://www.w3.org/1999/02/22-rdf-syntax-ns#"
   xmlns:svg="http://www.w3.org/2000/svg"
   xmlns="http://www.w3.org/2000/svg"
   xmlns:sodipodi="http://sodipodi.sourceforge.net/DTD/sodipodi-0.dtd"
   xmlns:inkscape="http://www.inkscape.org/namespaces/inkscape"
   width="32"
   height="32"
   viewBox="0 0 31.999999 31.999999"
   id="svg8024"
   version="1.1"
   inkscape:version="0.91 r13725"
   sodipodi:docname="fase neve bloco de gelo.svg">
  <defs
     id="defs8026" />
  <sodipodi:namedview
     id="base"
     pagecolor="#ffffff"
     bordercolor="#666666"
     borderopacity="1.0"
     inkscape:pageopacity="0.0"
     inkscape:pageshadow="2"
     inkscape:zoom="15.839192"
     inkscape:cx="28.450088"
     inkscape:cy="19.686661"
     inkscape:document-units="px"
     inkscape:current-layer="layer1"
     showgrid="true"
     inkscape:window-width="1920"
     inkscape:window-height="1017"
     inkscape:window-x="-8"
     inkscape:window-y="-8"
     inkscape:window-maximized="1"
     units="px">
    <inkscape:grid
       type="xygrid"
       id="grid8572"
       spacingx="0.30000001"
       spacingy="0.30000001" />
  </sodipodi:namedview>
  <metadata
     id="metadata8029">
    <rdf:RDF>
      <cc:Work
         rdf:about="">
        <dc:format>image/svg+xml</dc:format>
        <dc:type
           rdf:resource="http://purl.org/dc/dcmitype/StillImage" />
        <dc:title></dc:title>
      </cc:Work>
    </rdf:RDF>
  </metadata>
  <g
     inkscape:label="Camada 1"
     inkscape:groupmode="layer"
     id="layer1"
     transform="translate(0,-1020.3622)">
    <path
       style="opacity:1;fill:#00ffff;fill-opacity:1;stroke:#000000;stroke-width:0.1557934;stroke-miterlimit:4;stroke-dasharray:none;stroke-opacity:1"
       d="m 0.11956935,1020.4304 31.87537965,0 0,31.9385 -31.87537965,0 z"
       id="rect8574"
       inkscape:connector-curvature="0" />
    <path
       style="opacity:1;fill:#d5f6ff;fill-opacity:1;stroke:#0098ff;stroke-width:0.19786902;stroke-miterlimit:4;stroke-dasharray:none;stroke-opacity:1"
       d="m 14.008121,1033.1185 c 0,-0.047 -0.133993,-0.2832 -0.297763,-0.5255 -0.163769,-0.2421 -0.29858,-0.5569 -0.299579,-0.6998 -0.0023,-0.3257 -0.56245,-1.1904 -1.484614,-2.2919 -0.391648,-0.4677 -0.712548,-0.8997 -0.713109,-0.96 -0.0015,-0.1608 -0.340107,-0.4407 -0.533149,-0.4407 -0.111409,0 -0.166893,0.083 -0.166893,0.2499 0,0.1541 -0.153206,0.4129 -0.39944,0.6748 -0.2196929,0.2337 -0.4019252,0.4927 -0.4049615,0.5756 -0.00304,0.082 -0.2501905,0.3687 -0.5492313,0.6353 -0.4205939,0.3748 -0.5438498,0.4427 -0.5443262,0.3001 -3.4e-4,-0.1014 -0.067743,-0.3134 -0.14979,-0.4708 -0.082045,-0.1578 -0.1491752,-0.3736 -0.1491752,-0.4795 0,-0.106 -0.086045,-0.3616 -0.191213,-0.5682 -0.176484,-0.3467 -0.2973342,-0.7296 -0.6525717,-2.0678 -0.073039,-0.2752 -0.2492527,-0.7881 -0.3915905,-1.1401 -0.1423377,-0.3517 -0.2871477,-0.802 -0.3218003,-1.0004 -0.1572275,-0.901 -0.601726,-1.0441 -1.3555447,-0.4361 -0.4865817,0.3923 -0.5787658,0.566 -0.5810234,1.0947 -7.652e-4,0.1755 -0.041207,0.3439 -0.089903,0.3741 -0.048698,0.031 -0.1177702,0.211 -0.1534965,0.4019 -0.035726,0.1909 -0.2879744,0.7958 -0.5605515,1.3443 -0.4410382,0.8874 -0.495595,1.0688 -0.495595,1.6466 l 0,0.6492 -0.2995807,-0.1134 -0.2995805,-0.1132 -0.00173,-1.2537 c -0.00162,-1.1885 -0.014062,-1.2655 -0.2387601,-1.479 -0.1303694,-0.1238 -0.3009312,-0.2251 -0.3790263,-0.2251 -0.2996313,0 -1.1625563,-0.5031 -1.60962781,-0.9387 l -0.46708583,-0.4549 0,-2.4049 0,-2.4052 15.82784404,0 15.827844,0 0,1.9538 0,1.954 -0.474335,0.4457 c -0.464113,0.4362 -0.488875,0.4459 -1.148755,0.4475 -0.654421,0 -0.889256,0.077 -1.547475,0.5047 -0.123574,0.079 -0.224682,0.1779 -0.224682,0.2172 0,0.2077 -0.876016,1.2827 -1.041576,1.2782 -0.05875,0 -0.344634,-0.2266 -0.635301,-0.5002 -0.503037,-0.4735 -0.55524,-0.4974 -1.084091,-0.4974 -0.599788,0 -0.788096,0.1403 -1.133747,0.845 -0.192967,0.3933 -0.726496,1.1962 -0.82368,1.2395 -0.04119,0.018 -0.0749,0.1195 -0.0749,0.2251 0,0.1055 -0.03983,0.1918 -0.08852,0.1918 -0.04869,0 -0.117943,0.1965 -0.153901,0.4369 -0.05442,0.3636 -0.180781,0.5571 -0.75438,1.1552 -0.601136,0.6266 -0.700962,0.6953 -0.782816,0.5386 -0.0516,-0.1 -0.113489,-1.2845 -0.13753,-2.635 -0.04182,-2.349 -0.05387,-2.4736 -0.278008,-2.8733 -0.333783,-0.5949 -0.925335,-1.0411 -1.460685,-1.1016 -0.263648,-0.029 -0.438426,-0.01 -0.438426,0.053 0,0.056 -0.158013,0.2759 -0.351137,0.4882 -0.193125,0.2125 -0.422931,0.5327 -0.510679,0.7114 -0.08775,0.1789 -0.19936,0.3254 -0.248024,0.3254 -0.04866,0 -0.08849,0.05 -0.08849,0.1107 0,0.061 -0.134811,0.3106 -0.299581,0.5552 -0.164769,0.2447 -0.29958,0.4953 -0.29958,0.557 0,0.062 -0.068,0.1874 -0.151091,0.2794 -0.187534,0.2077 -0.418701,3.327 -0.250715,3.3831 0.308802,0.103 -0.285522,1.018 -0.66132,1.018 -0.06593,0 -0.246899,0.1024 -0.402149,0.2275 -0.155253,0.1249 -0.551902,0.3447 -0.88144,0.4882 -1.513113,0.6588 -1.447974,0.6363 -1.447974,0.5001 z"
       id="path8589"
       inkscape:connector-curvature="0" />
    <ellipse
       style="opacity:1;fill:#dbe2e3;fill-opacity:1;stroke:#33d6ff;stroke-width:0.17706867;stroke-miterlimit:4;stroke-dasharray:none;stroke-opacity:1"
       id="path8595"
       cx="10.411329"
       cy="1023.3325"
       rx="0.86065781"
       ry="0.6458407" />
    <ellipse
       ry="0.6458407"
       rx="0.86065781"
       cy="1022.8372"
       cx="28.911629"
       id="ellipse8597"
       style="opacity:1;fill:#dbe2e3;fill-opacity:1;stroke:#33d6ff;stroke-width:0.17706867;stroke-miterlimit:4;stroke-dasharray:none;stroke-opacity:1" />
    <ellipse
       style="opacity:1;fill:#dbe2e3;fill-opacity:1;stroke:#33d6ff;stroke-width:0.17706867;stroke-miterlimit:4;stroke-dasharray:none;stroke-opacity:1"
       id="ellipse8599"
       cx="14.577429"
       cy="1029.4171"
       rx="0.86065781"
       ry="0.6458407" />
    <ellipse
       ry="0.6458407"
       rx="0.86065781"
       cy="1021.1392"
       cx="23.686357"
       id="ellipse8601"
       style="opacity:1;fill:#dbe2e3;fill-opacity:1;stroke:#33d6ff;stroke-width:0.17706867;stroke-miterlimit:4;stroke-dasharray:none;stroke-opacity:1" />
    <ellipse
       style="opacity:1;fill:#dbe2e3;fill-opacity:1;stroke:#33d6ff;stroke-width:0.17706867;stroke-miterlimit:4;stroke-dasharray:none;stroke-opacity:1"
       id="ellipse8603"
       cx="3.7032051"
       cy="1024.1815"
       rx="0.86065781"
       ry="0.6458407" />
    <ellipse
       ry="0.6458407"
       rx="0.86065781"
       cy="1021.1392"
       cx="1.5848501"
       id="ellipse8605"
       style="opacity:1;fill:#dbe2e3;fill-opacity:1;stroke:#33d6ff;stroke-width:0.17706867;stroke-miterlimit:4;stroke-dasharray:none;stroke-opacity:1" />
    <ellipse
       style="opacity:1;fill:#dbe2e3;fill-opacity:1;stroke:#33d6ff;stroke-width:0.17706867;stroke-miterlimit:4;stroke-dasharray:none;stroke-opacity:1"
       id="ellipse8607"
       cx="15.919054"
       cy="1024.5353"
       rx="0.86065781"
       ry="0.6458407" />
    <ellipse
       ry="0.8074072"
       rx="0.95129311"
       cy="1043.1782"
       cx="26.828581"
       id="ellipse8609"
       style="opacity:1;fill:#5599ff;fill-opacity:1;stroke:#33d6ff;stroke-width:0.2081456;stroke-miterlimit:4;stroke-dasharray:none;stroke-opacity:1" />
    <ellipse
       style="opacity:1;fill:#5f8dd3;fill-opacity:1;stroke:#33d6ff;stroke-width:0.2081456;stroke-miterlimit:4;stroke-dasharray:none;stroke-opacity:1"
       id="ellipse8611"
       cx="20.191069"
       cy="1043.6027"
       rx="0.95129311"
       ry="0.8074072" />
    <ellipse
       ry="0.8074072"
       rx="0.95129311"
       cy="1036.8815"
       cx="26.051853"
       id="ellipse8613"
       style="opacity:1;fill:#aaaaff;fill-opacity:1;stroke:#33d6ff;stroke-width:0.2081456;stroke-miterlimit:4;stroke-dasharray:none;stroke-opacity:1" />
    <ellipse
       style="opacity:1;fill:#87aade;fill-opacity:1;stroke:#33d6ff;stroke-width:0.2081456;stroke-miterlimit:4;stroke-dasharray:none;stroke-opacity:1"
       id="ellipse8615"
       cx="27.60531"
       cy="1049.6874"
       rx="0.95129311"
       ry="0.8074072" />
    <ellipse
       ry="0.8074072"
       rx="0.95129311"
       cy="1042.683"
       cx="6.7748189"
       id="ellipse8617"
       style="opacity:1;fill:#b7bec8;fill-opacity:1;stroke:#33d6ff;stroke-width:0.2081456;stroke-miterlimit:4;stroke-dasharray:none;stroke-opacity:1" />
    <ellipse
       style="opacity:1;fill:#b7bec8;fill-opacity:1;stroke:#33d6ff;stroke-width:0.2081456;stroke-miterlimit:4;stroke-dasharray:none;stroke-opacity:1"
       id="ellipse8619"
       cx="5.7862539"
       cy="1034.8295"
       rx="0.95129311"
       ry="0.8074072" />
    <ellipse
       style="opacity:1;fill:#5599ff;fill-opacity:1;stroke:#33d6ff;stroke-width:0.20793049;stroke-miterlimit:4;stroke-dasharray:none;stroke-opacity:1"
       id="ellipse8621"
       cx="-18.524202"
       cy="1035.5371"
       rx="0.94931537"
       ry="0.80741781"
       transform="scale(-1,1)" />
    <ellipse
       ry="0.80741781"
       rx="0.94931537"
       cy="1045.9376"
       cx="-11.405328"
       id="ellipse8623"
       style="opacity:1;fill:#5f8dd3;fill-opacity:1;stroke:#33d6ff;stroke-width:0.20793049;stroke-miterlimit:4;stroke-dasharray:none;stroke-opacity:1"
       transform="scale(-1,1)" />
    <ellipse
       style="opacity:1;fill:#aaaaff;fill-opacity:1;stroke:#33d6ff;stroke-width:0.20793049;stroke-miterlimit:4;stroke-dasharray:none;stroke-opacity:1"
       id="ellipse8625"
       cx="-4.3588223"
       cy="1036.6691"
       rx="0.94931537"
       ry="0.80741781"
       transform="scale(-1,1)" />
    <ellipse
       ry="0.80741781"
       rx="0.94931537"
       cy="1049.2632"
       cx="-3.3723135"
       id="ellipse8627"
       style="opacity:1;fill:#87aade;fill-opacity:1;stroke:#33d6ff;stroke-width:0.20793049;stroke-miterlimit:4;stroke-dasharray:none;stroke-opacity:1"
       transform="scale(-1,1)" />
    <ellipse
       style="opacity:1;fill:#b7bec8;fill-opacity:1;stroke:#33d6ff;stroke-width:0.20793049;stroke-miterlimit:4;stroke-dasharray:none;stroke-opacity:1"
       id="ellipse8629"
       cx="-14.131588"
       cy="1040.4899"
       rx="0.94931537"
       ry="0.80741781"
       transform="scale(-1,1)" />
    <ellipse
       ry="0.80741781"
       rx="0.94931537"
       cy="1034.6173"
       cx="-24.582287"
       id="ellipse8631"
       style="opacity:1;fill:#b7bec8;fill-opacity:1;stroke:#33d6ff;stroke-width:0.20793049;stroke-miterlimit:4;stroke-dasharray:none;stroke-opacity:1"
       transform="scale(-1,1)" />
  </g>
</svg>
