<?xml version="1.0" encoding="UTF-8" standalone="no"?>
<!-- Created with Inkscape (http://www.inkscape.org/) -->

<svg
   xmlns:dc="http://purl.org/dc/elements/1.1/"
   xmlns:cc="http://creativecommons.org/ns#"
   xmlns:rdf="http://www.w3.org/1999/02/22-rdf-syntax-ns#"
   xmlns:svg="http://www.w3.org/2000/svg"
   xmlns="http://www.w3.org/2000/svg"
   xmlns:sodipodi="http://sodipodi.sourceforge.net/DTD/sodipodi-0.dtd"
   xmlns:inkscape="http://www.inkscape.org/namespaces/inkscape"
   width="32"
   height="32"
   viewBox="0 0 32 32.000001"
   id="svg4220"
   version="1.1"
   inkscape:version="0.91 r13725"
   sodipodi:docname="fase eletrica chao.svg"
   inkscape:export-filename="/home/juan/Git-GitHub Projetos/Trabalho-LPH2/img/IMG 32px/fase eletrica chao.png"
   inkscape:export-xdpi="90"
   inkscape:export-ydpi="90">
  <defs
     id="defs4222" />
  <sodipodi:namedview
     id="base"
     pagecolor="#ffffff"
     bordercolor="#666666"
     borderopacity="1.0"
     inkscape:pageopacity="0.0"
     inkscape:pageshadow="2"
     inkscape:zoom="15.839192"
     inkscape:cx="18.269048"
     inkscape:cy="23.172313"
     inkscape:document-units="px"
     inkscape:current-layer="layer1"
     showgrid="true"
     units="px"
     inkscape:window-width="1551"
     inkscape:window-height="876"
     inkscape:window-x="49"
     inkscape:window-y="24"
     inkscape:window-maximized="1">
    <inkscape:grid
       type="xygrid"
       id="grid4850"
       spacingx="0.1"
       spacingy="0.1" />
  </sodipodi:namedview>
  <metadata
     id="metadata4225">
    <rdf:RDF>
      <cc:Work
         rdf:about="">
        <dc:format>image/svg+xml</dc:format>
        <dc:type
           rdf:resource="http://purl.org/dc/dcmitype/StillImage" />
        <dc:title />
      </cc:Work>
    </rdf:RDF>
  </metadata>
  <g
     inkscape:label="Camada 1"
     inkscape:groupmode="layer"
     id="layer1"
     transform="translate(0,-1020.3622)">
    <rect
       style="opacity:1;fill:#80b3ff;fill-opacity:1;stroke:#383838;stroke-width:0.36988258;stroke-miterlimit:4;stroke-dasharray:none;stroke-opacity:1"
       id="rect4138"
       width="32.251011"
       height="32.621765"
       x="0.02838389"
       y="1020.0809"
       ry="4.1143198"
       rx="0" />
    <path
       style="fill:none;fill-rule:evenodd;stroke:#000000;stroke-width:0.5121451;stroke-linecap:butt;stroke-linejoin:miter;stroke-miterlimit:4;stroke-dasharray:none;stroke-opacity:1"
       d="m 3.423235,1038.9673 6.789684,0"
       id="path4154"
       inkscape:connector-curvature="0" />
    <path
       inkscape:connector-curvature="0"
       id="path4156"
       d="m 10.148068,1039.0855 3.342174,5.9782"
       style="fill:none;fill-rule:evenodd;stroke:#000000;stroke-width:1.08119524;stroke-linecap:butt;stroke-linejoin:miter;stroke-miterlimit:4;stroke-dasharray:none;stroke-opacity:1" />
    <ellipse
       style="opacity:1;fill:#ff0000;fill-opacity:1;stroke:#000000;stroke-width:0.56905013;stroke-miterlimit:4;stroke-dasharray:none;stroke-opacity:1"
       id="path4158"
       cx="13.599148"
       cy="1046.3954"
       rx="2.1174684"
       ry="1.7169349" />
    <path
       style="fill:none;fill-rule:evenodd;stroke:#000000;stroke-width:1.08119524;stroke-linecap:butt;stroke-linejoin:miter;stroke-miterlimit:4;stroke-dasharray:none;stroke-opacity:1"
       d="m 13.481664,1047.7665 -0.181493,5.0926"
       id="path4160"
       inkscape:connector-curvature="0" />
    <path
       style="fill:none;fill-rule:evenodd;stroke:#000000;stroke-width:1.08119524;stroke-linecap:butt;stroke-linejoin:miter;stroke-miterlimit:4;stroke-dasharray:none;stroke-opacity:1"
       d="m 25.535658,1038.8856 -15.430428,0.018"
       id="path4162"
       inkscape:connector-curvature="0" />
    <ellipse
       ry="1.7169349"
       rx="2.1174684"
       cy="1038.8799"
       cx="26.744831"
       id="ellipse4164"
       style="opacity:1;fill:#ff0000;fill-opacity:1;stroke:#000000;stroke-width:0.56905013;stroke-miterlimit:4;stroke-dasharray:none;stroke-opacity:1" />
    <ellipse
       style="opacity:1;fill:#ff0000;fill-opacity:1;stroke:#000000;stroke-width:0.56905013;stroke-miterlimit:4;stroke-dasharray:none;stroke-opacity:1"
       id="ellipse4166"
       cx="7.1691947"
       cy="1027.4619"
       rx="2.1174684"
       ry="1.7169349" />
    <ellipse
       ry="1.7169349"
       rx="2.1174684"
       cy="1022.5478"
       cx="28.745264"
       id="ellipse4168"
       style="opacity:1;fill:#ff0000;fill-opacity:1;stroke:#000000;stroke-width:0.56905013;stroke-miterlimit:4;stroke-dasharray:none;stroke-opacity:1" />
    <path
       inkscape:connector-curvature="0"
       id="path4170"
       d="m 25.847346,1022.1336 0.235423,14.8852"
       style="fill:none;fill-rule:evenodd;stroke:#000000;stroke-width:1.08119524;stroke-linecap:butt;stroke-linejoin:miter;stroke-miterlimit:4;stroke-dasharray:none;stroke-opacity:1" />
    <path
       style="fill:none;fill-rule:evenodd;stroke:#000000;stroke-width:1.08119524;stroke-linecap:butt;stroke-linejoin:miter;stroke-miterlimit:4;stroke-dasharray:none;stroke-opacity:1"
       d="m 6.9861391,1029.5244 0.2354238,9.6353"
       id="path4172"
       inkscape:connector-curvature="0" />
    <path
       inkscape:connector-curvature="0"
       id="path4174"
       d="m -0.14896762,1039.5453 6.78969252,0"
       style="fill:none;fill-rule:evenodd;stroke:#000000;stroke-width:0.5121451;stroke-linecap:butt;stroke-linejoin:miter;stroke-miterlimit:4;stroke-dasharray:none;stroke-opacity:1" />
    <path
       style="fill:none;fill-rule:evenodd;stroke:#000000;stroke-width:0.5121451;stroke-linecap:butt;stroke-linejoin:miter;stroke-miterlimit:4;stroke-dasharray:none;stroke-opacity:1"
       d="m -0.29185261,1039.9789 4.07481381,0"
       id="path4176"
       inkscape:connector-curvature="0" />
    <path
       inkscape:connector-curvature="0"
       id="path4178"
       d="m 21.998658,1021.9126 4.07482,0"
       style="fill:none;fill-rule:evenodd;stroke:#000000;stroke-width:0.5121451;stroke-linecap:butt;stroke-linejoin:miter;stroke-miterlimit:4;stroke-dasharray:none;stroke-opacity:1" />
    <path
       style="fill:none;fill-rule:evenodd;stroke:#000000;stroke-width:0.5121451;stroke-linecap:butt;stroke-linejoin:miter;stroke-miterlimit:4;stroke-dasharray:none;stroke-opacity:1"
       d="m 9.5205932,1020.3796 4.0748138,0"
       id="path4180"
       inkscape:connector-curvature="0" />
    <path
       inkscape:connector-curvature="0"
       id="path4182"
       d="m 13.612588,1020.6352 4.074821,0"
       style="fill:none;fill-rule:evenodd;stroke:#000000;stroke-width:0.5121451;stroke-linecap:butt;stroke-linejoin:miter;stroke-miterlimit:4;stroke-dasharray:none;stroke-opacity:1" />
    <path
       style="fill:none;fill-rule:evenodd;stroke:#000000;stroke-width:0.5121451;stroke-linecap:butt;stroke-linejoin:miter;stroke-miterlimit:4;stroke-dasharray:none;stroke-opacity:1"
       d="m 17.098368,1021.095 4.074812,0"
       id="path4184"
       inkscape:connector-curvature="0" />
    <path
       inkscape:connector-curvature="0"
       id="path4186"
       d="m 19.573772,1021.5812 4.074815,0"
       style="fill:none;fill-rule:evenodd;stroke:#000000;stroke-width:0.5121451;stroke-linecap:butt;stroke-linejoin:miter;stroke-miterlimit:4;stroke-dasharray:none;stroke-opacity:1" />
    <path
       inkscape:connector-curvature="0"
       id="path4188"
       d="m 28.115694,1048.3246 0.02101,-8.1288"
       style="fill:none;fill-rule:evenodd;stroke:#000000;stroke-width:1.08119524;stroke-linecap:butt;stroke-linejoin:miter;stroke-miterlimit:4;stroke-dasharray:none;stroke-opacity:1" />
    <path
       style="fill:none;fill-rule:evenodd;stroke:#000000;stroke-width:0.5121451;stroke-linecap:butt;stroke-linejoin:miter;stroke-miterlimit:4;stroke-dasharray:none;stroke-opacity:1"
       d="m 28.763602,1046.9097 0.04244,4.1215"
       id="path4190"
       inkscape:connector-curvature="0" />
    <path
       inkscape:connector-curvature="0"
       id="path4192"
       d="m 28.763602,1046.9097 0.04244,4.1215"
       style="fill:none;fill-rule:evenodd;stroke:#000000;stroke-width:0.5121451;stroke-linecap:butt;stroke-linejoin:miter;stroke-miterlimit:4;stroke-dasharray:none;stroke-opacity:1" />
    <path
       style="fill:none;fill-rule:evenodd;stroke:#000000;stroke-width:0.5121451;stroke-linecap:butt;stroke-linejoin:miter;stroke-miterlimit:4;stroke-dasharray:none;stroke-opacity:1"
       d="m 28.763602,1046.9097 0.04244,4.1215"
       id="path4194"
       inkscape:connector-curvature="0" />
    <path
       inkscape:connector-curvature="0"
       id="path4196"
       d="m 32.160388,1046.7967 -4.073677,-0.099"
       style="fill:none;fill-rule:evenodd;stroke:#000000;stroke-width:0.5121451;stroke-linecap:butt;stroke-linejoin:miter;stroke-miterlimit:4;stroke-dasharray:none;stroke-opacity:1" />
    <path
       style="fill:none;fill-rule:evenodd;stroke:#000000;stroke-width:0.5121451;stroke-linecap:butt;stroke-linejoin:miter;stroke-miterlimit:4;stroke-dasharray:none;stroke-opacity:1"
       d="m 29.748717,1048.6982 0.04243,4.1213"
       id="path4198"
       inkscape:connector-curvature="0" />
    <path
       inkscape:connector-curvature="0"
       id="path4200"
       d="m 29.218275,1047.9315 0.04244,4.1217"
       style="fill:none;fill-rule:evenodd;stroke:#000000;stroke-width:0.5121451;stroke-linecap:butt;stroke-linejoin:miter;stroke-miterlimit:4;stroke-dasharray:none;stroke-opacity:1"
       inkscape:transform-center-y="0.20436256"
       inkscape:transform-center-x="-1.911647e-05" />
    <path
       style="opacity:1;fill:#ffff00;fill-opacity:1;stroke:#000000;stroke-width:0;stroke-miterlimit:4;stroke-dasharray:none;stroke-opacity:1"
       d="m 12.668245,1047.6623 c -0.118951,-0.061 -0.279718,-0.1821 -0.357245,-0.2683 -0.07752,-0.086 -0.221327,-0.2065 -0.319565,-0.2671 -0.142628,-0.088 -0.178621,-0.164 -0.178621,-0.3764 0,-0.1464 0.02926,-0.2662 0.06496,-0.2662 0.03571,0 0.06498,-0.087 0.06498,-0.1947 0,-0.2659 0.52695,-0.9207 0.834185,-1.0362 0.130641,-0.048 0.265295,-0.1196 0.299236,-0.1567 0.09105,-0.1 0.269414,-0.082 0.351295,0.035 0.05463,0.078 0.02891,0.1551 -0.10804,0.3255 -0.32774,0.4078 -0.415488,0.6384 -0.41761,1.0976 -0.0027,0.6519 0.03439,0.7296 0.405454,0.8418 0.246657,0.074 0.32424,0.1329 0.32424,0.244 0,0.1273 -0.04749,0.1451 -0.373477,0.1397 -0.205414,0 -0.470804,-0.055 -0.589761,-0.1174 z"
       id="path4206"
       inkscape:connector-curvature="0" />
    <path
       inkscape:connector-curvature="0"
       id="path4208"
       d="m 25.896702,1040.0051 c -0.107397,-0.057 -0.252515,-0.1701 -0.322508,-0.2508 -0.06999,-0.08 -0.19981,-0.1931 -0.288499,-0.2499 -0.128763,-0.082 -0.161254,-0.1532 -0.161254,-0.3519 0,-0.1368 0.0264,-0.2487 0.05867,-0.2487 0.03224,0 0.05866,-0.082 0.05866,-0.182 0,-0.2487 0.475716,-0.8607 0.753082,-0.9688 0.117949,-0.045 0.239506,-0.1119 0.270141,-0.1465 0.0822,-0.094 0.24323,-0.077 0.317153,0.032 0.04931,0.073 0.02607,0.1449 -0.09754,0.3043 -0.29588,0.3813 -0.375092,0.5969 -0.377006,1.0262 -0.0027,0.6094 0.03107,0.6821 0.36603,0.7869 0.222678,0.07 0.292717,0.1242 0.292717,0.2281 0,0.1192 -0.04286,0.1358 -0.33717,0.1306 -0.185438,0 -0.425029,-0.052 -0.53242,-0.1097 z"
       style="opacity:1;fill:#ffff00;fill-opacity:1;stroke:#000000;stroke-width:0;stroke-miterlimit:4;stroke-dasharray:none;stroke-opacity:1" />
    <path
       style="opacity:1;fill:#ffff00;fill-opacity:1;stroke:#000000;stroke-width:0;stroke-miterlimit:4;stroke-dasharray:none;stroke-opacity:1"
       d="m 6.277559,1028.6545 c -0.1096116,-0.061 -0.2577371,-0.1804 -0.3291752,-0.2659 -0.071434,-0.085 -0.2039445,-0.2048 -0.2944655,-0.2649 -0.1314164,-0.087 -0.1645877,-0.1627 -0.1645877,-0.3732 0,-0.145 0.026903,-0.2637 0.059839,-0.2637 0.032934,0 0.059839,-0.087 0.059839,-0.1929 0,-0.2637 0.485547,-0.9125 0.7686481,-1.0271 0.120375,-0.048 0.2444514,-0.1186 0.2757228,-0.1553 0.083892,-0.099 0.248252,-0.081 0.3236984,0.035 0.05034,0.077 0.026624,0.1536 -0.099553,0.3225 -0.3019948,0.4042 -0.3828365,0.6328 -0.3847987,1.0881 -0.00272,0.6461 0.031683,0.723 0.373594,0.8341 0.2272834,0.073 0.2987635,0.1317 0.2987635,0.2419 0,0.1264 -0.043758,0.1439 -0.3441324,0.1386 -0.1892719,0 -0.4338136,-0.055 -0.5434164,-0.1165 z"
       id="path4210"
       inkscape:connector-curvature="0" />
    <path
       inkscape:connector-curvature="0"
       id="path4212"
       d="m 27.89947,1023.6567 c -0.109599,-0.054 -0.257736,-0.1647 -0.329169,-0.2428 -0.07142,-0.078 -0.203936,-0.1872 -0.294465,-0.2422 -0.131416,-0.079 -0.16458,-0.1485 -0.16458,-0.3409 0,-0.1325 0.0269,-0.241 0.05984,-0.241 0.03293,0 0.05984,-0.079 0.05984,-0.1762 0,-0.2411 0.485539,-0.8339 0.768641,-0.9385 0.120375,-0.043 0.244459,-0.1085 0.275722,-0.142 0.0839,-0.09 0.248258,-0.074 0.323705,0.031 0.05035,0.07 0.02662,0.1405 -0.09955,0.2948 -0.301988,0.3694 -0.382836,0.5782 -0.384792,0.9943 -0.0027,0.5904 0.03168,0.6608 0.373595,0.7622 0.227276,0.067 0.298763,0.1204 0.298763,0.2211 0,0.1156 -0.04376,0.1316 -0.34414,0.1267 -0.189271,0 -0.433806,-0.05 -0.543422,-0.1066 z"
       style="opacity:1;fill:#ffff00;fill-opacity:1;stroke:#000000;stroke-width:0;stroke-miterlimit:4;stroke-dasharray:none;stroke-opacity:1" />
    <path
       style="opacity:1;fill:#ffaaaa;fill-opacity:1;stroke:#000000;stroke-width:0;stroke-miterlimit:4;stroke-dasharray:none;stroke-opacity:1"
       d="m 14.695205,1046.236 c 0.07734,-0.062 0.175351,-0.1647 0.217784,-0.2292 0.04244,-0.065 0.127992,-0.1634 0.190139,-0.2194 0.09022,-0.081 0.103778,-0.1304 0.06727,-0.242 -0.0251,-0.077 -0.06727,-0.1328 -0.09364,-0.124 -0.0264,0.01 -0.06303,-0.031 -0.0814,-0.086 -0.04562,-0.14 -0.54721,-0.3542 -0.793977,-0.3393 -0.10491,0.01 -0.216488,0 -0.247912,-0.01 -0.08429,-0.03 -0.213033,0.024 -0.253506,0.1049 -0.02705,0.054 0.0056,0.088 0.135659,0.1444 0.31207,0.1336 0.416472,0.2335 0.496877,0.4744 0.114042,0.3421 0.09985,0.392 -0.154942,0.5426 -0.169373,0.1007 -0.216647,0.15 -0.197578,0.2083 0.0219,0.067 0.06005,0.065 0.299838,-0.02 0.150824,-0.053 0.338045,-0.1459 0.415383,-0.2072 z"
       id="path4214"
       inkscape:connector-curvature="0" />
    <path
       inkscape:connector-curvature="0"
       id="path4216"
       d="m 27.678463,1038.7755 c 0.07735,-0.062 0.175348,-0.1647 0.217782,-0.2292 0.04244,-0.065 0.127993,-0.1632 0.19014,-0.2194 0.09022,-0.081 0.103767,-0.1303 0.06726,-0.2421 -0.0251,-0.077 -0.06726,-0.1326 -0.09364,-0.1237 -0.0264,0.01 -0.06304,-0.031 -0.0814,-0.086 -0.04563,-0.1398 -0.547209,-0.3541 -0.793977,-0.3392 -0.10491,0.01 -0.216488,0 -0.247911,-0.01 -0.08429,-0.03 -0.213034,0.024 -0.253508,0.1048 -0.02704,0.054 0.0056,0.088 0.135661,0.1445 0.31207,0.1336 0.416472,0.2333 0.496878,0.4743 0.114039,0.3422 0.09984,0.392 -0.154945,0.5426 -0.169372,0.1007 -0.216647,0.1499 -0.197578,0.2083 0.0219,0.067 0.06005,0.065 0.299838,-0.02 0.150818,-0.053 0.338045,-0.1458 0.415392,-0.2074 z"
       style="opacity:1;fill:#ffaaaa;fill-opacity:1;stroke:#000000;stroke-width:0;stroke-miterlimit:4;stroke-dasharray:none;stroke-opacity:1" />
    <path
       style="opacity:1;fill:#ffaaaa;fill-opacity:1;stroke:#000000;stroke-width:0;stroke-miterlimit:4;stroke-dasharray:none;stroke-opacity:1"
       d="m 8.1334007,1027.3716 c 0.077348,-0.062 0.175349,-0.1647 0.2177908,-0.2292 0.042434,-0.065 0.127992,-0.1631 0.1901317,-0.2194 0.090213,-0.081 0.1037724,-0.1305 0.067326,-0.2421 -0.025101,-0.077 -0.067264,-0.1326 -0.093653,-0.1238 -0.026413,0.01 -0.063033,-0.031 -0.081405,-0.086 -0.045625,-0.1398 -0.5472094,-0.354 -0.7939707,-0.339 -0.1049104,0.01 -0.2164867,0 -0.2479178,-0.01 -0.084287,-0.03 -0.2130276,0.024 -0.2535071,0.1048 -0.027044,0.054 0.00556,0.088 0.1356673,0.1445 0.3120689,0.1337 0.4164649,0.2334 0.496876,0.4743 0.1140283,0.3422 0.099851,0.3922 -0.1549495,0.5428 -0.1693722,0.1007 -0.2166402,0.1497 -0.1975719,0.2082 0.02191,0.067 0.059978,0.065 0.299831,-0.018 0.1508251,-0.053 0.3380445,-0.1458 0.4153912,-0.2073 z"
       id="path4218"
       inkscape:connector-curvature="0" />
    <path
       inkscape:connector-curvature="0"
       id="path4220"
       d="m 29.648683,1022.4748 c 0.07735,-0.062 0.17535,-0.1645 0.217785,-0.2293 0.04244,-0.065 0.12799,-0.1632 0.190138,-0.2193 0.09022,-0.081 0.103778,-0.1302 0.06733,-0.2419 -0.0251,-0.077 -0.06724,-0.1328 -0.09366,-0.124 -0.0264,0.01 -0.06304,-0.031 -0.0814,-0.086 -0.04562,-0.1398 -0.547209,-0.354 -0.793976,-0.3391 -0.104911,0.01 -0.216487,0 -0.247911,-0.01 -0.08429,-0.03 -0.213027,0.024 -0.253508,0.1049 -0.02704,0.054 0.0056,0.088 0.13566,0.1446 0.312077,0.1334 0.416472,0.2332 0.496878,0.4741 0.11404,0.3422 0.09986,0.3922 -0.154945,0.5426 -0.169371,0.1007 -0.216645,0.1501 -0.197571,0.2084 0.0219,0.067 0.05997,0.065 0.299831,-0.019 0.150825,-0.053 0.338044,-0.1459 0.415391,-0.2073 z"
       style="opacity:1;fill:#ffaaaa;fill-opacity:1;stroke:#000000;stroke-width:0;stroke-miterlimit:4;stroke-dasharray:none;stroke-opacity:1" />
    <path
       style="opacity:1;fill:#0000ff;fill-opacity:1;stroke:#000000;stroke-width:0.59750265;stroke-miterlimit:4;stroke-dasharray:none;stroke-opacity:1"
       d="m 0.2268242,1046.3588 0,-6.0701 1.7860944,0 c 1.492385,0 1.7861012,-0.036 1.7861012,-0.217 0,-0.1783 0.2540202,-0.2167 1.4288783,-0.2167 1.333622,0 1.4288777,-0.02 1.4288777,-0.2891 0,-0.2704 0.094382,-0.2889 1.4646011,-0.2865 l 1.4646023,0 1.4569178,2.6269 1.456911,2.6268 -0.413213,0.2543 c -0.878624,0.5406 -1.15018,1.4012 -0.738853,2.3417 0.212236,0.4852 0.436614,0.7318 0.869624,0.9552 l 0.583593,0.3011 -0.002,1.6953 c -0.0013,0.9324 -0.04071,1.8416 -0.08811,2.0206 l -0.08615,0.3251 -6.1989517,0 -6.19895915,0 0,-6.0703 z"
       id="path4222"
       inkscape:connector-curvature="0" />
    <path
       style="opacity:1;fill:#0000ff;fill-opacity:1;stroke:#000000;stroke-width:0.93893278;stroke-miterlimit:4;stroke-dasharray:none;stroke-opacity:1"
       d="m 13.945079,1051.3812 c 5.61e-4,-0.5763 0.04216,-1.4705 0.0925,-1.9872 l 0.09147,-0.9394 0.722303,-0.3614 c 1.756035,-0.8784 1.547098,-2.8637 -0.377725,-3.5891 l -0.743896,-0.2801 -1.310428,-2.3291 -1.310428,-2.329 6.681512,0 6.68151,0 0.160109,0.3555 c 0.237379,0.527 1.198488,0.966 2.11484,0.966 l 0.771566,0 0,3.7474 0,3.7473 0.500109,0 0.500106,0 0,1.3732 c 0,1.124 0.03884,1.373 0.214333,1.373 0.149693,0 0.21433,0.1526 0.21433,0.5059 0,0.4096 0.05444,0.5057 0.285777,0.5057 0.157176,0 0.285778,0.065 0.285778,0.1446 0,0.095 -2.691054,0.1446 -7.787392,0.1446 l -7.78739,0 0.0013,-1.0479 z"
       id="path4224"
       inkscape:connector-curvature="0" />
    <path
       style="opacity:1;fill:#0000ff;fill-opacity:1;stroke:#000000;stroke-width:0.62595516;stroke-miterlimit:4;stroke-dasharray:none;stroke-opacity:1"
       d="m 29.603447,1046.3956 -0.987049,-0.05 0.09034,-3.1429 c 0.07115,-2.4755 0.139693,-3.2431 0.322747,-3.6142 0.281311,-0.5705 0.184778,-1.2684 -0.253334,-1.8317 -0.329911,-0.4243 -1.285397,-0.9276 -1.770528,-0.9328 -0.293911,0 -0.299902,-0.07 -0.392946,-4.3626 -0.136616,-6.3037 -0.117567,-9.0649 0.06039,-8.7559 0.25721,0.4469 1.242533,0.8508 2.075089,0.8508 1.956376,0 3.095759,-1.759 2.028409,-3.1316 -0.396031,-0.5092 -1.317548,-0.9287 -2.049072,-0.9328 -0.755667,0 -1.778398,0.5277 -2.137875,1.1114 -0.309767,0.5032 -0.500108,0.6017 -0.500108,0.2585 0,-0.1756 -0.23021,-0.2166 -1.214546,-0.2166 -0.984339,0 -1.214547,-0.042 -1.214547,-0.217 0,-0.1756 -0.23021,-0.2167 -1.214548,-0.2167 -0.984337,0 -1.214546,-0.041 -1.214546,-0.2168 0,-0.1806 -0.285778,-0.2168 -1.714656,-0.2168 -1.428878,0 -1.714656,-0.037 -1.714656,-0.2168 0,-0.1898 0.889082,-0.2168 7.144398,-0.2168 l 7.144391,0 0,13.0801 0,13.0799 -0.750155,-0.029 c -0.412588,-0.015 -1.194334,-0.05 -1.737218,-0.079 z"
       id="path4226"
       inkscape:connector-curvature="0" />
    <path
       style="opacity:1;fill:#0000ff;fill-opacity:1;stroke:#000000;stroke-width:0.40176734;stroke-miterlimit:4;stroke-dasharray:none;stroke-opacity:1"
       d="m 30.090965,1050.616 c 0,-1.8154 -0.01464,-1.9136 -0.285453,-1.9136 -0.22202,0 -0.28545,-0.099 -0.28545,-0.4415 0,-0.2945 -0.07135,-0.4418 -0.214088,-0.4418 -0.133214,0 -0.21409,-0.139 -0.21409,-0.3678 l 0,-0.3681 1.498617,0 1.498613,0 0,2.7231 0,2.7233 -0.999072,0 -0.999077,0 0,-1.9136 z"
       id="path4228"
       inkscape:connector-curvature="0" />
    <path
       style="opacity:1;fill:#0000ff;fill-opacity:1;stroke:#000000;stroke-width:0.59750265;stroke-miterlimit:4;stroke-dasharray:none;stroke-opacity:1"
       d="m 0.2268242,1029.8101 0,-9.4669 4.6438579,0 c 3.0006416,0 4.6438577,0.05 4.6438577,0.1446 0,0.089 0.7620672,0.1446 2.0004252,0.1446 1.238365,0 2.000433,0.055 2.000433,0.1446 0,0.088 0.690621,0.1443 1.7861,0.1443 1.492378,0 1.786094,0.035 1.786094,0.217 0,0.1757 0.230211,0.2167 1.214547,0.2167 1.119291,0 1.214548,0.023 1.214548,0.2891 0,0.2664 0.09526,0.2892 1.214548,0.2892 0.714437,0 1.214546,0.06 1.214546,0.1444 0,0.088 0.643,0.1445 1.643209,0.1445 l 1.643216,0 0.0061,0.6866 c 0.0034,0.3775 0.06198,3.6985 0.130334,7.3799 l 0.124302,6.6933 -0.634207,0.6416 -0.634201,0.6415 -7.069192,0 c -6.188462,0 -7.069182,0.027 -7.069182,0.2168 0,0.1746 -0.2222771,0.2168 -1.1431082,0.2168 l -1.1431012,0 -0.017468,-1.3369 c -0.00965,-0.7353 -0.057824,-2.8117 -0.1071621,-4.6144 l -0.089694,-3.2774 0.3572165,-0.077 c 0.6181009,-0.1337 1.2281442,-0.6128 1.4893342,-1.1696 0.8306568,-1.7705 -1.4434605,-3.4597 -3.4295535,-2.5471 -1.1436491,0.5253 -1.5465173,1.4663 -1.0822641,2.5279 0.2073072,0.4741 0.4362686,0.7271 0.8515622,0.9414 l 0.5680176,0.2932 0.083793,2.4982 c 0.046109,1.3741 0.110688,3.4576 0.1435777,4.6302 l 0.059767,2.1317 -1.6283299,0 c -1.5330796,0 -1.6283362,0.017 -1.6283362,0.2892 0,0.2715 -0.095257,0.289 -1.5717634,0.289 l -1.57177025,0 0,-9.4668 z"
       id="path4230"
       inkscape:connector-curvature="0" />
    <path
       inkscape:connector-curvature="0"
       id="path4232"
       d="m 7.2485489,1024.782 -7.10938199,0.3157"
       style="fill:none;fill-rule:evenodd;stroke:#000000;stroke-width:1.08119524;stroke-linecap:butt;stroke-linejoin:miter;stroke-miterlimit:4;stroke-dasharray:none;stroke-opacity:1" />
  </g>
</svg>
