<?xml version="1.0" encoding="UTF-8" standalone="no"?>
<!-- Created with Inkscape (http://www.inkscape.org/) -->

<svg
   xmlns:dc="http://purl.org/dc/elements/1.1/"
   xmlns:cc="http://creativecommons.org/ns#"
   xmlns:rdf="http://www.w3.org/1999/02/22-rdf-syntax-ns#"
   xmlns:svg="http://www.w3.org/2000/svg"
   xmlns="http://www.w3.org/2000/svg"
   xmlns:sodipodi="http://sodipodi.sourceforge.net/DTD/sodipodi-0.dtd"
   xmlns:inkscape="http://www.inkscape.org/namespaces/inkscape"
   width="32mm"
   height="32mm"
   viewBox="0 0 113.38583 113.38583"
   id="svg2"
   version="1.1"
   inkscape:version="0.91 r13725"
   sodipodi:docname="fase eletrica chao.svg">
  <defs
     id="defs4" />
  <sodipodi:namedview
     id="base"
     pagecolor="#ffffff"
     bordercolor="#666666"
     borderopacity="1.0"
     inkscape:pageopacity="0.0"
     inkscape:pageshadow="2"
     inkscape:zoom="2.8"
     inkscape:cx="50.039719"
     inkscape:cy="85.037134"
     inkscape:document-units="px"
     inkscape:current-layer="layer1"
     showgrid="true"
     inkscape:window-width="1920"
     inkscape:window-height="1017"
     inkscape:window-x="-8"
     inkscape:window-y="-8"
     inkscape:window-maximized="1">
    <inkscape:grid
       type="xygrid"
       id="grid4136"
       spacingx="0.30000001"
       spacingy="0.30000001" />
  </sodipodi:namedview>
  <metadata
     id="metadata7">
    <rdf:RDF>
      <cc:Work
         rdf:about="">
        <dc:format>image/svg+xml</dc:format>
        <dc:type
           rdf:resource="http://purl.org/dc/dcmitype/StillImage" />
        <dc:title />
      </cc:Work>
    </rdf:RDF>
  </metadata>
  <g
     inkscape:label="Camada 1"
     inkscape:groupmode="layer"
     id="layer1"
     transform="translate(0,-938.97638)">
    <rect
       style="opacity:1;fill:#80b3ff;fill-opacity:1;stroke:#383838;stroke-width:1.29999995;stroke-miterlimit:4;stroke-dasharray:none;stroke-opacity:1"
       id="rect4138"
       width="114"
       height="114"
       x="0"
       y="938.36218"
       ry="14.3779"
       rx="0" />
    <path
       style="fill:none;fill-rule:evenodd;stroke:#000000;stroke-width:1.80000012;stroke-linecap:butt;stroke-linejoin:miter;stroke-opacity:1;stroke-miterlimit:4;stroke-dasharray:none"
       d="m 12,1004.3622 24,0"
       id="path4154"
       inkscape:connector-curvature="0" />
    <path
       inkscape:connector-curvature="0"
       id="path4156"
       d="m 35.770756,1004.7758 11.813827,20.891"
       style="fill:none;fill-rule:evenodd;stroke:#000000;stroke-width:3.80000019;stroke-linecap:butt;stroke-linejoin:miter;stroke-miterlimit:4;stroke-dasharray:none;stroke-opacity:1" />
    <ellipse
       style="opacity:1;fill:#ff0000;fill-opacity:1;stroke:#000000;stroke-width:2.00000024;stroke-miterlimit:4;stroke-dasharray:none;stroke-opacity:1"
       id="path4158"
       cx="47.969543"
       cy="1030.3215"
       rx="7.4847713"
       ry="6" />
    <path
       style="fill:none;fill-rule:evenodd;stroke:#000000;stroke-width:3.80000019;stroke-linecap:butt;stroke-linejoin:miter;stroke-miterlimit:4;stroke-dasharray:none;stroke-opacity:1"
       d="m 47.554268,1035.1125 -0.64152,17.7963"
       id="path4160"
       inkscape:connector-curvature="0" />
    <path
       style="fill:none;fill-rule:evenodd;stroke:#000000;stroke-width:3.80000019;stroke-linecap:butt;stroke-linejoin:miter;stroke-miterlimit:4;stroke-dasharray:none;stroke-opacity:1"
       d="m 90.162399,1004.0768 -54.543048,0.065"
       id="path4162"
       inkscape:connector-curvature="0" />
    <ellipse
       ry="6"
       rx="7.4847713"
       cy="1004.0575"
       cx="94.436562"
       id="ellipse4164"
       style="opacity:1;fill:#ff0000;fill-opacity:1;stroke:#000000;stroke-width:2.00000024;stroke-miterlimit:4;stroke-dasharray:none;stroke-opacity:1" />
    <ellipse
       style="opacity:1;fill:#ff0000;fill-opacity:1;stroke:#000000;stroke-width:2.00000024;stroke-miterlimit:4;stroke-dasharray:none;stroke-opacity:1"
       id="ellipse4166"
       cx="25.241108"
       cy="964.15643"
       rx="7.4847713"
       ry="6" />
    <ellipse
       ry="6"
       rx="7.4847713"
       cy="946.98383"
       cx="101.50764"
       id="ellipse4168"
       style="opacity:1;fill:#ff0000;fill-opacity:1;stroke:#000000;stroke-width:2.00000024;stroke-miterlimit:4;stroke-dasharray:none;stroke-opacity:1" />
    <path
       inkscape:connector-curvature="0"
       id="path4170"
       d="m 91.264142,945.5357 0.83218,52.0177"
       style="fill:none;fill-rule:evenodd;stroke:#000000;stroke-width:3.80000019;stroke-linecap:butt;stroke-linejoin:miter;stroke-miterlimit:4;stroke-dasharray:none;stroke-opacity:1" />
    <path
       style="fill:none;fill-rule:evenodd;stroke:#000000;stroke-width:3.79999995;stroke-linecap:butt;stroke-linejoin:miter;stroke-miterlimit:4;stroke-dasharray:none;stroke-opacity:1"
       d="m 24.594069,971.36379 0.83218,33.67121"
       id="path4172"
       inkscape:connector-curvature="0" />
    <path
       inkscape:connector-curvature="0"
       id="path4174"
       d="m -0.62690767,1006.3825 23.99999967,0"
       style="fill:none;fill-rule:evenodd;stroke:#000000;stroke-width:1.80000007;stroke-linecap:butt;stroke-linejoin:miter;stroke-miterlimit:4;stroke-dasharray:none;stroke-opacity:1" />
    <path
       style="fill:none;fill-rule:evenodd;stroke:#000000;stroke-width:1.80000007;stroke-linecap:butt;stroke-linejoin:miter;stroke-miterlimit:4;stroke-dasharray:none;stroke-opacity:1"
       d="m -1.1319841,1007.8977 14.4035501,0"
       id="path4176"
       inkscape:connector-curvature="0" />
    <path
       inkscape:connector-curvature="0"
       id="path4178"
       d="m 77.65992,944.76316 14.40355,0"
       style="fill:none;fill-rule:evenodd;stroke:#000000;stroke-width:1.80000007;stroke-linecap:butt;stroke-linejoin:miter;stroke-miterlimit:4;stroke-dasharray:none;stroke-opacity:1" />
    <path
       style="fill:none;fill-rule:evenodd;stroke:#000000;stroke-width:1.80000007;stroke-linecap:butt;stroke-linejoin:miter;stroke-miterlimit:4;stroke-dasharray:none;stroke-opacity:1"
       d="m 33.552774,939.40602 14.40355,0"
       id="path4180"
       inkscape:connector-curvature="0" />
    <path
       inkscape:connector-curvature="0"
       id="path4182"
       d="m 48.017061,940.29887 14.40355,0"
       style="fill:none;fill-rule:evenodd;stroke:#000000;stroke-width:1.80000007;stroke-linecap:butt;stroke-linejoin:miter;stroke-miterlimit:4;stroke-dasharray:none;stroke-opacity:1" />
    <path
       style="fill:none;fill-rule:evenodd;stroke:#000000;stroke-width:1.80000007;stroke-linecap:butt;stroke-linejoin:miter;stroke-miterlimit:4;stroke-dasharray:none;stroke-opacity:1"
       d="m 60.33849,941.90602 14.40355,0"
       id="path4184"
       inkscape:connector-curvature="0" />
    <path
       inkscape:connector-curvature="0"
       id="path4186"
       d="m 69.088491,943.60507 14.40355,0"
       style="fill:none;fill-rule:evenodd;stroke:#000000;stroke-width:1.80000007;stroke-linecap:butt;stroke-linejoin:miter;stroke-miterlimit:4;stroke-dasharray:none;stroke-opacity:1" />
    <path
       inkscape:connector-curvature="0"
       id="path4188"
       d="m 99.282232,1037.0626 0.0744,-28.4068"
       style="fill:none;fill-rule:evenodd;stroke:#000000;stroke-width:3.79999995;stroke-linecap:butt;stroke-linejoin:miter;stroke-miterlimit:4;stroke-dasharray:none;stroke-opacity:1" />
    <path
       style="fill:none;fill-rule:evenodd;stroke:#000000;stroke-width:1.80000007;stroke-linecap:butt;stroke-linejoin:miter;stroke-miterlimit:4;stroke-dasharray:none;stroke-opacity:1"
       d="m 101.57246,1032.118 0.14991,14.4028"
       id="path4190"
       inkscape:connector-curvature="0" />
    <path
       inkscape:connector-curvature="0"
       id="path4192"
       d="m 101.57246,1032.118 0.14991,14.4028"
       style="fill:none;fill-rule:evenodd;stroke:#000000;stroke-width:1.80000007;stroke-linecap:butt;stroke-linejoin:miter;stroke-miterlimit:4;stroke-dasharray:none;stroke-opacity:1" />
    <path
       style="fill:none;fill-rule:evenodd;stroke:#000000;stroke-width:1.80000007;stroke-linecap:butt;stroke-linejoin:miter;stroke-miterlimit:4;stroke-dasharray:none;stroke-opacity:1"
       d="m 101.57246,1032.118 0.14991,14.4028"
       id="path4194"
       inkscape:connector-curvature="0" />
    <path
       inkscape:connector-curvature="0"
       id="path4196"
       d="m 113.57931,1031.723 -14.399506,-0.3428"
       style="fill:none;fill-rule:evenodd;stroke:#000000;stroke-width:1.80000007;stroke-linecap:butt;stroke-linejoin:miter;stroke-miterlimit:4;stroke-dasharray:none;stroke-opacity:1" />
    <path
       style="fill:none;fill-rule:evenodd;stroke:#000000;stroke-width:1.80000007;stroke-linecap:butt;stroke-linejoin:miter;stroke-miterlimit:4;stroke-dasharray:none;stroke-opacity:1"
       d="m 105.0546,1038.368 0.14991,14.4028"
       id="path4198"
       inkscape:connector-curvature="0" />
    <path
       inkscape:connector-curvature="0"
       id="path4200"
       d="m 103.1796,1035.6894 0.14991,14.4028"
       style="fill:none;fill-rule:evenodd;stroke:#000000;stroke-width:1.80000007;stroke-linecap:butt;stroke-linejoin:miter;stroke-miterlimit:4;stroke-dasharray:none;stroke-opacity:1"
       inkscape:transform-center-y="0.7142864" />
    <path
       style="opacity:1;fill:#ffff00;fill-opacity:1;stroke:#000000;stroke-width:0;stroke-miterlimit:4;stroke-dasharray:none;stroke-opacity:1"
       d="m 44.679017,1034.7481 c -0.42048,-0.2141 -0.988721,-0.636 -1.262758,-0.9376 -0.274031,-0.3015 -0.782357,-0.7218 -1.129616,-0.9338 -0.504148,-0.308 -0.631382,-0.5729 -0.631382,-1.3153 0,-0.5114 0.10332,-0.9299 0.229597,-0.9299 0.126276,0 0.22959,-0.3062 0.22959,-0.6805 0,-0.9293 1.862633,-3.2168 2.94865,-3.6208 0.46179,-0.1718 0.937768,-0.4184 1.057725,-0.5478 0.321834,-0.3472 0.952335,-0.2858 1.241762,0.1205 0.193076,0.2713 0.102221,0.5418 -0.381889,1.1374 -1.158493,1.4253 -1.468639,2.2311 -1.476141,3.836 -0.01067,2.278 0.121551,2.5495 1.433166,2.9412 0.871888,0.2604 1.146111,0.4644 1.146111,0.8528 0,0.4456 -0.16783,0.5077 -1.320152,0.4886 -0.726081,-0.012 -1.664183,-0.197 -2.084663,-0.4108 z"
       id="path4206"
       inkscape:connector-curvature="0" />
    <path
       inkscape:connector-curvature="0"
       id="path4208"
       d="m 91.438616,1007.9893 c -0.3796,-0.2001 -0.892595,-0.5946 -1.13999,-0.8765 -0.247389,-0.282 -0.706294,-0.6749 -1.019792,-0.8732 -0.455134,-0.2879 -0.569998,-0.5356 -0.569998,-1.2297 0,-0.4781 0.09327,-0.8693 0.207275,-0.8693 0.114,0 0.207269,-0.2863 0.207269,-0.6362 0,-0.8689 1.681544,-3.0075 2.661976,-3.3853 0.416894,-0.16067 0.846596,-0.39116 0.95489,-0.51213 0.290545,-0.3246 0.859747,-0.26727 1.121036,0.11268 0.174304,0.25357 0.09228,0.50655 -0.344761,1.06335 -1.045862,1.3326 -1.325855,2.086 -1.332628,3.5865 -0.0096,2.1298 0.109734,2.3835 1.293831,2.7498 0.787121,0.2434 1.034683,0.4342 1.034683,0.7973 0,0.4166 -0.151513,0.4747 -1.191804,0.4568 -0.655489,-0.011 -1.502387,-0.1842 -1.881987,-0.3841 z"
       style="opacity:1;fill:#ffff00;fill-opacity:1;stroke:#000000;stroke-width:0;stroke-miterlimit:4;stroke-dasharray:none;stroke-opacity:1" />
    <path
       style="opacity:1;fill:#ffff00;fill-opacity:1;stroke:#000000;stroke-width:0;stroke-miterlimit:4;stroke-dasharray:none;stroke-opacity:1"
       d="m 22.089381,968.32318 c -0.387444,-0.21216 -0.91104,-0.63034 -1.163547,-0.92927 -0.252501,-0.29892 -0.720889,-0.71549 -1.040865,-0.92563 -0.464538,-0.30524 -0.581776,-0.56785 -0.581776,-1.30369 0,-0.50687 0.0952,-0.92162 0.211558,-0.92162 0.116355,0 0.211552,-0.30351 0.211552,-0.67449 0,-0.92115 1.716291,-3.18843 2.716982,-3.58894 0.425509,-0.17029 0.86409,-0.41465 0.974623,-0.5429 0.296548,-0.34412 0.877512,-0.28334 1.144199,0.11946 0.177907,0.26882 0.09419,0.53697 -0.351884,1.12727 -1.067474,1.41275 -1.353252,2.21147 -1.360165,3.80224 -0.0098,2.25789 0.112001,2.5269 1.320566,2.91518 0.803386,0.25812 1.056064,0.46033 1.056064,0.84527 0,0.44169 -0.154644,0.50324 -1.216431,0.48432 -0.669035,-0.0115 -1.533433,-0.19524 -1.920876,-0.4072 z"
       id="path4210"
       inkscape:connector-curvature="0" />
    <path
       inkscape:connector-curvature="0"
       id="path4212"
       d="m 98.517958,950.85854 c -0.387444,-0.19386 -0.91104,-0.576 -1.163547,-0.84916 -0.252501,-0.27316 -0.720889,-0.65381 -1.040865,-0.84584 -0.464538,-0.27892 -0.581776,-0.5189 -0.581776,-1.19131 0,-0.46318 0.0952,-0.84217 0.211559,-0.84217 0.116354,0 0.211551,-0.27735 0.211551,-0.61635 0,-0.84174 1.716291,-2.91357 2.716982,-3.27956 0.425509,-0.15561 0.86409,-0.37891 0.974622,-0.4961 0.296546,-0.31446 0.877516,-0.25892 1.144206,0.10916 0.1779,0.24565 0.0942,0.49068 -0.35189,1.0301 -1.067474,1.29096 -1.353252,2.02083 -1.360165,3.47447 -0.0098,2.06326 0.112001,2.30908 1.320565,2.66389 0.80338,0.23586 1.05606,0.42065 1.05606,0.7724 0,0.40362 -0.15464,0.45986 -1.21643,0.44257 -0.669031,-0.0105 -1.533429,-0.17841 -1.920872,-0.3721 z"
       style="opacity:1;fill:#ffff00;fill-opacity:1;stroke:#000000;stroke-width:0;stroke-miterlimit:4;stroke-dasharray:none;stroke-opacity:1" />
    <path
       style="opacity:1;fill:#ffaaaa;fill-opacity:1;stroke:#000000;stroke-width:0;stroke-miterlimit:4;stroke-dasharray:none;stroke-opacity:1"
       d="m 51.843866,1029.7637 c 0.273393,-0.2151 0.619823,-0.5755 0.769823,-0.801 0.149999,-0.2255 0.45242,-0.5705 0.672084,-0.7667 0.318881,-0.2849 0.366815,-0.4553 0.237885,-0.8457 -0.0888,-0.269 -0.237725,-0.4638 -0.331011,-0.433 -0.09326,0.031 -0.222741,-0.105 -0.28774,-0.3019 -0.161382,-0.4887 -1.934271,-1.2375 -2.806521,-1.1852 -0.370845,0.022 -0.765241,0.01 -0.876319,-0.03 -0.297952,-0.1041 -0.753019,0.082 -0.896096,0.3664 -0.09551,0.1897 0.01853,0.3098 0.479544,0.505 1.103094,0.467 1.472116,0.8153 1.756339,1.6574 0.403104,1.1956 0.352965,1.3704 -0.547702,1.8964 -0.598683,0.3496 -0.765786,0.5238 -0.698374,0.7279 0.07738,0.2344 0.212119,0.2261 1.059845,-0.065 0.53312,-0.1866 1.194913,-0.5094 1.468306,-0.7245 z"
       id="path4214"
       inkscape:connector-curvature="0" />
    <path
       inkscape:connector-curvature="0"
       id="path4216"
       d="m 97.736727,1003.6923 c 0.273393,-0.2151 0.619823,-0.5755 0.769823,-0.801 0.149999,-0.2255 0.45242,-0.5705 0.672084,-0.7667 0.318881,-0.2849 0.366815,-0.4553 0.237885,-0.8457 -0.0888,-0.269 -0.237725,-0.4638 -0.331011,-0.433 -0.09326,0.031 -0.222741,-0.105 -0.28774,-0.3019 -0.161382,-0.4887 -1.934271,-1.23752 -2.806521,-1.18522 -0.370845,0.022 -0.765241,0.01 -0.876319,-0.03 -0.297952,-0.1041 -0.753019,0.082 -0.896096,0.3664 -0.09551,0.1897 0.01853,0.30982 0.479544,0.50502 1.103094,0.467 1.472116,0.8153 1.756339,1.6574 0.403104,1.1956 0.352965,1.3704 -0.547702,1.8964 -0.598683,0.3496 -0.765786,0.5238 -0.698374,0.7279 0.07738,0.2344 0.212119,0.2261 1.059845,-0.065 0.53312,-0.1866 1.194913,-0.5094 1.468306,-0.7245 z"
       style="opacity:1;fill:#ffaaaa;fill-opacity:1;stroke:#000000;stroke-width:0;stroke-miterlimit:4;stroke-dasharray:none;stroke-opacity:1" />
    <path
       style="opacity:1;fill:#ffaaaa;fill-opacity:1;stroke:#000000;stroke-width:0;stroke-miterlimit:4;stroke-dasharray:none;stroke-opacity:1"
       d="m 28.649385,963.84023 c 0.273393,-0.2151 0.619823,-0.5755 0.769823,-0.801 0.149999,-0.2255 0.45242,-0.5705 0.672084,-0.7667 0.318881,-0.2849 0.366815,-0.4553 0.237885,-0.8457 -0.0888,-0.269 -0.237725,-0.4638 -0.331011,-0.433 -0.09326,0.031 -0.222741,-0.105 -0.28774,-0.3019 -0.161382,-0.4887 -1.934271,-1.23752 -2.806521,-1.18522 -0.370845,0.022 -0.765241,0.01 -0.876319,-0.03 -0.297952,-0.1041 -0.753019,0.082 -0.896096,0.3664 -0.09551,0.1897 0.01853,0.30982 0.479544,0.50502 1.103094,0.467 1.472116,0.8153 1.756339,1.6574 0.403104,1.1956 0.352965,1.3704 -0.547702,1.8964 -0.598683,0.3496 -0.765786,0.5238 -0.698374,0.7279 0.07738,0.2344 0.212119,0.2261 1.059845,-0.065 0.53312,-0.1866 1.194913,-0.5094 1.468306,-0.7245 z"
       id="path4218"
       inkscape:connector-curvature="0" />
    <path
       inkscape:connector-curvature="0"
       id="path4220"
       d="m 104.70101,946.72801 c 0.2734,-0.2151 0.61983,-0.5755 0.76983,-0.801 0.15,-0.2255 0.45242,-0.5705 0.67208,-0.7667 0.31888,-0.2849 0.36682,-0.4553 0.23789,-0.8457 -0.0888,-0.269 -0.23773,-0.4638 -0.33102,-0.433 -0.0933,0.031 -0.22274,-0.105 -0.28774,-0.3019 -0.16138,-0.4887 -1.93427,-1.23752 -2.80652,-1.18522 -0.37084,0.022 -0.76524,0.01 -0.87632,-0.03 -0.29795,-0.1041 -0.75301,0.082 -0.89609,0.3664 -0.0955,0.1897 0.0185,0.30982 0.47954,0.50502 1.1031,0.467 1.47212,0.8153 1.75634,1.6574 0.40311,1.1956 0.35297,1.3704 -0.5477,1.8964 -0.59868,0.3496 -0.76579,0.5238 -0.69837,0.7279 0.0774,0.2344 0.21211,0.2261 1.05984,-0.065 0.53312,-0.1866 1.19491,-0.5094 1.46831,-0.7245 z"
       style="opacity:1;fill:#ffaaaa;fill-opacity:1;stroke:#000000;stroke-width:0;stroke-miterlimit:4;stroke-dasharray:none;stroke-opacity:1" />
    <path
       style="opacity:1;fill:#0000ff;fill-opacity:1;stroke:#000000;stroke-width:2.10000014;stroke-miterlimit:4;stroke-dasharray:none;stroke-opacity:1"
       d="m 0.70141279,91.216564 0,-21.213203 6.31345341,0 c 5.2752408,0 6.3134538,-0.124586 6.3134538,-0.757615 0,-0.622927 0.897913,-0.757614 5.050762,-0.757614 4.714045,0 5.050763,-0.06734 5.050763,-1.010153 0,-0.945056 0.333619,-1.009553 5.177032,-1.000856 l 5.177032,0.0093 5.149864,9.179861 5.149864,9.179862 -1.460618,0.888255 c -3.105732,1.888709 -4.065628,4.896362 -2.611688,8.183234 0.750224,1.696005 1.54334,2.557288 3.073947,3.338145 l 2.062847,1.052386 -0.0069,5.924374 c -0.0038,3.25841 -0.143944,6.43577 -0.311446,7.06081 l -0.304549,1.13642 -21.91191,0 -21.91191021,0 0,-21.213202 z"
       id="path4222"
       inkscape:connector-curvature="0"
       transform="translate(0,938.97638)" />
    <path
       style="opacity:1;fill:#0000ff;fill-opacity:1;stroke:#000000;stroke-width:3.30000022;stroke-miterlimit:4;stroke-dasharray:none;stroke-opacity:1"
       d="m 49.192326,108.76796 c 0.002,-2.01399 0.149097,-5.13915 0.326938,-6.94479 l 0.323347,-3.283 2.553177,-1.262691 c 6.207205,-3.069814 5.468647,-10.007655 -1.335166,-12.542232 l -2.629501,-0.97955 -4.632063,-8.138859 -4.632063,-8.138859 23.617619,0 23.617621,0 0.565947,1.24212 c 0.839087,1.841596 4.236378,3.37572 7.475473,3.37572 l 2.727326,0 0,13.095907 0,13.095906 1.767767,0 1.767762,0 0,4.798228 c 0,3.92837 0.13735,4.79822 0.75762,4.79822 0.52913,0 0.75761,0.53314 0.75761,1.76777 0,1.43105 0.19241,1.76777 1.01016,1.76777 0.55558,0 1.01015,0.22728 1.01015,0.50507 0,0.33054 -9.512269,0.50508 -27.526658,0.50508 l -27.526657,0 0.0036,-3.66181 z"
       id="path4224"
       inkscape:connector-curvature="0"
       transform="translate(0,938.97638)" />
    <path
       style="opacity:1;fill:#0000ff;fill-opacity:1;stroke:#000000;stroke-width:2.20000015;stroke-miterlimit:4;stroke-dasharray:none;stroke-opacity:1"
       d="m 104.54112,91.345283 -3.48901,-0.178509 0.31934,-10.983242 c 0.25152,-8.650689 0.4938,-11.332973 1.14085,-12.630008 0.99437,-1.993264 0.65315,-4.432454 -0.89548,-6.401211 -1.16616,-1.482535 -4.543584,-3.24166 -6.258429,-3.259691 -1.038887,-0.01091 -1.060069,-0.243412 -1.38896,-15.245654 -0.482917,-22.0281 -0.415573,-31.677842 0.213537,-30.597557 0.909177,1.561208 4.392065,2.97279 7.334962,2.97279 6.91533,0 10.9428,-6.1471226 7.16996,-10.9435083 -1.39989,-1.7796739 -4.65723,-3.24562565 -7.24301,-3.25968889 -2.6711,-0.0145273 -6.286228,1.84343269 -7.556895,3.88379299 -1.094951,1.758207 -1.767767,2.1020195 -1.767767,0.9033391 0,-0.6140141 -0.813734,-0.7576144 -4.293148,-0.7576144 -3.479415,0 -4.293148,-0.1436001 -4.293148,-0.7576144 0,-0.6140143 -0.813734,-0.7576144 -4.293149,-0.7576144 -3.479414,0 -4.293148,-0.1436001 -4.293148,-0.7576144 0,-0.6313454 -1.010153,-0.7576144 -6.060915,-0.7576144 -5.050763,0 -6.060916,-0.1262691 -6.060916,-0.7576144 0,-0.66333353 3.142697,-0.75761445 25.253814,-0.75761445 l 25.253812,0 0,45.70940295 0,45.709402 -2.65165,-0.09892 c -1.45841,-0.05441 -4.2217,-0.179251 -6.14065,-0.277433 z"
       id="path4226"
       inkscape:connector-curvature="0"
       transform="translate(0,938.97638)" />
    <path
       style="opacity:1;fill:#0000ff;fill-opacity:1;stroke:#000000;stroke-width:1.41206312;stroke-miterlimit:4;stroke-dasharray:none;stroke-opacity:1"
       d="m 106.26436,1045.07 c 0,-6.3443 -0.0517,-6.6872 -1.009,-6.6872 -0.78478,0 -1.009,-0.3429 -1.009,-1.5432 0,-1.0288 -0.25225,-1.5432 -0.75676,-1.5432 -0.47086,0 -0.75675,-0.4859 -0.75675,-1.286 l 0,-1.286 5.29727,0 5.29727,0 0,9.5164 0,9.5165 -3.53151,0 -3.53152,0 0,-6.6873 z"
       id="path4228"
       inkscape:connector-curvature="0" />
    <path
       style="opacity:1;fill:#0000ff;fill-opacity:1;stroke:#000000;stroke-width:2.10000014;stroke-miterlimit:4;stroke-dasharray:none;stroke-opacity:1"
       d="m 0.70141279,33.385331 0,-33.08249595 16.41497921,0 c 10.606601,0 16.414979,0.17871932 16.414979,0.50507627 0,0.31266628 2.693739,0.50507628 7.071067,0.50507628 4.377328,0 7.071068,0.19241 7.071068,0.5050763 0,0.3097801 2.441202,0.5050762 6.313454,0.5050762 5.275238,0 6.313453,0.1245855 6.313453,0.7576145 0,0.6140143 0.813733,0.7576144 4.293148,0.7576144 3.956429,0 4.293149,0.079228 4.293149,1.0101525 0,0.9309248 0.336719,1.0101526 4.293148,1.0101526 2.525381,0 4.293148,0.2079727 4.293148,0.5050762 0,0.3074379 2.272844,0.5050763 5.808377,0.5050763 l 5.808378,0 0.02131,2.3991123 c 0.01172,1.3195121 0.219051,12.9249961 0.46071,25.7899651 l 0.439381,23.390852 -2.241771,2.241766 -2.241766,2.241771 -24.987987,0 c -21.874806,0 -24.987966,0.09439 -24.987966,0.757614 0,0.610299 -0.785675,0.757615 -4.040611,0.757615 l -4.04061,0 -0.06174,-4.671956 C 27.374757,57.205991 27.204292,49.949565 27.029906,43.650175 L 26.712841,32.19674 27.975532,31.926754 c 2.184829,-0.467157 4.341199,-2.141123 5.264453,-4.086737 2.936178,-6.187534 -5.102306,-12.090216 -12.122682,-8.901721 -4.042546,1.836033 -5.466584,5.124532 -3.825573,8.834308 0.732781,1.656574 1.542125,2.541209 3.010083,3.290105 l 2.007813,1.02431 0.296175,8.730376 c 0.162896,4.801707 0.391282,12.08282 0.507524,16.180252 l 0.21135,7.449875 -5.755793,0 c -5.419074,0 -5.755791,0.05909 -5.755791,1.010152 0,0.948933 -0.336718,1.010153 -5.5558392,1.010153 l -5.55583901,0 0,-33.082496 z"
       id="path4230"
       inkscape:connector-curvature="0"
       transform="translate(0,938.97638)" />
    <path
       inkscape:connector-curvature="0"
       id="path4232"
       d="M 25.521612,954.79062 0.39156031,955.89389"
       style="fill:none;fill-rule:evenodd;stroke:#000000;stroke-width:3.79999995;stroke-linecap:butt;stroke-linejoin:miter;stroke-miterlimit:4;stroke-dasharray:none;stroke-opacity:1" />
  </g>
</svg>
