<?xml version="1.0" encoding="UTF-8" standalone="no"?>
<!-- Created with Inkscape (http://www.inkscape.org/) -->

<svg
   xmlns:osb="http://www.openswatchbook.org/uri/2009/osb"
   xmlns:dc="http://purl.org/dc/elements/1.1/"
   xmlns:cc="http://creativecommons.org/ns#"
   xmlns:rdf="http://www.w3.org/1999/02/22-rdf-syntax-ns#"
   xmlns:svg="http://www.w3.org/2000/svg"
   xmlns="http://www.w3.org/2000/svg"
   xmlns:xlink="http://www.w3.org/1999/xlink"
   xmlns:sodipodi="http://sodipodi.sourceforge.net/DTD/sodipodi-0.dtd"
   xmlns:inkscape="http://www.inkscape.org/namespaces/inkscape"
   width="32mm"
   height="32mm"
   viewBox="0 0 113.38583 113.38583"
   id="svg2"
   version="1.1"
   inkscape:version="0.91 r13725"
   sodipodi:docname="fase caverna bloco de pedra.svg">
  <defs
     id="defs4">
    <linearGradient
       inkscape:collect="always"
       id="linearGradient6020">
      <stop
         style="stop-color:#3c3844;stop-opacity:1;"
         offset="0"
         id="stop6022" />
      <stop
         style="stop-color:#3c3844;stop-opacity:0;"
         offset="1"
         id="stop6024" />
    </linearGradient>
    <linearGradient
       id="linearGradient6697"
       osb:paint="gradient">
      <stop
         style="stop-color:#aa4400;stop-opacity:1;"
         offset="0"
         id="stop6685" />
      <stop
         style="stop-color:#aa4400;stop-opacity:0;"
         offset="1"
         id="stop6687" />
    </linearGradient>
    <linearGradient
       id="linearGradient6677"
       osb:paint="solid">
      <stop
         style="stop-color:#570000;stop-opacity:1;"
         offset="0"
         id="stop6679" />
    </linearGradient>
    <linearGradient
       inkscape:collect="always"
       xlink:href="#linearGradient6020"
       id="linearGradient6026"
       x1="-15.360741"
       y1="18.012777"
       x2="49.024441"
       y2="18.012777"
       gradientUnits="userSpaceOnUse" />
  </defs>
  <sodipodi:namedview
     id="base"
     pagecolor="#ffffff"
     bordercolor="#666666"
     borderopacity="1.0"
     inkscape:pageopacity="0.0"
     inkscape:pageshadow="2"
     inkscape:zoom="2.8"
     inkscape:cx="-24.457255"
     inkscape:cy="51.796263"
     inkscape:document-units="px"
     inkscape:current-layer="layer1"
     showgrid="true"
     inkscape:window-width="1920"
     inkscape:window-height="1017"
     inkscape:window-x="-8"
     inkscape:window-y="-8"
     inkscape:window-maximized="1">
    <inkscape:grid
       type="xygrid"
       id="grid4136"
       spacingy="0.30000001"
       spacingx="0.30000001" />
  </sodipodi:namedview>
  <metadata
     id="metadata7">
    <rdf:RDF>
      <cc:Work
         rdf:about="">
        <dc:format>image/svg+xml</dc:format>
        <dc:type
           rdf:resource="http://purl.org/dc/dcmitype/StillImage" />
        <dc:title />
      </cc:Work>
    </rdf:RDF>
  </metadata>
  <g
     inkscape:label="Camada 1"
     inkscape:groupmode="layer"
     id="layer1"
     transform="translate(0,-938.97638)">
    <path
       style="opacity:1;fill:#666666;fill-opacity:1;stroke:#383838;stroke-width:1.30000007;stroke-miterlimit:4;stroke-dasharray:none;stroke-opacity:1"
       d="m 0,939.2193 114.35714,0 -0.35714,113.1429 -114,0 z"
       id="rect5996"
       inkscape:connector-curvature="0"
       sodipodi:nodetypes="ccccc" />
    <path
       style="fill:none;fill-rule:evenodd;stroke:#3c3844;stroke-width:2.30000019;stroke-linecap:butt;stroke-linejoin:miter;stroke-miterlimit:4;stroke-dasharray:none;stroke-opacity:1"
       d="m 21.746271,1035.098 c 0.370066,-0.7291 0.740132,-1.4582 1.110188,-2.1875 0.08174,-0.4551 0.08571,-0.9431 0.24522,-1.3653 0.415898,-1.1013 0.825947,-0.6799 0.919044,-1.8963 0.0337,-0.4404 -0.220796,-0.8994 -0.110034,-1.3199 0.43689,-1.6585 2.019151,-4.3021 2.75714,-5.6886 0.419557,-0.7883 0.788575,-1.6187 1.237624,-2.3816 0.495892,-0.8425 1.096986,-1.5846 1.592878,-2.427 0.449049,-0.7629 0.792382,-1.6154 1.237624,-2.3816 0.393339,-0.6771 0.880947,-1.2648 1.274297,-1.9417 3.550841,-6.1113 -0.289589,0.302 1.838088,-3.7924 0.182233,-0.3508 0.463854,-0.6133 0.637159,-0.9708 0.136999,-0.2827 0.224092,-0.6036 0.281895,-0.9254 0.216496,-1.2055 -0.985418,0.658 0.208535,-1.8055 0.136999,-0.2826 0.505926,-0.2749 0.673834,-0.5307 0.07511,-0.1139 -0.02445,-0.2934 -0.03668,-0.44 -0.02445,-0.2934 -0.04891,-0.5867 -0.07336,-0.8801 -0.07336,-0.8799 -0.146709,-1.7598 -0.220069,-2.6397 -0.02445,-0.2934 -0.04891,-0.5867 -0.07336,-0.88 -0.02445,-0.2934 -0.0029,-0.5983 -0.07336,-0.88005 -0.111347,-0.44524 -0.336959,-0.83611 -0.465289,-1.27441 -0.04058,-0.13871 0.0039,-0.30145 -0.03669,-0.44004 -0.477137,-1.62974 -0.413517,-1.06251 -1.285831,-2.50362 -0.159681,-0.2638 -0.258987,-0.58049 -0.428615,-0.8345 -0.379301,-0.56823 -0.893013,-1.0017 -1.212483,-1.62368 -0.127781,-0.24881 0.05443,-0.63114 -0.07336,-0.87995 -0.180711,-0.35186 -0.555238,-0.48301 -0.783868,-0.78918 -0.18074,-0.24197 -0.26893,-0.57069 -0.428608,-0.83449 -0.257471,-0.42534 -0.570439,-0.79705 -0.820546,-1.22909 -0.31022,-0.53587 -0.571483,-1.11271 -0.857226,-1.66907 -0.142869,-0.27817 -0.247865,-0.59249 -0.428611,-0.83453 -0.228628,-0.30617 -0.55524,-0.48295 -0.783868,-0.78912 -0.180745,-0.24204 -0.268935,-0.57075 -0.428612,-0.83452 -0.257471,-0.42537 -0.590174,-0.78055 -0.820546,-1.2291 -1.142967,-2.22543 0.384941,-0.386 -1.322516,-2.94359 -0.02266,-0.0339 -1.534488,-1.53371 -1.567735,-1.57822 -0.609004,-0.81554 -0.713513,-2.12807 -1.322516,-2.94359 -0.519543,-0.69574 -0.975422,-0.67547 -1.212481,-1.62366 -0.105636,-0.42252 -0.0044,-0.89741 -0.110036,-1.31994 0.147734,-0.82372 -0.643708,-0.74471 -0.820547,-1.22908 -0.166974,-2.00294 0.165374,-0.0466 -0.465291,-1.27453 -0.0894,-0.17406 0.01789,-0.78811 -0.07336,-0.87997 -0.09238,-0.093 -0.291362,0.16984 -0.355255,0.0455 -0.127788,-0.24882 -0.0489,-0.58665 -0.07336,-0.87997 -0.03668,-0.43999 -0.0044,-0.89741 -0.110037,-1.31994 0.195988,-0.84803 -0.674226,-0.72933 -0.820546,-1.2291 -0.121746,-0.41582 -0.07336,-0.87996 -0.110038,-1.31994 -0.01223,-0.14666 -0.02445,-0.29331 -0.03668,-0.43998 -0.134489,-1.61327 -0.26898,-3.22653 -0.40347,-4.8398 -0.110037,-1.31994 -0.220075,-2.6399 -0.330112,-3.95984 -0.100342,-1.20365 -0.303072,-2.36744 0.06182,-3.56529 0.04202,-0.13794 0.299745,0.0851 0.355254,-0.0455 0.569217,-3.16942 -0.216638,0.24589 0.882367,-2.33621 0.05551,-0.13049 -0.111769,-0.32556 -0.03668,-0.43997 3.084871,-4.70038 0.732475,0.43104 1.237623,-2.38161 0.03655,-0.20355 0.212383,-0.32362 0.318574,-0.48543 0.106192,-0.16179 0.212384,-0.3236 0.318575,-0.48541 0.106192,-0.16179 0.319117,-0.27689 0.318576,-0.4854 -4.9e-4,-0.18881 -0.213922,-0.2691 -0.320882,-0.40363"
       id="path5998"
       inkscape:connector-curvature="0" />
    <path
       inkscape:connector-curvature="0"
       id="path6004"
       d="m 101.95494,1041.1694 c -0.32018,-0.7291 -0.64035,-1.4582 -0.96051,-2.1875 -0.0707,-0.4551 -0.0742,-0.9431 -0.21216,-1.3653 -0.35982,-1.1013 -0.71459,-0.6799 -0.795134,-1.8963 -0.02916,-0.4404 0.191024,-0.8994 0.09519,-1.3199 -0.377986,-1.6585 -1.746919,-4.3021 -2.385409,-5.6886 -0.36299,-0.7883 -0.682255,-1.6187 -1.070761,-2.3816 -0.429034,-0.8425 -0.949086,-1.5846 -1.378119,-2.427 -0.388506,-0.7629 -0.68555,-1.6154 -1.070762,-2.3816 -0.340307,-0.6771 -0.762174,-1.2648 -1.10249,-1.9417 -3.0721,-6.1113 0.250545,0.302 -1.590269,-3.7924 -0.157663,-0.3508 -0.401315,-0.6133 -0.551254,-0.9708 -0.118528,-0.2827 -0.193879,-0.6036 -0.243888,-0.9254 -0.187307,-1.2055 0.852559,0.658 -0.18042,-1.8055 -0.118528,-0.2826 -0.437715,-0.2749 -0.582984,-0.5307 -0.06498,-0.1139 0.02115,-0.2934 0.03173,-0.44 0.02115,-0.2934 0.04232,-0.5867 0.06347,-0.8801 0.06347,-0.8799 0.126929,-1.7598 0.190398,-2.6397 0.02115,-0.2934 0.04232,-0.5867 0.06347,-0.88 0.02115,-0.2934 0.0025,-0.5983 0.06347,-0.8801 0.09633,-0.4452 0.291528,-0.8361 0.402556,-1.2744 0.03511,-0.1387 -0.0034,-0.3014 0.03174,-0.44 0.412807,-1.6298 0.357764,-1.0625 1.112469,-2.5036 0.138152,-0.2638 0.224069,-0.5805 0.370827,-0.8345 0.328162,-0.5683 0.772613,-1.00166 1.04901,-1.62366 0.110553,-0.2488 -0.04709,-0.6312 0.06347,-0.88 0.156347,-0.3518 0.480379,-0.483 0.678184,-0.7891 0.156371,-0.242 0.232671,-0.5707 0.370821,-0.8345 0.222757,-0.4254 0.49353,-0.7971 0.709916,-1.2291 0.268395,-0.5359 0.494433,-1.1127 0.741651,-1.6691 0.123606,-0.2782 0.214447,-0.5925 0.370824,-0.8345 0.197803,-0.30619 0.480379,-0.48297 0.678183,-0.78914 0.156376,-0.24204 0.232676,-0.57075 0.370825,-0.83452 0.222757,-0.42537 0.510603,-0.78055 0.709916,-1.2291 0.988866,-2.22543 -0.333042,-0.386 1.144208,-2.94359 0.0196,-0.0339 1.327598,-1.53371 1.356358,-1.57822 0.5269,-0.81554 0.61732,-2.12807 1.14421,-2.94359 0.4495,-0.69574 0.84391,-0.67547 1.04901,-1.62366 0.0914,-0.42252 0.004,-0.89741 0.0952,-1.31994 -0.12781,-0.82372 0.55692,-0.74471 0.70992,-1.22908 0.14446,-2.00294 -0.14308,-0.0466 0.40256,-1.27453 0.0773,-0.17406 -0.0155,-0.78811 0.0635,-0.87997 0.0799,-0.093 0.25208,0.16984 0.30735,0.0455 0.11056,-0.24882 0.0423,-0.58665 0.0635,-0.87997 0.0317,-0.43999 0.004,-0.89741 0.0952,-1.31994 -0.16956,-0.84803 0.58333,-0.72933 0.70992,-1.2291 0.10533,-0.41582 0.0635,-0.87996 0.0952,-1.31994 0.0106,-0.14666 0.0211,-0.29331 0.0318,-0.43998 0.11636,-1.61327 0.23271,-3.22653 0.34907,-4.8398 0.0952,-1.31994 0.19041,-2.6399 0.28561,-3.95984 0.0868,-1.20365 0.26221,-2.36744 -0.0535,-3.56529 -0.0363,-0.13794 -0.25933,0.0851 -0.30736,-0.0455 -0.49246,-3.16942 0.18744,0.24589 -0.7634,-2.33621 -0.048,-0.13049 0.0967,-0.32556 0.0318,-0.43997 -2.66895,-4.70038 -0.63372,0.43104 -1.07076,-2.38161 -0.0316,-0.20355 -0.18375,-0.32362 -0.27562,-0.48543 -0.0919,-0.16179 -0.18375,-0.3236 -0.27562,-0.48541 -0.0919,-0.16179 -0.2761,-0.27689 -0.27563,-0.4854 4.2e-4,-0.18881 0.18508,-0.2691 0.27762,-0.40363"
       style="fill:none;fill-rule:evenodd;stroke:#3c3844;stroke-width:2.30000019;stroke-linecap:butt;stroke-linejoin:miter;stroke-miterlimit:4;stroke-dasharray:none;stroke-opacity:1" />
    <path
       style="fill:none;fill-rule:evenodd;stroke:#3c3844;stroke-width:2.30000019;stroke-linecap:butt;stroke-linejoin:miter;stroke-miterlimit:4;stroke-dasharray:none;stroke-opacity:1"
       d="m 71.954938,1001.0051 c -0.32018,-0.4073 -0.64035,-0.8145 -0.96051,-1.22191 -0.0707,-0.2542 -0.0742,-0.5268 -0.21216,-0.7626 -0.35982,-0.6152 -0.71459,-0.3798 -0.795134,-1.0592 -0.02916,-0.246 0.191024,-0.5024 0.09519,-0.7373 -0.377986,-0.9264 -1.746919,-2.40305 -2.385409,-3.17752 -0.36299,-0.44032 -0.682255,-0.90416 -1.070761,-1.3303 -0.429034,-0.4706 -0.949086,-0.88512 -1.378119,-1.35567 -0.388506,-0.42614 -0.68555,-0.90232 -1.070762,-1.3303 -0.340307,-0.37822 -0.762174,-0.70649 -1.10249,-1.08459 -3.0721,-3.41363 0.250545,0.16869 -1.590269,-2.11835 -0.157663,-0.19595 -0.401315,-0.34257 -0.551254,-0.54226 -0.118528,-0.15791 -0.193879,-0.33716 -0.243888,-0.51691 -0.187307,-0.67336 0.852559,0.36754 -0.18042,-1.00851 -0.118528,-0.15785 -0.437715,-0.15355 -0.582984,-0.29644 -0.06498,-0.0636 0.02115,-0.16388 0.03173,-0.24577 0.02115,-0.16389 0.04232,-0.32772 0.06347,-0.4916 0.06347,-0.49149 0.126929,-0.98299 0.190398,-1.47448 0.02115,-0.16388 0.04232,-0.32771 0.06347,-0.49154 0.02115,-0.16389 0.0025,-0.3342 0.06347,-0.49161 0.09633,-0.24868 0.291528,-0.46702 0.402556,-0.71185 0.03511,-0.0775 -0.0034,-0.16835 0.03174,-0.24577 0.412807,-0.91037 0.357764,-0.59349 1.112469,-1.39845 0.138152,-0.14736 0.224069,-0.32426 0.370827,-0.46614 0.328162,-0.31744 0.772613,-0.5595 1.04901,-0.90693 0.110553,-0.13898 -0.04709,-0.35258 0.06347,-0.49155 0.156347,-0.19651 0.480379,-0.26979 0.678184,-0.44077 0.156371,-0.13518 0.232671,-0.31878 0.370821,-0.46614 0.222757,-0.23761 0.49353,-0.44524 0.709916,-0.68654 0.268395,-0.29934 0.494433,-0.62153 0.741651,-0.93232 0.123606,-0.1554 0.214447,-0.33096 0.370824,-0.46614 0.197803,-0.17103 0.480379,-0.26977 0.678183,-0.44079 0.156376,-0.1352 0.232676,-0.31881 0.370825,-0.46614 0.222757,-0.23761 0.510603,-0.436 0.709916,-0.68655 0.988866,-1.24307 -0.333042,-0.21561 1.144208,-1.64422 0.0196,-0.0189 1.327598,-0.85669 1.356358,-0.88156 0.5269,-0.45554 0.61732,-1.18869 1.14421,-1.64422 0.4495,-0.38862 0.84391,-0.3773 1.04901,-0.90694 0.0914,-0.23601 0.004,-0.50127 0.0952,-0.73728 -0.12781,-0.46011 0.55692,-0.41598 0.70992,-0.68654 0.14446,-1.11879 -0.14308,-0.026 0.40256,-0.71192 0.0773,-0.0972 -0.0155,-0.44022 0.0635,-0.49153 0.0799,-0.052 0.25208,0.0949 0.30735,0.0254 0.11056,-0.13898 0.0423,-0.32768 0.0635,-0.49153 0.0317,-0.24576 0.004,-0.50127 0.0952,-0.73728 -0.16956,-0.47369 0.58333,-0.40739 0.70992,-0.68655 0.10533,-0.23227 0.0635,-0.49153 0.0952,-0.73729 0.0106,-0.0819 0.0211,-0.16383 0.0318,-0.24576 0.11636,-0.90114 0.23271,-1.80226 0.34907,-2.7034 0.0952,-0.73729 0.19041,-1.47459 0.28561,-2.21187 0.0868,-0.67233 0.26221,-1.3224 -0.0535,-1.99149 -0.0363,-0.077 -0.25933,0.0475 -0.30736,-0.0254 -0.49246,-1.77036 0.18744,0.13735 -0.7634,-1.30495 -0.048,-0.0729 0.0967,-0.18185 0.0318,-0.24575 -2.66895,-2.62553 -0.63372,0.24076 -1.07076,-1.33032 -0.0316,-0.11369 -0.18375,-0.18076 -0.27562,-0.27115 -0.0919,-0.0904 -0.18375,-0.18075 -0.27562,-0.27113 -0.0919,-0.0904 -0.2761,-0.15467 -0.27563,-0.27114 4.2e-4,-0.10546 0.18508,-0.15031 0.27762,-0.22546"
       id="path6008"
       inkscape:connector-curvature="0" />
    <path
       inkscape:connector-curvature="0"
       id="path6012"
       d="m 8.4612398,1049.1839 c 0.23243,-0.3167 0.46486,-0.6334 0.697284,-0.9503 0.05134,-0.1977 0.05383,-0.4097 0.154017,-0.5931 0.261217,-0.4784 0.518759,-0.2953 0.577231,-0.8238 0.02117,-0.1913 -0.138677,-0.3907 -0.06911,-0.5734 0.2744012,-0.7204 1.2681842,-1.8689 1.7316982,-2.4712 0.263515,-0.3425 0.495287,-0.7032 0.777325,-1.0346 0.311459,-0.366 0.688993,-0.6884 1.000451,-1.0544 0.282038,-0.3314 0.497678,-0.7017 0.777325,-1.0346 0.247047,-0.2941 0.553303,-0.5494 0.800358,-0.8435 2.230205,-2.6549 -0.181885,0.1312 1.154462,-1.6475 0.114457,-0.1524 0.291337,-0.2664 0.400186,-0.4217 0.08605,-0.1228 0.140747,-0.2623 0.177052,-0.402 0.135976,-0.5237 -0.61892,0.2858 0.130976,-0.7844 0.08605,-0.1228 0.317761,-0.1194 0.42322,-0.2305 0.04717,-0.05 -0.01536,-0.1275 -0.02304,-0.1912 -0.01536,-0.1274 -0.03072,-0.2549 -0.04607,-0.3823 -0.04608,-0.3823 -0.09215,-0.7645 -0.138221,-1.1468 -0.01536,-0.1274 -0.03072,-0.2548 -0.04608,-0.3823 -0.01536,-0.1274 -0.0018,-0.2599 -0.04608,-0.3822 -0.06993,-0.1935 -0.211637,-0.3633 -0.292238,-0.5537 -0.02549,-0.06 0.0024,-0.1309 -0.02304,-0.1912 -0.29968,-0.7079 -0.259721,-0.4615 -0.807603,-1.0876 -0.100292,-0.1146 -0.162664,-0.2522 -0.269203,-0.3625 -0.238231,-0.2468 -0.560882,-0.4352 -0.761534,-0.7054 -0.08026,-0.1081 0.03419,-0.2741 -0.04608,-0.3822 -0.1135,-0.1529 -0.348733,-0.2098 -0.49233,-0.3429 -0.113519,-0.1051 -0.168909,-0.2479 -0.269199,-0.3625 -0.161712,-0.1847 -0.35828,-0.3463 -0.515367,-0.5339 -0.194843,-0.2328 -0.358936,-0.4834 -0.538405,-0.7251 -0.08973,-0.1208 -0.155678,-0.2574 -0.269201,-0.3626 -0.143596,-0.133 -0.348734,-0.2097 -0.49233,-0.3428 -0.113522,-0.1051 -0.168912,-0.2479 -0.269202,-0.3625 -0.161712,-0.1848 -0.370675,-0.3391 -0.515367,-0.5339 -0.717872,-0.9668 0.241773,-0.1677 -0.830643,-1.2788 -0.01423,-0.015 -0.9637782,-0.6663 -0.9846602,-0.6856 -0.382502,-0.3543 -0.448141,-0.9245 -0.830643,-1.2788 -0.326313,-0.3022 -0.612641,-0.2934 -0.761532,-0.7053 -0.06635,-0.1836 -0.0028,-0.3899 -0.06911,-0.5734 0.09279,-0.3579 -0.404298,-0.3235 -0.515367,-0.534 -0.104873,-0.8701 0.103868,-0.02 -0.292239,-0.5536 -0.05615,-0.076 0.01124,-0.3424 -0.04608,-0.3823 -0.05802,-0.04 -0.182998,0.074 -0.223128,0.02 -0.08026,-0.1081 -0.03071,-0.2548 -0.04608,-0.3822 -0.02304,-0.1912 -0.0028,-0.3899 -0.06911,-0.5734 0.123095,-0.3684 -0.423467,-0.3169 -0.515367,-0.534 -0.07647,-0.1806 -0.04608,-0.3823 -0.06911,-0.5734 -0.0077,-0.064 -0.01536,-0.1274 -0.02304,-0.1911 -0.08447,-0.7009 -0.16894,-1.4017 -0.25341,-2.1026 -0.06911,-0.5734 -0.138224,-1.1468 -0.207336,-1.7202 -0.06302,-0.5229 -0.190353,-1.0285 0.03883,-1.5488 0.02639,-0.06 0.188263,0.037 0.223127,-0.02 0.357512,-1.3769 -0.136066,0.1068 0.554195,-1.0149 0.03486,-0.057 -0.0702,-0.1414 -0.02304,-0.1911 1.93754,-2.042 0.460052,0.1872 0.777324,-1.0346 0.02296,-0.089 0.133393,-0.1406 0.200089,-0.2109 0.0667,-0.07 0.133394,-0.1406 0.20009,-0.2109 0.0667,-0.07 0.20043,-0.1203 0.200091,-0.2109 -3.08e-4,-0.082 -0.13436,-0.1169 -0.201539,-0.1753"
       style="fill:none;fill-rule:evenodd;stroke:#3c3844;stroke-width:2.30000019;stroke-linecap:butt;stroke-linejoin:miter;stroke-miterlimit:4;stroke-dasharray:none;stroke-opacity:1" />
    <path
       sodipodi:type="star"
       style="opacity:1;fill:#999999;fill-opacity:1;stroke:#3c3844;stroke-width:1.93609844;stroke-miterlimit:4;stroke-dasharray:none;stroke-opacity:1"
       id="path6016"
       sodipodi:sides="3"
       sodipodi:cx="18"
       sodipodi:cy="17.385826"
       sodipodi:r1="15.297059"
       sodipodi:r2="7.6485295"
       sodipodi:arg1="0.19739556"
       sodipodi:arg2="1.2445931"
       inkscape:flatsided="true"
       inkscape:rounded="-1.76"
       inkscape:randomized="0.893"
       d="M 31.767161,27.515852 C 85.867367,13.543671 -16.419431,63.259404 13.175217,39.792522 42.769866,16.325639 29.386787,7.0161388 2.7169898,-7.9026773 -23.952808,-22.821493 -22.333046,41.488034 31.767161,27.515852 Z"
       transform="matrix(0.23393846,0,0,0.4105311,7.3587044,975.13005)"
       inkscape:transform-center-x="1.5199985"
       inkscape:transform-center-y="-0.87741047" />
    <path
       inkscape:transform-center-y="-4.8169887"
       inkscape:transform-center-x="1.1479941"
       transform="matrix(0.11111017,0.60942423,-0.54934291,0.12326222,52.876228,1011.9858)"
       d="M 31.767161,27.515852 C 85.867367,13.543671 -16.419431,63.259404 13.175217,39.792522 42.769866,16.325639 29.386787,7.0161388 2.7169898,-7.9026773 -23.952808,-22.821493 -22.333046,41.488034 31.767161,27.515852 Z"
       inkscape:randomized="0.893"
       inkscape:rounded="-1.76"
       inkscape:flatsided="true"
       sodipodi:arg2="1.2445931"
       sodipodi:arg1="0.19739556"
       sodipodi:r2="7.6485295"
       sodipodi:r1="15.297059"
       sodipodi:cy="17.385826"
       sodipodi:cx="18"
       sodipodi:sides="3"
       id="path6018"
       style="opacity:1;fill:#999999;fill-opacity:1;stroke:url(#linearGradient6026);stroke-width:2.37159229;stroke-miterlimit:4;stroke-dasharray:none;stroke-opacity:1"
       sodipodi:type="star" />
    <path
       style="fill:none;fill-rule:evenodd;stroke:#3c3844;stroke-width:2.30000019;stroke-linecap:butt;stroke-linejoin:miter;stroke-miterlimit:4;stroke-dasharray:none;stroke-opacity:1"
       d="m 50.631108,1031.7479 c 0.373447,-0.4716 0.746884,-0.9431 1.120308,-1.4147 0.08246,-0.2944 0.08654,-0.61 0.247456,-0.883 0.419684,-0.7123 0.833476,-0.4397 0.927419,-1.2264 0.03401,-0.2848 -0.222803,-0.5817 -0.111027,-0.8536 0.440871,-1.0726 2.03755,-2.7823 2.782265,-3.679 0.423381,-0.5098 0.795762,-1.0469 1.248901,-1.5403 0.500412,-0.5448 1.106984,-1.0248 1.607395,-1.5696 0.453141,-0.4934 0.799605,-1.0447 1.248904,-1.5402 0.396922,-0.4379 0.888974,-0.818 1.285909,-1.2558 3.5832,-3.9523 -0.292228,0.1953 1.854839,-2.4526 0.183893,-0.2269 0.468081,-0.3967 0.642965,-0.6279 0.138247,-0.1828 0.226135,-0.3903 0.284463,-0.5984 0.218469,-0.7797 -0.994397,0.4255 0.210437,-1.1677 0.138246,-0.1828 0.510537,-0.1778 0.679973,-0.3432 0.0758,-0.074 -0.02466,-0.1898 -0.03701,-0.2846 -0.02466,-0.1897 -0.04935,-0.3794 -0.07403,-0.5692 -0.07403,-0.569 -0.148046,-1.1381 -0.222075,-1.7071 -0.02466,-0.1898 -0.04935,-0.3795 -0.07403,-0.5692 -0.02466,-0.1897 -0.003,-0.3869 -0.07403,-0.5692 -0.11236,-0.2879 -0.340029,-0.5407 -0.469528,-0.8241 -0.04095,-0.09 0.0039,-0.195 -0.03702,-0.2846 -0.481486,-1.054 -0.417285,-0.6872 -1.297549,-1.6192 -0.161136,-0.1706 -0.261347,-0.3754 -0.43252,-0.5396 -0.382758,-0.3676 -0.901152,-0.6479 -1.223533,-1.0501 -0.128946,-0.1609 0.05493,-0.4083 -0.07403,-0.5692 -0.182357,-0.2275 -0.560298,-0.3123 -0.791012,-0.5103 -0.182386,-0.1565 -0.271379,-0.3691 -0.432514,-0.5397 -0.259816,-0.2751 -0.575637,-0.5155 -0.828023,-0.7949 -0.313048,-0.3466 -0.576692,-0.7196 -0.865038,-1.0794 -0.14417,-0.18 -0.250125,-0.3832 -0.432518,-0.5397 -0.230711,-0.1981 -0.560299,-0.3124 -0.79101,-0.5104 -0.182392,-0.15649 -0.271386,-0.36909 -0.432519,-0.53969 -0.259816,-0.2751 -0.595552,-0.5048 -0.828024,-0.7949 -1.153382,-1.4392 0.38845,-0.2496 -1.334567,-1.9037 -0.02286,-0.022 -1.548469,-0.9919 -1.582013,-1.0207 -0.61456,-0.5274 -0.720023,-1.3763 -1.33457,-1.9037 -0.524284,-0.4499 -0.98431,-0.4368 -1.223532,-1.05 -0.106612,-0.2733 -0.0047,-0.5804 -0.111041,-0.8537 0.149074,-0.5327 -0.649574,-0.4816 -0.828028,-0.7949 -0.168493,-1.2953 0.166884,-0.03 -0.469533,-0.8242 -0.09016,-0.1126 0.01808,-0.5097 -0.07406,-0.5691 -0.09319,-0.06 -0.294018,0.1098 -0.358483,0.029 -0.12896,-0.1609 -0.04934,-0.3794 -0.07406,-0.5691 -0.03697,-0.2846 -0.0047,-0.5804 -0.111041,-0.8537 0.19777,-0.5484 -0.680377,-0.4716 -0.828028,-0.7948 -0.122848,-0.269 -0.07406,-0.5691 -0.111041,-0.8537 -0.01239,-0.095 -0.02461,-0.1897 -0.03709,-0.2845 -0.135718,-1.0434 -0.271425,-2.0867 -0.407143,-3.1301 -0.111041,-0.8536 -0.222088,-1.70727 -0.333126,-2.56091 -0.10124,-0.77844 -0.305835,-1.53109 0.0624,-2.30578 0.04234,-0.0892 0.302475,0.055 0.358496,-0.0294 0.574389,-2.04976 -0.218624,0.15902 0.890406,-1.51089 0.05598,-0.0844 -0.112791,-0.21055 -0.03709,-0.28455 3.112979,-3.03986 0.73915,0.27877 1.2489,-1.54025 0.03686,-0.13164 0.21432,-0.20929 0.321475,-0.31394 0.107191,-0.10464 0.214321,-0.20928 0.321475,-0.31393 0.10719,-0.10463 0.322034,-0.17907 0.321485,-0.31392 -4.89e-4,-0.12211 -0.215871,-0.17404 -0.323806,-0.26104"
       id="path6006"
       inkscape:connector-curvature="0" />
    <path
       sodipodi:type="star"
       style="opacity:1;fill:#999999;fill-opacity:1;stroke:#383838;stroke-width:1.29999995;stroke-miterlimit:4;stroke-dasharray:none;stroke-opacity:1"
       id="path6028"
       sodipodi:sides="3"
       sodipodi:cx="42"
       sodipodi:cy="14.385827"
       sodipodi:r1="10.816654"
       sodipodi:r2="5.4083271"
       sodipodi:arg1="0.5880026"
       sodipodi:arg2="1.6352002"
       inkscape:flatsided="true"
       inkscape:rounded="-1.76"
       inkscape:randomized="0.893"
       d="M 48.203943,26.97451 C 66.519546,25.178466 6.1481625,31.118317 41.836649,25.621123 77.525135,20.123929 72.010893,16.897367 39.013764,12.646027 6.0166341,8.3946867 29.88834,28.770554 48.203943,26.97451 Z"
       transform="translate(0,938.97638)"
       inkscape:transform-center-x="-4.6219785"
       inkscape:transform-center-y="4.8804795" />
    <path
       sodipodi:type="star"
       style="opacity:1;fill:#999999;fill-opacity:1;stroke:#383838;stroke-width:1.29999995;stroke-miterlimit:4;stroke-dasharray:none;stroke-opacity:1"
       id="path6030"
       sodipodi:sides="3"
       sodipodi:cx="75"
       sodipodi:cy="38.385826"
       sodipodi:r1="8.485281"
       sodipodi:r2="4.2426405"
       sodipodi:arg1="0.78539816"
       sodipodi:arg2="1.8325957"
       inkscape:flatsided="true"
       inkscape:rounded="-1.76"
       inkscape:randomized="0.893"
       d="M 85.629543,37.854077 C 96.61172,23.278044 53.642013,47.293034 68.681681,46.605667 83.721349,45.9183 116.063,6.8929256 83.945442,22.784611 51.827884,38.676297 74.647365,52.43011 85.629543,37.854077 Z"
       transform="translate(11.071429,923.97638)"
       inkscape:transform-center-x="-6.5590355"
       inkscape:transform-center-y="-5.5843052" />
    <path
       sodipodi:type="star"
       style="opacity:1;fill:#999999;fill-opacity:1;stroke:#383838;stroke-width:1.29999995;stroke-miterlimit:4;stroke-dasharray:none;stroke-opacity:1"
       id="path6032"
       sodipodi:sides="3"
       sodipodi:cx="87"
       sodipodi:cy="68.385826"
       sodipodi:r1="10.816654"
       sodipodi:r2="5.4083271"
       sodipodi:arg1="0.98279372"
       sodipodi:arg2="2.0299913"
       inkscape:flatsided="true"
       inkscape:rounded="-1.76"
       inkscape:randomized="0.893"
       d="M 100.07989,68.092441 C 99.425612,33.523126 87.875551,54.864953 68.073902,76.38976 48.272253,97.914567 84.828752,109.73227 83.768609,63.445228 82.708465,17.158184 100.73417,102.66176 100.07989,68.092441 Z"
       transform="translate(0,938.97638)"
       inkscape:transform-center-x="4.831874"
       inkscape:transform-center-y="2.6097762" />
    <path
       sodipodi:type="star"
       style="opacity:1;fill:#999999;fill-opacity:1;stroke:#383838;stroke-width:1.06847489;stroke-miterlimit:4;stroke-dasharray:none;stroke-opacity:1"
       id="path6034"
       sodipodi:sides="3"
       sodipodi:cx="36"
       sodipodi:cy="53.385826"
       sodipodi:r1="6"
       sodipodi:r2="3"
       sodipodi:arg1="0"
       sodipodi:arg2="1.0471976"
       inkscape:flatsided="true"
       inkscape:rounded="-1.76"
       inkscape:randomized="0.893"
       d="M 42.082106,55.611716 C 34.282798,45.175199 16.687478,70.75371 32.586233,59.702093 48.484988,48.650477 35.397323,30.04234 32.468706,43.798284 c -2.928618,13.755945 17.412708,22.249949 9.6134,11.813432 z"
       transform="matrix(1.2216017,0,0,1.211793,-21.86588,942.16065)"
       inkscape:transform-center-x="-3.7044773"
       inkscape:transform-center-y="-0.11849533" />
    <path
       sodipodi:type="star"
       style="opacity:1;fill:#999999;fill-opacity:1;stroke:#383838;stroke-width:1.85721278;stroke-miterlimit:4;stroke-dasharray:none;stroke-opacity:1"
       id="path6036"
       sodipodi:sides="3"
       sodipodi:cx="96"
       sodipodi:cy="86.385826"
       sodipodi:r1="12.369317"
       sodipodi:r2="6.1846585"
       sodipodi:arg1="1.3258177"
       sodipodi:arg2="2.3730152"
       inkscape:flatsided="true"
       inkscape:rounded="-1.76"
       inkscape:randomized="0.893"
       d="M 103.32076,93.640356 C 133.13246,123.76275 45.870754,49.409442 86.490854,80.84622 127.11095,112.283 95.614296,103.34954 107.22619,74.315608 118.83808,45.281675 73.509058,63.517959 103.32076,93.640356 Z"
       transform="matrix(0.79091892,0,0,0.61948581,19.357373,985.6161)"
       inkscape:transform-center-x="2.7047338"
       inkscape:transform-center-y="-3.7496997" />
    <path
       style="fill:none;fill-rule:evenodd;stroke:#3c3844;stroke-width:2.30000019;stroke-linecap:butt;stroke-linejoin:miter;stroke-miterlimit:4;stroke-dasharray:none;stroke-opacity:1"
       d="m 86.597796,1052.9551 c -0.32018,-0.7291 -0.64035,-1.4582 -0.96051,-2.1875 -0.0707,-0.4551 -0.0742,-0.9431 -0.21216,-1.3653 -0.35982,-1.1013 -0.71459,-0.6799 -0.795134,-1.8963 -0.02916,-0.4404 0.191024,-0.8994 0.09519,-1.3199 -0.377986,-1.6585 -1.746919,-4.3021 -2.385409,-5.6886 -0.36299,-0.7883 -0.682255,-1.6187 -1.070761,-2.3816 -0.429034,-0.8425 -0.949086,-1.5846 -1.378119,-2.427 -0.388506,-0.7629 -0.68555,-1.6154 -1.070762,-2.3816 -0.340307,-0.6771 -0.762174,-1.2648 -1.10249,-1.9417 -3.0721,-6.1113 0.250545,0.302 -1.590269,-3.7924 -0.157663,-0.3508 -0.401315,-0.6133 -0.551254,-0.9708 -0.118528,-0.2827 -0.193879,-0.6036 -0.243888,-0.9254 -0.187307,-1.2055 0.852559,0.658 -0.18042,-1.8055 -0.118528,-0.2826 -0.437715,-0.2749 -0.582984,-0.5307 -0.06498,-0.1139 0.02115,-0.2934 0.03173,-0.44 0.02115,-0.2934 0.04232,-0.5867 0.06347,-0.8801 0.06347,-0.8799 0.126929,-1.7598 0.190398,-2.6397 0.02115,-0.2934 0.04232,-0.5867 0.06347,-0.88 0.02115,-0.2934 0.0025,-0.5983 0.06347,-0.8801 0.09633,-0.4452 0.291528,-0.8361 0.402556,-1.2744 0.03511,-0.1387 -0.0034,-0.3014 0.03174,-0.44 0.412807,-1.6298 0.357764,-1.0625 1.112469,-2.5036 0.138152,-0.2638 0.224069,-0.5805 0.370827,-0.8345 0.328162,-0.5683 0.772613,-1.0016 1.04901,-1.6236 0.110553,-0.2488 -0.04709,-0.6312 0.06347,-0.88 0.156347,-0.3518 0.480379,-0.483 0.678184,-0.7891 0.156371,-0.242 0.232671,-0.5707 0.370821,-0.8345 0.222757,-0.4254 0.49353,-0.7971 0.709916,-1.2291 0.268395,-0.5359 0.494433,-1.1127 0.741651,-1.6691 0.123606,-0.2782 0.214447,-0.5925 0.370824,-0.8345 0.197803,-0.3062 0.480379,-0.483 0.678183,-0.7892 0.156376,-0.242 0.232676,-0.5707 0.370825,-0.8345 0.222757,-0.4254 0.510603,-0.7806 0.709916,-1.2291 0.988866,-2.22543 -0.333042,-0.386 1.144208,-2.94359 0.0196,-0.0339 1.327598,-1.53371 1.356358,-1.57822 0.5269,-0.81554 0.61732,-2.12807 1.14421,-2.94359 0.4495,-0.69574 0.84391,-0.67547 1.04901,-1.62366 0.0914,-0.42252 0.004,-0.89741 0.0952,-1.31994 -0.12781,-0.82372 0.55692,-0.74471 0.70992,-1.22908 0.14446,-2.00294 -0.14308,-0.0466 0.40256,-1.27453 0.0773,-0.17406 -0.0155,-0.78811 0.0635,-0.87997 0.0799,-0.093 0.25208,0.16984 0.30735,0.0455 0.11056,-0.24882 0.0423,-0.58665 0.0635,-0.87997 0.0317,-0.43999 0.004,-0.89741 0.0952,-1.31994 -0.16956,-0.84803 0.58333,-0.72933 0.70992,-1.2291 0.10533,-0.41582 0.0635,-0.87996 0.0952,-1.31994 0.0106,-0.14666 0.0211,-0.29331 0.0318,-0.43998 0.11636,-1.61327 0.23271,-3.22653 0.34907,-4.8398 0.0952,-1.31994 0.19041,-2.6399 0.28561,-3.95984 0.0868,-1.20365 0.26221,-2.36744 -0.0535,-3.56529 -0.0363,-0.13794 -0.25933,0.0851 -0.30736,-0.0455 -0.49246,-3.16942 0.18744,0.24589 -0.7634,-2.33621 -0.048,-0.13049 0.0967,-0.32556 0.0318,-0.43997 -2.66895,-4.70038 -0.63372,0.43104 -1.07076,-2.38161 -0.0316,-0.20355 -0.18375,-0.32362 -0.27562,-0.48543 -0.0919,-0.16179 -0.18375,-0.3236 -0.27562,-0.48541 -0.0919,-0.16179 -0.2761,-0.27689 -0.27563,-0.4854 4.2e-4,-0.18881 0.18508,-0.2691 0.27762,-0.40363"
       id="path6010"
       inkscape:connector-curvature="0" />
  </g>
</svg>
