<?xml version="1.0" encoding="UTF-8" standalone="no"?>
<!-- Created with Inkscape (http://www.inkscape.org/) -->

<svg
   xmlns:dc="http://purl.org/dc/elements/1.1/"
   xmlns:cc="http://creativecommons.org/ns#"
   xmlns:rdf="http://www.w3.org/1999/02/22-rdf-syntax-ns#"
   xmlns:svg="http://www.w3.org/2000/svg"
   xmlns="http://www.w3.org/2000/svg"
   xmlns:sodipodi="http://sodipodi.sourceforge.net/DTD/sodipodi-0.dtd"
   xmlns:inkscape="http://www.inkscape.org/namespaces/inkscape"
   width="32mm"
   height="32mm"
   viewBox="0 0 113.38583 113.38583"
   id="svg6703"
   version="1.1"
   inkscape:version="0.91 r13725"
   sodipodi:docname="espinho.svg">
  <defs
     id="defs6705">
    <inkscape:perspective
       sodipodi:type="inkscape:persp3d"
       inkscape:vp_x="56.186508 : -12.113196 : 1"
       inkscape:vp_y="-708.34004 : -146.79301 : 0"
       inkscape:vp_z="17.087647 : 102.83644 : 1"
       inkscape:persp3d-origin="50.023034 : 48.135661 : 1"
       id="perspective7255" />
  </defs>
  <sodipodi:namedview
     id="base"
     pagecolor="#ffffff"
     bordercolor="#666666"
     borderopacity="1.0"
     inkscape:pageopacity="0.0"
     inkscape:pageshadow="2"
     inkscape:zoom="1.979899"
     inkscape:cx="0.12430088"
     inkscape:cy="13.827515"
     inkscape:document-units="px"
     inkscape:current-layer="layer1"
     showgrid="true"
     inkscape:window-width="1366"
     inkscape:window-height="706"
     inkscape:window-x="-8"
     inkscape:window-y="-8"
     inkscape:window-maximized="1">
    <inkscape:grid
       type="xygrid"
       id="grid7251"
       spacingx="0.30000001"
       spacingy="0.30000001" />
  </sodipodi:namedview>
  <metadata
     id="metadata6708">
    <rdf:RDF>
      <cc:Work
         rdf:about="">
        <dc:format>image/svg+xml</dc:format>
        <dc:type
           rdf:resource="http://purl.org/dc/dcmitype/StillImage" />
        <dc:title></dc:title>
      </cc:Work>
    </rdf:RDF>
  </metadata>
  <g
     inkscape:label="Camada 1"
     inkscape:groupmode="layer"
     id="layer1"
     transform="translate(0,-938.97638)">
    <g
       id="g7257"
       style="opacity:1;fill:#d44400;fill-opacity:1;stroke:#000000;stroke-width:1.37800002;stroke-miterlimit:4;stroke-dasharray:none;stroke-opacity:1"
       transform="matrix(0.99955331,0,0,1.0931058,-5.5276993,-96.121305)">
      <path
         d="m 17.083943,949.63196 -0.0047,-0.0137 0.01108,-0.002 0.0047,0.0137 z"
         style="fill:#e9e9ff;fill-rule:evenodd;stroke:#000000;stroke-width:1.14504552px;stroke-linecap:butt;stroke-linejoin:round;stroke-opacity:1"
         id="path7273"
         inkscape:connector-curvature="0" />
      <path
         d="m 27.894676,1050.2156 -3.664346,-0.077 -7.135307,-100.50884 -0.01108,0.002 z"
         style="fill:#353564;fill-rule:evenodd;stroke:#000000;stroke-width:1.14504552px;stroke-linecap:butt;stroke-linejoin:round;stroke-opacity:1"
         id="path7275"
         inkscape:connector-curvature="0"
         sodipodi:nodetypes="ccccc" />
      <path
         d="m 13.878808,1050.4682 -5.9661322,0.3085 9.1665932,-101.15847 0.0047,0.0137 z"
         style="fill:#4d4d9f;fill-rule:evenodd;stroke:#000000;stroke-width:1.14504552px;stroke-linecap:butt;stroke-linejoin:round;stroke-opacity:1"
         id="path7277"
         inkscape:connector-curvature="0"
         sodipodi:nodetypes="ccccc" />
      <path
         d="m 24.23033,1050.1385 -8.475959,0.3962 1.33598,-100.91876 0.0047,0.0137 z"
         style="fill:#afafde;fill-rule:evenodd;stroke:#000000;stroke-width:1.14504552px;stroke-linecap:butt;stroke-linejoin:round;stroke-opacity:1"
         id="path7279"
         inkscape:connector-curvature="0"
         sodipodi:nodetypes="ccccc" />
      <path
         d="m 7.9126758,1050.7767 12.1348442,-2.5148 -2.957169,-98.64596 -0.01108,0.002 z"
         style="fill:#d7d7ff;fill-rule:evenodd;stroke:#000000;stroke-width:1.14504552px;stroke-linecap:butt;stroke-linejoin:round;stroke-opacity:1"
         id="path7281"
         inkscape:connector-curvature="0" />
      <path
         d="m 8.0704307,1050.2156 1.357474,-1.4592 10.6196153,-0.4945 -1.37303,1.2453 z"
         style="fill:#8686bf;fill-rule:evenodd;stroke:#000000;stroke-width:1.14504552px;stroke-linecap:butt;stroke-linejoin:round;stroke-opacity:1"
         id="path7283"
         inkscape:connector-curvature="0"
         sodipodi:nodetypes="ccccc" />
    </g>
    <g
       transform="matrix(-0.97109322,0,0,1.0932822,50.074357,-96.849873)"
       style="opacity:1;fill:#d44400;fill-opacity:1;stroke:#000000;stroke-width:1.37800002;stroke-miterlimit:4;stroke-dasharray:none;stroke-opacity:1"
       id="g7285">
      <path
         inkscape:connector-curvature="0"
         id="path7287"
         style="fill:#e9e9ff;fill-rule:evenodd;stroke:#000000;stroke-width:1.14504552px;stroke-linecap:butt;stroke-linejoin:round;stroke-opacity:1"
         d="m 17.083943,949.63196 -0.0047,-0.0137 0.01108,-0.002 0.0047,0.0137 z" />
      <path
         sodipodi:nodetypes="ccccc"
         inkscape:connector-curvature="0"
         id="path7289"
         style="fill:#353564;fill-rule:evenodd;stroke:#000000;stroke-width:1.14504552px;stroke-linecap:butt;stroke-linejoin:round;stroke-opacity:1"
         d="m 27.894676,1050.2156 -3.664346,-0.077 -7.135307,-100.50884 -0.01108,0.002 z" />
      <path
         sodipodi:nodetypes="ccccc"
         inkscape:connector-curvature="0"
         id="path7291"
         style="fill:#4d4d9f;fill-rule:evenodd;stroke:#000000;stroke-width:1.14504552px;stroke-linecap:butt;stroke-linejoin:round;stroke-opacity:1"
         d="m 13.878808,1050.4682 -5.9661322,0.3085 9.1665932,-101.15847 0.0047,0.0137 z" />
      <path
         sodipodi:nodetypes="ccccc"
         inkscape:connector-curvature="0"
         id="path7293"
         style="fill:#afafde;fill-rule:evenodd;stroke:#000000;stroke-width:1.14504552px;stroke-linecap:butt;stroke-linejoin:round;stroke-opacity:1"
         d="m 24.23033,1050.1385 -8.475959,0.3962 1.33598,-100.91876 0.0047,0.0137 z" />
      <path
         inkscape:connector-curvature="0"
         id="path7295"
         style="fill:#d7d7ff;fill-rule:evenodd;stroke:#000000;stroke-width:1.14504552px;stroke-linecap:butt;stroke-linejoin:round;stroke-opacity:1"
         d="m 7.9126758,1050.7767 12.1348442,-2.5148 -2.957169,-98.64596 -0.01108,0.002 z" />
      <path
         sodipodi:nodetypes="ccccc"
         inkscape:connector-curvature="0"
         id="path7297"
         style="fill:#8686bf;fill-rule:evenodd;stroke:#000000;stroke-width:1.14504552px;stroke-linecap:butt;stroke-linejoin:round;stroke-opacity:1"
         d="m 8.0704307,1050.2156 1.357474,-1.4592 10.6196153,-0.4945 -1.37303,1.2453 z" />
    </g>
    <g
       id="g7299"
       style="opacity:1;fill:#d44400;fill-opacity:1;stroke:#000000;stroke-width:1.37800002;stroke-miterlimit:4;stroke-dasharray:none;stroke-opacity:1"
       transform="matrix(-0.97109322,0,0,1.0932822,50.074357,-96.849873)">
      <path
         d="m 17.083943,949.63196 -0.0047,-0.0137 0.01108,-0.002 0.0047,0.0137 z"
         style="fill:#e9e9ff;fill-rule:evenodd;stroke:#000000;stroke-width:1.14504552px;stroke-linecap:butt;stroke-linejoin:round;stroke-opacity:1"
         id="path7301"
         inkscape:connector-curvature="0" />
      <path
         d="m 27.894676,1050.2156 -3.664346,-0.077 -7.135307,-100.50884 -0.01108,0.002 z"
         style="fill:#353564;fill-rule:evenodd;stroke:#000000;stroke-width:1.14504552px;stroke-linecap:butt;stroke-linejoin:round;stroke-opacity:1"
         id="path7303"
         inkscape:connector-curvature="0"
         sodipodi:nodetypes="ccccc" />
      <path
         d="m 13.878808,1050.4682 -5.9661322,0.3085 9.1665932,-101.15847 0.0047,0.0137 z"
         style="fill:#4d4d9f;fill-rule:evenodd;stroke:#000000;stroke-width:1.14504552px;stroke-linecap:butt;stroke-linejoin:round;stroke-opacity:1"
         id="path7305"
         inkscape:connector-curvature="0"
         sodipodi:nodetypes="ccccc" />
      <path
         d="m 24.23033,1050.1385 -8.475959,0.3962 1.33598,-100.91876 0.0047,0.0137 z"
         style="fill:#afafde;fill-rule:evenodd;stroke:#000000;stroke-width:1.14504552px;stroke-linecap:butt;stroke-linejoin:round;stroke-opacity:1"
         id="path7307"
         inkscape:connector-curvature="0"
         sodipodi:nodetypes="ccccc" />
      <path
         d="m 7.9126758,1050.7767 12.1348442,-2.5148 -2.957169,-98.64596 -0.01108,0.002 z"
         style="fill:#d7d7ff;fill-rule:evenodd;stroke:#000000;stroke-width:1.14504552px;stroke-linecap:butt;stroke-linejoin:round;stroke-opacity:1"
         id="path7309"
         inkscape:connector-curvature="0" />
      <path
         d="m 8.0704307,1050.2156 1.357474,-1.4592 10.6196153,-0.4945 -1.37303,1.2453 z"
         style="fill:#8686bf;fill-rule:evenodd;stroke:#000000;stroke-width:1.14504552px;stroke-linecap:butt;stroke-linejoin:round;stroke-opacity:1"
         id="path7311"
         inkscape:connector-curvature="0"
         sodipodi:nodetypes="ccccc" />
    </g>
    <g
       transform="matrix(0.99955331,0,0,1.0931058,35.365207,-96.673407)"
       style="opacity:1;fill:#d44400;fill-opacity:1;stroke:#000000;stroke-width:1.37800002;stroke-miterlimit:4;stroke-dasharray:none;stroke-opacity:1"
       id="g7313">
      <path
         inkscape:connector-curvature="0"
         id="path7315"
         style="fill:#e9e9ff;fill-rule:evenodd;stroke:#000000;stroke-width:1.14504552px;stroke-linecap:butt;stroke-linejoin:round;stroke-opacity:1"
         d="m 17.083943,949.63196 -0.0047,-0.0137 0.01108,-0.002 0.0047,0.0137 z" />
      <path
         sodipodi:nodetypes="ccccc"
         inkscape:connector-curvature="0"
         id="path7317"
         style="fill:#353564;fill-rule:evenodd;stroke:#000000;stroke-width:1.14504552px;stroke-linecap:butt;stroke-linejoin:round;stroke-opacity:1"
         d="m 27.894676,1050.2156 -3.664346,-0.077 -7.135307,-100.50884 -0.01108,0.002 z" />
      <path
         sodipodi:nodetypes="ccccc"
         inkscape:connector-curvature="0"
         id="path7319"
         style="fill:#4d4d9f;fill-rule:evenodd;stroke:#000000;stroke-width:1.14504552px;stroke-linecap:butt;stroke-linejoin:round;stroke-opacity:1"
         d="m 13.878808,1050.4682 -5.9661322,0.3085 9.1665932,-101.15847 0.0047,0.0137 z" />
      <path
         sodipodi:nodetypes="ccccc"
         inkscape:connector-curvature="0"
         id="path7321"
         style="fill:#afafde;fill-rule:evenodd;stroke:#000000;stroke-width:1.14504552px;stroke-linecap:butt;stroke-linejoin:round;stroke-opacity:1"
         d="m 24.23033,1050.1385 -8.475959,0.3962 1.33598,-100.91876 0.0047,0.0137 z" />
      <path
         inkscape:connector-curvature="0"
         id="path7323"
         style="fill:#d7d7ff;fill-rule:evenodd;stroke:#000000;stroke-width:1.14504552px;stroke-linecap:butt;stroke-linejoin:round;stroke-opacity:1"
         d="m 7.9126758,1050.7767 12.1348442,-2.5148 -2.957169,-98.64596 -0.01108,0.002 z" />
      <path
         sodipodi:nodetypes="ccccc"
         inkscape:connector-curvature="0"
         id="path7325"
         style="fill:#8686bf;fill-rule:evenodd;stroke:#000000;stroke-width:1.14504552px;stroke-linecap:butt;stroke-linejoin:round;stroke-opacity:1"
         d="m 8.0704307,1050.2156 1.357474,-1.4592 10.6196153,-0.4945 -1.37303,1.2453 z" />
    </g>
    <g
       id="g7327"
       style="opacity:1;fill:#d44400;fill-opacity:1;stroke:#000000;stroke-width:1.37800002;stroke-miterlimit:4;stroke-dasharray:none;stroke-opacity:1"
       transform="matrix(-0.97109322,0,0,1.0932822,90.967264,-97.401975)">
      <path
         d="m 17.083943,949.63196 -0.0047,-0.0137 0.01108,-0.002 0.0047,0.0137 z"
         style="fill:#e9e9ff;fill-rule:evenodd;stroke:#000000;stroke-width:1.14504552px;stroke-linecap:butt;stroke-linejoin:round;stroke-opacity:1"
         id="path7329"
         inkscape:connector-curvature="0" />
      <path
         d="m 27.894676,1050.2156 -3.664346,-0.077 -7.135307,-100.50884 -0.01108,0.002 z"
         style="fill:#353564;fill-rule:evenodd;stroke:#000000;stroke-width:1.14504552px;stroke-linecap:butt;stroke-linejoin:round;stroke-opacity:1"
         id="path7331"
         inkscape:connector-curvature="0"
         sodipodi:nodetypes="ccccc" />
      <path
         d="m 13.878808,1050.4682 -5.9661322,0.3085 9.1665932,-101.15847 0.0047,0.0137 z"
         style="fill:#4d4d9f;fill-rule:evenodd;stroke:#000000;stroke-width:1.14504552px;stroke-linecap:butt;stroke-linejoin:round;stroke-opacity:1"
         id="path7333"
         inkscape:connector-curvature="0"
         sodipodi:nodetypes="ccccc" />
      <path
         d="m 24.23033,1050.1385 -8.475959,0.3962 1.33598,-100.91876 0.0047,0.0137 z"
         style="fill:#afafde;fill-rule:evenodd;stroke:#000000;stroke-width:1.14504552px;stroke-linecap:butt;stroke-linejoin:round;stroke-opacity:1"
         id="path7335"
         inkscape:connector-curvature="0"
         sodipodi:nodetypes="ccccc" />
      <path
         d="m 7.9126758,1050.7767 12.1348442,-2.5148 -2.957169,-98.64596 -0.01108,0.002 z"
         style="fill:#d7d7ff;fill-rule:evenodd;stroke:#000000;stroke-width:1.14504552px;stroke-linecap:butt;stroke-linejoin:round;stroke-opacity:1"
         id="path7337"
         inkscape:connector-curvature="0" />
      <path
         d="m 8.0704307,1050.2156 1.357474,-1.4592 10.6196153,-0.4945 -1.37303,1.2453 z"
         style="fill:#8686bf;fill-rule:evenodd;stroke:#000000;stroke-width:1.14504552px;stroke-linecap:butt;stroke-linejoin:round;stroke-opacity:1"
         id="path7339"
         inkscape:connector-curvature="0"
         sodipodi:nodetypes="ccccc" />
    </g>
    <g
       transform="matrix(-0.97109322,0,0,1.0932822,90.967264,-97.401975)"
       style="opacity:1;fill:#d44400;fill-opacity:1;stroke:#000000;stroke-width:1.37800002;stroke-miterlimit:4;stroke-dasharray:none;stroke-opacity:1"
       id="g7341">
      <path
         inkscape:connector-curvature="0"
         id="path7343"
         style="fill:#e9e9ff;fill-rule:evenodd;stroke:#000000;stroke-width:1.14504552px;stroke-linecap:butt;stroke-linejoin:round;stroke-opacity:1"
         d="m 17.083943,949.63196 -0.0047,-0.0137 0.01108,-0.002 0.0047,0.0137 z" />
      <path
         sodipodi:nodetypes="ccccc"
         inkscape:connector-curvature="0"
         id="path7345"
         style="fill:#353564;fill-rule:evenodd;stroke:#000000;stroke-width:1.14504552px;stroke-linecap:butt;stroke-linejoin:round;stroke-opacity:1"
         d="m 27.894676,1050.2156 -3.664346,-0.077 -7.135307,-100.50884 -0.01108,0.002 z" />
      <path
         sodipodi:nodetypes="ccccc"
         inkscape:connector-curvature="0"
         id="path7347"
         style="fill:#4d4d9f;fill-rule:evenodd;stroke:#000000;stroke-width:1.14504552px;stroke-linecap:butt;stroke-linejoin:round;stroke-opacity:1"
         d="m 13.878808,1050.4682 -5.9661322,0.3085 9.1665932,-101.15847 0.0047,0.0137 z" />
      <path
         sodipodi:nodetypes="ccccc"
         inkscape:connector-curvature="0"
         id="path7349"
         style="fill:#afafde;fill-rule:evenodd;stroke:#000000;stroke-width:1.14504552px;stroke-linecap:butt;stroke-linejoin:round;stroke-opacity:1"
         d="m 24.23033,1050.1385 -8.475959,0.3962 1.33598,-100.91876 0.0047,0.0137 z" />
      <path
         inkscape:connector-curvature="0"
         id="path7351"
         style="fill:#d7d7ff;fill-rule:evenodd;stroke:#000000;stroke-width:1.14504552px;stroke-linecap:butt;stroke-linejoin:round;stroke-opacity:1"
         d="m 7.9126758,1050.7767 12.1348442,-2.5148 -2.957169,-98.64596 -0.01108,0.002 z" />
      <path
         sodipodi:nodetypes="ccccc"
         inkscape:connector-curvature="0"
         id="path7353"
         style="fill:#8686bf;fill-rule:evenodd;stroke:#000000;stroke-width:1.14504552px;stroke-linecap:butt;stroke-linejoin:round;stroke-opacity:1"
         d="m 8.0704307,1050.2156 1.357474,-1.4592 10.6196153,-0.4945 -1.37303,1.2453 z" />
    </g>
    <g
       id="g7355"
       style="opacity:1;fill:#d44400;fill-opacity:1;stroke:#000000;stroke-width:1.37800002;stroke-miterlimit:4;stroke-dasharray:none;stroke-opacity:1"
       transform="matrix(0.82551527,0,0,1.094215,73.039287,-96.954415)">
      <path
         d="m 17.083943,949.63196 -0.0047,-0.0137 0.01108,-0.002 0.0047,0.0137 z"
         style="fill:#e9e9ff;fill-rule:evenodd;stroke:#000000;stroke-width:1.14504552px;stroke-linecap:butt;stroke-linejoin:round;stroke-opacity:1"
         id="path7357"
         inkscape:connector-curvature="0" />
      <path
         d="m 27.894676,1050.2156 -3.664346,-0.077 -7.135307,-100.50884 -0.01108,0.002 z"
         style="fill:#353564;fill-rule:evenodd;stroke:#000000;stroke-width:1.14504552px;stroke-linecap:butt;stroke-linejoin:round;stroke-opacity:1"
         id="path7359"
         inkscape:connector-curvature="0"
         sodipodi:nodetypes="ccccc" />
      <path
         d="m 13.878808,1050.4682 -5.9661322,0.3085 9.1665932,-101.15847 0.0047,0.0137 z"
         style="fill:#4d4d9f;fill-rule:evenodd;stroke:#000000;stroke-width:1.14504552px;stroke-linecap:butt;stroke-linejoin:round;stroke-opacity:1"
         id="path7361"
         inkscape:connector-curvature="0"
         sodipodi:nodetypes="ccccc" />
      <path
         d="m 24.23033,1050.1385 -8.475959,0.3962 1.33598,-100.91876 0.0047,0.0137 z"
         style="fill:#afafde;fill-rule:evenodd;stroke:#000000;stroke-width:1.14504552px;stroke-linecap:butt;stroke-linejoin:round;stroke-opacity:1"
         id="path7363"
         inkscape:connector-curvature="0"
         sodipodi:nodetypes="ccccc" />
      <path
         d="m 7.9126758,1050.7767 12.1348442,-2.5148 -2.957169,-98.64596 -0.01108,0.002 z"
         style="fill:#d7d7ff;fill-rule:evenodd;stroke:#000000;stroke-width:1.14504552px;stroke-linecap:butt;stroke-linejoin:round;stroke-opacity:1"
         id="path7365"
         inkscape:connector-curvature="0" />
      <path
         d="m 8.0704307,1050.2156 1.357474,-1.4592 10.6196153,-0.4945 -1.37303,1.2453 z"
         style="fill:#8686bf;fill-rule:evenodd;stroke:#000000;stroke-width:1.14504552px;stroke-linecap:butt;stroke-linejoin:round;stroke-opacity:1"
         id="path7367"
         inkscape:connector-curvature="0"
         sodipodi:nodetypes="ccccc" />
    </g>
    <g
       transform="matrix(-0.80201052,0,0,1.0943916,118.96015,-97.683722)"
       style="opacity:1;fill:#d44400;fill-opacity:1;stroke:#000000;stroke-width:1.37800002;stroke-miterlimit:4;stroke-dasharray:none;stroke-opacity:1"
       id="g7369">
      <path
         inkscape:connector-curvature="0"
         id="path7371"
         style="fill:#e9e9ff;fill-rule:evenodd;stroke:#000000;stroke-width:1.14504552px;stroke-linecap:butt;stroke-linejoin:round;stroke-opacity:1"
         d="m 17.083943,949.63196 -0.0047,-0.0137 0.01108,-0.002 0.0047,0.0137 z" />
      <path
         sodipodi:nodetypes="ccccc"
         inkscape:connector-curvature="0"
         id="path7373"
         style="fill:#353564;fill-rule:evenodd;stroke:#000000;stroke-width:1.14504552px;stroke-linecap:butt;stroke-linejoin:round;stroke-opacity:1"
         d="m 27.894676,1050.2156 -3.664346,-0.077 -7.135307,-100.50884 -0.01108,0.002 z" />
      <path
         sodipodi:nodetypes="ccccc"
         inkscape:connector-curvature="0"
         id="path7375"
         style="fill:#4d4d9f;fill-rule:evenodd;stroke:#000000;stroke-width:1.14504552px;stroke-linecap:butt;stroke-linejoin:round;stroke-opacity:1"
         d="m 13.878808,1050.4682 -5.9661322,0.3085 9.1665932,-101.15847 0.0047,0.0137 z" />
      <path
         sodipodi:nodetypes="ccccc"
         inkscape:connector-curvature="0"
         id="path7377"
         style="fill:#afafde;fill-rule:evenodd;stroke:#000000;stroke-width:1.14504552px;stroke-linecap:butt;stroke-linejoin:round;stroke-opacity:1"
         d="m 24.23033,1050.1385 -8.475959,0.3962 1.33598,-100.91876 0.0047,0.0137 z" />
      <path
         inkscape:connector-curvature="0"
         id="path7379"
         style="fill:#d7d7ff;fill-rule:evenodd;stroke:#000000;stroke-width:1.14504552px;stroke-linecap:butt;stroke-linejoin:round;stroke-opacity:1"
         d="m 7.9126758,1050.7767 12.1348442,-2.5148 -2.957169,-98.64596 -0.01108,0.002 z" />
      <path
         sodipodi:nodetypes="ccccc"
         inkscape:connector-curvature="0"
         id="path7381"
         style="fill:#8686bf;fill-rule:evenodd;stroke:#000000;stroke-width:1.14504552px;stroke-linecap:butt;stroke-linejoin:round;stroke-opacity:1"
         d="m 8.0704307,1050.2156 1.357474,-1.4592 10.6196153,-0.4945 -1.37303,1.2453 z" />
    </g>
    <path
       style="fill:none;fill-rule:evenodd;stroke:#000000;stroke-width:1px;stroke-linecap:butt;stroke-linejoin:miter;stroke-opacity:1"
       d="m 78,1004.3622 c 0.179787,0.1743 0.359574,0.3486 0.53936,0.5228 0.08418,0 0.177246,-0.038 0.252539,0 0.106479,0.053 0.146058,0.1993 0.252538,0.2526 0.07529,0.038 0.193014,-0.06 0.252538,0 0.05952,0.059 0,0.1683 0,0.2525 0,0.084 0.06597,0.3048 0,0.2526 -0.476118,-0.3774 -0.86465,-0.8537 -1.296975,-1.2805"
       id="path7425"
       inkscape:connector-curvature="0" />
    <path
       style="fill:none;fill-rule:evenodd;stroke:#000000;stroke-width:1px;stroke-linecap:butt;stroke-linejoin:miter;stroke-opacity:1"
       d="m 84,1010.3622 c -0.488744,-0.072 -0.468829,-0.961 -0.914953,-1.184 -0.105347,-0.053 -0.446284,0.059 -0.505076,0 -0.05952,-0.059 0,-0.1684 0,-0.2526 0,-0.4209 0,-0.8417 0,-1.2626 0,-0.084 0,-0.1684 0,-0.2526 0,-0.084 -0.03765,-0.1772 0,-0.2525 0.05324,-0.1065 0.186502,-0.1535 0.252538,-0.2526 0.104411,-0.1566 0.119439,-0.3719 0.252538,-0.505 0.52251,-0.5225 -0.02043,0.7984 0.505076,-0.2526 0.03765,-0.075 -0.08418,-0.2525 0,-0.2525 0.08418,0 0,0.3367 0,0.2525 0,-0.1683 0.05324,-0.3453 0,-0.505 -0.03765,-0.113 -0.199298,-0.1461 -0.252538,-0.2526 -0.03765,-0.075 0,-0.1683 0,-0.2525 0,-0.084 -0.05468,-0.1886 0,-0.2526 0.182717,-0.2138 0.44161,-0.3485 0.662415,-0.5228"
       id="path7433"
       inkscape:connector-curvature="0" />
    <path
       style="opacity:1;fill:#aa0000;fill-opacity:1;stroke:#ff0000;stroke-width:0.5626207;stroke-miterlimit:4;stroke-dasharray:none;stroke-opacity:1"
       d="m 105.4702,1024.0993 c -0.0649,-0.2122 -0.23535,-1.146 -0.37883,-2.0751 -0.14349,-0.9291 -0.41851,-2.0249 -0.61116,-2.4351 -0.30104,-0.6409 -0.25453,-5.3716 0.33087,-33.65383 0.37464,-18.09945 0.72944,-32.95937 0.78844,-33.02205 0.19415,-0.20621 2.57448,39.52129 2.40895,40.20513 -0.089,0.36741 -0.67357,1.38948 -1.2992,2.27126 -0.62563,0.88178 -1.1387,1.73882 -1.14015,1.90453 -0.001,0.16571 -0.18531,0.4623 -0.40857,0.6591 -0.3479,0.30667 -0.38544,0.81746 -0.26261,3.57316 0.0788,1.7685 0.25797,4.1774 0.3981,5.3531 0.51792,4.3453 0.7526,6.1938 1.03471,8.1498 0.39207,2.7184 0.20304,7.6398 -0.33298,8.6692 -0.28292,0.5433 -0.44611,0.6673 -0.52757,0.4008 z"
       id="path7437"
       inkscape:connector-curvature="0" />
    <path
       style="opacity:1;fill:#aa0000;fill-opacity:1;stroke:#ff0000;stroke-width:0.34799755;stroke-miterlimit:4;stroke-dasharray:none;stroke-opacity:1"
       d="m 102.37777,79.140511 -0.5348,-0.428416 0.83664,-15.026019 0.83663,-15.026019 -0.14443,10.480333 c -0.0794,5.764183 -0.21527,12.718678 -0.30184,15.454435 l -0.15739,4.974099 -0.53481,-0.428413 z"
       id="path7439"
       inkscape:connector-curvature="0"
       transform="translate(0,938.97638)" />
    <path
       style="opacity:1;fill:#aa0000;fill-opacity:1;stroke:#ff0000;stroke-width:0.34799755;stroke-miterlimit:4;stroke-dasharray:none;stroke-opacity:1"
       d="m 100.3268,76.356219 c -0.24575,-0.153862 -0.1122,-2.752316 0.62205,-12.103399 0.51423,-6.54911 0.98121,-11.861236 1.03772,-11.804724 0.14368,0.143676 -0.95213,21.731703 -1.16938,23.03745 -0.12627,0.758955 -0.26772,1.010087 -0.49039,0.870673 z"
       id="path7441"
       inkscape:connector-curvature="0"
       transform="translate(0,938.97638)" />
    <path
       style="opacity:1;fill:#aa0000;fill-opacity:1;stroke:#ff0000;stroke-width:0.87123144;stroke-miterlimit:4;stroke-dasharray:none;stroke-opacity:1"
       d="m 84.608586,1024.6271 c 0,-0.1637 0.156385,-0.5643 0.347522,-0.8904 0.191138,-0.3261 0.415344,-1.0818 0.498236,-1.6794 0.08289,-0.5975 0.329686,-1.4683 0.548431,-1.9351 0.417594,-0.891 0.394323,-4.1749 -0.06067,-8.5614 -0.201048,-1.9383 -0.206994,-1.9503 -1.459256,-2.9599 -1.338701,-1.0792 -1.522117,-1.7998 -0.705948,-2.7736 0.513405,-0.6126 0.588281,-2.3766 0.125496,-2.9566 -0.327584,-0.4106 -0.185342,-3.35254 1.23194,-25.48016 0.881256,-13.75879 1.632482,-24.98385 1.66939,-24.94456 0.0369,0.0393 0.343866,13.31225 0.682128,29.49548 0.338262,16.18322 0.679227,31.43844 0.757701,33.90054 0.119008,3.7339 0.08528,4.4531 -0.203269,4.3352 -0.506649,-0.2069 -1.572667,1.2823 -1.770395,2.4733 -0.113819,0.6856 -0.419344,1.2364 -0.916042,1.6514 -0.409895,0.3424 -0.745263,0.4888 -0.745263,0.3252 z"
       id="path7443"
       inkscape:connector-curvature="0" />
    <path
       style="opacity:1;fill:#aa0000;fill-opacity:1;stroke:#ff0000;stroke-width:0.77810138;stroke-miterlimit:4;stroke-dasharray:none;stroke-opacity:1"
       d="m 78.089429,1003.96 c -0.484397,-0.085 -0.564848,-0.2675 -0.564848,-1.2831 0,-0.7174 -0.148477,-1.3192 -0.376566,-1.5265 -0.261516,-0.2377 -0.381956,-0.8989 -0.394209,-2.16413 -0.02108,-2.17743 -0.183335,-2.70433 -0.967188,-3.14089 -0.326276,-0.18174 -0.93489,-0.99538 -1.352477,-1.80812 l -0.759248,-1.47769 0.44285,-20.10194 c 0.243568,-11.05606 0.519306,-20.38897 0.612754,-20.73979 0.09344,-0.35084 1.042827,11.26706 2.109733,25.81752 1.066905,14.55047 1.911527,26.47074 1.876937,26.48934 -0.03459,0.018 -0.317072,-0.01 -0.627738,-0.065 z"
       id="path7445"
       inkscape:connector-curvature="0" />
    <path
       style="opacity:1;fill:#aa0000;fill-opacity:1;stroke:#ff0000;stroke-width:0.74800005;stroke-miterlimit:4;stroke-dasharray:none;stroke-opacity:1"
       d="m 75.383136,92.31589 c -0.418425,-0.30596 -0.495646,-0.66626 -0.495646,-2.312611 0,-1.584262 0.124392,-2.21053 0.662944,-3.337689 0.36462,-0.763127 0.756277,-1.72843 0.870351,-2.145118 0.308713,-1.127665 0.211477,-6.683356 -0.122823,-7.017656 -0.154383,-0.154383 -0.278169,-0.968231 -0.275081,-1.808551 l 0.0056,-1.527856 0.493845,0.631345 c 0.271615,0.34724 0.496373,0.79286 0.499461,0.990268 0.0031,0.197407 0.163431,0.538333 0.356317,0.757614 0.192885,0.219281 0.46989,0.910082 0.615567,1.535114 0.145676,0.625032 0.396667,1.647811 0.557757,2.272843 0.526064,2.041135 -0.05504,6.7788 -1.064942,8.682338 -0.138559,0.261166 -0.298711,0.732853 -0.355893,1.048194 -0.05718,0.31534 -0.362236,1.028035 -0.677898,1.583767 -0.5311,0.935019 -0.610918,0.983376 -1.069575,0.647998 z"
       id="path7447"
       inkscape:connector-curvature="0"
       transform="translate(0,938.97638)" />
    <path
       style="opacity:1;fill:#aa0000;fill-opacity:1;stroke:#ff0000;stroke-width:0.76600271;stroke-miterlimit:4;stroke-dasharray:none;stroke-opacity:1"
       d="m 47.734339,1007.1724 c -0.02342,-1.177 4.103758,-53.32751 4.252732,-53.73694 0.09873,-0.27135 0.433042,9.88994 0.742921,22.58063 0.309877,12.69069 0.631942,24.24171 0.715698,25.66901 0.13553,2.3096 0.107954,2.5771 -0.250657,2.4319 -0.305531,-0.1237 -0.556716,0.2038 -1.039043,1.3546 -0.565338,1.3488 -0.699207,1.4967 -1.20335,1.3288 -1.492437,-0.4969 -1.979082,-0.4705 -2.595458,0.1405 -0.433792,0.43 -0.617536,0.4983 -0.622843,0.2315 z"
       id="path7449"
       inkscape:connector-curvature="0" />
    <path
       style="opacity:1;fill:#aa0000;fill-opacity:1;stroke:#ff0000;stroke-width:0.49592653;stroke-miterlimit:4;stroke-dasharray:none;stroke-opacity:1"
       d="m 51.601482,1015.6109 c 0.136097,-0.5512 0.361134,-1.7237 0.500083,-2.6056 0.138948,-0.8819 0.484162,-2.2349 0.767139,-3.0065 l 0.514504,-1.4031 0.0162,1.4031 c 0.009,0.7716 0.0857,2.0344 0.170642,2.806 0.136015,1.2357 0.01306,1.5465 -1.03079,2.6057 l -1.185228,1.2025 0.247448,-1.0021 z"
       id="path7451"
       inkscape:connector-curvature="0" />
    <path
       style="opacity:1;fill:#aa0000;fill-opacity:1;stroke:#ff0000;stroke-width:0.660474;stroke-miterlimit:4;stroke-dasharray:none;stroke-opacity:1"
       d="m 36.288201,1025.7218 c -0.09475,-0.099 -0.172269,-0.4485 -0.172269,-0.7773 0,-0.3287 -0.124292,-0.6778 -0.276204,-0.7756 -0.288594,-0.186 -0.211004,-1.0902 0.246733,-2.8754 0.148249,-0.5782 0.272249,-2.5447 0.275557,-4.3699 0.0071,-3.9221 -0.06573,-4.0559 -2.090229,-3.838 l -1.330511,0.1431 -0.273961,-3.3263 c -0.219043,-2.6595 -0.13684,-8.6867 0.410068,-30.06649 0.376216,-14.70709 0.733855,-26.79211 0.794753,-26.8556 0.06089,-0.0635 1.27763,15.16274 2.70385,33.83606 1.426219,18.67333 2.648081,34.22743 2.715249,34.56463 0.09108,0.4574 -0.0086,0.6489 -0.392143,0.7534 -0.282845,0.077 -0.514265,0.3452 -0.514265,0.5957 0,0.2506 -0.354849,0.976 -0.788554,1.612 -1.03337,1.5154 -1.10525,1.5912 -1.308074,1.3797 z"
       id="path7453"
       inkscape:connector-curvature="0" />
    <path
       style="opacity:1;fill:#aa0000;fill-opacity:1;stroke:#ff0000;stroke-width:0.34799755;stroke-miterlimit:4;stroke-dasharray:none;stroke-opacity:1"
       d="m 31.337953,57.267398 c -0.01096,-0.266217 0.04872,-0.415372 0.132638,-0.331456 0.08392,0.08392 0.09289,0.301731 0.01994,0.484032 -0.08062,0.201458 -0.140457,0.141617 -0.152575,-0.152576 z"
       id="path7455"
       inkscape:connector-curvature="0"
       transform="translate(0,938.97638)" />
    <path
       style="opacity:1;fill:#aa0000;fill-opacity:1;stroke:#ff0000;stroke-width:0.39839575;stroke-miterlimit:4;stroke-dasharray:none;stroke-opacity:1"
       d="m 30.793966,1001.3444 c -0.361918,-0.7 -0.348561,-1.65684 0.170693,-12.22701 l 0.563337,-11.46755 -0.127177,7.70208 c -0.06994,4.23615 -0.109686,9.74314 -0.08831,12.23776 0.02138,2.49462 0.0018,4.53082 -0.04352,4.52492 -0.04531,-0.01 -0.259072,-0.3525 -0.475025,-0.7702 z"
       id="path7457"
       inkscape:connector-curvature="0" />
    <path
       style="opacity:1;fill:#aa0000;fill-opacity:1;stroke:#ff0000;stroke-width:0.64800004;stroke-miterlimit:4;stroke-dasharray:none;stroke-opacity:1"
       d="M 9.0999955,58.733472 C 8.956262,58.332245 8.668977,57.702329 8.4615846,57.333659 8.2519583,56.961016 8.0845073,56.035812 8.0845073,55.250219 c 0,-1.2156 0.066483,-1.41313 0.4756224,-1.41313 0.2635669,0 0.5346331,-0.225658 0.6079783,-0.50613 C 9.267457,52.951049 9.1490916,52.786838 8.6934682,52.672484 8.1267973,52.530257 8.0955573,52.433861 8.2232227,51.221443 8.2984352,50.507161 8.9768768,42.434805 9.7308706,33.282874 10.484864,24.130943 11.138608,16.60616 11.183634,16.561134 c 0.04503,-0.04503 0.278205,7.840665 0.518175,17.523758 0.239969,9.683092 0.496831,18.344297 0.570804,19.247121 l 0.134496,1.641497 -1.425996,2.146575 C 10.196816,58.3007 9.5115157,59.31083 9.4582237,59.364818 9.4049317,59.418805 9.243729,59.1347 9.0999955,58.733472 Z"
       id="path7459"
       inkscape:connector-curvature="0"
       transform="translate(0,938.97638)" />
  </g>
</svg>
