<?xml version="1.0" encoding="UTF-8" standalone="no"?>
<!-- Created with Inkscape (http://www.inkscape.org/) -->

<svg
   xmlns:dc="http://purl.org/dc/elements/1.1/"
   xmlns:cc="http://creativecommons.org/ns#"
   xmlns:rdf="http://www.w3.org/1999/02/22-rdf-syntax-ns#"
   xmlns:svg="http://www.w3.org/2000/svg"
   xmlns="http://www.w3.org/2000/svg"
   xmlns:sodipodi="http://sodipodi.sourceforge.net/DTD/sodipodi-0.dtd"
   xmlns:inkscape="http://www.inkscape.org/namespaces/inkscape"
   width="32mm"
   height="32mm"
   viewBox="0 0 113.38583 113.38583"
   id="svg8024"
   version="1.1"
   inkscape:version="0.91 r13725"
   sodipodi:docname="fase neve bloco de gelo.svg">
  <defs
     id="defs8026" />
  <sodipodi:namedview
     id="base"
     pagecolor="#ffffff"
     bordercolor="#666666"
     borderopacity="1.0"
     inkscape:pageopacity="0.0"
     inkscape:pageshadow="2"
     inkscape:zoom="1.979899"
     inkscape:cx="-64.824196"
     inkscape:cy="58.385368"
     inkscape:document-units="px"
     inkscape:current-layer="layer1"
     showgrid="true"
     inkscape:window-width="1920"
     inkscape:window-height="1017"
     inkscape:window-x="-8"
     inkscape:window-y="-8"
     inkscape:window-maximized="1">
    <inkscape:grid
       type="xygrid"
       id="grid8572"
       spacingx="0.30000001"
       spacingy="0.30000001" />
  </sodipodi:namedview>
  <metadata
     id="metadata8029">
    <rdf:RDF>
      <cc:Work
         rdf:about="">
        <dc:format>image/svg+xml</dc:format>
        <dc:type
           rdf:resource="http://purl.org/dc/dcmitype/StillImage" />
        <dc:title />
      </cc:Work>
    </rdf:RDF>
  </metadata>
  <g
     inkscape:label="Camada 1"
     inkscape:groupmode="layer"
     id="layer1"
     transform="translate(0,-938.97638)">
    <path
       style="opacity:1;fill:#00ffff;fill-opacity:1;stroke:#000000;stroke-width:0.54799998;stroke-miterlimit:4;stroke-dasharray:none;stroke-opacity:1"
       d="m 0,940.38251 112.48477,0 0,111.97969 -112.48477,0 z"
       id="rect8574" />
    <path
       style="opacity:1;fill:#d5f6ff;fill-opacity:1;stroke:#0098ff;stroke-width:0.69600004;stroke-miterlimit:4;stroke-dasharray:none;stroke-opacity:1"
       d="m 49.011201,984.86815 c 0,-0.16392 -0.472848,-0.99271 -1.050774,-1.84178 -0.577925,-0.84906 -1.05366,-1.9534 -1.057187,-2.45409 -0.008,-1.1419 -1.984825,-4.1738 -5.239035,-8.0354 -1.382089,-1.64005 -2.514507,-3.15478 -2.516487,-3.36606 -0.0053,-0.56387 -1.200201,-1.54533 -1.881427,-1.54533 -0.393151,0 -0.588946,0.29133 -0.588946,0.87632 0,0.54021 -0.540649,1.44773 -1.409583,2.36609 -0.775272,0.81937 -1.41835,1.72742 -1.429065,2.01789 -0.01072,0.29047 -0.882895,1.29268 -1.938178,2.22713 -1.48423,1.31429 -1.919187,1.5526 -1.920868,1.05244 -0.0012,-0.35561 -0.23906,-1.09874 -0.528593,-1.6514 -0.289532,-0.55266 -0.526423,-1.30882 -0.526423,-1.68034 0,-0.37153 -0.303647,-1.26803 -0.67477,-1.99223 -0.622793,-1.21529 -1.04926,-2.55797 -2.302855,-7.25026 -0.25774,-0.96473 -0.879586,-2.76313 -1.381881,-3.99644 -0.502294,-1.23331 -1.013313,-2.81197 -1.135598,-3.50814 -0.554839,-3.15869 -2.123426,-3.66003 -4.783571,-1.52887 -1.717094,1.37564 -2.042402,1.98461 -2.050369,3.83825 -0.0027,0.61569 -0.145413,1.20595 -0.31726,1.31168 -0.171846,0.10572 -0.415598,0.7396 -0.541672,1.40862 -0.126074,0.66901 -1.016231,2.78997 -1.978126,4.71325 -1.556376,3.11192 -1.748901,3.74746 -1.748901,5.77329 l 0,2.27642 -1.057188,-0.39726 -1.0571873,-0.39725 -0.00612,-4.39596 c -0.00572,-4.16715 -0.049625,-4.43704 -0.8425585,-5.18529 -0.4600591,-0.43413 -1.0619538,-0.78933 -1.3375433,-0.78933 -1.0573656,0 -4.1025349,-1.76402 -5.6802022,-3.29045 l -1.64829548,-1.59477 0,-8.43261 0,-8.43261 55.85475078,0 55.854752,0 0,6.85044 0,6.85044 -1.67388,1.56314 c -1.6378,1.52945 -1.72518,1.56327 -4.05383,1.56909 -2.30938,0.006 -3.13809,0.27426 -5.46087,1.76927 -0.43608,0.28068 -0.79288,0.62321 -0.79288,0.76117 0,0.72804 -3.091368,4.49733 -3.675612,4.48166 -0.207318,-0.006 -1.216178,-0.7949 -2.241907,-1.75407 -1.77516,-1.65997 -1.959381,-1.74395 -3.825639,-1.74395 -2.116591,0 -2.781104,0.49205 -4.00087,2.96256 -0.680959,1.3792 -2.563729,4.19431 -2.906681,4.34605 -0.145363,0.0643 -0.264297,0.41952 -0.264297,0.78933 0,0.36982 -0.140574,0.67239 -0.312385,0.67239 -0.171811,0 -0.416207,0.68925 -0.543105,1.53167 -0.192081,1.27513 -0.637956,1.95347 -2.662122,4.05009 -2.121346,2.19728 -2.473618,2.43814 -2.762474,1.88877 -0.182093,-0.34631 -0.400491,-4.50371 -0.48533,-9.23865 -0.147566,-8.23593 -0.190079,-8.67245 -0.981056,-10.07349 -1.177887,-2.08636 -3.26541,-3.65066 -5.154597,-3.86264 -0.930392,-0.1044 -1.547163,-0.031 -1.547163,0.1841 0,0.19673 -0.557606,0.96713 -1.239126,1.71199 -0.681516,0.74485 -1.492478,1.86735 -1.802131,2.49443 -0.309654,0.62708 -0.703517,1.14014 -0.875249,1.14014 -0.171734,0 -0.312244,0.17444 -0.312244,0.38764 0,0.2132 -0.475735,1.08938 -1.057188,1.94706 -0.581453,0.85768 -1.057188,1.73641 -1.057188,1.95273 0,0.21632 -0.239933,0.65724 -0.533182,0.97982 -0.661786,0.72798 -1.477557,11.66466 -0.884746,11.86138 1.089725,0.36161 -1.007578,3.56937 -2.333728,3.56937 -0.232659,0 -0.871278,0.35879 -1.419144,0.79731 -0.54787,0.43852 -1.947597,1.20889 -3.110504,1.71193 -5.339612,2.30979 -5.10974,2.23091 -5.10974,1.75332 z"
       id="path8589"
       inkscape:connector-curvature="0" />
    <ellipse
       style="opacity:1;fill:#dbe2e3;fill-opacity:1;stroke:#33d6ff;stroke-width:0.62283522;stroke-miterlimit:4;stroke-dasharray:none;stroke-opacity:1"
       id="path8595"
       cx="36.318508"
       cy="950.55743"
       rx="3.0371683"
       ry="2.2643838" />
    <ellipse
       ry="2.2643838"
       rx="3.0371683"
       cy="948.82098"
       cx="101.60407"
       id="ellipse8597"
       style="opacity:1;fill:#dbe2e3;fill-opacity:1;stroke:#33d6ff;stroke-width:0.62283522;stroke-miterlimit:4;stroke-dasharray:none;stroke-opacity:1" />
    <ellipse
       style="opacity:1;fill:#dbe2e3;fill-opacity:1;stroke:#33d6ff;stroke-width:0.62283522;stroke-miterlimit:4;stroke-dasharray:none;stroke-opacity:1"
       id="ellipse8599"
       cx="51.020222"
       cy="971.89081"
       rx="3.0371683"
       ry="2.2643838" />
    <ellipse
       ry="2.2643838"
       rx="3.0371683"
       cy="942.86749"
       cx="83.164642"
       id="ellipse8601"
       style="opacity:1;fill:#dbe2e3;fill-opacity:1;stroke:#33d6ff;stroke-width:0.62283522;stroke-miterlimit:4;stroke-dasharray:none;stroke-opacity:1" />
    <ellipse
       style="opacity:1;fill:#dbe2e3;fill-opacity:1;stroke:#33d6ff;stroke-width:0.62283522;stroke-miterlimit:4;stroke-dasharray:none;stroke-opacity:1"
       id="ellipse8603"
       cx="12.646263"
       cy="953.53418"
       rx="3.0371683"
       ry="2.2643838" />
    <ellipse
       ry="2.2643838"
       rx="3.0371683"
       cy="942.86749"
       cx="5.1708169"
       id="ellipse8605"
       style="opacity:1;fill:#dbe2e3;fill-opacity:1;stroke:#33d6ff;stroke-width:0.62283522;stroke-miterlimit:4;stroke-dasharray:none;stroke-opacity:1" />
    <ellipse
       style="opacity:1;fill:#dbe2e3;fill-opacity:1;stroke:#33d6ff;stroke-width:0.62283522;stroke-miterlimit:4;stroke-dasharray:none;stroke-opacity:1"
       id="ellipse8607"
       cx="55.754669"
       cy="954.77448"
       rx="3.0371683"
       ry="2.2643838" />
    <ellipse
       ry="2.8308525"
       rx="3.3570108"
       cy="1020.139"
       cx="94.25322"
       id="ellipse8609"
       style="opacity:1;fill:#5599ff;fill-opacity:1;stroke:#33d6ff;stroke-width:0.73214775;stroke-miterlimit:4;stroke-dasharray:none;stroke-opacity:1" />
    <ellipse
       style="opacity:1;fill:#5f8dd3;fill-opacity:1;stroke:#33d6ff;stroke-width:0.73214775;stroke-miterlimit:4;stroke-dasharray:none;stroke-opacity:1"
       id="ellipse8611"
       cx="70.830154"
       cy="1021.6273"
       rx="3.3570108"
       ry="2.8308525" />
    <ellipse
       ry="2.8308525"
       rx="3.3570108"
       cy="998.0614"
       cx="91.512222"
       id="ellipse8613"
       style="opacity:1;fill:#aaaaff;fill-opacity:1;stroke:#33d6ff;stroke-width:0.73214775;stroke-miterlimit:4;stroke-dasharray:none;stroke-opacity:1" />
    <ellipse
       style="opacity:1;fill:#87aade;fill-opacity:1;stroke:#33d6ff;stroke-width:0.73214775;stroke-miterlimit:4;stroke-dasharray:none;stroke-opacity:1"
       id="ellipse8615"
       cx="96.994209"
       cy="1042.9606"
       rx="3.3570108"
       ry="2.8308525" />
    <ellipse
       ry="2.8308525"
       rx="3.3570108"
       cy="1018.4026"
       cx="23.485659"
       id="ellipse8617"
       style="opacity:1;fill:#b7bec8;fill-opacity:1;stroke:#33d6ff;stroke-width:0.73214775;stroke-miterlimit:4;stroke-dasharray:none;stroke-opacity:1" />
    <ellipse
       style="opacity:1;fill:#b7bec8;fill-opacity:1;stroke:#33d6ff;stroke-width:0.73214775;stroke-miterlimit:4;stroke-dasharray:none;stroke-opacity:1"
       id="ellipse8619"
       cx="19.997116"
       cy="990.86755"
       rx="3.3570108"
       ry="2.8308525" />
    <ellipse
       style="opacity:1;fill:#5599ff;fill-opacity:1;stroke:#33d6ff;stroke-width:0.73139107;stroke-miterlimit:4;stroke-dasharray:none;stroke-opacity:1"
       id="ellipse8621"
       cx="-64.94796"
       cy="993.34821"
       rx="3.3500314"
       ry="2.8308897"
       transform="scale(-1,1)" />
    <ellipse
       ry="2.8308897"
       rx="3.3500314"
       cy="1029.8137"
       cx="-39.826221"
       id="ellipse8623"
       style="opacity:1;fill:#5f8dd3;fill-opacity:1;stroke:#33d6ff;stroke-width:0.73139107;stroke-miterlimit:4;stroke-dasharray:none;stroke-opacity:1"
       transform="scale(-1,1)" />
    <ellipse
       style="opacity:1;fill:#aaaaff;fill-opacity:1;stroke:#33d6ff;stroke-width:0.73139107;stroke-miterlimit:4;stroke-dasharray:none;stroke-opacity:1"
       id="ellipse8625"
       cx="-14.959866"
       cy="997.31696"
       rx="3.3500314"
       ry="2.8308897"
       transform="scale(-1,1)" />
    <ellipse
       ry="2.8308897"
       rx="3.3500314"
       cy="1041.4727"
       cx="-11.478582"
       id="ellipse8627"
       style="opacity:1;fill:#87aade;fill-opacity:1;stroke:#33d6ff;stroke-width:0.73139107;stroke-miterlimit:4;stroke-dasharray:none;stroke-opacity:1"
       transform="scale(-1,1)" />
    <ellipse
       style="opacity:1;fill:#b7bec8;fill-opacity:1;stroke:#33d6ff;stroke-width:0.73139107;stroke-miterlimit:4;stroke-dasharray:none;stroke-opacity:1"
       id="ellipse8629"
       cx="-49.446896"
       cy="1010.7129"
       rx="3.3500314"
       ry="2.8308897"
       transform="scale(-1,1)" />
    <ellipse
       ry="2.8308897"
       rx="3.3500314"
       cy="990.12305"
       cx="-86.326294"
       id="ellipse8631"
       style="opacity:1;fill:#b7bec8;fill-opacity:1;stroke:#33d6ff;stroke-width:0.73139107;stroke-miterlimit:4;stroke-dasharray:none;stroke-opacity:1"
       transform="scale(-1,1)" />
  </g>
</svg>
