<?xml version="1.0" encoding="UTF-8" standalone="no"?>
<!-- Created with Inkscape (http://www.inkscape.org/) -->

<svg
   xmlns:osb="http://www.openswatchbook.org/uri/2009/osb"
   xmlns:dc="http://purl.org/dc/elements/1.1/"
   xmlns:cc="http://creativecommons.org/ns#"
   xmlns:rdf="http://www.w3.org/1999/02/22-rdf-syntax-ns#"
   xmlns:svg="http://www.w3.org/2000/svg"
   xmlns="http://www.w3.org/2000/svg"
   xmlns:sodipodi="http://sodipodi.sourceforge.net/DTD/sodipodi-0.dtd"
   xmlns:inkscape="http://www.inkscape.org/namespaces/inkscape"
   width="32mm"
   height="32mm"
   viewBox="0 0 113.38583 113.38583"
   id="svg2"
   version="1.1"
   inkscape:version="0.91 r13725"
   sodipodi:docname="fase floresta bloco de terra.svg">
  <defs
     id="defs4">
    <linearGradient
       id="linearGradient6697"
       osb:paint="gradient">
      <stop
         style="stop-color:#aa4400;stop-opacity:1;"
         offset="0"
         id="stop6685" />
      <stop
         style="stop-color:#aa4400;stop-opacity:0;"
         offset="1"
         id="stop6687" />
    </linearGradient>
    <linearGradient
       id="linearGradient6677"
       osb:paint="solid">
      <stop
         style="stop-color:#570000;stop-opacity:1;"
         offset="0"
         id="stop6679" />
    </linearGradient>
  </defs>
  <sodipodi:namedview
     id="base"
     pagecolor="#ffffff"
     bordercolor="#666666"
     borderopacity="1.0"
     inkscape:pageopacity="0.0"
     inkscape:pageshadow="2"
     inkscape:zoom="2.8"
     inkscape:cx="-55.448774"
     inkscape:cy="72.761466"
     inkscape:document-units="px"
     inkscape:current-layer="layer1"
     showgrid="true"
     inkscape:window-width="1920"
     inkscape:window-height="1017"
     inkscape:window-x="-8"
     inkscape:window-y="-8"
     inkscape:window-maximized="1">
    <inkscape:grid
       type="xygrid"
       id="grid4136"
       spacingy="0.30000001"
       spacingx="0.30000001" />
  </sodipodi:namedview>
  <metadata
     id="metadata7">
    <rdf:RDF>
      <cc:Work
         rdf:about="">
        <dc:format>image/svg+xml</dc:format>
        <dc:type
           rdf:resource="http://purl.org/dc/dcmitype/StillImage" />
        <dc:title />
      </cc:Work>
    </rdf:RDF>
  </metadata>
  <g
     inkscape:label="Camada 1"
     inkscape:groupmode="layer"
     id="layer1"
     transform="translate(0,-938.97638)">
    <path
       style="opacity:1;fill:#d44400;fill-opacity:1;stroke:#000000;stroke-width:0;stroke-miterlimit:4;stroke-dasharray:none;stroke-opacity:1"
       d="m 0.00554994,938.86774 113.98890006,0 0,113.48886 -113.98890006,0 z"
       id="rect4138" />
    <path
       style="fill:#008000;fill-opacity:1;stroke:#000000;stroke-width:1.27799994;stroke-miterlimit:4;stroke-dasharray:none;stroke-opacity:1"
       d="m 94.374601,968.66033 c -1.08016,-0.0818 -2.116578,-0.31804 -2.303152,-0.52507 -0.186573,-0.20702 -0.588286,-0.38124 -0.892694,-0.38715 -1.552815,-0.0301 -3.577403,-3.11079 -4.191485,-6.37784 -0.257271,-1.36874 -4.186838,-5.44335 -5.541819,-5.74638 -1.642234,-0.36727 -2.782276,-0.29228 -2.782276,0.18302 0,0.4974 -1.815131,3.29627 -2.282303,3.51923 -0.175104,0.0836 -0.93213,0.77198 -1.68228,1.5298 -2.509497,2.53518 -4.18967,2.95772 -10.542839,2.6514 l -5.551576,-0.26767 -1.420535,-2.10388 c -1.850706,-2.74099 -2.749138,-3.3591 -4.882568,-3.3591 -1.971267,0 -3.06626,0.78638 -6.43028,4.61794 l -1.905143,2.16993 -7.948426,0 c -7.49494,0 -7.9853,-0.0456 -8.594729,-0.79857 -0.355465,-0.43922 -0.8252,-0.79857 -1.043852,-0.79857 -0.218652,0 -1.175354,-0.71872 -2.126004,-1.59715 -1.63703,-1.51266 -1.855204,-1.59714 -4.124727,-1.59714 -2.034022,0 -2.504918,0.13581 -3.114971,0.89839 -2.655902,3.31995 -4.840519,4.4169 -8.8767855,4.45725 -2.0429534,0.0204 -2.7101899,-0.1394 -3.6259015,-0.86852 -0.6172223,-0.49145 -1.2766038,-0.89355 -1.4652922,-0.89355 -0.1886886,0 -0.7664525,-0.3724 -1.2839198,-0.82755 l -0.94084989,-0.82755 0,-11.55032 0,-11.55032 56.23976889,0 56.239768,0 0,10.98037 0,10.98037 -1.04532,0 c -0.67369,0 -1.2814,0.3356 -1.70937,0.94401 -0.36523,0.5192 -1.2205,1.26548 -1.90058,1.65839 -1.07487,0.62099 -4.47638,3.51395 -4.98584,4.24041 -0.0982,0.14002 -0.80072,0.5443 -1.56118,0.89839 -1.33964,0.62378 -3.053363,0.70088 -7.722839,0.34743 z"
       id="path4146"
       inkscape:connector-curvature="0" />
    <path
       sodipodi:type="star"
       style="fill:#aa4400;fill-opacity:1;stroke:#000000;stroke-width:1;stroke-miterlimit:4;stroke-dasharray:none;stroke-opacity:1"
       id="path4148"
       sodipodi:sides="5"
       sodipodi:cx="58.071429"
       sodipodi:cy="1008.6479"
       sodipodi:r1="6"
       sodipodi:r2="4.8541021"
       sodipodi:arg1="0"
       sodipodi:arg2="0.62831853"
       inkscape:flatsided="true"
       inkscape:rounded="0"
       inkscape:randomized="0"
       d="m 64.07143,1008.6479 -4.145898,5.7063 -6.708204,-2.1796 0,-7.0534 6.708204,-2.1797 z"
       inkscape:transform-center-x="-0.57294516" />
    <path
       inkscape:transform-center-x="-0.57294516"
       d="m 51.214283,1039.3622 -4.145898,5.7063 -6.708204,-2.1796 0,-7.0534 6.708204,-2.1797 z"
       inkscape:randomized="0"
       inkscape:rounded="0"
       inkscape:flatsided="true"
       sodipodi:arg2="0.62831853"
       sodipodi:arg1="0"
       sodipodi:r2="4.8541021"
       sodipodi:r1="6"
       sodipodi:cy="1039.3622"
       sodipodi:cx="45.214284"
       sodipodi:sides="5"
       id="path4150"
       style="fill:#a05a2c;fill-opacity:1;stroke:#000000;stroke-width:1;stroke-miterlimit:4;stroke-dasharray:none;stroke-opacity:1"
       sodipodi:type="star" />
    <path
       sodipodi:type="star"
       style="fill:#803300;fill-opacity:1;stroke:#000000;stroke-width:1;stroke-miterlimit:4;stroke-dasharray:none;stroke-opacity:1"
       id="path4152"
       sodipodi:sides="5"
       sodipodi:cx="52.714285"
       sodipodi:cy="980.07647"
       sodipodi:r1="6"
       sodipodi:r2="4.8541021"
       sodipodi:arg1="0"
       sodipodi:arg2="0.62831853"
       inkscape:flatsided="true"
       inkscape:rounded="0"
       inkscape:randomized="0"
       d="m 58.714287,980.07648 -4.145898,5.70634 -6.708204,-2.17963 0,-7.05342 6.708204,-2.17963 z"
       inkscape:transform-center-x="-0.57294516" />
    <path
       inkscape:transform-center-x="-0.57294516"
       d="m 96.571434,1005.7908 -4.145898,5.7063 -6.708204,-2.1796 0,-7.0534 6.708204,-2.1797 z"
       inkscape:randomized="0"
       inkscape:rounded="0"
       inkscape:flatsided="true"
       sodipodi:arg2="0.62831853"
       sodipodi:arg1="0"
       sodipodi:r2="4.8541021"
       sodipodi:r1="6"
       sodipodi:cy="1005.7908"
       sodipodi:cx="90.571431"
       sodipodi:sides="5"
       id="path4154"
       style="fill:#803300;fill-opacity:1;stroke:#000000;stroke-width:1;stroke-miterlimit:4;stroke-dasharray:none;stroke-opacity:1"
       sodipodi:type="star" />
    <path
       sodipodi:type="star"
       style="fill:#502d16;fill-opacity:1;stroke:#000000;stroke-width:1;stroke-miterlimit:4;stroke-dasharray:none;stroke-opacity:1"
       id="path4156"
       sodipodi:sides="5"
       sodipodi:cx="17.35714"
       sodipodi:cy="979.36218"
       sodipodi:r1="6"
       sodipodi:r2="4.8541021"
       sodipodi:arg1="0"
       sodipodi:arg2="0.62831853"
       inkscape:flatsided="true"
       inkscape:rounded="0"
       inkscape:randomized="0"
       d="m 23.35714,979.36218 -4.145898,5.70634 -6.708204,-2.17963 0,-7.05342 6.708204,-2.17963 z"
       inkscape:transform-center-x="-0.57294516" />
    <path
       inkscape:transform-center-x="-0.57294516"
       d="m 26.571426,1020.0765 -4.145898,5.7063 -6.708204,-2.1796 0,-7.0534 6.708204,-2.1797 z"
       inkscape:randomized="0"
       inkscape:rounded="0"
       inkscape:flatsided="true"
       sodipodi:arg2="0.62831853"
       sodipodi:arg1="0"
       sodipodi:r2="4.8541021"
       sodipodi:r1="6"
       sodipodi:cy="1020.0765"
       sodipodi:cx="20.571426"
       sodipodi:sides="5"
       id="path4158"
       style="fill:#aa4400;fill-opacity:1;stroke:#000000;stroke-width:1;stroke-miterlimit:4;stroke-dasharray:none;stroke-opacity:1"
       sodipodi:type="star" />
    <path
       sodipodi:type="star"
       style="fill:#aa4400;fill-opacity:1;stroke:#000000;stroke-width:1;stroke-miterlimit:4;stroke-dasharray:none;stroke-opacity:1"
       id="path4160"
       sodipodi:sides="5"
       sodipodi:cx="97"
       sodipodi:cy="1033.6479"
       sodipodi:r1="6"
       sodipodi:r2="4.8541021"
       sodipodi:arg1="0"
       sodipodi:arg2="0.62831853"
       inkscape:flatsided="true"
       inkscape:rounded="0"
       inkscape:randomized="0"
       d="m 103,1033.6479 -4.145898,5.7064 -6.708204,-2.1796 0,-7.0535 6.708204,-2.1796 z"
       inkscape:transform-center-x="-0.57294516" />
    <path
       sodipodi:type="star"
       style="fill:#aa4400;fill-opacity:1;stroke:#000000;stroke-width:1;stroke-miterlimit:4;stroke-dasharray:none;stroke-opacity:1"
       id="path4162"
       sodipodi:sides="5"
       sodipodi:cx="83.428573"
       sodipodi:cy="978.29076"
       sodipodi:r1="6"
       sodipodi:r2="4.8541021"
       sodipodi:arg1="0"
       sodipodi:arg2="0.62831853"
       inkscape:flatsided="true"
       inkscape:rounded="0"
       inkscape:randomized="0"
       d="m 89.428574,978.29077 -4.145898,5.70634 -6.708204,-2.17963 0,-7.05342 6.708204,-2.17963 z"
       inkscape:transform-center-x="-0.57294516" />
    <path
       sodipodi:type="spiral"
       style="fill:none;fill-rule:evenodd;stroke:#009d00;stroke-width:1.4000001;stroke-linecap:butt;stroke-linejoin:miter;stroke-miterlimit:4;stroke-dasharray:none;stroke-opacity:1"
       id="path4175"
       sodipodi:cx="34.357151"
       sodipodi:cy="954.07648"
       sodipodi:expansion="0.63"
       sodipodi:revolution="2"
       sodipodi:radius="16.155495"
       sodipodi:argument="-18.469049"
       sodipodi:t0="0"
       d="m 34.357151,954.07648 c 2.887529,1.15501 0.546601,4.04511 -1.618843,4.0471 -3.319564,0.003 -5.188952,-3.60286 -4.644316,-6.55237 0.794429,-4.30228 5.445532,-6.60499 9.497539,-5.58068 5.174205,1.30799 7.892641,6.98556 6.458266,11.96301 -1.721017,5.97213 -8.349351,9.07743 -14.154915,7.27861 -6.714178,-2.08035 -10.182176,-9.5939 -8.051261,-16.16109 2.405083,-7.41213 10.750427,-11.22299 18.029431,-8.78433 8.074172,2.70506 12.211352,11.8383 9.484099,19.78975"
       transform="matrix(0.82740136,0,0,0.6726507,-15.444289,310.59804)" />
    <path
       transform="matrix(0.82740136,0,0,0.6726507,12.769999,309.52661)"
       d="m 34.357151,954.07648 c 2.887529,1.15501 0.546601,4.04511 -1.618843,4.0471 -3.319564,0.003 -5.188952,-3.60286 -4.644316,-6.55237 0.794429,-4.30228 5.445532,-6.60499 9.497539,-5.58068 5.174205,1.30799 7.892641,6.98556 6.458266,11.96301 -1.721017,5.97213 -8.349351,9.07743 -14.154915,7.27861 -6.714178,-2.08035 -10.182176,-9.5939 -8.051261,-16.16109 2.405083,-7.41213 10.750427,-11.22299 18.029431,-8.78433 8.074172,2.70506 12.211352,11.8383 9.484099,19.78975"
       sodipodi:t0="0"
       sodipodi:argument="-18.469049"
       sodipodi:radius="16.155495"
       sodipodi:revolution="2"
       sodipodi:expansion="0.63"
       sodipodi:cy="954.07648"
       sodipodi:cx="34.357151"
       id="path4177"
       style="fill:none;fill-rule:evenodd;stroke:#009d00;stroke-width:1.4000001;stroke-linecap:butt;stroke-linejoin:miter;stroke-miterlimit:4;stroke-dasharray:none;stroke-opacity:1"
       sodipodi:type="spiral" />
    <path
       sodipodi:type="spiral"
       style="fill:none;fill-rule:evenodd;stroke:#009d00;stroke-width:1.4000001;stroke-linecap:butt;stroke-linejoin:miter;stroke-miterlimit:4;stroke-dasharray:none;stroke-opacity:1"
       id="path4179"
       sodipodi:cx="34.357151"
       sodipodi:cy="954.07648"
       sodipodi:expansion="0.63"
       sodipodi:revolution="2"
       sodipodi:radius="16.155495"
       sodipodi:argument="-18.469049"
       sodipodi:t0="0"
       d="m 34.357151,954.07648 c 2.887529,1.15501 0.546601,4.04511 -1.618843,4.0471 -3.319564,0.003 -5.188952,-3.60286 -4.644316,-6.55237 0.794429,-4.30228 5.445532,-6.60499 9.497539,-5.58068 5.174205,1.30799 7.892641,6.98556 6.458266,11.96301 -1.721017,5.97213 -8.349351,9.07743 -14.154915,7.27861 -6.714178,-2.08035 -10.182176,-9.5939 -8.051261,-16.16109 2.405083,-7.41213 10.750427,-11.22299 18.029431,-8.78433 8.074172,2.70506 12.211352,11.8383 9.484099,19.78975"
       transform="matrix(0.82740136,0,0,0.6726507,39.912858,310.2409)" />
    <path
       transform="matrix(0.82740136,0,0,0.6726507,68.127146,309.52661)"
       d="m 34.357151,954.07648 c 2.887529,1.15501 0.546601,4.04511 -1.618843,4.0471 -3.319564,0.003 -5.188952,-3.60286 -4.644316,-6.55237 0.794429,-4.30228 5.445532,-6.60499 9.497539,-5.58068 5.174205,1.30799 7.892641,6.98556 6.458266,11.96301 -1.721017,5.97213 -8.349351,9.07743 -14.154915,7.27861 -6.714178,-2.08035 -10.182176,-9.5939 -8.051261,-16.16109 2.405083,-7.41213 10.750427,-11.22299 18.029431,-8.78433 8.074172,2.70506 12.211352,11.8383 9.484099,19.78975"
       sodipodi:t0="0"
       sodipodi:argument="-18.469049"
       sodipodi:radius="16.155495"
       sodipodi:revolution="2"
       sodipodi:expansion="0.63"
       sodipodi:cy="954.07648"
       sodipodi:cx="34.357151"
       id="path4181"
       style="fill:none;fill-rule:evenodd;stroke:#009d00;stroke-width:1.4000001;stroke-linecap:butt;stroke-linejoin:miter;stroke-miterlimit:4;stroke-dasharray:none;stroke-opacity:1"
       sodipodi:type="spiral" />
    <path
       sodipodi:type="star"
       style="fill:#00d400;fill-opacity:1;stroke:#009d00;stroke-width:1.37800002;stroke-miterlimit:4;stroke-dasharray:none;stroke-opacity:1"
       id="path4186"
       sodipodi:sides="3"
       sodipodi:cx="-51"
       sodipodi:cy="932.36218"
       sodipodi:r1="9.4868326"
       sodipodi:r2="9.4868326"
       sodipodi:arg1="1.2490458"
       sodipodi:arg2="2.2962434"
       inkscape:flatsided="false"
       inkscape:rounded="2.31"
       inkscape:randomized="0.917"
       d="m -40.923278,937.584 c -0.368499,20.11573 -31.453231,29.50194 -17.131366,7.89667 14.321863,-21.60527 -5.375665,8.53056 -9.260955,-15.91798 -3.885291,-24.44855 -3.065627,24.55762 10.032843,-1.10327 13.098469,-25.66089 -25.462638,2.84017 5.746436,4.85578 31.209075,2.0156 22.894033,6.0626 8.974442,9.26793 -13.919589,3.20533 2.007099,-25.11487 1.6386,-4.99913 z"
       inkscape:transform-center-x="-0.032039374"
       inkscape:transform-center-y="-0.099167501"
       transform="matrix(0.65653258,0,0,0.69001643,47.737756,302.8499)" />
    <path
       transform="matrix(0.11195894,-0.64691593,0.67990932,0.11766896,-587.81797,806.05238)"
       inkscape:transform-center-y="-0.77317802"
       inkscape:transform-center-x="0.91894674"
       d="m -40.923278,937.584 c -0.368499,20.11573 -31.453231,29.50194 -17.131366,7.89667 14.321863,-21.60527 -5.375665,8.53056 -9.260955,-15.91798 -3.885291,-24.44855 -3.065627,24.55762 10.032843,-1.10327 13.098469,-25.66089 -25.462638,2.84017 5.746436,4.85578 31.209075,2.0156 22.894033,6.0626 8.974442,9.26793 -13.919589,3.20533 2.007099,-25.11487 1.6386,-4.99913 z"
       inkscape:randomized="0.917"
       inkscape:rounded="2.31"
       inkscape:flatsided="false"
       sodipodi:arg2="2.2962434"
       sodipodi:arg1="1.2490458"
       sodipodi:r2="9.4868326"
       sodipodi:r1="9.4868326"
       sodipodi:cy="932.36218"
       sodipodi:cx="-51"
       sodipodi:sides="3"
       id="path4188"
       style="fill:#00d400;fill-opacity:1;stroke:#009d00;stroke-width:1.37800002;stroke-miterlimit:4;stroke-dasharray:none;stroke-opacity:1"
       sodipodi:type="star" />
    <path
       sodipodi:type="star"
       style="fill:#00d400;fill-opacity:1;stroke:#009d00;stroke-width:1.37800002;stroke-miterlimit:4;stroke-dasharray:none;stroke-opacity:1"
       id="path4190"
       sodipodi:sides="3"
       sodipodi:cx="-51"
       sodipodi:cy="932.36218"
       sodipodi:r1="9.4868326"
       sodipodi:r2="9.4868326"
       sodipodi:arg1="1.2490458"
       sodipodi:arg2="2.2962434"
       inkscape:flatsided="false"
       inkscape:rounded="2.31"
       inkscape:randomized="0.917"
       d="m -40.923278,937.584 c -0.368499,20.11573 -31.453231,29.50194 -17.131366,7.89667 14.321863,-21.60527 -5.375665,8.53056 -9.260955,-15.91798 -3.885291,-24.44855 -3.065627,24.55762 10.032843,-1.10327 13.098469,-25.66089 -25.462638,2.84017 5.746436,4.85578 31.209075,2.0156 22.894033,6.0626 8.974442,9.26793 -13.919589,3.20533 2.007099,-25.11487 1.6386,-4.99913 z"
       inkscape:transform-center-x="-0.62839584"
       inkscape:transform-center-y="0.53671916"
       transform="matrix(-0.07155108,0.65262199,-0.6859064,-0.07520025,716.27006,1050.9429)" />
    <path
       transform="matrix(0.45375844,0.4744874,-0.49868675,0.47690061,591.10503,528.51068)"
       inkscape:transform-center-y="-9.3255506"
       inkscape:transform-center-x="1.5275578"
       d="m -40.923278,937.584 c -0.368499,20.11573 -31.453231,29.50194 -17.131366,7.89667 14.321863,-21.60527 -5.375665,8.53056 -9.260955,-15.91798 -3.885291,-24.44855 -3.065627,24.55762 10.032843,-1.10327 13.098469,-25.66089 -25.462638,2.84017 5.746436,4.85578 31.209075,2.0156 22.894033,6.0626 8.974442,9.26793 -13.919589,3.20533 2.007099,-25.11487 1.6386,-4.99913 z"
       inkscape:randomized="0.917"
       inkscape:rounded="2.31"
       inkscape:flatsided="false"
       sodipodi:arg2="2.2962434"
       sodipodi:arg1="1.2490458"
       sodipodi:r2="9.4868326"
       sodipodi:r1="9.4868326"
       sodipodi:cy="932.36218"
       sodipodi:cx="-51"
       sodipodi:sides="3"
       id="path4192"
       style="fill:#00d400;fill-opacity:1;stroke:#009d00;stroke-width:1.37800002;stroke-miterlimit:4;stroke-dasharray:none;stroke-opacity:1"
       sodipodi:type="star" />
    <path
       inkscape:transform-center-x="-0.57294516"
       d="m 64.07143,1008.6479 -4.145898,5.7063 -6.708204,-2.1796 0,-7.0534 6.708204,-2.1797 z"
       inkscape:randomized="0"
       inkscape:rounded="0"
       inkscape:flatsided="true"
       sodipodi:arg2="0.62831853"
       sodipodi:arg1="0"
       sodipodi:r2="4.8541021"
       sodipodi:r1="6"
       sodipodi:cy="1008.6479"
       sodipodi:cx="58.071429"
       sodipodi:sides="5"
       id="path5047"
       style="fill:#aa4400;fill-opacity:1;stroke:#000000;stroke-width:1;stroke-miterlimit:4;stroke-dasharray:none;stroke-opacity:1"
       sodipodi:type="star" />
    <path
       sodipodi:type="star"
       style="fill:#a05a2c;fill-opacity:1;stroke:#000000;stroke-width:1;stroke-miterlimit:4;stroke-dasharray:none;stroke-opacity:1"
       id="path5049"
       sodipodi:sides="5"
       sodipodi:cx="45.214284"
       sodipodi:cy="1039.3622"
       sodipodi:r1="6"
       sodipodi:r2="4.8541021"
       sodipodi:arg1="0"
       sodipodi:arg2="0.62831853"
       inkscape:flatsided="true"
       inkscape:rounded="0"
       inkscape:randomized="0"
       d="m 51.214283,1039.3622 -4.145898,5.7063 -6.708204,-2.1796 0,-7.0534 6.708204,-2.1797 z"
       inkscape:transform-center-x="-0.57294516" />
    <path
       inkscape:transform-center-x="-0.57294516"
       d="m 58.714287,980.07648 -4.145898,5.70634 -6.708204,-2.17963 0,-7.05342 6.708204,-2.17963 z"
       inkscape:randomized="0"
       inkscape:rounded="0"
       inkscape:flatsided="true"
       sodipodi:arg2="0.62831853"
       sodipodi:arg1="0"
       sodipodi:r2="4.8541021"
       sodipodi:r1="6"
       sodipodi:cy="980.07647"
       sodipodi:cx="52.714285"
       sodipodi:sides="5"
       id="path5051"
       style="fill:#803300;fill-opacity:1;stroke:#000000;stroke-width:1;stroke-miterlimit:4;stroke-dasharray:none;stroke-opacity:1"
       sodipodi:type="star" />
    <path
       sodipodi:type="star"
       style="fill:#803300;fill-opacity:1;stroke:#000000;stroke-width:1;stroke-miterlimit:4;stroke-dasharray:none;stroke-opacity:1"
       id="path5053"
       sodipodi:sides="5"
       sodipodi:cx="90.571431"
       sodipodi:cy="1005.7908"
       sodipodi:r1="6"
       sodipodi:r2="4.8541021"
       sodipodi:arg1="0"
       sodipodi:arg2="0.62831853"
       inkscape:flatsided="true"
       inkscape:rounded="0"
       inkscape:randomized="0"
       d="m 96.571434,1005.7908 -4.145898,5.7063 -6.708204,-2.1796 0,-7.0534 6.708204,-2.1797 z"
       inkscape:transform-center-x="-0.57294516" />
    <path
       inkscape:transform-center-x="-0.57294516"
       d="m 23.35714,979.36218 -4.145898,5.70634 -6.708204,-2.17963 0,-7.05342 6.708204,-2.17963 z"
       inkscape:randomized="0"
       inkscape:rounded="0"
       inkscape:flatsided="true"
       sodipodi:arg2="0.62831853"
       sodipodi:arg1="0"
       sodipodi:r2="4.8541021"
       sodipodi:r1="6"
       sodipodi:cy="979.36218"
       sodipodi:cx="17.35714"
       sodipodi:sides="5"
       id="path5055"
       style="fill:#502d16;fill-opacity:1;stroke:#000000;stroke-width:1;stroke-miterlimit:4;stroke-dasharray:none;stroke-opacity:1"
       sodipodi:type="star" />
    <path
       sodipodi:type="star"
       style="fill:#aa4400;fill-opacity:1;stroke:#000000;stroke-width:1;stroke-miterlimit:4;stroke-dasharray:none;stroke-opacity:1"
       id="path5057"
       sodipodi:sides="5"
       sodipodi:cx="20.571426"
       sodipodi:cy="1020.0765"
       sodipodi:r1="6"
       sodipodi:r2="4.8541021"
       sodipodi:arg1="0"
       sodipodi:arg2="0.62831853"
       inkscape:flatsided="true"
       inkscape:rounded="0"
       inkscape:randomized="0"
       d="m 26.571426,1020.0765 -4.145898,5.7063 -6.708204,-2.1796 0,-7.0534 6.708204,-2.1797 z"
       inkscape:transform-center-x="-0.57294516" />
    <path
       inkscape:transform-center-x="-0.57294516"
       d="m 103,1033.6479 -4.145898,5.7064 -6.708204,-2.1796 0,-7.0535 6.708204,-2.1796 z"
       inkscape:randomized="0"
       inkscape:rounded="0"
       inkscape:flatsided="true"
       sodipodi:arg2="0.62831853"
       sodipodi:arg1="0"
       sodipodi:r2="4.8541021"
       sodipodi:r1="6"
       sodipodi:cy="1033.6479"
       sodipodi:cx="97"
       sodipodi:sides="5"
       id="path5059"
       style="fill:#aa4400;fill-opacity:1;stroke:#000000;stroke-width:1;stroke-miterlimit:4;stroke-dasharray:none;stroke-opacity:1"
       sodipodi:type="star" />
    <path
       inkscape:transform-center-x="-0.57294516"
       d="m 89.428574,978.29077 -4.145898,5.70634 -6.708204,-2.17963 0,-7.05342 6.708204,-2.17963 z"
       inkscape:randomized="0"
       inkscape:rounded="0"
       inkscape:flatsided="true"
       sodipodi:arg2="0.62831853"
       sodipodi:arg1="0"
       sodipodi:r2="4.8541021"
       sodipodi:r1="6"
       sodipodi:cy="978.29076"
       sodipodi:cx="83.428573"
       sodipodi:sides="5"
       id="path5061"
       style="fill:#aa4400;fill-opacity:1;stroke:#000000;stroke-width:1;stroke-miterlimit:4;stroke-dasharray:none;stroke-opacity:1"
       sodipodi:type="star" />
    <path
       sodipodi:type="star"
       style="fill:#ff7f2a;fill-opacity:1;stroke:#000000;stroke-width:1;stroke-miterlimit:4;stroke-dasharray:none;stroke-opacity:1"
       id="path5063"
       sodipodi:sides="5"
       sodipodi:cx="69.14286"
       sodipodi:cy="1000.0765"
       sodipodi:r1="6"
       sodipodi:r2="4.8541021"
       sodipodi:arg1="0"
       sodipodi:arg2="0.62831853"
       inkscape:flatsided="true"
       inkscape:rounded="0"
       inkscape:randomized="0"
       d="m 75.14286,1000.0765 -4.145898,5.7063 -6.708204,-2.1796 0,-7.05343 6.708204,-2.17963 z"
       inkscape:transform-center-x="-0.47557652"
       transform="matrix(0.83005628,0,0,0.65192421,15.429222,348.81669)" />
    <path
       inkscape:transform-center-x="-0.57294516"
       d="m 51.214283,1039.3622 -4.145898,5.7063 -6.708204,-2.1796 0,-7.0534 6.708204,-2.1797 z"
       inkscape:randomized="0"
       inkscape:rounded="0"
       inkscape:flatsided="true"
       sodipodi:arg2="0.62831853"
       sodipodi:arg1="0"
       sodipodi:r2="4.8541021"
       sodipodi:r1="6"
       sodipodi:cy="1039.3622"
       sodipodi:cx="45.214284"
       sodipodi:sides="5"
       id="path5065"
       style="fill:#a05a2c;fill-opacity:1;stroke:#000000;stroke-width:1;stroke-miterlimit:4;stroke-dasharray:none;stroke-opacity:1"
       sodipodi:type="star" />
    <path
       sodipodi:type="star"
       style="fill:#803300;fill-opacity:1;stroke:#000000;stroke-width:1;stroke-miterlimit:4;stroke-dasharray:none;stroke-opacity:1"
       id="path5067"
       sodipodi:sides="5"
       sodipodi:cx="52.714285"
       sodipodi:cy="980.07647"
       sodipodi:r1="6"
       sodipodi:r2="4.8541021"
       sodipodi:arg1="0"
       sodipodi:arg2="0.62831853"
       inkscape:flatsided="true"
       inkscape:rounded="0"
       inkscape:randomized="0"
       d="m 58.714287,980.07648 -4.145898,5.70634 -6.708204,-2.17963 0,-7.05342 6.708204,-2.17963 z"
       inkscape:transform-center-x="-0.57294516" />
    <path
       inkscape:transform-center-x="-0.57294516"
       d="m 96.571434,1005.7908 -4.145898,5.7063 -6.708204,-2.1796 0,-7.0534 6.708204,-2.1797 z"
       inkscape:randomized="0"
       inkscape:rounded="0"
       inkscape:flatsided="true"
       sodipodi:arg2="0.62831853"
       sodipodi:arg1="0"
       sodipodi:r2="4.8541021"
       sodipodi:r1="6"
       sodipodi:cy="1005.7908"
       sodipodi:cx="90.571431"
       sodipodi:sides="5"
       id="path5069"
       style="fill:#803300;fill-opacity:1;stroke:#000000;stroke-width:1;stroke-miterlimit:4;stroke-dasharray:none;stroke-opacity:1"
       sodipodi:type="star" />
    <path
       sodipodi:type="star"
       style="fill:#502d16;fill-opacity:1;stroke:#000000;stroke-width:1;stroke-miterlimit:4;stroke-dasharray:none;stroke-opacity:1"
       id="path5071"
       sodipodi:sides="5"
       sodipodi:cx="17.35714"
       sodipodi:cy="979.36218"
       sodipodi:r1="6"
       sodipodi:r2="4.8541021"
       sodipodi:arg1="0"
       sodipodi:arg2="0.62831853"
       inkscape:flatsided="true"
       inkscape:rounded="0"
       inkscape:randomized="0"
       d="m 23.35714,979.36218 -4.145898,5.70634 -6.708204,-2.17963 0,-7.05342 6.708204,-2.17963 z"
       inkscape:transform-center-x="-0.57294516" />
    <path
       inkscape:transform-center-x="-0.57294516"
       d="m 26.571426,1020.0765 -4.145898,5.7063 -6.708204,-2.1796 0,-7.0534 6.708204,-2.1797 z"
       inkscape:randomized="0"
       inkscape:rounded="0"
       inkscape:flatsided="true"
       sodipodi:arg2="0.62831853"
       sodipodi:arg1="0"
       sodipodi:r2="4.8541021"
       sodipodi:r1="6"
       sodipodi:cy="1020.0765"
       sodipodi:cx="20.571426"
       sodipodi:sides="5"
       id="path5073"
       style="fill:#aa4400;fill-opacity:1;stroke:#000000;stroke-width:1;stroke-miterlimit:4;stroke-dasharray:none;stroke-opacity:1"
       sodipodi:type="star" />
    <path
       sodipodi:type="star"
       style="fill:#aa4400;fill-opacity:1;stroke:#000000;stroke-width:1;stroke-miterlimit:4;stroke-dasharray:none;stroke-opacity:1"
       id="path5075"
       sodipodi:sides="5"
       sodipodi:cx="97"
       sodipodi:cy="1033.6479"
       sodipodi:r1="6"
       sodipodi:r2="4.8541021"
       sodipodi:arg1="0"
       sodipodi:arg2="0.62831853"
       inkscape:flatsided="true"
       inkscape:rounded="0"
       inkscape:randomized="0"
       d="m 103,1033.6479 -4.145898,5.7064 -6.708204,-2.1796 0,-7.0535 6.708204,-2.1796 z"
       inkscape:transform-center-x="-0.57294516" />
    <path
       sodipodi:type="star"
       style="fill:#aa4400;fill-opacity:1;stroke:#000000;stroke-width:1;stroke-miterlimit:4;stroke-dasharray:none;stroke-opacity:1"
       id="path5077"
       sodipodi:sides="5"
       sodipodi:cx="83.428573"
       sodipodi:cy="978.29076"
       sodipodi:r1="6"
       sodipodi:r2="4.8541021"
       sodipodi:arg1="0"
       sodipodi:arg2="0.62831853"
       inkscape:flatsided="true"
       inkscape:rounded="0"
       inkscape:randomized="0"
       d="m 89.428574,978.29077 -4.145898,5.70634 -6.708204,-2.17963 0,-7.05342 6.708204,-2.17963 z"
       inkscape:transform-center-x="-0.57294516" />
    <path
       inkscape:transform-center-x="0.43176534"
       d="m -50.571434,981.86212 -4.145898,5.70634 -6.708204,-2.17963 0,-7.05342 6.708204,-2.17963 z"
       inkscape:randomized="0"
       inkscape:rounded="0"
       inkscape:flatsided="true"
       sodipodi:arg2="0.62831853"
       sodipodi:arg1="0"
       sodipodi:r2="4.8541021"
       sodipodi:r1="6"
       sodipodi:cy="981.86212"
       sodipodi:cx="-56.571434"
       sodipodi:sides="5"
       id="path5079"
       style="fill:#aa4400;fill-opacity:1;stroke:#000000;stroke-width:1;stroke-miterlimit:4;stroke-dasharray:none;stroke-opacity:1"
       sodipodi:type="star"
       transform="matrix(-1.194902,-0.11896685,0.14338777,-0.99139371,-156.55766,1979.6415)"
       inkscape:transform-center-y="-0.22055374" />
    <path
       sodipodi:type="star"
       style="fill:#a05a2c;fill-opacity:1;stroke:#000000;stroke-width:1;stroke-miterlimit:4;stroke-dasharray:none;stroke-opacity:1"
       id="path5081"
       sodipodi:sides="5"
       sodipodi:cx="-69.428589"
       sodipodi:cy="1012.5764"
       sodipodi:r1="6"
       sodipodi:r2="4.8541021"
       sodipodi:arg1="0"
       sodipodi:arg2="0.62831853"
       inkscape:flatsided="true"
       inkscape:rounded="0"
       inkscape:randomized="0"
       d="m -63.428589,1012.5764 -4.145898,5.7064 -6.708204,-2.1797 0,-7.0534 6.708204,-2.1796 z"
       inkscape:transform-center-x="0.4317654"
       transform="matrix(-1.194902,-0.11896685,0.14338777,-0.99139371,-156.55766,1979.6415)"
       inkscape:transform-center-y="-0.22055392" />
    <path
       inkscape:transform-center-x="0.43176556"
       d="m -55.928577,953.29071 -4.145898,5.70634 -6.708204,-2.17963 0,-7.05342 6.708204,-2.17963 z"
       inkscape:randomized="0"
       inkscape:rounded="0"
       inkscape:flatsided="true"
       sodipodi:arg2="0.62831853"
       sodipodi:arg1="0"
       sodipodi:r2="4.8541021"
       sodipodi:r1="6"
       sodipodi:cy="953.29071"
       sodipodi:cx="-61.928577"
       sodipodi:sides="5"
       id="path5083"
       style="fill:#803300;fill-opacity:1;stroke:#000000;stroke-width:1;stroke-miterlimit:4;stroke-dasharray:none;stroke-opacity:1"
       sodipodi:type="star"
       transform="matrix(-1.194902,-0.11896685,0.14338777,-0.99139371,-156.55766,1979.6415)"
       inkscape:transform-center-y="-0.22055356" />
    <path
       sodipodi:type="star"
       style="fill:#803300;fill-opacity:1;stroke:#000000;stroke-width:1;stroke-miterlimit:4;stroke-dasharray:none;stroke-opacity:1"
       id="path5085"
       sodipodi:sides="5"
       sodipodi:cx="-24.07143"
       sodipodi:cy="979.005"
       sodipodi:r1="6"
       sodipodi:r2="4.8541021"
       sodipodi:arg1="0"
       sodipodi:arg2="0.62831853"
       inkscape:flatsided="true"
       inkscape:rounded="0"
       inkscape:randomized="0"
       d="m -18.07143,979.005 -4.145898,5.70634 -6.708204,-2.17962 0,-7.05343 6.708204,-2.17962 z"
       inkscape:transform-center-x="0.43176484"
       transform="matrix(-1.194902,-0.11896685,0.14338777,-0.99139371,-156.55766,1979.6415)"
       inkscape:transform-center-y="-0.22055375" />
    <path
       inkscape:transform-center-x="0.43176612"
       d="m -91.285728,952.57642 -4.145898,5.70634 -6.708204,-2.17963 0,-7.05343 6.708204,-2.17962 z"
       inkscape:randomized="0"
       inkscape:rounded="0"
       inkscape:flatsided="true"
       sodipodi:arg2="0.62831853"
       sodipodi:arg1="0"
       sodipodi:r2="4.8541021"
       sodipodi:r1="6"
       sodipodi:cy="952.57642"
       sodipodi:cx="-97.285728"
       sodipodi:sides="5"
       id="path5087"
       style="fill:#502d16;fill-opacity:1;stroke:#000000;stroke-width:1;stroke-miterlimit:4;stroke-dasharray:none;stroke-opacity:1"
       sodipodi:type="star"
       transform="matrix(-1.194902,-0.11896685,0.14338777,-0.99139371,-156.55766,1979.6415)"
       inkscape:transform-center-y="-0.22055352" />
    <path
       sodipodi:type="star"
       style="fill:#aa4400;fill-opacity:1;stroke:#000000;stroke-width:1;stroke-miterlimit:4;stroke-dasharray:none;stroke-opacity:1"
       id="path5089"
       sodipodi:sides="5"
       sodipodi:cx="-94.071442"
       sodipodi:cy="993.29071"
       sodipodi:r1="6"
       sodipodi:r2="4.8541021"
       sodipodi:arg1="0"
       sodipodi:arg2="0.62831853"
       inkscape:flatsided="true"
       inkscape:rounded="0"
       inkscape:randomized="0"
       d="m -88.071442,993.29071 -4.145898,5.70634 -6.708204,-2.17963 0,-7.05342 6.708204,-2.17963 z"
       inkscape:transform-center-x="0.43176587"
       transform="matrix(-1.194902,-0.11896685,0.14338777,-0.99139371,-156.55766,1979.6415)"
       inkscape:transform-center-y="-0.22055378" />
    <path
       inkscape:transform-center-x="0.43176461"
       d="m -11.642864,1006.8623 -4.145898,5.7063 -6.708204,-2.1796 0,-7.0534 6.708204,-2.1796 z"
       inkscape:randomized="0"
       inkscape:rounded="0"
       inkscape:flatsided="true"
       sodipodi:arg2="0.62831853"
       sodipodi:arg1="0"
       sodipodi:r2="4.8541021"
       sodipodi:r1="6"
       sodipodi:cy="1006.8623"
       sodipodi:cx="-17.642864"
       sodipodi:sides="5"
       id="path5091"
       style="fill:#aa4400;fill-opacity:1;stroke:#000000;stroke-width:1;stroke-miterlimit:4;stroke-dasharray:none;stroke-opacity:1"
       sodipodi:type="star"
       transform="matrix(-1.194902,-0.11896685,0.14338777,-0.99139371,-156.55766,1979.6415)"
       inkscape:transform-center-y="-0.22055393" />
    <path
       inkscape:transform-center-x="0.43176508"
       d="m -25.214291,951.505 -4.145898,5.70634 -6.708204,-2.17962 0,-7.05343 6.708204,-2.17962 z"
       inkscape:randomized="0"
       inkscape:rounded="0"
       inkscape:flatsided="true"
       sodipodi:arg2="0.62831853"
       sodipodi:arg1="0"
       sodipodi:r2="4.8541021"
       sodipodi:r1="6"
       sodipodi:cy="951.505"
       sodipodi:cx="-31.214291"
       sodipodi:sides="5"
       id="path5093"
       style="fill:#aa4400;fill-opacity:1;stroke:#000000;stroke-width:1;stroke-miterlimit:4;stroke-dasharray:none;stroke-opacity:1"
       sodipodi:type="star"
       transform="matrix(-1.194902,-0.11896685,0.14338777,-0.99139371,-160.12909,1983.9272)"
       inkscape:transform-center-y="-0.22055358" />
    <path
       inkscape:transform-center-x="0.3961442"
       d="m 41.214283,991.50507 -4.145898,5.70634 -6.708204,-2.17963 0,-7.05343 6.708204,-2.17962 z"
       inkscape:randomized="0"
       inkscape:rounded="0"
       inkscape:flatsided="true"
       sodipodi:arg2="0.62831853"
       sodipodi:arg1="0"
       sodipodi:r2="4.8541021"
       sodipodi:r1="6"
       sodipodi:cy="991.50507"
       sodipodi:cx="35.214283"
       sodipodi:sides="5"
       id="path5095"
       style="fill:#502d16;fill-opacity:1;stroke:#000000;stroke-width:1;stroke-miterlimit:4;stroke-dasharray:none;stroke-opacity:1"
       sodipodi:type="star"
       transform="matrix(-0.99511952,-0.09867696,0.09867696,-0.99511952,13.022157,2015.615)"
       inkscape:transform-center-y="-0.18292887" />
    <path
       sodipodi:type="star"
       style="fill:#aa4400;fill-opacity:1;stroke:#000000;stroke-width:1;stroke-miterlimit:4;stroke-dasharray:none;stroke-opacity:1"
       id="path5097"
       sodipodi:sides="5"
       sodipodi:cx="38.42857"
       sodipodi:cy="1032.2194"
       sodipodi:r1="6"
       sodipodi:r2="4.8541021"
       sodipodi:arg1="0"
       sodipodi:arg2="0.62831853"
       inkscape:flatsided="true"
       inkscape:rounded="0"
       inkscape:randomized="0"
       d="m 44.42857,1032.2194 -4.145898,5.7063 -6.708204,-2.1796 0,-7.0535 6.708204,-2.1796 z"
       inkscape:transform-center-x="0.39614412"
       transform="matrix(-0.99511952,-0.09867696,0.09867696,-0.99511952,41.236445,2014.5436)"
       inkscape:transform-center-y="-0.1829289" />
    <path
       inkscape:transform-center-y="0.43808915"
       transform="matrix(1.177331,0.23629553,-0.24051568,0.97240616,359.37469,32.952282)"
       inkscape:transform-center-x="-0.25043563"
       d="m -63.428589,1012.5764 -4.145898,5.7064 -6.708204,-2.1797 0,-7.0534 6.708204,-2.1796 z"
       inkscape:randomized="0"
       inkscape:rounded="0"
       inkscape:flatsided="true"
       sodipodi:arg2="0.62831853"
       sodipodi:arg1="0"
       sodipodi:r2="4.8541021"
       sodipodi:r1="6"
       sodipodi:cy="1012.5764"
       sodipodi:cx="-69.428589"
       sodipodi:sides="5"
       id="path5099"
       style="fill:#a05a2c;fill-opacity:1;stroke:#000000;stroke-width:1;stroke-miterlimit:4;stroke-dasharray:none;stroke-opacity:1"
       sodipodi:type="star" />
    <path
       transform="matrix(0.83005628,0,0,0.65192421,49.714939,390.60241)"
       inkscape:transform-center-x="-0.47557652"
       d="m 75.14286,1000.0765 -4.145898,5.7063 -6.708204,-2.1796 0,-7.05343 6.708204,-2.17963 z"
       inkscape:randomized="0"
       inkscape:rounded="0"
       inkscape:flatsided="true"
       sodipodi:arg2="0.62831853"
       sodipodi:arg1="0"
       sodipodi:r2="4.8541021"
       sodipodi:r1="6"
       sodipodi:cy="1000.0765"
       sodipodi:cx="69.14286"
       sodipodi:sides="5"
       id="path5101"
       style="fill:#ff7f2a;fill-opacity:1;stroke:#000000;stroke-width:1;stroke-miterlimit:4;stroke-dasharray:none;stroke-opacity:1"
       sodipodi:type="star" />
    <path
       sodipodi:type="star"
       style="fill:#ff7f2a;fill-opacity:1;stroke:#000000;stroke-width:1;stroke-miterlimit:4;stroke-dasharray:none;stroke-opacity:1"
       id="path5103"
       sodipodi:sides="5"
       sodipodi:cx="69.14286"
       sodipodi:cy="1000.0765"
       sodipodi:r1="6"
       sodipodi:r2="4.8541021"
       sodipodi:arg1="0"
       sodipodi:arg2="0.62831853"
       inkscape:flatsided="true"
       inkscape:rounded="0"
       inkscape:randomized="0"
       d="m 75.14286,1000.0765 -4.145898,5.7063 -6.708204,-2.1796 0,-7.05343 6.708204,-2.17963 z"
       inkscape:transform-center-x="-0.47557652"
       transform="matrix(0.83005628,0,0,0.65192421,42.572081,324.17383)" />
    <path
       transform="matrix(0.83005628,0,0,0.65192421,-15.285066,373.10241)"
       inkscape:transform-center-x="-0.47557652"
       d="m 75.14286,1000.0765 -4.145898,5.7063 -6.708204,-2.1796 0,-7.05343 6.708204,-2.17963 z"
       inkscape:randomized="0"
       inkscape:rounded="0"
       inkscape:flatsided="true"
       sodipodi:arg2="0.62831853"
       sodipodi:arg1="0"
       sodipodi:r2="4.8541021"
       sodipodi:r1="6"
       sodipodi:cy="1000.0765"
       sodipodi:cx="69.14286"
       sodipodi:sides="5"
       id="path5105"
       style="fill:#ff7f2a;fill-opacity:1;stroke:#000000;stroke-width:1;stroke-miterlimit:4;stroke-dasharray:none;stroke-opacity:1"
       sodipodi:type="star" />
    <path
       sodipodi:type="star"
       style="fill:#ff7f2a;fill-opacity:1;stroke:#000000;stroke-width:1;stroke-miterlimit:4;stroke-dasharray:none;stroke-opacity:1"
       id="path5107"
       sodipodi:sides="5"
       sodipodi:cx="69.14286"
       sodipodi:cy="1000.0765"
       sodipodi:r1="6"
       sodipodi:r2="4.8541021"
       sodipodi:arg1="0"
       sodipodi:arg2="0.62831853"
       inkscape:flatsided="true"
       inkscape:rounded="0"
       inkscape:randomized="0"
       d="m 75.14286,1000.0765 -4.145898,5.7063 -6.708204,-2.1796 0,-7.05343 6.708204,-2.17963 z"
       inkscape:transform-center-x="-0.47557652"
       transform="matrix(0.83005628,0,0,0.65192421,-44.213639,378.10241)" />
    <path
       transform="matrix(0.83005628,0,0,0.65192421,31.857795,379.53098)"
       inkscape:transform-center-x="-0.47557652"
       d="m 75.14286,1000.0765 -4.145898,5.7063 -6.708204,-2.1796 0,-7.05343 6.708204,-2.17963 z"
       inkscape:randomized="0"
       inkscape:rounded="0"
       inkscape:flatsided="true"
       sodipodi:arg2="0.62831853"
       sodipodi:arg1="0"
       sodipodi:r2="4.8541021"
       sodipodi:r1="6"
       sodipodi:cy="1000.0765"
       sodipodi:cx="69.14286"
       sodipodi:sides="5"
       id="path5109"
       style="fill:#ff7f2a;fill-opacity:1;stroke:#000000;stroke-width:1;stroke-miterlimit:4;stroke-dasharray:none;stroke-opacity:1"
       sodipodi:type="star" />
    <path
       sodipodi:type="star"
       style="fill:#ff7f2a;fill-opacity:1;stroke:#000000;stroke-width:1;stroke-miterlimit:4;stroke-dasharray:none;stroke-opacity:1"
       id="path5111"
       sodipodi:sides="5"
       sodipodi:cx="69.14286"
       sodipodi:cy="1000.0765"
       sodipodi:r1="6"
       sodipodi:r2="4.8541021"
       sodipodi:arg1="0"
       sodipodi:arg2="0.62831853"
       inkscape:flatsided="true"
       inkscape:rounded="0"
       inkscape:randomized="0"
       d="m 75.14286,1000.0765 -4.145898,5.7063 -6.708204,-2.1796 0,-7.05343 6.708204,-2.17963 z"
       inkscape:transform-center-x="-27.618434"
       transform="matrix(0.83005628,0,0,0.65192421,-19.927923,330.60241)"
       inkscape:transform-center-y="-11.071429" />
  </g>
</svg>
